<svg width="100" height="100" viewBox="0 0 18 38" fill="none" xmlns="http://www.w3.org/2000/svg" preserveAspectRatio="xMidYMid meet">
    <path d="M0 10.062V6.982l2.672 0.006v3.072z" fill="white"/>
    <path d="M7.234 5.76H3.93v3.76h3.304z" fill="white"/>
    <path d="M5.118 11.048H1.886v3.72H5.119z" fill="white"/>
    <path d="M6.132 22.368c0.98 0.008 2.332 -0.1 3.93 -0.36a15.99 15.99 0 0 0 5.188 -1.81c1.034 -0.56 5.58 -3.378 4.56 -7.42 -0.476 -1.888 -1.556 -3.6 -2.2 -4.16 -1.85 -1.61 -3.772 -2.18 -5.66 -2.172 -1.486 0.008 -2.744 0.09 -3.618 0v2.714c1.114 -0.206 3.814 0.348 5.19 1.99 0.412 0.494 2.5 2.536 2.044 5.428 -0.34 2.146 -1.85 3.346 -2.2 3.62 -1.384 1.076 -2.834 1.08 -4.09 1.084a9.397 9.397 0 0 1 -3.144 -0.542v-5.035l-4.792 -0.11V33.662l4.636 -2.248z" fill="white"/>
</svg>