<svg width="54" height="17" viewBox="0 0 54 17" fill="none" xmlns="http://www.w3.org/2000/svg">
<path d="M0 5.03124V3.49194L1.33612 3.49353V5.03124H0Z" fill="white"/>
<path d="M3.61659 2.88062H1.96503V4.75917H3.61659V2.88062Z" fill="white"/>
<path d="M2.55889 5.52417H0.943146V7.38423H2.55889V5.52417Z" fill="white"/>
<path d="M3.06583 11.1839C3.55574 11.1881 4.23161 11.1332 5.03099 11.0032C6.19264 10.814 7.05538 10.4077 7.62518 10.0985C8.14173 9.81847 10.4145 8.41022 9.90486 6.38952C9.66656 5.44523 9.1266 4.58918 8.80428 4.30859C7.88047 3.50432 6.91855 3.21845 5.97454 3.2232C5.2321 3.2269 4.6026 3.26759 4.16641 3.2232V4.5802C4.72336 4.47663 6.0728 4.75405 6.7606 5.57522C6.96722 5.82199 8.01133 6.84344 7.78267 8.28921C7.61279 9.36244 6.85794 9.96167 6.68209 10.0985C5.99061 10.637 5.26607 10.6391 4.63842 10.6412C3.9676 10.6433 3.42259 10.4964 3.06629 10.3696V7.85273L0.66861 7.7983V16.8307L2.98731 15.7072L3.06583 11.1839Z" fill="white"/>
<path d="M11.4929 0C11.5585 0 11.6857 0.0977582 11.8744 0.292747L12.4681 0.894623C12.8166 1.25237 12.9911 1.45317 12.9911 1.4965C12.9911 1.55093 12.897 1.6973 12.7082 1.93562C12.3974 2.32613 12.0484 2.72192 11.6623 3.12299C11.5585 3.05799 11.4736 2.993 11.4079 2.92747L10.5599 2.00009C10.4938 1.92452 10.3712 1.78872 10.1926 1.59373C10.2017 1.57206 10.3147 1.42569 10.5319 1.15461L11.2527 0.259985C11.3937 0.0866616 11.4736 0 11.4929 0ZM14.3621 3.78986H10.221V13.4357L12.4686 14.5581L12.4543 5.67687C12.4447 5.6013 12.4401 5.52521 12.4401 5.44912C12.4401 4.97195 12.6899 4.58144 13.189 4.27813C13.3304 4.19146 13.7211 4.02871 14.3621 3.78986Z" fill="white"/>
<path d="M23.7398 13.0284C23.7774 13.05 24.0557 13.1747 24.5741 13.403H19.4293C20.202 12.9803 20.5882 12.6342 20.5882 12.3631C20.5882 12.1575 20.3159 11.6375 19.7704 10.8037C19.4229 10.3054 19.0794 9.80708 18.7415 9.30931L18.6657 9.40178L18.6372 9.36902C17.9398 10.1934 17.5628 10.6489 17.5064 10.7355C17.0068 11.3971 16.7575 11.9065 16.7575 12.2648C16.7575 12.8397 17.1863 13.2244 18.0436 13.4199C17.9021 13.4094 17.1625 13.4146 15.8245 13.4363L13.6197 13.4691C13.9948 13.393 14.6087 12.8471 15.4613 11.832C15.8493 11.357 16.5541 10.5088 17.5762 9.28764L18.151 8.58325C16.6735 6.24339 15.7322 4.814 15.3277 4.29403C15.0545 3.93682 14.7111 3.64407 14.2969 3.41632C14.1178 3.31909 13.8456 3.19438 13.4782 3.04272H18.623C17.8503 3.46599 17.4641 3.80788 17.4641 4.06839C17.4641 4.29667 17.7378 4.81717 18.2851 5.63147C18.6248 6.13083 18.9692 6.6302 19.3186 7.12956L19.388 7.02916L19.5537 6.91238C19.9399 6.44578 20.3072 5.99609 20.6557 5.56225C21.0818 5.03171 21.2943 4.57093 21.2943 4.18095C21.2943 3.59598 20.8655 3.21129 20.0083 3.0274C20.9881 3.0274 21.7232 3.02211 22.2131 3.01102L24.4322 2.9624C24.0552 3.0274 23.4381 3.57379 22.5804 4.60157C22.1924 5.07769 21.4876 5.92686 20.466 7.14964L19.8912 7.85403C21.3338 10.1331 22.2769 11.5657 22.7205 12.1517C23.0134 12.5401 23.3527 12.8334 23.7398 13.0284Z" fill="white"/>
<path d="M31.1546 3.33521C30.74 3.95347 30.3442 4.7181 29.9672 5.6291C29.7881 5.08694 29.5195 4.64782 29.1614 4.31174C28.7656 3.93233 28.3322 3.74263 27.8611 3.74263C26.749 3.74263 25.8445 4.63197 25.1475 6.41012C25.4111 6.84395 26.0805 7.15837 27.1545 7.35335C27.9272 7.49444 28.6811 7.55944 29.4158 7.54887C29.1141 7.58111 28.4029 7.73858 27.2816 8.02076C26.424 8.23794 25.7031 8.34626 25.119 8.34626C24.968 8.34626 24.8174 8.34098 24.6668 8.32988C24.676 9.48555 25.1094 10.4415 25.9671 11.1971C26.7679 11.8994 27.6866 12.2503 28.7234 12.2503C29.5526 12.2503 30.2546 11.9956 30.8295 11.4856C29.4727 12.776 28.0594 13.4213 26.5892 13.4213C25.1948 13.4213 23.9978 12.7977 22.9992 11.5506C22.6598 10.5096 22.4904 9.53364 22.4904 8.62263C22.4904 6.76839 23.169 5.33689 24.5258 4.32812C25.6847 3.46098 27.1168 3.02661 28.8226 3.02661C29.6141 3.02608 30.3915 3.12966 31.1546 3.33521Z" fill="white"/>
<path d="M34.13 2.99292L33.5083 14.5755L38.1723 15.2577C38.4643 15.301 38.766 15.3227 39.0769 15.3227C40.4901 15.3227 41.475 15.1541 42.031 14.8185L41.3951 15.3068C40.5659 16.0984 39.6471 16.4942 38.6388 16.4942C38.3468 16.4942 37.8849 16.4672 37.2536 16.4128L31.5716 15.9245L32.1653 4.7494C32.1937 4.59775 32.2075 4.46775 32.2075 4.3589C32.2075 4.00115 32.0661 3.73007 31.7837 3.54565C31.7272 3.51289 31.3595 3.33428 30.6813 3.00877L34.13 2.99292Z" fill="white"/>
<path d="M39.9115 2.84717C41.5511 2.84717 42.6723 3.75659 43.2752 5.57595C43.5296 6.34481 43.6567 7.04867 43.6567 7.68701C43.6567 9.09473 42.9547 10.4375 41.5506 11.7152C40.2127 12.9385 38.9169 13.5504 37.6639 13.5504C36.5707 13.5504 35.718 13.069 35.1055 12.1052C34.5495 11.2496 34.2717 10.1722 34.2717 8.87279C34.2717 7.43284 34.6909 6.22539 35.5298 5.25097C36.1703 4.50378 37.1552 3.8052 38.484 3.15577C38.8986 2.95021 39.3743 2.84717 39.9115 2.84717ZM39.6713 11.8584C40.3215 11.8584 40.816 11.5715 41.1553 10.9981C41.4473 10.5114 41.5933 9.87839 41.5933 9.09896C41.5933 7.98451 41.3197 6.92925 40.7733 5.9337C40.1516 4.79758 39.3788 4.22953 38.4555 4.22953C37.7581 4.22953 37.2259 4.73259 36.8586 5.73871C36.5757 6.50704 36.4343 7.35674 36.4343 8.2873C36.4343 9.5106 36.8113 10.4406 37.5652 11.0795C38.1777 11.5989 38.8798 11.8584 39.6713 11.8584Z" fill="white"/>
<path d="M51.5157 12.459C50.5074 13.0445 49.5088 13.3373 48.5193 13.3373C47.2566 13.3373 46.168 12.9034 45.2543 12.0358C44.274 11.1031 43.7845 9.92681 43.7845 8.50587C43.7845 8.02871 43.8553 7.49764 43.9967 6.91162C44.6275 4.28746 46.3994 2.97485 49.3109 2.97485C50.6112 2.97485 51.9964 3.11594 53.4662 3.39759C52.929 4.64468 52.5001 5.56678 52.1801 6.16284C51.8031 4.47082 50.5125 3.64173 48.3072 3.67396C47.5441 3.68506 46.9504 4.19446 46.5261 5.20322C46.196 5.9948 46.0316 6.88414 46.0316 7.87071C46.0316 8.35844 46.0881 8.77643 46.2015 9.12307C46.3048 9.41582 46.4935 9.77938 46.7667 10.2127C47.6336 11.5686 48.7879 12.2461 50.2296 12.2461C50.6722 12.2461 51.1387 12.1864 51.6287 12.0669L51.8265 8.7648C51.7508 8.7648 51.6052 8.75952 51.3885 8.74842C51.2095 8.72676 51.068 8.72147 50.9643 8.73204L49.4661 8.81342C50.4744 8.13016 51.2893 7.7888 51.911 7.7888H53.5364L53.1126 12.8316C53.0653 13.3632 52.9478 13.7859 52.7591 14.1003C52.3445 14.6314 52.1089 14.9299 52.0524 14.9949L51.9817 15.0763C51.6048 15.5424 51.355 15.8626 51.2329 16.0359C51.1291 16.1443 51.0584 16.1987 51.0207 16.1987C51.1433 15.6132 51.2609 15.1144 51.3743 14.7022C51.4684 14.0517 51.5157 13.4768 51.5157 12.9779V12.459Z" fill="white"/>
</svg>
