<svg width="358" height="373" viewBox="0 0 358 373" fill="none" xmlns="http://www.w3.org/2000/svg">
<path d="M0.5 289.211V370.711L234.5 137.711L357 260.211V177.211L234.5 55.2109L0.5 289.211Z" fill="black"/>
<path d="M232.5 162.711L189.5 205.711L357 371.211V286.211L232.5 162.711Z" fill="black"/>
<path d="M0.5 179.711V263.211L221.5 43.7109L179.5 0.710938L0.5 179.711Z" fill="black"/>
<path d="M0.5 289.211V370.711L234.5 137.711L357 260.211V177.211L234.5 55.2109L0.5 289.211Z" stroke="black"/>
<path d="M232.5 162.711L189.5 205.711L357 371.211V286.211L232.5 162.711Z" stroke="black"/>
<path d="M0.5 179.711V263.211L221.5 43.7109L179.5 0.710938L0.5 179.711Z" stroke="black"/>
</svg>
