<svg width="108" height="34" viewBox="0 0 108 34" fill="none" xmlns="http://www.w3.org/2000/svg">
  <path d="M0 10.062V6.982l2.672 0.006v3.072z" fill="white"/>
  <path d="M7.234 5.76H3.93v3.76h3.304z" fill="white"/>
  <path d="M5.118 11.048H1.886v3.72H5.119z" fill="white"/>
  <path d="M6.132 22.368c0.98 0.008 2.332 -0.1 3.93 -0.36a15.99 15.99 0 0 0 5.188 -1.81c1.034 -0.56 5.58 -3.378 4.56 -7.42 -0.476 -1.888 -1.556 -3.6 -2.2 -4.16 -1.85 -1.61 -3.772 -2.18 -5.66 -2.172 -1.486 0.008 -2.744 0.09 -3.618 0v2.714c1.114 -0.206 3.814 0.348 5.19 1.99 0.412 0.494 2.5 2.536 2.044 5.428 -0.34 2.146 -1.85 3.346 -2.2 3.62 -1.384 1.076 -2.834 1.08 -4.09 1.084a9.397 9.397 0 0 1 -3.144 -0.542v-5.035l-4.792 -0.11V33.662l4.636 -2.248z" fill="white"/>
  <path d="M22.986 0q0.198 0 0.762 0.586l1.188 1.204q1.046 1.072 1.046 1.202 0 0.164 -0.566 0.88 -0.932 1.17 -2.092 2.374a3.016 3.016 0 0 1 -0.508 -0.392l-1.696 -1.854a56.104 56.104 0 0 0 -0.734 -0.812q0.028 -0.064 0.678 -0.88l1.44 -1.788Q22.93 0 22.984 0m5.74 7.58H20.44v19.292l4.496 2.244 -0.03 -17.762a4.208 4.208 0 0 1 -0.028 -0.456q0 -1.432 1.498 -2.34 0.422 -0.262 2.346 -0.98" fill="white"/>
  <path d="M47.48 26.056q0.112 0.066 1.668 0.75h-10.288q2.32 -1.268 2.32 -2.08 0 -0.616 -1.638 -3.12 -1.04 -1.494 -2.058 -2.988l-0.15 0.186 -0.058 -0.066q-2.092 2.472 -2.26 2.734 -1.5 1.982 -1.5 3.058 0 1.724 2.574 2.31 -0.424 -0.03 -4.44 0.032l-4.408 0.066q1.126 -0.228 3.682 -3.274a650.104 650.104 0 0 1 4.23 -5.088l1.15 -1.41q-4.432 -7.02 -5.646 -8.578a6.522 6.522 0 0 0 -2.062 -1.756 18.234 18.234 0 0 0 -1.638 -0.746h10.29q-2.32 1.27 -2.318 2.05 0 0.686 1.642 3.126 1.02 1.5 2.068 2.998l0.138 -0.2 0.332 -0.236q1.158 -1.398 2.204 -2.7 1.278 -1.59 1.276 -2.762 0 -1.756 -2.572 -2.308 2.94 0 4.41 -0.032l4.44 -0.098q-1.134 0.196 -3.706 3.28 -1.16 1.428 -4.228 5.096l-1.15 1.408q4.328 6.84 5.66 8.596 0.876 1.166 2.038 1.752" fill="white"/>
  <path d="M62.31 6.67q-1.244 1.854 -2.376 4.588 -0.536 -1.626 -1.612 -2.634 -1.186 -1.14 -2.6 -1.14 -3.338 0 -5.426 5.336 0.792 1.3 4.012 1.886 2.32 0.422 4.524 0.392 -0.906 0.096 -4.268 0.944 -2.574 0.65 -4.326 0.65 -0.454 0 -0.904 -0.032 0.026 3.466 2.6 5.734 2.403 2.107 5.513 2.107 2.49 0 4.214 -1.528 -4.07 3.87 -8.48 3.87 -4.186 0 -7.18 -3.74 -1.02 -3.122 -1.02 -5.856 0.002 -5.564 4.072 -8.59 3.474 -2.6 8.594 -2.602 2.374 0 4.664 0.616" fill="white"/>
  <path d="M68.26 5.986 67.016 29.152l9.328 1.364q0.876 0.13 1.81 0.13 4.24 0 5.908 -1.01l-1.272 0.978q-2.488 2.374 -5.512 2.374 -0.876 0 -2.77 -0.162l-11.364 -0.978 1.186 -22.35q0.086 -0.452 0.086 -0.78 0 -1.074 -0.848 -1.626a91.87 91.87 0 0 0 -2.206 -1.074z" fill="white"/>
  <path d="M79.824 5.694q4.92 0 6.726 5.458 0.764 2.308 0.764 4.222 0 4.224 -4.212 8.056 -4.014 3.67 -7.774 3.67 -3.28 0 -5.118 -2.89 -1.666 -2.566 -1.666 -6.464 0 -4.32 2.516 -7.244 1.92 -2.242 5.908 -4.19 1.244 -0.618 2.854 -0.618m-0.48 18.022q1.95 0 2.966 -1.72 0.876 -1.46 0.876 -3.798 0 -3.344 -1.64 -6.33 -1.864 -3.408 -4.636 -3.408 -2.092 0 -3.192 3.018 -0.85 2.306 -0.85 5.096 0 3.672 2.262 5.584 1.84 1.56 4.212 1.56" fill="white"/>
  <path d="M103.032 24.918q-3.026 1.756 -5.994 1.756 -3.786 0 -6.53 -2.602 -2.94 -2.8 -2.94 -7.06 0 -1.43 0.426 -3.188 1.892 -7.874 10.628 -7.874 3.9 0 8.31 0.846 -1.612 3.74 -2.572 5.53 -1.13 -5.074 -7.746 -4.978 -2.29 0.032 -3.56 3.06 -0.992 2.372 -0.99 5.334 0 1.462 0.34 2.504 0.308 0.88 1.13 2.18 2.6 4.068 6.926 4.066 1.326 0 2.798 -0.36l0.396 -6.602q-0.228 0 -0.876 -0.034a3.997 3.997 0 0 0 -0.85 -0.032l-2.996 0.162q3.024 -2.048 4.89 -2.048h3.25l-0.846 10.086q-0.142 1.594 -0.708 2.536 -1.244 1.594 -1.414 1.79l-0.14 0.162q-1.13 1.4 -1.5 1.92 -0.31 0.326 -0.422 0.326 0.366 -1.758 0.706 -2.994 0.284 -1.95 0.284 -3.448z" fill="white"/>
</svg>
