<svg width="100" height="100" viewBox="0 0 100 100" fill="none" xmlns="http://www.w3.org/2000/svg">
<rect width="100" height="100" rx="50" fill="#D9D9D9"/>
<path d="M25 25.7761V18.0632L31.6948 18.0712V25.7761H25Z" fill="black"/>
<path d="M43.1216 15H34.8463V24.4127H43.1216V15Z" fill="black"/>
<path d="M37.8215 28.2458H29.7256V37.5659H37.8215V28.2458Z" fill="black"/>
<path d="M40.3615 56.6047C42.8163 56.6258 46.2028 56.3505 50.2082 55.6991C56.0287 54.7512 60.3516 52.7151 63.2067 51.1662C65.7949 49.7629 77.1829 42.7067 74.6292 32.5818C73.4352 27.8503 70.7297 23.561 69.1146 22.155C64.4858 18.1252 59.666 16.6928 54.9359 16.7166C51.2158 16.7351 48.0617 16.939 45.8761 16.7166V23.516C48.6667 22.997 55.4283 24.3871 58.8746 28.5016C59.9099 29.7381 65.1415 34.8562 63.9958 42.1004C63.1445 47.4779 59.3623 50.4805 58.4812 51.1662C55.0165 53.8642 51.3861 53.8748 48.2411 53.8854C44.8799 53.896 42.1491 53.16 40.3638 52.5245V39.9134L28.35 39.6406V84.8983L39.9681 79.2692L40.3615 56.6047Z" fill="black"/>
</svg>
