<svg width="225" height="150" viewBox="0 0 225 150" fill="none" xmlns="http://www.w3.org/2000/svg">
<path d="M16.746 117.789L40.686 117.717L64.623 117.69L112.5 117.642L160.377 117.69L184.314 117.717L208.254 117.789L184.314 117.864L160.377 117.891L112.5 117.939L64.623 117.891L40.686 117.864L16.746 117.789Z" fill="#263238"/>
<path d="M109.902 117.783H146.7L139.365 75.1021H111.846L109.902 117.783Z" fill="#DBDBDB"/>
<path d="M109.902 117.783H113.13L114.939 75.1021H111.846L109.902 117.783Z" fill="#A6A6A6"/>
<path d="M141.876 83.4691C146.04 92.7691 156.102 108.204 160.605 104.379C167.34 98.6611 171.9 86.0131 173.7 80.8981C174.711 78.0331 160.116 73.2391 159.222 75.8401C157.95 79.5361 155.955 87.2611 154.8 88.3561C154.2 88.9291 149.418 82.2181 145.8 79.0351C140.577 74.4481 140.547 80.4991 141.876 83.4691Z" fill="#EB9481"/>
<path d="M177.345 76.5934C176.046 79.5154 171.045 84.4564 169.383 85.1854C167.721 85.9144 158.943 77.9854 159.126 76.1194C159.309 74.2534 164.547 64.4794 167.448 62.9794C170.349 61.4794 178.692 73.5634 177.345 76.5934Z" fill="#EB9481"/>
<path d="M159.813 74.0673C159.813 74.0673 160.023 69.9093 158.973 66.3933C158.091 63.4383 156.45 59.1513 158.019 58.6173C161.247 57.5223 165.339 68.2173 165.339 68.2173C165.339 68.2173 166.389 73.2273 163.29 74.5953C161.346 75.4533 159.813 74.0673 159.813 74.0673Z" fill="#EB9481"/>
<path d="M163.452 66.1801C163.662 67.8631 165.525 66.6511 165.525 66.6511C165.525 66.6511 163.266 69.0511 164.154 70.6921C165.018 72.2791 167.214 70.7341 167.373 70.6261C167.253 70.7551 165.237 73.0051 166.302 74.5711C167.409 76.1971 169.347 74.2711 169.473 74.1451C169.398 74.2981 168.456 76.3711 169.536 77.3791C171.39 79.1041 173.946 73.8721 175.914 73.2871C175.914 73.2871 177.288 76.5061 177.345 76.5871C177.345 76.5871 179.88 71.6551 178.944 69.0451C178.813 68.6638 178.556 68.3386 178.215 68.1232C177.874 67.9077 177.47 67.8149 177.069 67.8601C177.069 67.8601 178.062 66.3601 177.264 65.1001C176.85 64.4551 175.464 64.5391 175.464 64.5391C175.464 64.5391 176.208 63.3061 175.428 62.2321C174.807 61.3711 173.502 61.5901 173.502 61.5901C173.502 61.5901 173.667 60.0721 172.749 59.4001C170.883 58.0441 162.999 62.5771 163.452 66.1801Z" fill="#EB9481"/>
<path d="M173.277 61.5991C173.304 61.5841 173.277 61.5451 173.262 61.5541C170.304 62.4121 167.319 64.2541 165.417 66.7051C165.354 66.7861 165.456 66.9211 165.543 66.8461C168 64.7011 170.325 63.0001 173.277 61.5991Z" fill="#263238"/>
<path d="M175.482 64.5005C175.515 64.4855 175.482 64.4315 175.455 64.4405C172.41 65.3405 169.107 67.5185 167.244 70.5935C167.181 70.6985 167.229 70.8575 167.313 70.7435C168.705 68.7995 172.818 65.7515 175.482 64.5005Z" fill="#263238"/>
<path d="M169.416 74.4002C171.315 71.5202 173.946 69.5372 176.943 67.8902C176.979 67.8692 176.943 67.8182 176.91 67.8272C175.224 68.2322 173.424 69.4802 172.11 70.5722C170.866 71.5601 169.904 72.8574 169.32 74.3342C169.293 74.4002 169.377 74.4662 169.416 74.4002Z" fill="#263238"/>
<path d="M165.465 66.6484C165.39 66.7444 165.615 66.7474 165.543 66.8464C165.243 67.2604 163.638 69.9154 164.373 70.7464C164.973 71.4094 166.26 71.0734 166.71 70.7464L167.835 69.9334L167.061 71.1004C166.713 71.6117 166.449 72.176 166.281 72.7714C166.188 73.0426 166.153 73.3304 166.18 73.6159C166.206 73.9013 166.293 74.178 166.434 74.4274C166.566 74.6586 166.775 74.8371 167.023 74.9327C167.272 75.0283 167.546 75.0353 167.799 74.9524C168.363 74.7583 168.868 74.4226 169.266 73.9774L170.406 72.7774L169.722 74.2774C169.531 74.6924 169.393 75.1299 169.311 75.5794C169.219 76.002 169.254 76.4422 169.41 76.8454C169.487 77.023 169.612 77.1755 169.771 77.2862C169.93 77.3969 170.117 77.4614 170.31 77.4724C170.748 77.428 171.164 77.2594 171.51 76.9864C172.267 76.4077 172.979 75.7707 173.637 75.0814C173.982 74.7454 174.327 74.4064 174.69 74.0824C175.031 73.7413 175.44 73.4755 175.89 73.3024C175.462 73.5192 175.081 73.8179 174.768 74.1814C174.435 74.5264 174.117 74.8864 173.799 75.2494C173.174 75.9988 172.481 76.6888 171.729 77.3104C171.326 77.6526 170.832 77.8705 170.307 77.9374C170.018 77.9402 169.734 77.8592 169.49 77.7044C169.245 77.5495 169.051 77.3272 168.93 77.0644C168.72 76.5695 168.663 76.0232 168.765 75.4954C168.846 74.9935 168.992 74.5043 169.2 74.0404L169.656 74.3404C169.194 74.8739 168.6 75.2773 167.934 75.5104C167.561 75.6298 167.157 75.615 166.794 75.4684C166.443 75.3145 166.146 75.0584 165.942 74.7334C165.763 74.4169 165.654 74.066 165.621 73.704C165.588 73.342 165.632 72.9772 165.75 72.6334C165.942 71.9814 166.241 71.3659 166.635 70.8124L166.986 71.1544C166.386 71.5444 164.994 72.0784 163.947 71.1694C162.789 69.7624 165.024 67.1044 165.465 66.6484Z" fill="#263238"/>
<path d="M165.525 66.6514C165.201 66.7808 164.859 66.8607 164.511 66.8884C164.371 66.9028 164.23 66.8796 164.103 66.821C163.975 66.7624 163.865 66.6707 163.785 66.5554C163.644 66.2778 163.586 65.9651 163.62 65.6554C163.638 65.3134 163.674 64.9564 163.728 64.5874C163.5 64.8889 163.338 65.2356 163.254 65.6044C163.196 65.8034 163.179 66.0119 163.202 66.2179C163.225 66.4238 163.289 66.6232 163.389 66.8044C163.52 66.9927 163.705 67.137 163.92 67.2184C164.127 67.2859 164.348 67.2942 164.559 67.2424C164.935 67.1521 165.273 66.9453 165.525 66.6514Z" fill="#263238"/>
<path d="M158.334 76.1191L173.526 86.7001C173.526 86.7001 164.451 105.501 158.844 105.45C153.237 105.399 145.137 91.3171 142.344 85.2301C139.551 79.1431 141.216 73.9861 146.868 79.5301C152.52 85.0741 154.545 87.3601 154.728 87.2851C155.07 87.1471 158.334 76.1191 158.334 76.1191Z" fill="#009900"/>
<path d="M173.526 86.7001C173.526 86.7001 167.226 99.7381 161.889 104.07C160.818 104.94 159.789 105.459 158.844 105.447C153.237 105.399 145.137 91.3141 142.329 85.2301C140.592 81.4621 140.577 78.0511 142.155 77.3161C143.13 76.8631 144.705 77.4211 146.856 79.5391C152.556 85.1221 154.53 87.3661 154.716 87.2911C155.07 87.1471 158.337 76.1221 158.337 76.1221L173.526 86.7001Z" fill="#009900"/>
<path d="M164.124 101.85C163.938 102.066 163.749 102.276 163.56 102.48C161.85 103.557 159.932 104.259 157.932 104.541C157.38 104.602 156.825 104.624 156.27 104.607L155.925 104.391C156.587 104.431 157.252 104.414 157.911 104.34C158.7 104.254 159.477 104.075 160.224 103.806L160.791 103.62L161.34 103.389C161.523 103.311 161.712 103.245 161.889 103.155L162.42 102.885C163.011 102.579 163.58 102.233 164.124 101.85ZM152.598 85.2874C150.864 86.0759 149.283 87.1635 147.927 88.5004C147.047 89.3671 146.234 90.2987 145.494 91.2874C145.53 91.3534 145.569 91.4224 145.611 91.4884C146.36 90.4831 147.185 89.5373 148.08 88.6594C149.217 87.5427 150.511 86.5996 151.923 85.8604L152.454 85.5904C152.552 85.5409 152.652 85.4968 152.754 85.4583L152.598 85.2874ZM165.72 86.2444C164.279 85.5392 162.772 84.9794 161.22 84.5734C161.058 84.5344 160.896 84.4954 160.731 84.4624C160.626 84.4384 160.518 84.4144 160.413 84.3964C159.102 84.1216 157.756 84.0527 156.423 84.1924C156.228 84.2194 156.036 84.2494 155.841 84.2854C155.82 84.3544 155.796 84.4264 155.775 84.4924C155.997 84.4534 156.222 84.4204 156.447 84.3934C157.684 84.2627 158.933 84.3143 160.155 84.5464L160.482 84.6064C160.713 84.6544 160.944 84.7054 161.175 84.7624C162.714 85.1589 164.209 85.7076 165.639 86.4004C167.781 87.4511 169.859 88.6282 171.861 89.9254C171.891 89.8744 171.918 89.8234 171.942 89.7754C169.94 88.4756 167.862 87.2966 165.72 86.2444ZM167.295 82.3624C164.863 82.4628 162.493 83.1614 160.395 84.3964L160.137 84.5464C159.607 84.8638 159.095 85.2104 158.604 85.5844C156.033 87.5404 153.981 90.0543 152.028 92.5833C151.05 93.8523 150.09 95.1304 149.076 96.3664C149.004 96.4564 148.929 96.5433 148.854 96.6333L148.968 96.7984C149.055 96.6964 149.142 96.5944 149.226 96.4984C150.246 95.2594 151.209 93.9813 152.19 92.7153C154.143 90.1953 156.192 87.6994 158.736 85.7704C159.287 85.3498 159.865 84.964 160.464 84.6153C160.545 84.5644 160.629 84.5164 160.713 84.4714C161.412 84.0792 162.14 83.7422 162.891 83.4634L163.452 83.2594C163.638 83.1934 163.833 83.1484 164.025 83.0914L164.598 82.9324L165.198 82.8154C165.973 82.6407 166.765 82.5581 167.559 82.5694H167.595L167.295 82.3624ZM148.65 81.3154C147.602 81.7812 146.507 82.1322 145.383 82.3624L144.798 82.4764C144.603 82.5124 144.405 82.5244 144.198 82.5514L143.598 82.6204L142.998 82.6444C142.45 82.6824 141.9 82.6723 141.354 82.6144L141.408 82.8124C143.944 82.9974 146.485 82.5393 148.797 81.4804C148.764 81.4234 148.707 81.3694 148.65 81.3154ZM144.324 77.5894C143.262 78.311 142.16 78.9731 141.024 79.5724C141.024 79.6534 141.024 79.7344 141.024 79.8184C142.236 79.1845 143.408 78.4771 144.534 77.7004C144.462 77.6614 144.393 77.6224 144.324 77.5894Z" fill="white"/>
<path d="M169.935 88.4644C169.533 88.1314 169.128 87.8074 168.72 87.4834C167.892 86.8294 167.064 86.1784 166.236 85.5304C164.586 84.2434 162.9 83.0014 161.202 81.7804C160.239 81.0844 159.291 80.3524 158.298 79.7014C158.293 79.6978 158.288 79.6953 158.282 79.6938C158.276 79.6923 158.27 79.692 158.265 79.6928C158.259 79.6937 158.253 79.6956 158.248 79.6987C158.243 79.7017 158.239 79.7057 158.235 79.7104C158.231 79.7151 158.229 79.7205 158.227 79.7262C158.226 79.7319 158.226 79.7379 158.226 79.7437C158.227 79.7496 158.229 79.7552 158.232 79.7603C158.235 79.7654 158.239 79.7698 158.244 79.7734C159.033 80.4694 159.879 81.1054 160.698 81.7684C161.517 82.4314 162.33 83.0974 163.161 83.7454C164.813 85.0294 166.485 86.2884 168.177 87.5224C168.648 87.8704 169.113 88.2364 169.602 88.5634C169.851 88.7314 170.088 88.9174 170.34 89.0794C170.592 89.2414 170.862 89.3794 171.108 89.5624C171.114 89.5656 171.12 89.5667 171.127 89.5654C171.133 89.5642 171.139 89.5607 171.143 89.5556C171.147 89.5505 171.149 89.5442 171.148 89.5377C171.148 89.5312 171.145 89.5251 171.141 89.5204C170.73 89.1754 170.346 88.8004 169.935 88.4644Z" fill="#263238"/>
<path d="M154.845 86.9491C154.265 88.5164 153.788 90.1198 153.417 91.7491C153.219 92.5531 153.063 93.3662 152.91 94.1762C152.748 94.9811 152.64 95.7959 152.586 96.6151C152.586 96.6451 152.631 96.6451 152.637 96.6151C152.889 95.8321 153.075 95.0161 153.255 94.2151C153.435 93.4141 153.639 92.6071 153.819 91.8151C154.182 90.2011 154.608 88.6021 154.923 86.9791C154.925 86.974 154.926 86.9686 154.926 86.9631C154.926 86.9576 154.924 86.9522 154.922 86.9472C154.92 86.9422 154.917 86.9376 154.913 86.9339C154.909 86.9301 154.904 86.9271 154.899 86.9252C154.894 86.9232 154.888 86.9222 154.883 86.9224C154.877 86.9225 154.872 86.9237 154.867 86.926C154.862 86.9282 154.857 86.9314 154.854 86.9354C154.85 86.9393 154.847 86.944 154.845 86.9491Z" fill="#263238"/>
<path opacity="0.1" d="M161.889 104.07C160.818 104.94 159.789 105.459 158.844 105.447C153.237 105.399 145.137 91.3144 142.329 85.2304C140.592 81.4624 140.577 78.0514 142.155 77.3164L161.889 104.07Z" fill="black"/>
<path d="M153.192 117.783H116.721C116.319 117.045 122.295 85.1013 134.595 76.1043C137.325 74.1093 142.167 75.3933 143.511 77.3343C150.279 87.0873 153.192 117.783 153.192 117.783Z" fill="#009900"/>
<path d="M151.296 103.602C150.386 103.28 149.493 102.908 148.623 102.489C147.402 101.904 146.223 101.256 145.05 100.572L144.879 100.47C143.679 99.7592 142.479 99.0062 141.303 98.2472L141.135 98.1392L140.337 97.6232C137.637 95.8922 134.979 94.1102 132.096 92.7242C130.671 92.0116 129.158 91.4911 127.596 91.1762C126.812 91.0365 126.014 90.9921 125.22 91.0442C125.022 91.0442 124.827 91.0862 124.62 91.1132C124.485 91.1402 124.35 91.1582 124.212 91.1852C124.233 91.1372 124.251 91.0922 124.275 91.0442C124.383 91.0232 124.494 91.0052 124.602 90.9812C124.8 90.9572 125.001 90.9272 125.202 90.9122C126.004 90.8583 126.81 90.9017 127.602 91.0412C129.18 91.3534 130.71 91.8751 132.15 92.5922C135.048 93.9782 137.724 95.7602 140.418 97.4852L141.21 97.9922L141.381 98.1002C142.581 98.8712 143.781 99.6362 145.026 100.359L145.197 100.461C146.337 101.124 147.498 101.754 148.692 102.321C149.526 102.72 150.38 103.076 151.251 103.386L151.296 103.602ZM148.05 88.3712L147.927 88.4882C145.614 90.7412 143.886 93.4892 142.257 96.2372C141.913 96.8232 141.567 97.4082 141.219 97.9922C141.192 98.0432 141.165 98.0912 141.135 98.1392C140.694 98.8832 140.25 99.6242 139.788 100.353C139.383 100.995 138.96 101.628 138.51 102.24C138.468 102.297 138.429 102.354 138.387 102.408C137.932 103.023 137.441 103.611 136.917 104.169C136.371 104.749 135.768 105.271 135.117 105.729L134.874 105.9C134.793 105.957 134.703 106.002 134.619 106.053L134.106 106.353C133.752 106.532 133.388 106.687 133.014 106.818C131.501 107.321 129.917 107.577 128.322 107.577C126.733 107.571 125.15 107.391 123.6 107.04C122.1 106.722 120.645 106.296 119.178 105.87C119.178 105.918 119.154 105.966 119.139 106.011C120.603 106.44 122.073 106.872 123.567 107.193C125.135 107.551 126.738 107.736 128.346 107.745C129.959 107.746 131.561 107.489 133.092 106.983C133.474 106.852 133.847 106.694 134.208 106.512L134.733 106.212C134.822 106.165 134.908 106.113 134.991 106.056L135.24 105.882C135.901 105.42 136.513 104.891 137.067 104.304C137.626 103.706 138.148 103.076 138.633 102.417C138.678 102.36 138.717 102.306 138.756 102.249C139.182 101.667 139.584 101.07 139.956 100.464C140.421 99.7352 140.856 98.9942 141.306 98.2532L141.393 98.1062L142.434 96.3482C144.066 93.6032 145.794 90.8792 148.083 88.6532L148.122 88.6172C148.095 88.5302 148.071 88.4492 148.05 88.3712ZM149.781 95.4962C149.55 95.7962 149.316 96.0782 149.079 96.3662C148.086 97.6149 146.976 98.7661 145.764 99.8042C145.524 99.9932 145.284 100.182 145.035 100.359L144.879 100.47C144.532 100.715 144.168 100.936 143.79 101.13L143.529 101.271C143.442 101.319 143.346 101.352 143.256 101.394L142.71 101.628C142.338 101.763 141.957 101.872 141.57 101.955C140.64 102.154 139.692 102.255 138.741 102.255H138.51C137.946 102.255 137.382 102.21 136.821 102.15C135.238 101.951 133.681 101.578 132.18 101.037C130.68 100.518 129.201 99.8792 127.731 99.2372C126.268 98.5753 124.765 98.0052 123.231 97.5302C122.778 97.4012 122.331 97.2872 121.851 97.2032L121.806 97.3322C122.274 97.4192 122.739 97.5302 123.192 97.6622C124.717 98.1387 126.211 98.7098 127.665 99.3722C129.135 100.005 130.605 100.647 132.12 101.172C133.634 101.717 135.204 102.095 136.8 102.3C137.328 102.36 137.856 102.399 138.384 102.408C138.462 102.408 138.537 102.408 138.615 102.408C139.622 102.425 140.628 102.33 141.615 102.126C142.009 102.039 142.398 101.928 142.779 101.793L143.337 101.553C143.43 101.511 143.523 101.478 143.613 101.43L143.88 101.286C144.29 101.077 144.683 100.838 145.056 100.569L145.212 100.458C145.44 100.293 145.665 100.119 145.887 99.9422C147.111 98.8999 148.232 97.7426 149.235 96.4862C149.435 96.2402 149.635 95.9912 149.835 95.7392C149.817 95.6612 149.799 95.5772 149.781 95.4962ZM146.013 82.2212C145.803 82.2722 145.593 82.3202 145.383 82.3622L144.798 82.4762C144.603 82.5122 144.405 82.5242 144.198 82.5512L143.598 82.6202L142.998 82.6442C142.206 82.6955 141.41 82.6532 140.628 82.5182C139.401 82.3061 138.212 81.9128 137.1 81.3512L136.8 81.2042C136.59 81.0962 136.383 80.9822 136.179 80.8652C134.806 80.0589 133.517 79.1162 132.333 78.0512L132.201 78.1832C133.396 79.2595 134.696 80.2142 136.08 81.0332C136.224 81.1172 136.38 81.1982 136.518 81.2762L136.818 81.4262C138.004 82.0486 139.279 82.4847 140.598 82.7192C142.426 82.9758 144.287 82.8739 146.076 82.4192C146.064 82.3532 146.037 82.2872 146.013 82.2212ZM143.877 77.8862C142.284 78.9549 140.584 79.8548 138.804 80.5712C138.159 80.8227 137.498 81.0341 136.827 81.2042L136.545 81.2762C135.765 81.4576 134.973 81.5809 134.175 81.6452L133.575 81.6842C133.377 81.6992 133.179 81.6842 132.975 81.6842H132.375L131.775 81.6362C131.052 81.5944 130.336 81.4748 129.639 81.2792C129.597 81.3362 129.555 81.3932 129.516 81.4532C131.912 82.0549 134.421 82.0456 136.812 81.4262L137.112 81.3512C137.71 81.1928 138.299 81.0004 138.876 80.7752C140.665 80.0539 142.374 79.1491 143.976 78.0752L143.877 77.8862ZM152.85 114.645C152.55 114.645 152.226 114.672 151.914 114.681H151.89L151.707 114.696C150.17 114.857 148.675 115.302 147.3 116.007C146.316 116.521 145.376 117.115 144.489 117.783H144.678C145.524 117.157 146.419 116.599 147.354 116.115C148.741 115.407 150.25 114.966 151.8 114.816H151.911H151.983C152.283 114.816 152.565 114.783 152.853 114.786C152.859 114.732 152.856 114.69 152.85 114.645ZM153.006 116.025C152.68 115.611 152.343 115.204 151.995 114.804C151.962 114.762 151.926 114.723 151.89 114.684L151.767 114.54C150.719 113.319 149.513 112.241 148.182 111.336C147.506 110.895 146.779 110.54 146.016 110.277C145.827 110.214 145.629 110.16 145.437 110.106C145.245 110.052 145.044 110.01 144.837 109.983C144.441 109.908 144.036 109.902 143.637 109.863C142.024 109.804 140.415 110.06 138.9 110.616C137.399 111.187 135.965 111.921 134.625 112.806C132.225 114.351 130.038 116.169 127.701 117.783H127.8C130.125 116.196 132.3 114.411 134.676 112.899C136.011 112.021 137.44 111.293 138.936 110.73C140.436 110.181 142.029 109.929 143.625 109.989C144.018 110.031 144.42 110.037 144.81 110.112C145.008 110.139 145.197 110.196 145.392 110.235C145.587 110.274 145.776 110.34 145.962 110.403C146.714 110.664 147.43 111.016 148.095 111.453C149.415 112.352 150.608 113.424 151.644 114.639C151.662 114.66 151.68 114.678 151.695 114.699L151.8 114.816C152.22 115.305 152.631 115.803 153.027 116.316C153.03 116.22 153.018 116.127 153 116.025H153.006Z" fill="white"/>
<path d="M129.753 80.0194C122.328 88.6084 112.32 103.779 116.409 107.133C123.132 112.647 142.767 115.833 147.273 116.367C149.217 116.601 153.111 103.893 151.812 102.249C150.513 100.605 129.753 99.4444 129.612 98.1694C129.531 97.4464 132.684 91.1584 134.712 83.4454C137.043 74.5534 131.844 77.5984 129.753 80.0194Z" fill="#EB9481"/>
<path d="M148.41 101.202C148.41 101.202 154.368 101.157 158.265 101.31C160.44 101.394 164.154 101.874 165.723 102.669C168.069 103.854 177.123 110.319 175.605 112.548C174.228 114.564 167.154 108.024 167.154 108.024C167.154 108.024 174.876 113.994 172.773 116.124C170.67 118.254 163.659 109.8 163.659 109.8C163.659 109.8 171.459 116.1 168.942 117.96C167.04 119.355 160.26 112.059 160.26 112.059C160.26 112.059 166.923 117.528 165.03 119.049C162.93 120.729 156.255 114.387 156.255 114.387C150.795 117.441 146.955 116.661 144.255 115.782C143.622 115.557 148.41 101.202 148.41 101.202Z" fill="#EB9481"/>
<path d="M164.616 105.789C165.549 106.458 166.497 107.127 167.367 107.889C168.237 108.651 169.08 109.416 169.878 110.244C171.831 112.272 172.737 113.844 172.668 113.754C171.096 111.597 168.024 108.87 167.154 108.12C166.284 107.37 165.453 106.581 164.586 105.834C164.565 105.801 164.595 105.774 164.616 105.789Z" fill="#263238"/>
<path d="M161.856 108.882C163.008 109.782 164.187 110.64 165.3 111.597C166.413 112.554 167.919 113.934 168.96 114.96C169.038 115.038 168.96 115.188 168.876 115.113C167.796 114.129 166.191 112.785 165.099 111.813C164.007 110.841 162.954 109.83 161.832 108.903C161.814 108.9 161.838 108.867 161.856 108.882Z" fill="#263238"/>
<path d="M159 111.108C160.833 112.401 162.426 114.03 163.95 115.665C164.028 115.746 163.95 115.758 163.854 115.68C162.237 114.135 160.977 112.911 158.955 111.18C158.931 111.144 158.97 111.081 159 111.108Z" fill="#263238"/>
<path d="M147.573 101.013C150.291 100.995 158.274 100.974 160.986 101.184C163.386 101.367 165.363 101.883 167.376 103.215C171.696 106.071 174.48 109.425 175.176 110.415C175.596 111.015 176.205 111.984 175.65 112.656C174.969 113.472 172.464 112.674 169.821 110.283C169.725 110.196 169.785 110.142 169.884 110.223C173.595 113.223 175.071 112.881 175.458 112.368C175.71 112.035 175.458 111.468 175.242 111.018C174.881 110.381 174.439 109.794 173.928 109.269C172.223 107.446 170.338 105.8 168.3 104.358C166.117 102.729 163.516 101.752 160.8 101.541C158.022 101.313 150.336 101.385 147.561 101.118C147.504 101.1 147.513 101.016 147.573 101.013Z" fill="#263238"/>
<path d="M173.214 114.924C173.061 114.183 172.527 113.505 172.104 112.893C171.59 112.123 171 111.406 170.343 110.754C170.316 110.727 170.265 110.754 170.292 110.796C170.852 111.45 171.372 112.137 171.849 112.854C172.103 113.248 172.333 113.657 172.539 114.078C172.734 114.483 172.965 114.951 172.863 115.413C172.671 116.295 171.549 116.274 170.886 116.037C170.456 115.875 170.043 115.675 169.65 115.437C169.115 115.096 168.607 114.714 168.132 114.294C168.093 114.258 167.985 114.273 168.027 114.312C169.017 115.254 170.892 117.213 172.422 116.496C172.716 116.366 172.955 116.139 173.1 115.852C173.244 115.565 173.284 115.237 173.214 114.924Z" fill="#263238"/>
<path d="M148.5 100.431L141.363 116.631C141.363 116.631 116.421 111 114.975 106.266C113.529 101.532 121.344 88.8663 128.397 80.9583C135.333 73.1883 136.359 78.4593 134.634 84.4683C132.909 90.4773 130.08 97.4043 130.395 97.9233C130.71 98.4423 148.5 100.431 148.5 100.431Z" fill="#009900"/>
<path d="M132 92.5203C131.982 92.5653 131.967 92.6133 131.949 92.6583C130.563 91.9769 129.095 91.4787 127.581 91.1763C126.797 91.0366 125.999 90.9922 125.205 91.0443C125.007 91.0443 124.812 91.0863 124.605 91.1133C124.398 91.1403 124.215 91.1733 124.023 91.2273C123.633 91.3113 123.264 91.4613 122.883 91.5783C121.413 92.1377 120.064 92.9749 118.911 94.0443L119.1 93.7173C120.2 92.7459 121.466 91.9807 122.838 91.4583C123.222 91.3383 123.597 91.1853 123.993 91.1013C124.188 91.0473 124.389 91.0233 124.593 90.9813C124.797 90.9393 124.992 90.9273 125.193 90.9123C125.995 90.8584 126.801 90.9018 127.593 91.0413C129.12 91.3406 130.602 91.8378 132 92.5203ZM145.2 100.461L145.029 100.359L144.345 99.9543L143.931 99.9063C144.231 100.095 144.558 100.287 144.873 100.47L145.044 100.572C145.944 101.097 146.844 101.601 147.768 102.072L147.84 101.907C146.952 101.448 146.073 100.965 145.2 100.461ZM140.331 99.4683C140.151 99.7683 139.968 100.068 139.782 100.353C139.377 100.995 138.954 101.628 138.504 102.24C138.462 102.297 138.423 102.354 138.381 102.408C137.926 103.023 137.435 103.611 136.911 104.169C136.365 104.749 135.762 105.271 135.111 105.729L134.868 105.9C134.787 105.957 134.697 106.002 134.613 106.053L134.1 106.353C133.746 106.532 133.382 106.687 133.008 106.818C131.495 107.321 129.911 107.577 128.316 107.577C126.729 107.571 125.148 107.39 123.6 107.04C122.037 106.707 120.504 106.254 118.965 105.807C117.6 105.411 116.226 105.012 114.822 104.751C114.822 104.799 114.822 104.847 114.822 104.892C116.211 105.153 117.57 105.555 118.929 105.948C120.465 106.398 122.004 106.848 123.573 107.193C125.141 107.551 126.744 107.736 128.352 107.745C129.965 107.746 131.567 107.489 133.098 106.983C133.48 106.852 133.853 106.695 134.214 106.512L134.739 106.212C134.828 106.165 134.914 106.113 134.997 106.056L135.246 105.882C135.907 105.42 136.519 104.891 137.073 104.304C137.631 103.707 138.154 103.076 138.639 102.417C138.684 102.36 138.723 102.306 138.762 102.249C139.188 101.667 139.59 101.07 139.962 100.464C140.166 100.146 140.364 99.8223 140.562 99.5013L140.331 99.4683ZM145.407 100.068C145.284 100.164 145.158 100.26 145.029 100.35L144.873 100.461C144.526 100.706 144.162 100.927 143.784 101.121L143.523 101.262C143.436 101.31 143.34 101.343 143.25 101.385L142.704 101.619C142.332 101.754 141.951 101.863 141.564 101.946C140.634 102.145 139.686 102.246 138.735 102.246H138.504C137.94 102.246 137.376 102.201 136.815 102.141C135.232 101.942 133.675 101.569 132.174 101.028C130.674 100.509 129.195 99.8703 127.725 99.2283C126.262 98.5664 124.759 97.9963 123.225 97.5213C121.686 97.0803 120.045 96.8403 118.452 97.1523C117.945 97.2542 117.455 97.4248 116.994 97.6593C116.964 97.7193 116.934 97.7823 116.907 97.8423C117.4 97.5795 117.928 97.3895 118.476 97.2783C120.042 96.9783 121.662 97.2123 123.186 97.6533C124.711 98.1298 126.205 98.7009 127.659 99.3633C129.129 99.9963 130.599 100.638 132.114 101.163C133.63 101.712 135.201 102.093 136.8 102.3C137.328 102.36 137.856 102.399 138.384 102.408C138.462 102.408 138.537 102.408 138.615 102.408C139.622 102.425 140.628 102.33 141.615 102.126C142.009 102.039 142.398 101.928 142.779 101.793L143.337 101.553C143.43 101.511 143.523 101.478 143.613 101.43L143.88 101.286C144.29 101.078 144.683 100.838 145.056 100.569L145.212 100.458C145.368 100.344 145.512 100.224 145.68 100.104L145.407 100.068ZM132.345 78.0363C132.216 77.9223 132.09 77.8113 131.964 77.6943L131.802 77.7993L132.222 78.1743C133.199 79.0489 134.242 79.8463 135.342 80.5593C135.342 80.4843 135.342 80.4093 135.342 80.3373C134.289 79.6493 133.289 78.8832 132.351 78.0453L132.345 78.0363ZM134.169 81.6363L133.569 81.6753C133.371 81.6903 133.173 81.6753 132.969 81.6753H132.369L131.769 81.6273C130.976 81.5799 130.19 81.441 129.429 81.2133C129.096 81.1143 128.766 81.0003 128.442 80.8683L128.37 80.9493L128.301 81.0273C128.651 81.1739 129.008 81.3011 129.372 81.4083C131.272 81.9156 133.256 82.0259 135.201 81.7323C135.201 81.6573 135.222 81.5853 135.234 81.5103C134.901 81.5763 134.538 81.6183 134.175 81.6453L134.169 81.6363ZM143.637 109.854C142.023 109.798 140.415 110.057 138.9 110.616C137.399 111.187 135.965 111.922 134.625 112.806C133.875 113.292 133.143 113.802 132.42 114.327L132.537 114.36C133.239 113.853 133.95 113.364 134.679 112.899C136.014 112.021 137.443 111.293 138.939 110.73C140.439 110.181 142.032 109.93 143.628 109.989C143.835 110.01 144.042 110.022 144.249 110.04L144.306 109.914C144.093 109.896 143.865 109.884 143.643 109.863L143.637 109.854Z" fill="white"/>
<path d="M138.501 113.952C138.744 113.49 138.978 113.028 139.212 112.563C139.682 111.621 140.15 110.677 140.616 109.731C141.54 107.853 142.416 105.951 143.259 104.031C143.742 102.945 144.267 101.871 144.702 100.764C144.707 100.753 144.708 100.74 144.703 100.729C144.699 100.717 144.691 100.708 144.68 100.703C144.668 100.697 144.656 100.697 144.644 100.701C144.633 100.705 144.623 100.714 144.618 100.725C144.099 101.64 143.649 102.597 143.169 103.536C142.689 104.475 142.2 105.405 141.738 106.353C140.818 108.231 139.926 110.124 139.062 112.032C138.819 112.566 138.555 113.094 138.336 113.64C138.222 113.919 138.09 114.189 137.979 114.471C137.868 114.753 137.784 115.041 137.679 115.32C137.678 115.323 137.677 115.326 137.677 115.329C137.677 115.333 137.677 115.336 137.678 115.339C137.679 115.342 137.681 115.345 137.683 115.347C137.685 115.35 137.688 115.352 137.691 115.353C137.694 115.354 137.697 115.355 137.7 115.355C137.704 115.355 137.707 115.355 137.71 115.354C137.713 115.353 137.716 115.351 137.718 115.349C137.721 115.347 137.723 115.344 137.724 115.341C137.967 114.876 138.252 114.426 138.501 113.952Z" fill="#263238"/>
<path d="M141.9 115.518L141.399 116.652L141.384 116.688H141.336C138.975 116.25 136.629 115.725 134.298 115.14C131.967 114.555 129.654 113.892 127.365 113.154C125.068 112.428 122.815 111.569 120.618 110.58C119.516 110.085 118.451 109.509 117.432 108.858C116.924 108.527 116.443 108.155 115.995 107.745C115.533 107.349 115.179 106.843 114.966 106.272C115.231 106.808 115.619 107.273 116.097 107.631C116.57 107.995 117.073 108.319 117.6 108.6C118.642 109.18 119.718 109.696 120.822 110.145C123.027 111.06 125.292 111.84 127.569 112.572C129.846 113.304 132.144 113.985 134.448 114.639C136.752 115.293 139.065 115.941 141.381 116.562L141.321 116.592L141.9 115.518Z" fill="#263238"/>
<path d="M148.215 101.061L148.464 100.416L148.491 100.461C145.989 100.296 143.49 100.095 140.991 99.8342C138.492 99.5732 136.008 99.2882 133.524 98.9162C132.903 98.8202 132.282 98.7182 131.661 98.5982C131.361 98.5352 131.04 98.4752 130.719 98.3852C130.638 98.3612 130.56 98.3372 130.473 98.3042C130.423 98.2879 130.375 98.2668 130.329 98.2412C130.294 98.2224 130.261 98.2003 130.23 98.1752C130.198 98.1481 130.17 98.1156 130.149 98.0792C130.137 98.0558 130.126 98.0317 130.116 98.0072C130.114 97.9952 130.114 97.9831 130.116 97.9712C130.104 97.8569 130.11 97.7415 130.134 97.6292C130.149 97.5482 130.164 97.4612 130.185 97.3862C130.503 96.1412 130.905 94.9652 131.313 93.7862C132.129 91.4132 133.017 89.0702 133.953 86.7422C133.23 89.1422 132.489 91.5422 131.751 93.9422C131.397 95.1422 131.007 96.3422 130.734 97.5422C130.716 97.6172 130.707 97.6862 130.692 97.7582C130.677 97.8302 130.692 97.9142 130.677 97.8842C130.674 97.8683 130.668 97.853 130.659 97.8392C130.659 97.8092 130.605 97.7792 130.617 97.7852C130.602 97.7852 130.629 97.7912 130.617 97.7852L130.692 97.8152L130.89 97.8782C131.19 97.9562 131.49 98.0132 131.79 98.0732C132.39 98.1842 133.017 98.2802 133.632 98.3732C134.868 98.5592 136.106 98.7342 137.346 98.8982L141.069 99.3992C143.55 99.7292 146.031 100.083 148.512 100.446H148.557L148.539 100.485L148.215 101.061Z" fill="#263238"/>
<path d="M134.22 88.2783C134.044 88.7016 133.822 89.104 133.557 89.4783C133.308 89.8613 133.005 90.2059 132.657 90.5013C132.885 90.1023 133.128 89.7243 133.386 89.3493C133.636 88.9717 133.915 88.6136 134.22 88.2783Z" fill="#263238"/>
<path d="M141.489 82.7371C139.371 83.3371 135.555 80.2381 133.989 77.6551C133.881 77.4781 134.307 70.1821 134.241 68.7271C134.241 68.4271 143.463 70.5271 143.463 70.5271C143.463 70.5271 142.704 73.6171 142.836 76.1521C142.845 76.3681 143.532 82.1551 141.489 82.7371Z" fill="#EB9481"/>
<path d="M134.1 73.296C138.417 76.344 142.623 75.174 142.8 75.12C142.871 73.5736 143.085 72.037 143.439 70.53C143.439 70.53 134.199 68.43 134.214 68.73C134.268 69.411 134.193 71.379 134.1 73.296Z" fill="#263238"/>
<path d="M143.418 64.5183C143.655 66.6723 145.38 68.2503 147.267 68.0403C149.154 67.8303 150.495 65.9193 150.267 63.7683C150.039 61.6173 148.308 60.0363 146.418 60.2463C144.528 60.4563 143.181 62.3673 143.418 64.5183Z" fill="#455A64"/>
<path d="M142.326 64.7764C142.59 67.1764 144.507 68.9254 146.607 68.6944C148.707 68.4634 150.207 66.3364 149.934 63.9394C149.661 61.5424 147.756 59.7904 145.653 60.0214C143.55 60.2524 142.062 62.3824 142.326 64.7764Z" fill="#C7C7C7"/>
<path d="M132.963 57.7651C131.955 60.9991 133.608 70.3651 135.897 72.4651C139.218 75.5101 144.684 75.8311 147.276 71.8351C149.79 67.9591 147.42 55.7941 144.858 53.8831C141.087 51.0631 134.451 52.9921 132.963 57.7651Z" fill="#EB9481"/>
<path d="M140.745 63.645C140.745 63.624 140.703 63.684 140.709 63.711C140.847 64.335 140.904 65.076 140.376 65.394C140.358 65.394 140.376 65.436 140.376 65.427C141.063 65.196 140.979 64.215 140.745 63.645Z" fill="#263238"/>
<path d="M140.058 63.0961C139.032 63.2131 139.341 65.259 140.292 65.151C141.243 65.043 140.919 63.0001 140.058 63.0961Z" fill="#263238"/>
<path d="M144.387 63.153C144.387 63.129 144.441 63.177 144.444 63.204C144.519 63.84 144.714 64.554 145.317 64.68C145.335 64.68 145.341 64.716 145.317 64.716C144.6 64.722 144.357 63.768 144.387 63.153Z" fill="#263238"/>
<path d="M144.852 62.4001C145.86 62.1691 146.247 64.2001 145.314 64.4161C144.381 64.6321 144 62.6011 144.852 62.4001Z" fill="#263238"/>
<path d="M139.11 62.2834C139.367 62.1647 139.618 62.0314 139.86 61.8844C140.143 61.7808 140.385 61.5868 140.547 61.3324C140.582 61.2423 140.586 61.1431 140.559 61.0504C140.532 60.9576 140.475 60.8764 140.397 60.8194C140.226 60.7298 140.035 60.6876 139.842 60.6971C139.65 60.7066 139.463 60.7675 139.302 60.8734C138.94 61.0364 138.653 61.3284 138.495 61.6924C138.463 61.7773 138.457 61.8696 138.478 61.9579C138.498 62.0463 138.543 62.1268 138.609 62.1895C138.674 62.2523 138.756 62.2946 138.845 62.3113C138.934 62.328 139.026 62.3183 139.11 62.2834Z" fill="#263238"/>
<path d="M145.5 61.2571C145.217 61.2431 144.934 61.2141 144.654 61.1701C144.353 61.1814 144.056 61.0928 143.811 60.9181C143.744 60.848 143.701 60.7575 143.691 60.6609C143.681 60.5642 143.703 60.4668 143.754 60.3841C143.88 60.2374 144.042 60.1266 144.224 60.0628C144.406 59.9991 144.602 59.9847 144.792 60.0211C145.188 60.0375 145.563 60.2012 145.845 60.4801C145.905 60.5468 145.945 60.6297 145.959 60.7185C145.974 60.8074 145.962 60.8985 145.925 60.9808C145.889 61.0631 145.829 61.133 145.754 61.182C145.678 61.231 145.59 61.2571 145.5 61.2571Z" fill="#263238"/>
<path d="M141.093 69.5825C141.267 69.7085 141.45 69.8825 141.693 69.8825C141.928 69.8428 142.152 69.7538 142.35 69.6215C142.354 69.6171 142.359 69.6143 142.364 69.6138C142.37 69.6132 142.376 69.6149 142.38 69.6185C142.384 69.622 142.387 69.6272 142.388 69.6328C142.388 69.6385 142.387 69.6441 142.383 69.6485C142.312 69.7873 142.204 69.904 142.071 69.986C141.939 70.0679 141.786 70.112 141.63 70.1135C141.496 70.0999 141.369 70.0467 141.265 69.9607C141.162 69.8746 141.086 69.7597 141.048 69.6305C141.021 69.6005 141.066 69.5645 141.093 69.5825Z" fill="#263238"/>
<path d="M141.471 67.587C141.67 67.813 141.913 67.9955 142.186 68.123C142.458 68.2505 142.754 68.3203 143.055 68.328C143.319 68.3384 143.582 68.3111 143.838 68.247C143.887 68.238 143.936 68.2239 143.982 68.205C144.028 68.1934 144.073 68.1793 144.117 68.163C144.15 68.152 144.178 68.1304 144.198 68.1017C144.217 68.073 144.227 68.0387 144.225 68.004C144.223 67.9824 144.218 67.9612 144.21 67.941V67.887C144.147 67.398 143.988 66.663 143.988 66.663C144.18 66.726 145.152 66.996 145.098 66.744C144.654 64.644 144.159 62.328 143.274 60.345C143.268 60.332 143.258 60.3215 143.244 60.3155C143.231 60.3095 143.217 60.3084 143.203 60.3124C143.189 60.3164 143.177 60.3252 143.169 60.3373C143.161 60.3493 143.158 60.3638 143.16 60.378C143.508 62.403 144.21 64.353 144.594 66.378C144.248 66.2766 143.889 66.2251 143.529 66.225C143.463 66.255 143.862 67.638 143.871 67.86C143.873 67.8679 143.873 67.8761 143.871 67.884C143.067 68.112 142.413 67.959 141.534 67.53C141.468 67.5 141.426 67.542 141.471 67.587Z" fill="#263238"/>
<path d="M143.511 68.0433C143.298 68.4316 142.988 68.7582 142.611 68.9913C142.401 69.1111 142.159 69.1634 141.918 69.1413C141.393 69.0843 141.318 68.6223 141.342 68.2113C141.362 67.9928 141.407 67.7774 141.477 67.5693C142.087 67.9398 142.8 68.1058 143.511 68.0433Z" fill="#263238"/>
<path d="M142.608 69.0003C142.398 69.12 142.156 69.1724 141.915 69.1503C141.39 69.0933 141.315 68.6313 141.339 68.2203C141.9 68.1843 142.482 68.4723 142.608 69.0003Z" fill="#FF99BA"/>
<path opacity="0.2" d="M134.499 61.0924C134.13 62.0224 133.371 64.2064 132.939 64.3594C132.528 61.3234 132.513 58.5694 133.266 56.8774C133.577 56.1786 134.015 55.543 134.556 55.0024C134.619 55.8154 134.892 60.1204 134.499 61.0924Z" fill="#263238"/>
<path d="M142.614 56.751C142.357 57.1962 141.99 57.568 141.548 57.8306C141.107 58.0933 140.605 58.238 140.091 58.251C139.568 58.2647 139.05 58.1445 138.587 57.902C138.123 57.6594 137.729 57.3025 137.442 56.865C137.44 56.8622 137.438 56.8598 137.436 56.8579C137.433 56.8559 137.43 56.8545 137.427 56.8537C137.424 56.8528 137.421 56.8526 137.418 56.853C137.415 56.8534 137.412 56.8544 137.409 56.856C137.406 56.8576 137.404 56.8597 137.402 56.8622C137.4 56.8647 137.399 56.8676 137.398 56.8706C137.397 56.8737 137.397 56.8769 137.397 56.88C137.397 56.8832 137.398 56.8862 137.4 56.889C137.661 57.3773 138.05 57.7849 138.526 58.0678C139.002 58.3507 139.546 58.4981 140.1 58.494C140.642 58.4634 141.167 58.2907 141.621 57.9932C142.076 57.6956 142.444 57.2838 142.689 56.799C142.695 56.789 142.698 56.777 142.695 56.7654C142.692 56.7539 142.685 56.7439 142.676 56.7375C142.666 56.7311 142.653 56.729 142.642 56.7315C142.63 56.734 142.62 56.741 142.614 56.751Z" fill="#263238"/>
<path d="M148.872 51.9244C148.44 51.1272 147.739 50.5087 146.895 50.1784C145.725 49.7164 144.552 50.0254 143.391 50.3584C143.385 50.3584 143.379 50.3609 143.374 50.3654C143.37 50.3699 143.367 50.376 143.367 50.3824C143.367 50.3888 143.37 50.3949 143.374 50.3994C143.379 50.4039 143.385 50.4064 143.391 50.4064C144.378 50.1274 145.398 49.9024 146.406 50.2084C147.24 50.458 147.963 50.9878 148.452 51.7084C148.929 52.4546 149.121 53.3475 148.994 54.2239C148.867 55.1003 148.428 55.9017 147.759 56.4814C147.364 56.8052 146.908 57.0449 146.417 57.1857C145.927 57.3266 145.412 57.3656 144.906 57.3004C144.867 57.3004 144.849 57.3544 144.891 57.3604C145.58 57.4773 146.288 57.3998 146.936 57.1365C147.583 56.8732 148.144 56.4346 148.556 55.8699C148.968 55.3052 149.215 54.6369 149.268 53.9399C149.321 53.2429 149.179 52.545 148.857 51.9244H148.872Z" fill="#263238"/>
<path d="M132.69 59.6342C132.69 59.6342 130.521 56.8472 131.571 54.8342C132.171 53.6912 134.754 53.3762 134.754 53.3762C134.754 53.3762 135.354 52.0532 137.397 51.1952C139.44 50.3372 142.197 50.8412 142.197 50.8412C142.197 50.8412 144.03 49.3172 146.13 50.0732C149.058 51.1292 149.43 55.2422 146.982 57.0122C145.26 58.2572 142.416 57.0392 142.416 57.0392C142.176 57.1142 139.926 59.0702 137.634 57.1592C137.634 57.1592 136.329 58.8032 134.772 58.0832C134.625 58.5233 134.346 58.9078 133.974 59.1851C133.602 59.4623 133.154 59.619 132.69 59.6342Z" fill="#263238"/>
<path d="M134.916 65.4003C134.916 65.4003 132.759 62.4003 131.397 63.1773C130.035 63.9543 131.697 68.3133 133.305 68.8773C133.507 68.9662 133.725 69.0133 133.945 69.0159C134.166 69.0185 134.385 68.9765 134.589 68.8925C134.793 68.8084 134.978 68.684 135.132 68.5268C135.287 68.3695 135.408 68.1827 135.489 67.9773L134.916 65.4003Z" fill="#EB9481"/>
<path d="M131.901 64.4194C131.874 64.4194 131.871 64.4524 131.901 64.4614C133.038 64.9054 133.647 65.9434 134.079 67.0234C133.737 66.6094 133.278 66.3874 132.723 66.7954C132.693 66.8164 132.723 66.8614 132.753 66.8554C132.951 66.7924 133.163 66.7917 133.361 66.8535C133.559 66.9152 133.733 67.0363 133.86 67.2004C134.073 67.4797 134.256 67.7815 134.403 68.1004C134.457 68.1994 134.637 68.1424 134.598 68.0284V68.0014C134.598 66.5434 133.449 64.5424 131.901 64.4194Z" fill="#263238"/>
<path d="M133.119 63.3003C133.119 63.3003 131.952 58.6503 132.861 55.8003C133.872 52.6323 137.685 49.5303 142.191 50.8473C142.191 50.8473 137.19 51.4923 134.76 55.6713C133.644 57.5913 134.715 63.1353 134.715 63.1353L133.119 63.3003Z" fill="#C7C7C7"/>
<path d="M137.961 64.8662C138.417 67.2662 137.088 69.5282 134.988 69.9302C132.888 70.3322 130.812 68.7302 130.353 66.3302C129.894 63.9302 131.226 61.6682 133.326 61.2662C135.426 60.8642 137.502 62.4722 137.961 64.8662Z" fill="#C7C7C7"/>
<path d="M136.827 64.9441C137.238 67.0951 136.041 69.1441 134.154 69.4951C132.267 69.8461 130.401 68.4001 129.99 66.2521C129.579 64.1041 130.773 62.0521 132.66 61.7011C134.547 61.3501 136.413 62.7901 136.827 64.9441Z" fill="#455A64"/>
<path d="M17.79 117.783H54.588L47.25 75.1021H19.734L17.79 117.783Z" fill="#DBDBDB"/>
<path d="M17.79 117.783H21.015L22.827 75.1021H19.734L17.79 117.783Z" fill="#A6A6A6"/>
<path d="M39.6 56.4872C36.183 59.8862 35.202 65.4872 35.202 65.4872C35.202 65.4872 31.926 71.1242 32.841 74.1872C33.083 75.0557 33.5321 75.8525 34.1497 76.5093C34.7673 77.1661 35.535 77.6633 36.387 77.9582L36.063 76.2662C36.063 76.2662 37.161 78.4412 40.83 79.3172C44.499 80.1932 49.353 79.0652 51.879 77.7872C53.3761 77.0377 54.6536 75.9132 55.587 74.5232L54.642 76.9832C54.642 76.9832 58.203 76.8572 60.318 73.0682C62.433 69.2792 56.358 63.8342 55.842 62.6612C55.326 61.4882 54.672 52.9412 45.681 54.4142C45.693 54.3932 41.964 54.1472 39.6 56.4872Z" fill="#263238"/>
<path d="M35.1 77.7152C34.164 77.0162 33.24 76.2153 32.724 75.2253C32.1613 74.1991 31.9615 73.0131 32.157 71.8593C32.406 70.4763 33.135 69.2553 33.843 68.0643C34.551 66.8733 35.403 65.6643 36.114 64.4133C36.153 64.3443 36.048 64.2873 36 64.3413C35.2011 65.2794 34.4559 66.262 33.768 67.2843C33.0642 68.219 32.4721 69.2329 32.004 70.3053C31.5664 71.2927 31.4227 72.3853 31.59 73.4522C31.767 74.3195 32.152 75.1308 32.712 75.8162C33.375 76.6413 34.212 77.1692 35.052 77.7902C35.1 77.8292 35.151 77.7542 35.1 77.7152Z" fill="#263238"/>
<path d="M61.089 69.1501C60.009 66.0031 57.189 64.0051 55.458 61.2601C54.528 59.7751 53.805 58.1311 52.593 56.8411C52.56 56.8051 52.5 56.8621 52.53 56.8981C53.526 58.0591 54.102 59.4571 54.822 60.7981C55.5891 62.1177 56.4855 63.3578 57.498 64.5001C59.28 66.6361 61.413 69.1651 61.005 72.1561C60.816 73.5361 60 75.0661 58.584 75.4951C58.53 75.5131 58.563 75.6031 58.617 75.5791C59.1754 75.3549 59.6823 75.0192 60.1068 74.5927C60.5313 74.1661 60.8645 73.6576 61.086 73.0981C61.5631 71.8255 61.5642 70.4234 61.089 69.1501Z" fill="#263238"/>
<path d="M61.218 69.9962C61.3154 68.8043 61.0408 67.6115 60.432 66.5822C59.811 65.5682 58.836 64.8362 57.861 64.1822C56.736 63.4352 55.551 62.7242 54.837 61.5392C54.807 61.4882 54.735 61.5392 54.762 61.5902C55.896 63.5462 58.062 64.4582 59.511 66.1052C61.176 67.9862 61.179 70.7252 60.033 72.8762C59.3047 74.1874 58.2767 75.3078 57.033 76.1462C57.012 76.1462 57.033 76.1912 57.057 76.1762C59.178 74.7842 61.047 72.6422 61.218 69.9962Z" fill="#263238"/>
<path d="M47.622 84.3331C56.727 89.3311 67.626 95.6041 74.304 94.1281C77.265 93.4741 90.561 76.0441 91.125 74.0281C91.608 72.2971 79.569 65.3281 78.225 66.6931C75.957 68.9821 69.825 81.8701 68.925 82.0861C68.025 82.3021 60.381 80.7511 52.425 79.3141C44.769 77.9401 41.301 80.8651 47.622 84.3331Z" fill="#F7A9A0"/>
<path d="M89.832 76.2002C90.87 74.8922 95.106 68.4782 95.883 66.4292C96.66 64.3802 98.478 58.3292 96.972 57.5672C95.466 56.8052 94.8 58.5302 94.8 58.5302C94.8 58.5302 95.163 55.8512 93.576 55.2302C91.989 54.6092 91.029 57.3302 91.029 57.3302C91.029 57.3302 91.2 54.5522 89.571 54.0302C87.942 53.5082 87.438 56.4302 87.438 56.4302C87.438 56.4302 87.714 53.8982 86.196 54.0302C84.372 54.2072 84.396 58.9352 83.364 61.1312C83.13 61.6292 77.901 70.9052 77.901 70.9052L89.832 76.2002Z" fill="#F7A9A0"/>
<path d="M87.474 56.1932C87.474 59.6702 86.874 61.1942 85.074 64.0922C85.038 64.1462 85.113 64.2122 85.158 64.1582C87.198 61.4822 88.224 59.6822 87.654 56.1842C87.615 56.0132 87.474 56.0282 87.474 56.1932Z" fill="#263238"/>
<path d="M91.011 57.0571C90.711 60.6571 90.069 62.3251 88.386 65.5021C88.362 65.5471 88.437 65.5921 88.464 65.5471C90.375 62.5711 91.359 60.7471 91.191 57.1021C91.2 56.9371 91.026 56.8921 91.011 57.0571Z" fill="#263238"/>
<path d="M94.698 58.6894C94.149 62.1634 93.531 64.0114 91.503 66.8854C91.4977 66.8919 91.4937 66.8994 91.4913 66.9074C91.4888 66.9155 91.488 66.9239 91.4888 66.9323C91.4897 66.9406 91.4922 66.9487 91.4961 66.9561C91.5001 66.9635 91.5055 66.9701 91.512 66.9754C91.5185 66.9807 91.526 66.9847 91.534 66.9871C91.5421 66.9895 91.5505 66.9904 91.5589 66.9895C91.5672 66.9887 91.5753 66.9862 91.5827 66.9822C91.5901 66.9783 91.5967 66.9729 91.602 66.9664C93.957 64.2364 94.746 61.9384 94.803 58.7164C94.8 58.5004 94.734 58.4704 94.698 58.6894Z" fill="#263238"/>
<path d="M75.324 71.9551C75.324 71.9551 75.069 67.6081 75.381 65.6731C75.693 63.7381 79.5 56.9521 81 57.6901C82.953 58.6471 81.525 62.9971 80.547 65.0371C80.547 65.0371 85.065 67.2391 84.717 70.5841C84.369 73.9291 75.324 71.9551 75.324 71.9551Z" fill="#F7A9A0"/>
<path d="M81.462 58.1284C82.614 60.2854 81.162 62.8804 80.358 64.9294C80.3449 64.9591 80.3391 64.9914 80.3412 65.0237C80.3432 65.056 80.3531 65.0874 80.3699 65.1151C80.3867 65.1428 80.4099 65.166 80.4376 65.1828C80.4653 65.1996 80.4967 65.2094 80.529 65.2114C82.362 66.2614 84.642 68.2774 84.837 70.4974C84.837 70.511 84.8424 70.5239 84.8519 70.5335C84.8615 70.5431 84.8745 70.5484 84.888 70.5484C84.9015 70.5484 84.9145 70.5431 84.924 70.5335C84.9336 70.5239 84.939 70.511 84.939 70.4974C85.053 68.0975 82.974 65.9254 80.895 64.9024C81.747 62.8024 83.094 60.1474 81.495 58.1164C81.474 58.1074 81.456 58.1164 81.462 58.1284Z" fill="#263238"/>
<path d="M66.759 81.3754L55.8 90.5614C55.8 90.5614 49.11 87.0814 44.169 83.0824C39.228 79.0834 44.7 77.1394 53.184 78.5644C61.668 79.9894 66.759 81.3754 66.759 81.3754Z" fill="#009900"/>
<path d="M53.778 83.2202C53.4675 82.7964 53.108 82.4107 52.707 82.0712C53.1508 83.0249 53.7919 83.8736 54.588 84.5612C54.3729 84.0832 54.101 83.633 53.778 83.2202ZM44.178 83.0882L44.31 83.1902C44.397 83.0972 44.484 82.9982 44.565 82.8902C44.427 82.9532 44.298 83.0192 44.172 83.1002L44.178 83.0882ZM62.523 83.1482C62.0046 83.0721 61.4791 83.056 60.957 83.1002C61.4467 83.285 61.9561 83.4128 62.475 83.4812C62.9932 83.5598 63.5188 83.5769 64.041 83.5322C63.5496 83.3456 63.0381 83.2168 62.517 83.1482H62.523ZM58.854 79.5962C58.8472 79.7964 58.8542 79.9969 58.875 80.1962C58.9482 80.0161 59.0103 79.8318 59.061 79.6442L58.854 79.5962Z" fill="white"/>
<path d="M53.346 88.5991C55.575 86.4571 57.957 84.4681 60.372 82.5301C61.056 81.9841 61.752 81.4501 62.472 80.9371C62.493 80.9221 62.52 80.9371 62.499 80.9641C61.365 82.0111 60.186 83.0101 59.013 84.0151C57.84 85.0201 56.652 86.0251 55.449 87.0001C54.768 87.5521 54.09 88.1041 53.4 88.6411C53.358 88.6621 53.319 88.6261 53.346 88.5991Z" fill="#263238"/>
<path d="M60.456 86.6581L55.797 90.5581C55.797 90.5581 49.107 87.0811 44.166 83.0821C42.411 81.6631 41.97 80.5051 42.507 79.6621L60.456 86.6581Z" fill="#263238"/>
<path d="M58.2 117.747H23.277C23.277 117.747 30.864 88.446 37.887 80.196C38.043 80.007 38.205 79.827 38.367 79.659C38.4 79.62 38.43 79.593 38.463 79.56C39.0066 78.9792 39.6396 78.489 40.338 78.108C40.461 78.042 40.584 77.979 40.713 77.925C43.413 76.68 46.275 77.712 48.336 79.476C48.99 80.034 56.394 89.676 57.036 93.339C57.603 96.582 55.413 100.065 55.413 100.065L58.2 117.747Z" fill="#009900"/>
<path d="M50.181 98.8114C48.694 98.9565 47.2199 99.2122 45.771 99.5764C45.051 99.7684 44.349 99.9904 43.644 100.227C43.293 100.347 42.942 100.455 42.588 100.56C42.2194 100.68 41.8376 100.755 41.451 100.782C41.4438 100.782 41.4369 100.785 41.4319 100.79C41.4268 100.795 41.424 100.802 41.424 100.809C41.424 100.817 41.4268 100.823 41.4319 100.829C41.4369 100.834 41.4438 100.836 41.451 100.836C41.8172 100.852 42.1841 100.842 42.549 100.806C42.9003 100.762 43.2481 100.694 43.59 100.602C44.322 100.413 45.042 100.194 45.771 100.002C47.241 99.6124 48.708 99.2224 50.202 98.9374C50.2187 98.9346 50.2336 98.9253 50.2435 98.9115C50.2533 98.8978 50.2573 98.8806 50.2545 98.8639C50.2517 98.8472 50.2424 98.8323 50.2286 98.8224C50.2148 98.8126 50.1977 98.8086 50.181 98.8114Z" fill="#263238"/>
<path d="M53.871 100.098C52.6437 99.9802 51.4108 99.9311 50.178 99.9511C49.578 99.9661 48.951 100.014 48.336 100.077C48.036 100.11 47.736 100.146 47.46 100.185C47.184 100.224 46.824 100.314 46.503 100.353C46.47 100.353 46.47 100.41 46.503 100.407C46.803 100.38 47.118 100.407 47.424 100.392L48.345 100.359C48.945 100.341 49.572 100.326 50.187 100.299C51.417 100.248 52.644 100.209 53.874 100.197C53.94 100.2 53.934 100.104 53.871 100.098Z" fill="#263238"/>
<path d="M34.569 87.0844C34.404 86.8744 34.236 86.6674 34.053 86.4844L33.924 86.7544C34.044 86.9404 34.173 87.1234 34.305 87.3004C34.6158 87.7213 34.9753 88.1039 35.376 88.4404C35.157 87.9604 34.8864 87.5057 34.569 87.0844ZM38.622 79.3984C38.5609 79.8669 38.5508 80.3407 38.592 80.8114C38.7784 80.3194 38.9043 79.8067 38.967 79.2844C38.967 79.2064 38.988 79.1254 38.997 79.0474C38.871 79.1584 38.745 79.2754 38.622 79.3984ZM49.221 89.1604C49.0342 89.6517 48.9053 90.1632 48.837 90.6844C48.7614 91.2038 48.7443 91.7301 48.786 92.2534C48.9744 91.7629 49.1013 91.251 49.164 90.7294C49.2463 90.2106 49.2655 89.6838 49.221 89.1604ZM42.546 106.056C42.3611 106.546 42.2342 107.055 42.168 107.574C42.0919 108.094 42.0758 108.62 42.12 109.143C42.4765 108.156 42.6217 107.104 42.546 106.056ZM31.2 93.3004C31.0168 93.7935 30.89 94.3057 30.822 94.8274C30.7456 95.3458 30.7295 95.8713 30.774 96.3934C30.9576 95.9016 31.0834 95.3902 31.149 94.8694C31.2276 94.3502 31.2447 93.8236 31.2 93.3004ZM40.59 91.1584C40.0716 91.0822 39.5461 91.0661 39.024 91.1104C39.5137 91.2952 40.023 91.423 40.542 91.4914C41.0602 91.57 41.5858 91.5871 42.108 91.5424C41.6199 91.3524 41.1116 91.2195 40.593 91.1464L40.59 91.1584ZM53.154 105.558C52.6346 105.482 52.1081 105.466 51.585 105.51C52.5728 105.867 53.6245 106.012 54.672 105.936C54.1833 105.751 53.675 105.622 53.157 105.552L53.154 105.558ZM29.7 104.175C29.1905 104.102 28.6744 104.083 28.161 104.121H28.131H28.158C28.6426 104.3 29.1457 104.424 29.658 104.49C30.1764 104.566 30.7019 104.583 31.224 104.538C30.7317 104.359 30.2203 104.237 29.7 104.175ZM42.876 116.562C42.3576 116.486 41.8321 116.47 41.31 116.514C42.2987 116.872 43.3517 117.016 44.4 116.937C43.9039 116.754 43.3886 116.628 42.864 116.562H42.876ZM28.704 115.044C28.1846 114.968 27.6581 114.952 27.135 114.996C27.625 115.179 28.1343 115.305 28.653 115.371C29.172 115.452 29.699 115.468 30.222 115.419C29.7281 115.236 29.2147 115.11 28.692 115.044H28.704ZM43.218 83.7004C42.7954 84.0146 42.4099 84.376 42.069 84.7774C42.5477 84.5595 43.0005 84.2889 43.419 83.9704C43.8408 83.6572 44.2235 83.2946 44.559 82.8904C44.0835 83.1102 43.6338 83.3819 43.218 83.7004ZM46.956 99.7594C46.5344 100.069 46.1516 100.429 45.816 100.83C46.2932 100.614 46.7433 100.342 47.157 100.02C47.5793 99.7113 47.9621 99.3516 48.297 98.9494C47.8201 99.1688 47.3701 99.4426 46.956 99.7654V99.7594ZM33.849 109.575C33.425 109.885 33.041 110.245 32.706 110.649C33.1814 110.43 33.6311 110.158 34.047 109.839C34.4687 109.526 34.8541 109.167 35.196 108.768C34.7144 108.981 34.2617 109.254 33.849 109.581V109.575ZM55.617 95.4544C55.3065 95.0305 54.947 94.6449 54.546 94.3054C54.9898 95.2591 55.6309 96.1078 56.427 96.7954C56.2115 96.3195 55.9395 95.8713 55.617 95.4604V95.4544ZM51.15 113.625C50.837 113.204 50.4778 112.818 50.079 112.476C50.2893 112.958 50.5605 113.411 50.886 113.823C51.1959 114.246 51.5555 114.63 51.957 114.966C51.7382 114.491 51.4676 114.041 51.15 113.625ZM37.998 99.3334C37.6866 98.9102 37.3272 98.5247 36.927 98.1844C37.1397 98.6654 37.4118 99.1179 37.737 99.5314C38.046 99.9546 38.4057 100.338 38.808 100.674C38.5895 100.198 38.3178 99.7483 37.998 99.3334Z" fill="white"/>
<path d="M37.173 80.4241C30.456 85.8391 13.254 107.298 17.133 112.257C21.012 117.216 46.794 114.957 54.279 112.611C56.505 111.915 50.433 97.7881 48.027 97.1371C46.023 96.5941 34.911 99.8791 34.695 99.2371C34.452 98.5111 37.44 94.4941 41.238 85.7911C45.618 75.7531 40.14 78.0331 37.173 80.4241Z" fill="#F7A9A0"/>
<path d="M60.162 95.9584C65.295 96.5584 66.522 97.4914 71.121 95.6914C74.139 94.5124 76.188 95.9314 73.98 98.4784C70.38 102.645 63.588 103.278 61.173 102.81L60.162 95.9584Z" fill="#F7A9A0"/>
<path d="M45.765 97.3174C45.765 97.3174 52.134 95.6704 57.666 95.7604C61.494 95.8234 69.804 96.8884 75.444 106.821C76.782 109.176 77.019 113.484 73.434 110.421C70.89 108.252 69.933 106.107 68.223 105.114C68.223 105.114 67.872 110.625 65.46 111.876C63.3504 112.967 61.1659 113.907 58.923 114.687C58.6854 114.31 58.4729 113.917 58.287 113.511C58.287 113.511 55.923 114.465 52.287 113.142L45.765 97.3174Z" fill="#F7A9A0"/>
<path d="M61.311 96.4053C62.811 97.7493 65.907 100.647 67.611 103.905C69.519 107.523 72.219 115.005 69.534 116.388C67.566 117.402 66.282 114.633 66.282 114.633C66.282 114.633 66.747 117.963 64.782 118.488C62.982 118.968 62.115 116.766 62.115 116.766C62.115 116.766 62.049 118.833 60.225 118.962C58.029 119.112 58.527 114.762 56.169 112.989C55.638 112.59 61.311 96.4053 61.311 96.4053Z" fill="#F7A9A0"/>
<path d="M63.465 105.3C64.665 106.8 66.498 110.88 66.342 114.579C66.342 114.663 66.273 114.705 66.261 114.627C65.6982 111.424 64.7483 108.301 63.432 105.327C63.4284 105.323 63.4267 105.317 63.4273 105.312C63.4278 105.306 63.4306 105.301 63.435 105.297C63.4393 105.294 63.445 105.292 63.4506 105.293C63.4562 105.293 63.4614 105.296 63.465 105.3Z" fill="#263238"/>
<path d="M59.868 107.316C60.768 108.711 62.475 113.016 62.187 116.751C62.187 116.835 62.112 116.871 62.103 116.793C61.7065 113.564 60.9446 110.389 59.832 107.331C59.8319 107.327 59.8331 107.323 59.8354 107.32C59.8377 107.316 59.841 107.313 59.8449 107.312C59.8488 107.31 59.853 107.31 59.8571 107.31C59.8613 107.311 59.865 107.313 59.868 107.316Z" fill="#263238"/>
<path d="M68.232 105.09C69.732 105.99 70.569 107.049 71.685 108.348C72.2305 108.999 72.8113 109.619 73.425 110.205C73.989 110.73 74.82 111.519 75.666 111.144C76.137 110.934 76.266 110.37 76.305 109.902C76.3419 109.376 76.2652 108.848 76.08 108.354C76.08 108.33 76.116 108.312 76.125 108.339C76.3091 108.775 76.4303 109.235 76.485 109.704C76.5562 110.146 76.4924 110.599 76.302 111.003C75.834 111.831 74.754 111.675 74.076 111.24C73.6749 110.963 73.3021 110.646 72.963 110.295C72.63 109.968 72.312 109.626 72.003 109.278C71.37 108.558 70.779 107.805 70.155 107.082C69.5435 106.393 68.8881 105.743 68.193 105.138C68.166 105.114 68.202 105.072 68.232 105.09Z" fill="#263238"/>
<path d="M70.14 111.648C69.963 110.619 68.691 106.197 68.187 105.12C68.1838 105.115 68.183 105.108 68.1847 105.102C68.1864 105.096 68.1904 105.09 68.196 105.087C68.2016 105.084 68.2082 105.083 68.2144 105.085C68.2206 105.087 68.2258 105.091 68.229 105.096C69.18 106.617 70.38 110.31 70.59 111.447C70.8 112.584 71.001 113.991 70.71 115.11C70.272 116.796 69.072 116.826 68.637 116.802C68.1231 116.765 67.6374 116.553 67.26 116.202C66.8302 115.754 66.4954 115.223 66.276 114.642C66.276 114.615 66.303 114.591 66.318 114.618C66.732 115.434 67.533 116.343 68.481 116.46C68.6909 116.493 68.9052 116.483 69.1113 116.431C69.3174 116.38 69.5111 116.288 69.681 116.16C70.037 115.819 70.2576 115.361 70.302 114.87C70.4328 113.795 70.378 112.705 70.14 111.648Z" fill="#263238"/>
<path d="M62.187 116.751C62.37 117.012 62.673 117.837 63.402 118.185C63.6555 118.33 63.9403 118.41 64.2319 118.42C64.5236 118.43 64.8132 118.369 65.076 118.242C65.5771 117.931 65.9375 117.437 66.081 116.865C66.2022 116.133 66.2674 115.393 66.276 114.651C66.276 114.615 66.321 114.612 66.324 114.651C66.4174 115.456 66.3891 116.27 66.24 117.066C66.1695 117.378 66.0374 117.673 65.8514 117.933C65.6654 118.193 65.4293 118.414 65.157 118.581C64.8685 118.739 64.5421 118.813 64.2139 118.797C63.8856 118.781 63.5683 118.674 63.297 118.488C63.024 118.299 62.232 117.444 62.097 116.772C62.1 116.751 62.178 116.739 62.187 116.751Z" fill="#263238"/>
<path d="M56.4 112.725C56.6169 112.966 56.8052 113.231 56.961 113.514C57.138 113.814 57.306 114.099 57.465 114.399C57.781 115.006 58.0333 115.643 58.218 116.301C58.41 116.961 58.56 117.681 59.013 118.224C59.225 118.493 59.5162 118.688 59.8452 118.781C60.1742 118.875 60.5243 118.863 60.846 118.746C61.1865 118.611 61.4696 118.362 61.647 118.041C61.8526 117.696 61.9901 117.314 62.052 116.916C62.0506 116.913 62.0502 116.909 62.0507 116.905C62.0512 116.901 62.0526 116.898 62.0548 116.894C62.057 116.891 62.0599 116.889 62.0634 116.887C62.0668 116.885 62.0706 116.884 62.0745 116.884C62.0784 116.884 62.0822 116.885 62.0856 116.887C62.089 116.889 62.092 116.891 62.0942 116.894C62.0964 116.898 62.0978 116.901 62.0983 116.905C62.0988 116.909 62.0983 116.913 62.097 116.916C62.0714 117.277 62.009 117.634 61.911 117.981C61.7976 118.294 61.6041 118.571 61.35 118.785C61.0836 118.989 60.7662 119.115 60.4328 119.15C60.0994 119.185 59.7628 119.127 59.46 118.983C58.788 118.683 58.41 118.005 58.176 117.333C57.915 116.586 57.741 115.815 57.444 115.077C57.291 114.687 57.144 114.297 56.958 113.922C56.772 113.547 56.514 113.157 56.358 112.755C56.34 112.731 56.376 112.698 56.4 112.725Z" fill="#263238"/>
<path d="M54.057 113.655C55.0054 113.792 55.9647 113.84 56.922 113.796C56.952 113.796 56.97 113.883 56.94 113.889C56.4654 113.978 55.9826 114.015 55.5 114C55.0107 113.98 54.5273 113.886 54.066 113.721C54.027 113.7 54.027 113.649 54.057 113.655Z" fill="#263238"/>
<path d="M24.6 102.45C26.2037 101.676 27.861 101.019 29.559 100.482C31.2393 99.9571 32.9559 99.556 34.695 99.2824C35.688 99.1174 36.684 99.0004 37.695 98.8774C37.725 98.8774 37.731 98.9194 37.695 98.9224C35.9476 99.2053 34.2177 99.5879 32.514 100.068C30.818 100.53 29.132 101.023 27.456 101.547C26.508 101.847 25.572 102.183 24.633 102.51C24.6 102.534 24.57 102.471 24.6 102.45Z" fill="#263238"/>
<path d="M23.139 93.453L37.356 94.998C37.356 94.998 40.983 88.398 42.87 82.317C44.757 76.236 39.399 77.418 33.138 83.313C26.877 89.208 23.139 93.453 23.139 93.453Z" fill="#009900"/>
<path d="M23.139 93.453L37.356 94.998C37.356 94.998 40.983 88.398 42.87 82.317C44.757 76.236 39.399 77.418 33.138 83.313C26.877 89.208 23.139 93.453 23.139 93.453Z" fill="#009900"/>
<path d="M38.646 79.2C38.6474 79.215 38.6474 79.2301 38.646 79.245C38.5698 79.7644 38.5537 80.2909 38.598 80.814C38.7844 80.3221 38.9103 79.8093 38.973 79.287C38.973 79.197 38.997 79.11 39.006 79.02L38.646 79.2ZM31.2 93.3C31.0698 93.6273 30.9693 93.9657 30.9 94.311L31.2 94.341C31.2329 93.9948 31.2329 93.6462 31.2 93.3ZM26.268 90.099L26.13 90.243C26.286 90.243 26.43 90.243 26.601 90.216C26.487 90.171 26.379 90.132 26.268 90.099ZM39.027 91.098C39.111 91.131 39.198 91.164 39.285 91.191C39.3005 91.1519 39.3185 91.1138 39.339 91.077C39.237 91.08 39.132 91.086 39.027 91.098ZM34.569 87.084C34.256 86.6622 33.8967 86.2768 33.498 85.935C33.7089 86.4173 33.9801 86.8709 34.305 87.285C34.6158 87.7059 34.9753 88.0886 35.376 88.425C35.156 87.9503 34.8855 87.5007 34.569 87.084Z" fill="white"/>
<path d="M36.78 94.8662C36.858 94.8662 37.38 94.8662 37.38 94.8662C37.443 94.6832 38.667 91.8662 38.967 91.2662C39.585 90.0332 40.275 88.8332 40.947 87.6302C40.968 87.5912 41.028 87.6302 41.007 87.6572C40.533 88.7072 40.077 89.7572 39.594 90.8132C39.714 90.6722 39.834 90.5312 39.951 90.3872C40.188 90.0872 40.404 89.7872 40.629 89.4692C40.65 89.4422 40.692 89.4692 40.677 89.5022C40.4623 89.9362 40.1909 90.3397 39.87 90.7022C39.7337 90.8615 39.5864 91.0109 39.429 91.1492C39.39 91.2362 39.351 91.3262 39.309 91.4102C39.009 92.0102 37.53 95.0342 37.476 95.0312L36.792 94.9472C36.741 94.9592 36.741 94.8632 36.78 94.8662Z" fill="#263238"/>
<path d="M25.818 91.0382C28.902 91.2452 31.977 91.6682 35.034 92.1482C35.902 92.2862 36.764 92.4432 37.62 92.6192C37.644 92.6192 37.644 92.6612 37.62 92.6582C36.084 92.5232 34.551 92.3252 33.018 92.1362C31.485 91.9472 29.94 91.7432 28.407 91.5002C27.543 91.3682 26.676 91.2362 25.815 91.0892C25.779 91.0922 25.779 91.0352 25.818 91.0382Z" fill="#263238"/>
<path d="M42.159 78.3302C42.213 78.9542 44.535 83.2922 47.316 83.5592C48.216 83.6432 48.909 78.7202 48.909 78.7202L49.041 78.3692L50.91 73.4432L45.48 68.7482L44.691 68.1182C44.691 68.1182 44.268 69.4982 43.761 71.2232C43.737 71.3042 43.71 71.3852 43.686 71.4692C43.662 71.5532 43.626 71.6582 43.599 71.7482C43.521 72.0062 43.44 72.2672 43.368 72.5312C43.311 72.7322 43.254 72.9272 43.2 73.1312C43.146 73.3352 43.092 73.5512 43.032 73.7612C42.6373 75.2625 42.3457 76.7891 42.159 78.3302Z" fill="#F7A9A0"/>
<path d="M43.761 71.2232C44.0702 72.7259 44.7026 74.1435 45.6143 75.3774C46.5261 76.6114 47.6953 77.6322 49.041 78.3692L50.91 73.4432L45.48 68.7482L44.691 68.1182C44.691 68.1182 44.268 69.4982 43.761 71.2232Z" fill="#263238"/>
<path d="M52.554 65.8773C53.031 67.9773 54.921 69.3603 56.775 68.9433C58.629 68.5263 59.742 66.4713 59.265 64.3593C58.788 62.2473 56.898 60.8733 55.044 61.2933C53.19 61.7133 52.077 63.7623 52.554 65.8773Z" fill="#455A64"/>
<path d="M51.495 66.2553C52.029 68.6043 54.129 70.1313 56.193 69.6663C58.257 69.2013 59.493 66.9183 58.962 64.5663C58.431 62.2143 56.328 60.6903 54.267 61.1553C52.206 61.6203 50.964 63.9003 51.495 66.2553Z" fill="#C7C7C7"/>
<path d="M57.561 63.2492C60.081 72.1442 55.038 74.6492 53.118 75.2012C51.375 75.6932 45.381 77.1452 41.955 68.5562C38.529 59.9672 41.868 55.9832 45.792 54.6482C49.716 53.3132 55.041 54.3512 57.561 63.2492Z" fill="#F7A9A0"/>
<path d="M54.465 62.1301C54.2537 62.151 54.0413 62.1601 53.829 62.1571C53.6057 62.1997 53.3746 62.167 53.172 62.0641C53.1143 62.0195 53.073 61.957 53.0545 61.8864C53.036 61.8159 53.0415 61.7412 53.07 61.6741C53.1465 61.5505 53.2548 61.4496 53.3835 61.3821C53.5123 61.3145 53.6568 61.2828 53.802 61.2901C54.0975 61.2572 54.3947 61.3353 54.636 61.5091C54.688 61.5526 54.7265 61.6102 54.7467 61.675C54.7669 61.7398 54.7681 61.8091 54.7501 61.8745C54.7321 61.94 54.6956 61.9989 54.6451 62.0442C54.5945 62.0895 54.532 62.1193 54.465 62.1301Z" fill="#263238"/>
<path d="M48.6 64.2002C48.8038 64.137 49.0041 64.0629 49.2 63.9782C49.4221 63.9291 49.6222 63.809 49.77 63.6362C49.805 63.5722 49.8181 63.4986 49.8073 63.4265C49.7965 63.3545 49.7623 63.2879 49.71 63.2372C49.591 63.1534 49.4518 63.1029 49.3068 63.0907C49.1618 63.0786 49.0162 63.1053 48.885 63.1682C48.6004 63.2538 48.3578 63.4419 48.204 63.6962C48.1724 63.7561 48.1589 63.824 48.165 63.8915C48.1711 63.959 48.1967 64.0233 48.2385 64.0766C48.2804 64.1299 48.3368 64.1699 48.401 64.1918C48.4651 64.2138 48.5342 64.2167 48.6 64.2002Z" fill="#263238"/>
<path d="M50.4 65.7693C50.4 65.7453 50.361 65.8113 50.37 65.8353C50.562 66.4353 50.67 67.1553 50.19 67.5123C50.175 67.5123 50.19 67.5513 50.205 67.5453C50.841 67.2603 50.673 66.3003 50.4 65.7693Z" fill="#263238"/>
<path d="M49.674 65.2893C48.678 65.4933 49.158 67.4673 50.082 67.2783C51.006 67.0893 50.508 65.1183 49.674 65.2893Z" fill="#263238"/>
<path d="M49.311 65.4873C49.167 65.6433 49.044 65.8803 48.843 65.9523C48.642 66.0243 48.375 65.8713 48.171 65.7093C48.15 65.6943 48.135 65.7093 48.141 65.7423C48.228 66.1203 48.468 66.4743 48.888 66.4323C49.308 66.3903 49.455 65.9943 49.455 65.5893C49.458 65.5143 49.371 65.4273 49.311 65.4873Z" fill="#263238"/>
<path d="M53.907 64.6864C53.907 64.6624 53.964 64.7044 53.967 64.7284C54.093 65.3464 54.339 66.0334 54.942 66.1054C54.96 66.1054 54.966 66.1384 54.942 66.1414C54.246 66.2044 53.928 65.2894 53.907 64.6864Z" fill="#263238"/>
<path d="M54.3 63.918C55.266 63.618 55.8 65.568 54.9 65.853C54 66.138 53.493 64.173 54.3 63.918Z" fill="#263238"/>
<path d="M54.75 63.933C54.933 63.993 55.137 64.14 55.326 64.101C55.515 64.062 55.644 63.801 55.725 63.558C55.725 63.534 55.755 63.558 55.761 63.558C55.875 63.93 55.86 64.353 55.518 64.524C55.176 64.695 54.879 64.425 54.687 64.077C54.651 64.029 54.675 63.9 54.75 63.933Z" fill="#263238"/>
<path d="M51.786 70.7013C51.96 70.8183 52.146 71.0013 52.386 70.9623C52.6155 70.9125 52.8321 70.8154 53.022 70.6773C53.0256 70.6729 53.0307 70.6701 53.0363 70.6695C53.042 70.669 53.0476 70.6707 53.052 70.6743C53.0563 70.6778 53.0591 70.683 53.0597 70.6886C53.0602 70.6943 53.0586 70.6999 53.055 70.7043C52.99 70.843 52.8888 70.9616 52.7621 71.0476C52.6354 71.1337 52.4879 71.184 52.335 71.1933C52.2011 71.1865 52.0723 71.1398 51.9653 71.059C51.8583 70.9782 51.7781 70.8672 51.735 70.7403C51.714 70.7073 51.759 70.6863 51.786 70.7013Z" fill="#263238"/>
<path d="M53.799 67.6534C53.799 67.6534 54.156 68.5324 54.267 68.9614C54.267 69.0034 52.791 69.7234 51.837 68.8414C51.827 68.8347 51.8202 68.8242 51.8179 68.8124C51.8157 68.8006 51.8182 68.7884 51.825 68.7784C51.8318 68.7685 51.8422 68.7616 51.854 68.7594C51.8658 68.7571 51.878 68.7597 51.888 68.7664C52.5314 69.0008 53.2333 69.0208 53.889 68.8234C53.889 68.6974 53.223 67.3384 53.289 67.3234C53.6301 67.2673 53.9772 67.2572 54.321 67.2934C53.625 65.4424 52.641 63.7174 51.978 61.8604C51.9721 61.8467 51.9716 61.8312 51.9765 61.8171C51.9814 61.803 51.9914 61.7913 52.0045 61.7841C52.0177 61.777 52.033 61.775 52.0475 61.7786C52.062 61.7822 52.0747 61.791 52.083 61.8034C53.244 63.5404 54.09 65.6554 54.855 67.5484C54.957 67.7794 54 67.6834 53.799 67.6534Z" fill="#263238"/>
<path d="M53.886 69.0302C53.7266 69.4283 53.4685 69.7794 53.136 70.0502C52.9493 70.1902 52.7242 70.2698 52.491 70.2782C51.978 70.2782 51.843 69.8552 51.825 69.4562C51.8177 69.2449 51.8349 69.0335 51.876 68.8262C52.5069 69.1075 53.2114 69.179 53.886 69.0302Z" fill="#263238"/>
<path d="M53.136 70.05C52.9493 70.1901 52.7242 70.2696 52.491 70.278C51.978 70.278 51.843 69.855 51.825 69.456C52.35 69.363 52.95 69.567 53.136 70.05Z" fill="#FF99BA"/>
<path d="M42.384 68.2592C44.106 68.3702 44.304 64.4312 44.304 64.4312C44.304 64.4312 51.504 62.7542 51.762 56.7902C51.762 56.7902 53.241 60.4922 57.162 61.9682C57.162 61.9682 56.511 55.4882 51.285 54.5402C51.285 54.5402 44.751 52.6022 41.466 57.8942C38.181 63.1862 41.229 68.1842 42.384 68.2592Z" fill="#263238"/>
<path d="M51.762 56.3491C51.9042 57.2591 51.85 58.1889 51.603 59.0761C51.3699 59.9778 50.9509 60.8208 50.373 61.5511C50.2313 61.7347 50.0779 61.9091 49.914 62.0731L49.674 62.3281C49.59 62.4061 49.5 62.4781 49.41 62.5531C49.23 62.6971 49.056 62.8531 48.87 62.9881C48.684 63.1231 48.48 63.2341 48.27 63.3541C48.171 63.4111 48.075 63.4741 47.97 63.5281L47.67 63.6721L47.043 63.9571C46.611 64.1071 46.173 64.2331 45.738 64.3531C46.143 64.1461 46.563 63.9811 46.962 63.7741L47.547 63.4441L47.847 63.2791C47.94 63.2191 48.027 63.1501 48.117 63.0841C48.297 62.9521 48.477 62.8231 48.66 62.6971C48.843 62.5711 48.99 62.3971 49.155 62.2621L49.404 62.0431L49.626 61.7971C49.7786 61.6397 49.9218 61.4734 50.055 61.2991C50.6002 60.6036 51.0232 59.8204 51.306 58.9831C51.4507 58.5628 51.5611 58.1313 51.636 57.6931C51.7158 57.2495 51.7579 56.7999 51.762 56.3491Z" fill="#263238"/>
<path d="M43.668 68.1661C43.668 68.1661 41.142 65.7091 39.993 66.6661C38.844 67.6231 41.121 71.4451 42.738 71.7151C42.9429 71.7644 43.1556 71.7717 43.3635 71.7366C43.5713 71.7016 43.7698 71.6248 43.9472 71.5111C44.1246 71.3973 44.2772 71.2488 44.3957 71.0746C44.5142 70.9003 44.5963 70.7039 44.637 70.4971L43.668 68.1661Z" fill="#F7A9A0"/>
<path d="M40.674 67.7431C40.6684 67.7431 40.6631 67.7453 40.6591 67.7493C40.6552 67.7532 40.653 67.7585 40.653 67.7641C40.653 67.7697 40.6552 67.775 40.6591 67.779C40.6631 67.7829 40.6684 67.7851 40.674 67.7851C41.817 68.0101 42.561 68.8861 43.149 69.8281C42.759 69.4981 42.288 69.3661 41.835 69.8281C41.811 69.8551 41.835 69.8911 41.874 69.8791C42.0492 69.7847 42.2493 69.7467 42.4469 69.7703C42.6445 69.794 42.83 69.8781 42.978 70.0111C43.2243 70.2345 43.4456 70.4839 43.638 70.7551C43.704 70.8421 43.866 70.7551 43.809 70.6561L43.794 70.6321C43.56 69.3001 42.147 67.6021 40.674 67.7431Z" fill="#263238"/>
<path d="M41.94 66.9154C41.94 66.9154 40.302 62.5504 40.869 59.7004C41.499 56.5264 45.432 52.9053 49.929 54.2613C49.929 54.2613 44.58 55.0623 42.69 59.3613C41.82 61.3413 43.464 66.5824 43.464 66.5824L41.94 66.9154Z" fill="#C7C7C7"/>
<path d="M44.4662 73.1361C46.4515 72.5177 47.4893 70.1814 46.7843 67.9177C46.0792 65.654 43.8983 64.3201 41.913 64.9385C39.9277 65.5568 38.8899 67.8932 39.5949 70.1569C40.3 72.4206 42.4809 73.7544 44.4662 73.1361Z" fill="#C7C7C7"/>
<path d="M45.702 68.1004C46.335 70.1344 45.402 72.2344 43.602 72.7894C41.802 73.3444 39.858 72.1474 39.222 70.1134C38.586 68.0794 39.522 65.9794 41.322 65.4214C43.122 64.8634 45.069 66.0784 45.702 68.1004Z" fill="#455A64"/>
<path d="M49.02 78.3991L47.37 82.5631L42.18 77.3281L40.725 79.0201C40.725 79.0201 45.825 87.3541 45.843 86.9761L47.541 83.3761L50.025 85.8571L49.8 79.6111L49.02 78.3991Z" fill="#EBEBEB"/>
<path d="M50.1 82.7674C50.025 81.7384 49.983 80.6944 49.863 79.6684C49.863 79.6324 49.8 79.6174 49.791 79.6684C49.59 80.6644 49.887 84.6093 49.887 85.5543C49.785 85.4463 47.586 83.3704 47.565 83.4034C47.196 83.9734 45.951 86.5894 45.867 86.8264C45.06 85.5034 41.646 80.2864 40.695 79.0264C40.6893 79.0206 40.6819 79.0169 40.6739 79.0159C40.6659 79.0149 40.6578 79.0166 40.6508 79.0208C40.6439 79.0249 40.6386 79.0313 40.6357 79.0388C40.6328 79.0464 40.6326 79.0546 40.635 79.0624C41.346 80.4604 45.756 87.3453 45.819 87.3273C46.4751 86.0933 47.0678 84.8267 47.595 83.5324C47.967 83.9854 50.187 86.3284 50.193 86.1754C50.2208 85.0385 50.1898 83.901 50.1 82.7674Z" fill="#263238"/>
<path d="M79.044 50.6548C78.8639 52.3805 78.2079 54.0222 77.1491 55.3968C76.0902 56.7713 74.6703 57.8247 73.0476 58.4392C71.425 59.0537 69.6636 59.2052 67.9598 58.8769C66.2561 58.5486 64.6771 57.7533 63.399 56.5798L58.713 57.2668L61.059 53.2168C60.528 51.8994 60.3037 50.4785 60.4031 49.0617C60.5024 47.6448 60.9228 46.2691 61.6324 45.0388C62.342 43.8084 63.3222 42.7556 64.4988 41.9601C65.6754 41.1645 67.0176 40.6471 68.4238 40.4469C69.8299 40.2468 71.2632 40.3692 72.6151 40.8048C73.9669 41.2405 75.2019 41.978 76.2267 42.9615C77.2514 43.945 78.0389 45.1488 78.5296 46.4817C79.0203 47.8145 79.2013 49.2416 79.059 50.6548H79.044Z" fill="white"/>
<path d="M79.044 50.6549C78.8626 52.3815 78.2087 54.0248 77.154 55.4039C76.636 56.0927 76.017 56.6996 75.318 57.2039C74.6278 57.727 73.8673 58.1501 73.059 58.4609C72.25 58.7773 71.4008 58.9793 70.536 59.0609C70.1042 59.1004 69.67 59.1084 69.237 59.0849C68.8021 59.0745 68.3687 59.0294 67.941 58.9499C66.213 58.6388 64.6059 57.8524 63.3 56.6789L63.411 56.7119L58.731 57.4319L58.392 57.4829L58.563 57.1829L60.9 53.1239V53.2859C60.3505 51.9434 60.1169 50.4925 60.2173 49.0454C60.3177 47.5983 60.7494 46.1936 61.479 44.9399C62.2075 43.6908 63.2096 42.6231 64.41 41.8169C65.6094 41.0226 66.9731 40.5101 68.3987 40.3179C69.8244 40.1257 71.2751 40.2586 72.642 40.7069C73.9923 41.1682 75.2223 41.9257 76.242 42.9239C77.2631 43.9168 78.0458 45.1284 78.5311 46.4675C79.0164 47.8066 79.1918 49.2383 79.044 50.6549ZM79.044 50.6549C79.1937 49.2446 79.0175 47.8187 78.5292 46.4872C78.0408 45.1558 77.2532 43.9542 76.2272 42.9751C75.2012 41.996 73.964 41.2656 72.6112 40.8401C71.2583 40.4146 69.8258 40.3054 68.424 40.5209C67.0352 40.7295 65.7125 41.2528 64.557 42.0509C63.4126 42.8536 62.4565 43.8957 61.755 45.1049C61.0647 46.3184 60.6585 47.6726 60.5671 49.0657C60.4756 50.4588 60.7013 51.8545 61.227 53.1479L61.26 53.2319L61.215 53.3069L58.857 57.3509L58.689 57.1019L63.378 56.4449H63.444L63.489 56.4899C64.7455 57.6627 66.3037 58.4625 67.989 58.7999C68.4074 58.8839 68.8317 58.935 69.258 58.9529C69.6845 58.9829 70.1125 58.9829 70.539 58.9529C71.3943 58.8862 72.2363 58.7014 73.041 58.4039C73.8503 58.1123 74.6117 57.7018 75.3 57.1859C76.0035 56.6849 76.6249 56.0777 77.142 55.3859C78.1998 54.0143 78.8581 52.377 79.044 50.6549Z" fill="#263238"/>
<path d="M73.818 51.0991C74.4443 51.0991 74.952 50.5913 74.952 49.9651C74.952 49.3388 74.4443 48.8311 73.818 48.8311C73.1917 48.8311 72.684 49.3388 72.684 49.9651C72.684 50.5913 73.1917 51.0991 73.818 51.0991Z" fill="#263238"/>
<path d="M69.753 51.0991C70.3793 51.0991 70.887 50.5913 70.887 49.9651C70.887 49.3388 70.3793 48.8311 69.753 48.8311C69.1267 48.8311 68.619 49.3388 68.619 49.9651C68.619 50.5913 69.1267 51.0991 69.753 51.0991Z" fill="#263238"/>
<path d="M65.691 51.0991C66.3173 51.0991 66.825 50.5913 66.825 49.9651C66.825 49.3388 66.3173 48.8311 65.691 48.8311C65.0647 48.8311 64.557 49.3388 64.557 49.9651C64.557 50.5913 65.0647 51.0991 65.691 51.0991Z" fill="#263238"/>
<path d="M172.2 50.655C172.02 52.3807 171.364 54.0225 170.305 55.397C169.246 56.7716 167.826 57.8249 166.204 58.4394C164.581 59.0539 162.82 59.2055 161.116 58.8771C159.412 58.5488 157.833 57.7535 156.555 56.58L151.869 57.267L154.212 53.217C153.679 51.899 153.453 50.4768 153.551 49.0584C153.649 47.64 154.068 46.2625 154.778 45.0304C155.488 43.7983 156.468 42.7439 157.646 41.9471C158.823 41.1504 160.167 40.6322 161.575 40.4318C162.982 40.2315 164.417 40.3542 165.77 40.7908C167.123 41.2273 168.359 41.9662 169.384 42.9514C170.409 43.9366 171.197 45.1423 171.687 46.477C172.177 47.8118 172.356 49.2405 172.212 50.655H172.2Z" fill="white"/>
<path d="M172.2 50.6549C172.017 52.3813 171.363 54.0241 170.31 55.4039C170.047 55.7454 169.763 56.071 169.461 56.3789C169.149 56.6781 168.818 56.9576 168.471 57.2159C167.782 57.7403 167.021 58.1635 166.212 58.4729C165.404 58.7895 164.556 58.9915 163.692 59.0729C163.259 59.1124 162.824 59.1205 162.39 59.0969C161.955 59.0865 161.522 59.0413 161.094 58.9619C159.368 58.6449 157.764 57.8533 156.462 56.6759L156.573 56.7089L151.893 57.4289L151.554 57.4799L151.725 57.1799L154.056 53.1209V53.2829C153.507 51.9405 153.273 50.4899 153.373 49.0429C153.473 47.5959 153.904 46.1912 154.632 44.9369C155.362 43.6877 156.365 42.62 157.566 41.8139C158.765 41.0197 160.129 40.5072 161.555 40.315C162.98 40.1227 164.431 40.2557 165.798 40.7039C167.148 41.1649 168.379 41.9225 169.398 42.9209C170.42 43.9138 171.203 45.1259 171.689 46.4656C172.174 47.8053 172.349 49.2378 172.2 50.6549ZM172.2 50.6549C172.35 49.2446 172.174 47.8188 171.685 46.4873C171.197 45.1558 170.409 43.9542 169.383 42.9752C168.357 41.9961 167.12 41.2656 165.767 40.8401C164.414 40.4146 162.982 40.3054 161.58 40.5209C160.191 40.7296 158.869 41.2529 157.713 42.0509C156.569 42.8537 155.613 43.8958 154.911 45.1049C154.216 46.3179 153.806 47.6731 153.711 49.0679C153.623 50.4599 153.847 51.854 154.368 53.1479L154.404 53.2319L154.359 53.3069L152.001 57.3509L151.833 57.1019L156.522 56.4449H156.588L156.633 56.4899C157.885 57.6603 159.438 58.46 161.118 58.7999C161.536 58.8839 161.961 58.9351 162.387 58.9529C162.813 58.9829 163.242 58.9829 163.668 58.9529C164.523 58.8862 165.365 58.7015 166.17 58.4039C166.979 58.1119 167.74 57.7014 168.429 57.1859C169.131 56.684 169.751 56.0768 170.268 55.3859C171.338 54.0183 172.007 52.3804 172.2 50.6549Z" fill="#263238"/>
<path d="M166.959 51.0991C167.585 51.0991 168.093 50.5913 168.093 49.9651C168.093 49.3388 167.585 48.8311 166.959 48.8311C166.333 48.8311 165.825 49.3388 165.825 49.9651C165.825 50.5913 166.333 51.0991 166.959 51.0991Z" fill="#263238"/>
<path d="M162.897 51.0991C163.523 51.0991 164.031 50.5913 164.031 49.9651C164.031 49.3388 163.523 48.8311 162.897 48.8311C162.271 48.8311 161.763 49.3388 161.763 49.9651C161.763 50.5913 162.271 51.0991 162.897 51.0991Z" fill="#263238"/>
<path d="M159.969 49.965C159.97 50.1894 159.904 50.4089 159.779 50.5958C159.655 50.7827 159.478 50.9285 159.271 51.0148C159.064 51.1011 158.836 51.124 158.616 51.0806C158.395 51.0371 158.193 50.9294 158.034 50.7709C157.875 50.6124 157.767 50.4104 157.723 50.1903C157.679 49.9703 157.701 49.7421 157.787 49.5347C157.873 49.3273 158.018 49.15 158.205 49.0253C158.391 48.9006 158.611 48.834 158.835 48.834C159.135 48.834 159.423 48.953 159.636 49.1651C159.848 49.3771 159.968 49.6648 159.969 49.965Z" fill="#263238"/>
<path d="M63.54 117.051H61.533V118.362H63.54V117.051Z" fill="#455A64"/>
<path d="M66.144 116.964H64.137V118.275H66.144V116.964Z" fill="#455A64"/>
<path d="M68.748 116.877H66.741V118.188H68.748V116.877Z" fill="#455A64"/>
<path d="M71.349 116.79H69.342V118.101H71.349V116.79Z" fill="#455A64"/>
<path d="M73.953 116.703H71.946V118.014H73.953V116.703Z" fill="#455A64"/>
<path d="M76.557 116.619H74.55V117.93H76.557V116.619Z" fill="#455A64"/>
<path d="M79.158 116.532H77.151V117.843H79.158V116.532Z" fill="#455A64"/>
<path d="M81.762 116.445H79.755V117.756H81.762V116.445Z" fill="#455A64"/>
<path d="M84.363 116.358H82.356V117.669H84.363V116.358Z" fill="#455A64"/>
<path d="M84.855 119.115H61.041V117.519L84.855 116.856V119.115Z" fill="#37474F"/>
<path d="M108.099 112.827H68.787L75.039 83.5591H114.351L108.099 112.827Z" fill="#455A64"/>
<path d="M109.554 112.827H70.239L76.491 83.5591H115.806L109.554 112.827Z" fill="#37474F"/>
<path d="M96.42 96.4981C96.2995 97.1643 95.954 97.7691 95.4413 98.2114C94.9286 98.6536 94.2797 98.9066 93.603 98.9281C93.2976 98.9376 92.994 98.8777 92.7151 98.753C92.4362 98.6284 92.1891 98.4421 91.9925 98.2082C91.7959 97.9744 91.6548 97.699 91.5799 97.4028C91.505 97.1066 91.4982 96.7973 91.56 96.4981C91.6793 95.8315 92.0238 95.2261 92.5361 94.7832C93.0483 94.3403 93.6972 94.0868 94.374 94.0651C94.6799 94.055 94.9841 94.1145 95.2637 94.2392C95.5433 94.3638 95.7909 94.5503 95.988 94.7846C96.185 95.0189 96.3262 95.2948 96.4011 95.5916C96.4759 95.8884 96.4824 96.1984 96.42 96.4981Z" fill="#263238"/>
<path d="M98.436 120.471H79.101V118.968L98.436 118.344V120.471Z" fill="#455A64"/>
<path d="M103.692 120.468H93.309L87.057 104.067H97.44L103.692 120.468Z" fill="#455A64"/>
<path d="M105.399 120.468H95.019L88.767 104.067H99.147L105.399 120.468Z" fill="#263238"/>
<path d="M60.3 120.87H40.374C38.673 120.87 41.133 116.025 47.343 114.168C53.553 112.311 62.265 119.052 60.3 120.87Z" fill="#37474F"/>
<path d="M52.5 120.87C52.5134 120.318 52.6043 119.771 52.77 119.244C52.93 118.711 53.1546 118.201 53.439 117.723C53.7241 117.242 54.0812 116.808 54.498 116.436C54.9113 116.066 55.3866 115.773 55.902 115.569C55.689 115.743 55.446 115.869 55.251 116.058L54.951 116.319L54.669 116.619C54.3005 117.005 53.9774 117.431 53.706 117.891C53.4301 118.35 53.1933 118.832 52.998 119.331C52.7979 119.832 52.6315 120.346 52.5 120.87Z" fill="#263238"/>
<path d="M54.846 116.259C56.0317 116.635 57.1535 117.188 58.173 117.9C58.6889 118.257 59.1559 118.679 59.562 119.157C59.9879 119.633 60.2471 120.234 60.3 120.87C60.1348 120.284 59.8182 119.751 59.382 119.325C58.9569 118.892 58.4918 118.501 57.993 118.155C57.498 117.798 56.979 117.477 56.451 117.162C55.923 116.847 55.392 116.55 54.846 116.259Z" fill="#263238"/>
<path d="M155.598 117.051H153.591V118.362H155.598V117.051Z" fill="#455A64"/>
<path d="M158.202 116.964H156.195V118.275H158.202V116.964Z" fill="#455A64"/>
<path d="M160.806 116.877H158.799V118.188H160.806V116.877Z" fill="#455A64"/>
<path d="M163.407 116.79H161.4V118.101H163.407V116.79Z" fill="#455A64"/>
<path d="M166.011 116.703H164.004V118.014H166.011V116.703Z" fill="#455A64"/>
<path d="M168.615 116.619H166.608V117.93H168.615V116.619Z" fill="#455A64"/>
<path d="M171.216 116.532H169.209V117.843H171.216V116.532Z" fill="#455A64"/>
<path d="M173.82 116.445H171.813V117.756H173.82V116.445Z" fill="#455A64"/>
<path d="M176.424 116.358H174.417V117.669H176.424V116.358Z" fill="#455A64"/>
<path d="M176.916 119.115H153.102V117.519L176.916 116.856V119.115Z" fill="#37474F"/>
<path d="M200.157 112.827H160.845L167.097 83.5591H206.409L200.157 112.827Z" fill="#455A64"/>
<path d="M201.612 112.827H162.3L168.552 83.5591H207.864L201.612 112.827Z" fill="#37474F"/>
<path d="M188.478 96.4981C188.358 97.1638 188.013 97.7682 187.5 98.2104C186.988 98.6526 186.34 98.9059 185.664 98.9281C185.358 98.938 185.054 98.8785 184.775 98.754C184.496 98.6296 184.248 98.4434 184.051 98.2095C183.854 97.9755 183.713 97.7 183.638 97.4036C183.563 97.1071 183.556 96.7975 183.618 96.4981C183.738 95.8317 184.083 95.2266 184.595 94.7838C185.107 94.341 185.755 94.0873 186.432 94.0651C186.738 94.055 187.042 94.1145 187.322 94.2392C187.601 94.3638 187.849 94.5503 188.046 94.7846C188.243 95.0189 188.384 95.2948 188.459 95.5916C188.534 95.8884 188.54 96.1984 188.478 96.4981Z" fill="#263238"/>
<path d="M190.494 120.471H171.159V118.968L190.494 118.344V120.471Z" fill="#455A64"/>
<path d="M195.75 120.468H185.367L179.115 104.067H189.498L195.75 120.468Z" fill="#455A64"/>
<path d="M197.46 120.468H187.077L180.825 104.067H191.208L197.46 120.468Z" fill="#263238"/>
<path d="M152.367 120.87H132.432C130.731 120.87 133.191 116.025 139.401 114.168C145.611 112.311 154.323 119.052 152.367 120.87Z" fill="#37474F"/>
<path d="M144.543 120.87C144.558 120.318 144.649 119.771 144.813 119.244C144.974 118.712 145.199 118.201 145.482 117.723C145.769 117.244 146.126 116.81 146.541 116.436C146.954 116.066 147.43 115.773 147.945 115.569C147.732 115.743 147.489 115.869 147.294 116.058L146.994 116.319L146.712 116.619C146.342 117.004 146.017 117.431 145.746 117.891C145.47 118.35 145.233 118.832 145.038 119.331C144.839 119.832 144.674 120.346 144.543 120.87Z" fill="#263238"/>
<path d="M146.904 116.259C148.09 116.635 149.212 117.188 150.231 117.9C150.747 118.258 151.215 118.68 151.623 119.157C152.048 119.629 152.309 120.226 152.367 120.858C152.201 120.271 151.883 119.739 151.446 119.313C151.021 118.88 150.556 118.489 150.057 118.143C149.565 117.786 149.043 117.465 148.515 117.15C147.987 116.835 147.453 116.55 146.904 116.259Z" fill="#263238"/>
</svg>
