<svg width="446" height="402" viewBox="0 0 446 402" fill="none" xmlns="http://www.w3.org/2000/svg">
<path fill-rule="evenodd" clip-rule="evenodd" d="M294.75 -166.206C373.398 -182.751 435.369 -288.849 510.414 -260.081C579.238 -233.698 570.529 -129.268 581.31 -56.3535C590.418 5.24438 593.687 68.8976 567.404 125.347C542.926 177.92 483.716 199.498 442.973 240.767C390.481 293.937 369.247 395.815 294.75 401.524C221.564 407.133 183.226 314.346 129.046 264.827C82.4682 222.257 6.21507 195.247 0.314205 132.424C-5.69538 68.442 76.185 33.0073 101.733 -25.9591C123.36 -75.8745 92.2626 -149.394 136.271 -181.371C180.279 -213.348 241.516 -155.007 294.75 -166.206Z" fill="#FF6584"/>
</svg>
