<svg width="148" height="168" viewBox="0 0 148 168" fill="none" xmlns="http://www.w3.org/2000/svg">
<path d="M80.74 13.7273C94.5572 20.1977 106.945 28.3181 117.666 39.1734C129.761 51.4201 144.282 63.5332 146.754 80.5675C149.265 97.8716 141.12 115.323 130.76 129.409C121.143 142.483 106.575 150.852 91.2106 156.082C77.5256 160.74 63.1246 155.901 48.7392 157.327C30.5011 159.136 12.5523 172.3 -4.49509 165.571C-22.0188 158.654 -33.1256 140.329 -39.3601 122.551C-45.523 104.978 -42.8481 85.9896 -38.7763 67.8173C-34.7365 49.7881 -29.5802 31.0742 -16.0452 18.4974C-2.71945 6.11505 15.9736 0.956388 34.1422 0.060942C50.6436 -0.752339 65.7778 6.72083 80.74 13.7273Z" fill="#2297FA"/>
</svg>
