<svg width="155" height="95" viewBox="0 0 155 95" fill="none" xmlns="http://www.w3.org/2000/svg">
<g clip-path="url(#clip0_212_233)">
<path d="M154.918 74.1342C154.921 74.7705 154.676 75.382 154.236 75.8343C153.797 76.2865 153.199 76.5425 152.575 76.5458H49.4824C49.1731 76.5442 48.8671 76.4805 48.582 76.3584C48.2968 76.2363 48.038 76.0583 47.8205 75.8343C47.6029 75.6104 47.4307 75.345 47.3139 75.0533C47.197 74.7616 47.1376 74.4493 47.1393 74.1343V2.41156C47.136 1.7753 47.381 1.16378 47.8204 0.711527C48.2598 0.259272 48.8576 0.00332734 49.4823 0H152.574C152.884 0.00163875 153.19 0.0653144 153.475 0.18739C153.76 0.309466 154.019 0.487551 154.236 0.711479C154.454 0.935407 154.626 1.20079 154.743 1.49248C154.86 1.78417 154.919 2.09645 154.918 2.41149V74.1342Z" fill="#E6E6E6"/>
<path d="M153.702 72.9598C153.702 73.5782 153.46 74.1713 153.031 74.6086C152.602 75.0459 152.019 75.2916 151.412 75.2916H50.7154C50.1082 75.2916 49.5259 75.0459 49.0966 74.6086C48.6672 74.1713 48.426 73.5782 48.426 72.9598V3.6189C48.426 3.00047 48.6672 2.40737 49.0966 1.97008C49.5259 1.53278 50.1082 1.28711 50.7154 1.28711H151.417C152.023 1.28835 152.604 1.53457 153.033 1.97173C153.461 2.40889 153.702 3.00129 153.702 3.6189V72.9598Z" fill="#80CC80"/>
<path d="M53.8079 4.29785H148.427C148.788 4.29785 149.133 4.44367 149.388 4.70323C149.643 4.9628 149.786 5.31484 149.786 5.68192V70.6282C149.786 70.9952 149.643 71.3473 149.388 71.6068C149.133 71.8664 148.788 72.0122 148.427 72.0122H53.8079C53.4475 72.0122 53.1018 71.8664 52.847 71.6068C52.5921 71.3473 52.449 70.9952 52.449 70.6282V5.68192C52.449 5.31484 52.5921 4.9628 52.847 4.70323C53.1018 4.44367 53.4475 4.29785 53.8079 4.29785Z" fill="#E6E6E6"/>
<path d="M55.0055 5.85547H147.127C147.487 5.85547 147.833 6.00129 148.087 6.26085C148.342 6.52041 148.486 6.87246 148.486 7.23953V68.7202C148.486 69.0872 148.342 69.4393 148.087 69.6988C147.833 69.9584 147.487 70.1042 147.127 70.1042H55.0055C54.6451 70.1042 54.2995 69.9584 54.0446 69.6988C53.7898 69.4393 53.6466 69.0872 53.6466 68.7202V7.23953C53.6466 6.87246 53.7898 6.52041 54.0446 6.26085C54.2995 6.00129 54.6451 5.85547 55.0055 5.85547Z" fill="white"/>
<path d="M120.049 48.5647C119.687 48.5644 119.328 48.4866 118.997 48.3363C118.92 48.3015 118.846 48.2589 118.778 48.2093L112.083 43.4094C111.743 43.166 111.466 42.843 111.275 42.4676C111.083 42.0923 110.984 41.6756 110.983 41.2527V34.7066C110.984 34.2837 111.083 33.867 111.275 33.4917C111.466 33.1163 111.743 32.7933 112.083 32.5499L118.778 27.75C118.846 27.7004 118.92 27.6579 118.997 27.623C119.391 27.4444 119.823 27.3691 120.254 27.4037C120.684 27.4384 121.099 27.582 121.461 27.8215C121.823 28.061 122.12 28.3888 122.326 28.7752C122.532 29.1615 122.64 29.5941 122.64 30.0337V45.9256C122.64 46.6253 122.367 47.2964 121.881 47.7911C121.395 48.2859 120.736 48.5638 120.049 48.5638L120.049 48.5647Z" fill="#3F3D56"/>
<path d="M105.066 49.8518H86.3934C82.5838 49.8487 79.4965 47.3405 79.4926 44.2456V31.7141C79.4965 28.6192 82.5838 26.1111 86.3934 26.1079H105.115C108.897 26.1115 111.962 28.6017 111.967 31.6745V44.2456C111.963 47.3405 108.876 49.8487 105.066 49.8518Z" fill="#3F3D56"/>
<path d="M138.328 66.1504C141.395 66.1504 143.882 63.618 143.882 60.4942C143.882 57.3703 141.395 54.8379 138.328 54.8379C135.261 54.8379 132.775 57.3703 132.775 60.4942C132.775 63.618 135.261 66.1504 138.328 66.1504Z" fill="#009900" fill-opacity="0.5"/>
<path d="M141.213 60.3932L136.786 57.7901C136.768 57.7798 136.749 57.7744 136.728 57.7744C136.708 57.7744 136.688 57.7798 136.671 57.7901C136.654 57.8004 136.639 57.8152 136.629 57.833C136.619 57.8508 136.614 57.8709 136.614 57.8915V63.0976C136.614 63.1182 136.619 63.1384 136.629 63.1562C136.639 63.174 136.654 63.1887 136.671 63.199C136.688 63.2093 136.708 63.2147 136.728 63.2147C136.749 63.2147 136.768 63.2093 136.786 63.199L141.213 60.596C141.23 60.5857 141.245 60.5709 141.255 60.5531C141.265 60.5353 141.27 60.5151 141.27 60.4946C141.27 60.474 141.265 60.4538 141.255 60.436C141.245 60.4182 141.23 60.4034 141.213 60.3932L136.786 57.7901C136.768 57.7798 136.749 57.7744 136.728 57.7744C136.708 57.7744 136.688 57.7798 136.671 57.7901C136.654 57.8004 136.639 57.8152 136.629 57.833C136.619 57.8508 136.614 57.8709 136.614 57.8915V63.0976C136.614 63.1182 136.619 63.1384 136.629 63.1562C136.639 63.174 136.654 63.1887 136.671 63.199C136.688 63.2093 136.708 63.2147 136.728 63.2147C136.749 63.2147 136.768 63.2093 136.786 63.199L141.213 60.596C141.23 60.5857 141.245 60.5709 141.255 60.5531C141.265 60.5353 141.27 60.5151 141.27 60.4946C141.27 60.474 141.265 60.4538 141.255 60.436C141.245 60.4182 141.23 60.4034 141.213 60.3932Z" fill="white"/>
<path d="M131.118 82.7358C131.121 83.3721 130.876 83.9836 130.437 84.4358C129.997 84.8881 129.399 85.144 128.775 85.1474H25.6825C25.3732 85.1457 25.0672 85.082 24.782 84.96C24.4969 84.8379 24.2381 84.6598 24.0205 84.4359C23.803 84.212 23.6308 83.9466 23.5139 83.6549C23.397 83.3632 23.3377 83.0509 23.3393 82.7359V11.0131C23.3361 10.3769 23.5811 9.76534 24.0205 9.31309C24.4599 8.86083 25.0577 8.60489 25.6824 8.60156H128.775C129.084 8.6032 129.39 8.66688 129.675 8.78895C129.96 8.91103 130.219 9.08911 130.436 9.31304C130.654 9.53697 130.826 9.80236 130.943 10.094C131.06 10.3857 131.119 10.698 131.118 11.0131V82.7358Z" fill="#E6E6E6"/>
<path d="M129.902 81.5613C129.902 82.1797 129.66 82.7729 129.231 83.2101C128.802 83.6474 128.219 83.8931 127.612 83.8931H26.9154C26.3082 83.8931 25.7259 83.6474 25.2966 83.2101C24.8672 82.7729 24.626 82.1797 24.626 81.5613V12.2205C24.626 11.602 24.8672 11.0089 25.2966 10.5716C25.7259 10.1343 26.3082 9.88867 26.9154 9.88867H127.617C128.223 9.88991 128.804 10.1361 129.233 10.5733C129.661 11.0105 129.902 11.6028 129.902 12.2205V81.5613Z" fill="#40B340"/>
<path d="M30.0079 12.8989H124.627C124.988 12.8989 125.333 13.0447 125.588 13.3043C125.843 13.5639 125.986 13.9159 125.986 14.283V79.2292C125.986 79.5963 125.843 79.9484 125.588 80.2079C125.333 80.4675 124.988 80.6133 124.627 80.6133H30.0079C29.6475 80.6133 29.3018 80.4675 29.047 80.2079C28.7922 79.9484 28.649 79.5963 28.649 79.2292V14.283C28.649 13.9159 28.7922 13.5639 29.047 13.3043C29.3018 13.0447 29.6475 12.8989 30.0079 12.8989Z" fill="#E6E6E6"/>
<path d="M31.2056 14.457H123.327C123.687 14.457 124.033 14.6029 124.288 14.8624C124.542 15.122 124.686 15.474 124.686 15.8411V77.3217C124.686 77.6888 124.542 78.0408 124.288 78.3004C124.033 78.56 123.687 78.7058 123.327 78.7058H31.2056C30.8452 78.7058 30.4995 78.56 30.2447 78.3004C29.9898 78.0408 29.8467 77.6888 29.8467 77.3217V15.8411C29.8467 15.474 29.9898 15.122 30.2447 14.8624C30.4995 14.6029 30.8452 14.457 31.2056 14.457Z" fill="white"/>
<path d="M96.2494 57.1662C95.8868 57.166 95.5283 57.0882 95.1971 56.9379C95.1201 56.903 95.0466 56.8605 94.9777 56.8109L88.2828 52.011C87.9432 51.7676 87.6661 51.4446 87.4748 51.0692C87.2835 50.6939 87.1836 50.2772 87.1835 49.8543V43.3082C87.1836 42.8853 87.2835 42.4686 87.4748 42.0932C87.6661 41.7179 87.9432 41.3949 88.2828 41.1515L94.9777 36.3515C95.0466 36.302 95.12 36.2594 95.1971 36.2246C95.5915 36.046 96.0234 35.9706 96.4536 36.0053C96.8839 36.0399 97.2988 36.1836 97.6607 36.4231C98.0226 36.6626 98.32 36.9904 98.5259 37.3767C98.7318 37.7631 98.8396 38.1957 98.8396 38.6353V54.5272C98.8396 55.2269 98.5667 55.8979 98.081 56.3927C97.5952 56.8875 96.9364 57.1654 96.2494 57.1654L96.2494 57.1662Z" fill="#3F3D56"/>
<path d="M81.266 58.4534H62.5934C58.7838 58.4502 55.6965 55.9421 55.6926 52.8472V40.3157C55.6965 37.2208 58.7838 34.7127 62.5934 34.7095H81.3147C85.0971 34.7131 88.1623 37.2032 88.1668 40.2761V52.8472C88.1628 55.9421 85.0756 58.4502 81.266 58.4534Z" fill="#3F3D56"/>
<path d="M114.528 74.752C117.595 74.752 120.082 72.2196 120.082 69.0957C120.082 65.9718 117.595 63.4395 114.528 63.4395C111.461 63.4395 108.975 65.9718 108.975 69.0957C108.975 72.2196 111.461 74.752 114.528 74.752Z" fill="#009900" fill-opacity="0.75"/>
<path d="M117.413 68.9947L112.986 66.3917C112.969 66.3814 112.949 66.376 112.929 66.376C112.908 66.376 112.889 66.3814 112.871 66.3917C112.854 66.4019 112.839 66.4167 112.829 66.4345C112.819 66.4523 112.814 66.4725 112.814 66.4931V71.6992C112.814 71.7197 112.819 71.7399 112.829 71.7577C112.839 71.7755 112.854 71.7903 112.871 71.8006C112.889 71.8109 112.908 71.8163 112.929 71.8163C112.949 71.8163 112.969 71.8109 112.986 71.8006L117.413 69.1975C117.43 69.1872 117.445 69.1725 117.455 69.1547C117.465 69.1369 117.47 69.1167 117.47 69.0961C117.47 69.0756 117.465 69.0554 117.455 69.0376C117.445 69.0198 117.43 69.005 117.413 68.9947L112.986 66.3917C112.969 66.3814 112.949 66.376 112.929 66.376C112.908 66.376 112.889 66.3814 112.871 66.3917C112.854 66.4019 112.839 66.4167 112.829 66.4345C112.819 66.4523 112.814 66.4725 112.814 66.4931V71.6992C112.814 71.7197 112.819 71.7399 112.829 71.7577C112.839 71.7755 112.854 71.7903 112.871 71.8006C112.889 71.8109 112.908 71.8163 112.929 71.8163C112.949 71.8163 112.969 71.8109 112.986 71.8006L117.413 69.1975C117.43 69.1872 117.445 69.1725 117.455 69.1547C117.465 69.1369 117.47 69.1167 117.47 69.0961C117.47 69.0756 117.465 69.0554 117.455 69.0376C117.445 69.0198 117.43 69.005 117.413 68.9947Z" fill="white"/>
<path d="M107.778 92.5883C107.782 93.2246 107.537 93.8361 107.097 94.2884C106.658 94.7406 106.06 94.9966 105.435 94.9999H2.34317C2.03386 94.9983 1.72789 94.9346 1.44274 94.8125C1.15758 94.6904 0.898826 94.5124 0.681245 94.2884C0.463665 94.0645 0.291518 93.7991 0.174635 93.5074C0.0577524 93.2157 -0.00157742 92.9034 3.22443e-05 92.5884V20.8657C-0.00323417 20.2294 0.241789 19.6179 0.681201 19.1656C1.12061 18.7134 1.71842 18.4574 2.34311 18.4541H105.435C105.745 18.4557 106.051 18.5194 106.336 18.6415C106.621 18.7636 106.88 18.9417 107.097 19.1656C107.315 19.3895 107.487 19.6549 107.604 19.9466C107.721 20.2383 107.78 20.5506 107.778 20.8656V92.5883Z" fill="#E6E6E6"/>
<path d="M106.562 91.4139C106.562 92.0323 106.321 92.6254 105.892 93.0627C105.462 93.5 104.88 93.7457 104.273 93.7457H3.57614C2.96896 93.7457 2.38664 93.5 1.95729 93.0627C1.52795 92.6254 1.28674 92.0323 1.28674 91.4139V22.073C1.28674 21.4546 1.52795 20.8615 1.95729 20.4242C2.38664 19.9869 2.96896 19.7412 3.57614 19.7412H104.278C104.884 19.7425 105.465 19.9887 105.893 20.4258C106.322 20.863 106.562 21.4554 106.562 22.073V91.4139Z" fill="#009900"/>
<path d="M6.66859 22.752H101.288C101.648 22.752 101.994 22.8978 102.249 23.1573C102.504 23.4169 102.647 23.7689 102.647 24.136V89.0823C102.647 89.4493 102.504 89.8014 102.249 90.061C101.994 90.3205 101.648 90.4663 101.288 90.4663H6.66859C6.30819 90.4663 5.96255 90.3205 5.7077 90.061C5.45286 89.8014 5.30969 89.4493 5.30969 89.0823V24.136C5.30969 23.7689 5.45286 23.4169 5.7077 23.1573C5.96255 22.8978 6.30819 22.752 6.66859 22.752Z" fill="#E6E6E6"/>
<path d="M7.86628 24.3096H99.9874C100.166 24.3096 100.343 24.3454 100.507 24.4149C100.672 24.4845 100.822 24.5864 100.948 24.715C101.074 24.8435 101.175 24.9961 101.243 25.164C101.311 25.3319 101.346 25.5119 101.346 25.6936V87.1743C101.346 87.356 101.311 87.536 101.243 87.7039C101.175 87.8718 101.074 88.0244 100.948 88.1529C100.822 88.2815 100.672 88.3834 100.507 88.453C100.343 88.5225 100.166 88.5583 99.9874 88.5583H7.86628C7.50588 88.5583 7.16024 88.4125 6.9054 88.1529C6.65055 87.8934 6.50739 87.5413 6.50739 87.1743V25.6936C6.50739 25.3266 6.65055 24.9745 6.9054 24.715C7.16024 24.4554 7.50588 24.3096 7.86628 24.3096Z" fill="white"/>
<path d="M72.9101 67.0188C72.5475 67.0185 72.189 66.9407 71.8578 66.7904C71.7808 66.7556 71.7073 66.713 71.6385 66.6634L64.9435 61.8635C64.6039 61.6201 64.3269 61.2971 64.1355 60.9218C63.9442 60.5464 63.8443 60.1297 63.8442 59.7068V53.1607C63.8443 52.7378 63.9442 52.3211 64.1355 51.9458C64.3268 51.5704 64.6039 51.2474 64.9435 51.004L71.6385 46.2041C71.7073 46.1545 71.7808 46.112 71.8578 46.0771C72.2522 45.8985 72.6841 45.8232 73.1144 45.8578C73.5446 45.8925 73.9595 46.0361 74.3214 46.2756C74.6833 46.5151 74.9807 46.8429 75.1866 47.2293C75.3925 47.6156 75.5003 48.0482 75.5003 48.4878V64.3797C75.5003 65.0794 75.2274 65.7505 74.7417 66.2452C74.2559 66.74 73.5971 67.018 72.9101 67.018L72.9101 67.0188Z" fill="#009900"/>
<path d="M57.9268 68.3059H39.2541C35.4446 68.3028 32.3573 65.7946 32.3534 62.6997V50.1682C32.3573 47.0733 35.4446 44.5652 39.2541 44.562H57.9755C61.7579 44.5656 64.8231 47.0558 64.8275 50.1286V62.6997C64.8236 65.7946 61.7363 68.3028 57.9268 68.3059Z" fill="#009900"/>
<path d="M91.189 84.605C94.256 84.605 96.7424 82.0726 96.7424 78.9487C96.7424 75.8249 94.256 73.2925 91.189 73.2925C88.1219 73.2925 85.6356 75.8249 85.6356 78.9487C85.6356 82.0726 88.1219 84.605 91.189 84.605Z" fill="#009900"/>
<path d="M94.0735 78.8473L89.6468 76.2442C89.6293 76.2339 89.6095 76.2285 89.5893 76.2285C89.5691 76.2285 89.5493 76.2339 89.5318 76.2442C89.5144 76.2545 89.4999 76.2693 89.4898 76.2871C89.4797 76.3049 89.4744 76.325 89.4744 76.3456V81.5517C89.4744 81.5723 89.4797 81.5925 89.4898 81.6103C89.4999 81.6281 89.5144 81.6428 89.5318 81.6531C89.5493 81.6634 89.5691 81.6688 89.5893 81.6688C89.6095 81.6688 89.6293 81.6634 89.6468 81.6531L94.0735 79.0501C94.0909 79.0398 94.1054 79.025 94.1155 79.0072C94.1256 78.9894 94.1309 78.9692 94.1309 78.9487C94.1309 78.9281 94.1256 78.9079 94.1155 78.8901C94.1054 78.8723 94.0909 78.8575 94.0735 78.8473L89.6468 76.2442C89.6293 76.2339 89.6095 76.2285 89.5893 76.2285C89.5691 76.2285 89.5493 76.2339 89.5318 76.2442C89.5144 76.2545 89.4999 76.2693 89.4898 76.2871C89.4797 76.3049 89.4744 76.325 89.4744 76.3456V81.5517C89.4744 81.5723 89.4797 81.5925 89.4898 81.6103C89.4999 81.6281 89.5144 81.6428 89.5318 81.6531C89.5493 81.6634 89.5691 81.6688 89.5893 81.6688C89.6095 81.6688 89.6293 81.6634 89.6468 81.6531L94.0735 79.0501C94.0909 79.0398 94.1054 79.025 94.1155 79.0072C94.1256 78.9894 94.1309 78.9692 94.1309 78.9487C94.1309 78.9281 94.1256 78.9079 94.1155 78.8901C94.1054 78.8723 94.0909 78.8575 94.0735 78.8473Z" fill="white"/>
</g>
<defs>
<clipPath id="clip0_212_233">
<rect width="154.918" height="95" fill="white"/>
</clipPath>
</defs>
</svg>
