<?xml version="1.0" encoding="utf-8"?>
<!-- Generator: Adobe Illustrator 28.2.0, SVG Export Plug-In . SVG Version: 6.00 Build 0)  -->
<svg version="1.1" id="Layer_1" xmlns="http://www.w3.org/2000/svg" xmlns:xlink="http://www.w3.org/1999/xlink" x="0px" y="0px"
	 viewBox="0 0 500 500" style="enable-background:new 0 0 500 500;" xml:space="preserve">
<style type="text/css">
	.st0{fill:#F5F5F5;}
	.st1{fill:#F0F0F0;}
	.st2{fill:#E0E0E0;}
	.st3{fill:#F0997A;}
	.st4{fill:#263238;}
	.st5{fill:#455A64;}
	.st6{fill:#FAFAFA;}
	.st7{opacity:0.1;enable-background:new    ;}
	.st8{fill:#37474F;}
	.st9{fill:#FFBDA7;}
	.st10{fill:#BA68C8;}
	.st11{fill:#B16668;}
	.st12{fill:#F28F8F;}
	.st13{fill:#FFFFFF;}
	.st14{clip-path:url(#SVGID_00000145756779597354233610000003943819703394000000_);}
	.st15{clip-path:url(#SVGID_00000039850266949405009610000013112883565970644647_);}
	.st16{clip-path:url(#SVGID_00000181048374251854028330000017261677884446705557_);}
	.st17{clip-path:url(#SVGID_00000035506980001189211220000014247827762265841302_);}
	.st18{clip-path:url(#SVGID_00000085246591881777515620000002356857960241503917_);}
	.st19{clip-path:url(#SVGID_00000165921322884356690980000004452527133128641417_);}
	.st20{clip-path:url(#SVGID_00000146472670712738785240000015104091076603078321_);}
	.st21{clip-path:url(#SVGID_00000116943941346909626840000013497261217877433260_);}
	.st22{clip-path:url(#SVGID_00000044880047049433543850000014533248690356153731_);}
	.st23{clip-path:url(#SVGID_00000089558182299028577050000010698766475039369403_);}
	.st24{clip-path:url(#SVGID_00000111892115597049626330000009679482082550337671_);}
	.st25{clip-path:url(#SVGID_00000080914005753736748770000000666665347245907646_);}
	.st26{fill:#009900;}
	.st27{font-family:'BritannicBold';}
	.st28{font-size:26px;}
	.st29{fill:#3F3D56;}
	.st30{fill:#E6E6E6;}
	.st31{fill:#6C63FF;}
	.st32{fill:none;}
	.st33{font-family:'Mael';}
	.st34{font-size:21px;}
	.st35{font-size:5px;}
	.st36{filter:url(#Adobe_OpacityMaskFilter);}
	.st37{mask:url(#a8ceb2fec4_00000069356068861335818320000018040821087451934125_);}
	.st38{font-size:11px;}
	.st39{clip-path:url(#SVGID_00000014634830563209764850000015336591264971195532_);}
	.st40{filter:url(#Adobe_OpacityMaskFilter_00000029026921439089292570000011909388006267499651_);}
	.st41{mask:url(#e6942530c9_00000063612698381811670780000010597024273400468145_);}
</style>
<g id="freepik--Floor--inject-187">
	<path id="freepik--floor--inject-187" class="st0" d="M140.4,318.3c-63.6,36.7-63.6,96.2,0,132.9s166.7,36.7,230.3,0
		s63.6-96.2,0-132.9S204,281.6,140.4,318.3z"/>
</g>
<g id="freepik--Circles--inject-187">
	<g id="freepik--circles--inject-187">
		<path class="st1" d="M81.3,87c-3.9,0-7-3.1-7-7s3.1-7,7-7s7,3.1,7,7S85.2,87,81.3,87z M81.3,74c-3.3,0-6,2.7-6,6s2.7,6,6,6
			s6-2.7,6-6S84.6,74,81.3,74z"/>
		<path class="st1" d="M35.7,144.2c-3.9,0-7-3.1-7-7s3.1-7,7-7s7,3.1,7,7S39.6,144.2,35.7,144.2z M35.7,131.2c-3.3,0-6,2.7-6,6
			s2.7,6,6,6s6-2.7,6-6S39,131.2,35.7,131.2L35.7,131.2z"/>
		<path class="st1" d="M161.4,196.5c-3.9,0-7-3.1-7-7s3.1-7,7-7s7,3.1,7,7S165.3,196.5,161.4,196.5L161.4,196.5z M161.4,183.5
			c-3.3,0-6,2.7-6,6s2.7,6,6,6s6-2.7,6-6S164.7,183.5,161.4,183.5L161.4,183.5z"/>
		<path class="st1" d="M31.2,309.8c-3.9,0-7-3.1-7-7s3.1-7,7-7s7,3.1,7,7S35.1,309.8,31.2,309.8L31.2,309.8z M31.2,296.8
			c-3.3,0-6,2.7-6,6s2.7,6,6,6s6-2.7,6-6S34.5,296.8,31.2,296.8L31.2,296.8z"/>
		<path class="st1" d="M239.8,124.8c-3.9,0-7-3.1-7-7s3.1-7,7-7s7,3.1,7,7S243.7,124.8,239.8,124.8z M239.8,111.8c-3.3,0-6,2.7-6,6
			s2.7,6,6,6s6-2.7,6-6S243.1,111.8,239.8,111.8L239.8,111.8z"/>
		<path class="st1" d="M232,62.2c-3.9,0-7-3.1-7-7s3.1-7,7-7s7,3.1,7,7l0,0C239,59,235.9,62.2,232,62.2z M232,49.2c-3.3,0-6,2.7-6,6
			s2.7,6,6,6s6-2.7,6-6S235.3,49.2,232,49.2L232,49.2z"/>
		<path class="st1" d="M121.4,37.1c0,1.9-1.5,3.4-3.4,3.4s-3.4-1.5-3.4-3.4s1.5-3.4,3.4-3.4C119.9,33.7,121.4,35.3,121.4,37.1z"/>
		<path class="st1" d="M259.9,83.5c0,1.9-1.5,3.4-3.4,3.4s-3.4-1.5-3.4-3.4s1.5-3.4,3.4-3.4C258.4,80.2,259.9,81.7,259.9,83.5
			L259.9,83.5z"/>
		<path class="st1" d="M99.1,127.5c0,1.9-1.5,3.4-3.4,3.4s-3.4-1.5-3.4-3.4s1.5-3.4,3.4-3.4l0,0C97.6,124.1,99.1,125.6,99.1,127.5z"
			/>
		<path class="st1" d="M57.4,39.3c0,1.9-1.5,3.4-3.4,3.4s-3.4-1.5-3.4-3.4s1.5-3.4,3.3-3.4C55.9,35.9,57.4,37.4,57.4,39.3L57.4,39.3
			z"/>
		<path class="st1" d="M282.2,43.1c0,1.9-1.5,3.4-3.4,3.4s-3.4-1.5-3.4-3.4s1.5-3.4,3.4-3.4S282.2,41.2,282.2,43.1L282.2,43.1z"/>
		<path class="st1" d="M311.1,190.3c0,1.9-1.5,3.4-3.4,3.4s-3.4-1.5-3.4-3.4s1.5-3.4,3.4-3.4l0,0
			C309.6,186.9,311.1,188.4,311.1,190.3L311.1,190.3z"/>
		<path class="st1" d="M143.7,252.2c0,1.9-1.5,3.4-3.4,3.4s-3.4-1.5-3.4-3.4s1.5-3.4,3.4-3.4l0,0
			C142.2,248.8,143.7,250.3,143.7,252.2L143.7,252.2z"/>
		<path class="st1" d="M46.1,267.8c0,1.9-1.5,3.4-3.4,3.4s-3.4-1.5-3.4-3.4s1.5-3.4,3.4-3.4C44.5,264.4,46.1,265.9,46.1,267.8
			L46.1,267.8z"/>
		<path class="st1" d="M37.5,90.7c0,1.9-1.5,3.4-3.4,3.4s-3.4-1.5-3.4-3.4s1.5-3.4,3.4-3.4l0,0C35.9,87.3,37.5,88.8,37.5,90.7z"/>
		<path class="st1" d="M388.1,127.5c0-3.9,3.1-7,7-7s7,3.1,7,7c0,3.9-3.1,7-7,7S388.1,131.3,388.1,127.5z M389.1,127.5
			c0,3.3,2.7,6,6,6s6-2.7,6-6s-2.7-6-6-6S389.1,124.2,389.1,127.5z"/>
		<path class="st1" d="M445.5,94.8c0-3.9,3.1-7,7-7s7,3.1,7,7s-3.1,7-7,7S445.5,98.7,445.5,94.8z M446.5,94.8c0,3.3,2.7,6,6,6
			s6-2.7,6-6s-2.7-6-6-6S446.5,91.5,446.5,94.8z"/>
		<path class="st1" d="M372.6,37.1c0-3.9,3.1-7,7-7s7,3.1,7,7s-3.1,7-7,7S372.6,41,372.6,37.1z M373.6,37.1c0,3.3,2.7,6,6,6
			s6-2.7,6-6s-2.7-6-6-6S373.6,33.8,373.6,37.1z"/>
		<path class="st1" d="M461.9,266.7c1.4,3.6-0.4,7.7-4,9.1s-7.7-0.4-9.1-4s0.4-7.7,4-9.1l0,0C456.4,261.3,460.5,263.1,461.9,266.7z
			 M461,267c-1.2-3.1-4.7-4.6-7.8-3.4c-3.1,1.2-4.6,4.7-3.4,7.8c1.2,3.1,4.7,4.6,7.8,3.4l0,0C460.7,273.6,462.2,270.1,461,267z"/>
		<path class="st1" d="M411.6,78.6c0,1.9,1.5,3.4,3.4,3.4s3.4-1.5,3.4-3.4s-1.5-3.4-3.3-3.4C413.1,75.2,411.6,76.7,411.6,78.6
			L411.6,78.6z"/>
		<path class="st1" d="M437.3,39.3c0,1.9,1.5,3.4,3.4,3.4s3.4-1.5,3.4-3.4s-1.5-3.4-3.4-3.4l0,0C438.8,35.9,437.3,37.4,437.3,39.3z"
			/>
		<path class="st1" d="M351,252.2c0,1.9,1.5,3.4,3.4,3.4s3.4-1.5,3.4-3.4s-1.5-3.4-3.4-3.4l0,0C352.5,248.8,351,250.3,351,252.2
			L351,252.2z"/>
		<path class="st1" d="M472.8,293.3c-0.7-1.7-2.6-2.6-4.4-1.9c-1.7,0.7-2.6,2.6-1.9,4.4c0.7,1.7,2.6,2.6,4.4,1.9l0,0
			C472.6,297,473.5,295,472.8,293.3z"/>
		<path class="st1" d="M457.2,154.3c0,1.9,1.5,3.4,3.4,3.4s3.4-1.5,3.4-3.4s-1.5-3.4-3.4-3.4S457.2,152.5,457.2,154.3L457.2,154.3z"
			/>
	</g>
</g>
<g id="freepik--Shadow--inject-187">
	<path id="freepik--shadow--inject-187" class="st2" d="M277.8,445.5c1.1-3.5,2.3-7,3.8-10.4c1.3-2.9,2.9-5.8,4.6-8.5
		c0.5-0.9,4.5-7.9,5.3-7.8c10.4,2,20.6,5.2,30.2,9.7c6.4,3,12.6,6.5,19.4,8.6s14.4,2.5,20.7-0.7c7.1-3.6,12.5-14.1,7.5-21.4
		c-4-5.8-10.1-7.3-16.7-8.4c-7.9-1.4-21.5-1.6-30.1-4.7c7.5-6.6,14.9-14.5,21.4-21c9.8-9.9,20.4-21.3,11.5-33.6
		c-1.5-2.2-3.4-4.1-5.5-5.6c-4.6-3.1-18.3-8.3-31.9-11c-16.7-3.4-33.7-5.6-50.8-6.6c-23.2-1.5-52.4,1.8-65.8,8.9
		s-20.4,18.9-19.3,31.3c1.8,19.8,24.7,28,34.7,32.1c7.2,3,14.8,4.8,22.3,7c3.8,1.1,7.5,2.4,11.2,3.8c2.6,1.1,6.5,2.8,7.2,5.8
		c0.2,1.2,0.2,2.4-0.1,3.5c-0.8,2.9-2.6,5.3-4,8c-5.1,9.9-5.7,24.9,0,34.6c4,6.8,13.2,9.2,18.3,2.1c1.5-2.3,2.6-4.8,3.4-7.5
		C276.1,451.2,276.9,448.4,277.8,445.5z"/>
</g>
<g id="freepik--Character--inject-187">
	<g id="freepik--character--inject-187">
		<g id="freepik--Bottom--inject-187">
			<path class="st3" d="M287,398.4l14.3-19.4l18.4,17l-31.5,26.6c0,0-12.4-3.8-13.2-11.2S283.1,400,287,398.4z"/>
			<path class="st4" d="M272.1,402.2c-4,0.1-5.8,1.2-7.3,4.4s-1.1,6.8-2.7,11.3s-4.2,6.4-6.7,12.2s-2.6,16.2,0.4,22.9
				c3,6.6,5.9,9.8,13.9,10L272.1,402.2z"/>
			<path class="st5" d="M287,398.4l-1.7,2.2c0.6,3.8,2.4,7.3,4.9,10.1c4.3,4.6,6.5,4.7,6.5,4.7l1.4-1.2c0,0,0.6,0.8-1.7,2.6
				c-2.9,2.1-5.5,4.7-7.6,7.7c-3.2,4.3-7.1,15.2-8.8,23.3s-1.7,14.1-8,15.3s-11.4-5.9-13.8-11.9s-2-14.5-0.1-20.2s6.9-8.7,7.4-15.7
				c0.3-5.1,2-10,4.6-12s7.1-1.8,10.3-2.9S286,397.5,287,398.4z"/>
			<path class="st6" d="M279.1,452.7c-2.5-8.6-15.3-13.5-22.5-11.5c0,3.3,0.5,6.6,1.6,9.8c2.4,6,7.4,13.1,13.8,11.9
				C277,462.1,278,458.2,279.1,452.7z"/>
			<path class="st7" d="M296.5,416.8c2.2-1.8,1.7-2.6,1.7-2.6l-1.4,1.2c0,0-2.2-0.1-6.5-4.7c-2.6-2.8-4.3-6.3-4.9-10.1l1.7-2.2
				c-1.1-0.9-3.3,0.8-6.6,2s-7.8,0.9-10.3,2.9c-1.5,1.4-2.6,3.1-3.2,5.1l20.3,5.2c0,0-3.5,8.6-6.2,16.7c-3.3,9.9-3.6,22.8-9.5,25.9
				c-5.7,3-14-9.7-14.6-19.5c-0.7,4.9-0.2,9.8,1.4,14.5c2.4,6,7.4,13.1,13.8,11.9s6.4-7.1,8.1-15.2s5.6-19,8.8-23.3
				C291,421.5,293.6,418.9,296.5,416.8z"/>
			<path class="st6" d="M281.3,444.5c-0.3-0.6-0.6-1.3-1-1.9c-0.7-1.1-1.6-2.2-2.5-3.1c-2.1-2-4.7-3.5-7.5-4.2
				c-0.3,0-0.3,0.5-0.1,0.6c2.3,1.5,4.7,2.7,6.7,4.6c0.9,0.8,1.6,1.7,2.3,2.6c0.3,0.5,0.6,1,0.9,1.6c0.2,0.6,0.6,1.2,1.1,1.7
				c0.1,0,0.2,0,0.2,0C281.8,445.8,281.5,445.1,281.3,444.5z"/>
			<path class="st6" d="M283,438.5c-0.9-2.3-2.4-4.3-4.4-5.7c-0.8-0.7-1.7-1.3-2.7-1.8c-0.5-0.3-1-0.5-1.5-0.7
				c-0.6-0.2-1.1-0.3-1.7-0.4c-0.2,0-0.3,0.4-0.1,0.5c1,0.6,2,1.2,3,1.8c0.9,0.6,1.8,1.2,2.6,1.9c0.8,0.7,1.5,1.4,2.2,2.2
				c0.8,0.9,1.5,1.9,2.2,2.9C282.9,439.4,283,438.7,283,438.5z"/>
			<path class="st6" d="M284.2,429.2c-0.7-1-1.5-2-2.5-2.8c-1-0.9-2.1-1.6-3.2-2.3c-1-0.7-2.2-1.2-3.4-1.3c-0.3,0-0.4,0.5-0.2,0.7
				c1.1,0.7,2.2,1.4,3.3,1.9c1,0.6,2,1.3,2.9,2.1c0.8,0.7,1.5,1.5,2.1,2.3c0.3,0.4,0.5,0.9,0.8,1.3s0.6,1.2,1.1,1.8
				c0.2,0.2,0.4-0.1,0.4-0.3C285.5,431.4,285,430.2,284.2,429.2z"/>
			<path class="st6" d="M287.4,422.9c-0.8-0.9-1.5-1.8-2.4-2.6c-0.8-0.8-1.8-1.6-2.8-2.2c-0.9-0.7-2-1.1-3.1-1.2
				c-0.3,0-0.4,0.5-0.1,0.7c0.9,0.6,1.9,1.1,2.8,1.8c0.9,0.7,1.7,1.4,2.5,2.2c0.7,0.7,1.4,1.4,2,2.2c0.3,0.4,0.6,0.7,0.9,1.1
				c0.1,0.2,0.2,0.4,0.3,0.6c0.1,0.3,0.3,0.5,0.5,0.8s0.3,0.3,0.5,0.1C289.3,425.1,288.1,423.8,287.4,422.9z"/>
			<path class="st8" d="M273.7,316.6c0,0,44.3,5.1,65.2,9.5c21.3,4.4,21,24,14.6,33.9c-14.5,22.3-39.9,41.6-39.9,41.6
				s-16-5.6-17.6-17.2l9.4-14.4l-27.1,3.5L267,361.7l-5.7-5.8L273.7,316.6z"/>
			<path class="st9" d="M298.2,385.2c0,0,10.3,7,15.2,9.5c2.7,1.4,5.5,2.7,8.4,3.8l-6.3,18.8l-26.3-8.5L298.2,385.2z"/>
			<path class="st4" d="M318,419.1c0,0,5.2,3.1,6.6,3.6s5,1.1,7.5,2.5s12.3,6.8,18.3,7.5s16.5-0.8,19.9-10.5L318,419.1z"/>
			<path class="st5" d="M317.2,396.5c1.9,1,2.2,7.8,0.7,11.8c-1.2,3.1-4.6,7.9-6.5,7.6l-1.9-0.6c0,0,0,1.3,3,2.1s12.1,3.9,15.6,4.8
				s10.5,5.3,15,6.8s8.7,3.6,16.6,1.4s13.8-9.8,11.5-17s-9.7-9.4-15.9-10.6s-17.1-0.7-23.9-2.5c-4.5-1.2-8.9-2.8-13.1-4.8
				c-1-0.6-2.3-0.7-3.3-0.2L317.2,396.5z"/>
			<path class="st6" d="M346.8,403.4c-1.7,1.8-2.9,4.1-3.5,6.5c-0.9,2.6-1.3,5.4-1.2,8.1c0,0.3,0.4,0.8,0.6,0.3
				c0.5-1.1,0.8-2.3,0.9-3.5c0.2-1.2,0.4-2.4,0.7-3.6c0.3-1.1,0.7-2.2,1.1-3.3c0.6-1.3,1.2-2.5,2-3.7
				C347.6,403.8,347.3,402.9,346.8,403.4z"/>
			<path class="st6" d="M341.2,403.4c0-0.2-0.2-0.6-0.6-0.5c-0.6,0.1-0.8,0.6-1.1,1.1c-0.3,0.5-0.6,1.1-0.9,1.6
				c-0.5,1.1-0.9,2.1-1.2,3.3c-0.3,1.1-0.6,2.2-0.8,3.4c-0.3,1.3-0.3,2.6,0.1,3.9c0.1,0.2,0.4,0.6,0.6,0.3c0.7-0.9,0.5-2.1,0.7-3.2
				s0.4-2.2,0.8-3.3c0.3-1.1,0.8-2.1,1.2-3.2c0.2-0.5,0.5-1.1,0.8-1.6C341.2,404.5,341.3,404,341.2,403.4z"/>
			<path class="st6" d="M334.6,402.1c-0.4,0.4-0.8,0.9-1,1.5c-0.2,0.5-0.5,1-0.7,1.4c-0.5,1.1-0.9,2.2-1.2,3.3
				c-0.8,2.2-1.1,4.5-0.8,6.8c0,0.3,0.5,0.8,0.7,0.3c0.4-1,0.6-2.1,0.7-3.2c0.2-1.1,0.4-2.2,0.8-3.2c0.3-1,0.7-2,1.1-3
				c0.2-0.5,0.4-1,0.6-1.4c0.3-0.5,0.5-1,0.6-1.6C335.5,402.6,335.1,401.7,334.6,402.1z"/>
			<path class="st6" d="M329.3,400.2c-3.2,3.8-4.7,8.7-4.2,13.6c0,0.2,0.3,0.2,0.3,0c0.6-2.1,1.2-4.4,1.9-6.5s1.7-4.2,2.6-6.3
				C330.1,400.7,329.7,399.7,329.3,400.2z"/>
			<path class="st6" d="M371.2,413.5c-1.8-5.7-6.8-8.3-12-9.7c-7.7,3.8-10.1,23.5-8.5,27.4c3,0.4,6,0.1,8.9-0.8
				C367.5,428.2,373.5,420.6,371.2,413.5z"/>
			<path class="st7" d="M359.6,430.4c6.2-1.8,11.2-6.9,11.9-12.5c-1.7,3.7-4.9,6.7-8.7,8.2c-6.6,2.7-20.3-2-26.2-5.5
				c-4.8-2.9-12.8-5-20.4-9.1c-1.5,2.4-3.6,4.6-4.9,4.4l-1.9-0.6c0,0,0,1.3,3,2.1s12.1,3.9,15.6,4.8s10.5,5.3,15,6.8
				S351.8,432.6,359.6,430.4z"/>
			<path class="st8" d="M303.8,386.7c-12.6-10.4-30.9-27-39-30.9l-0.6-0.3c5.6-9.1,10.4-19,9.5-39l-82.9,1.8c0,0-8.6,22.8-4.1,37.7
				c5.4,17.7,17.6,24.8,31.1,30.9c14,6.3,30.3,9,30.3,9c3.5,3.1,8.6,5.8,15.1,7.7c8.2,2.4,23.7,5.6,32.6,7.9
				C302.6,405.7,305.5,388.2,303.8,386.7z"/>
			<path class="st4" d="M268.7,353.2c2.4-5.2,3.6-10.9,3.5-16.6c-1.1,5.5-3.1,10.7-5.9,15.5c-3.1-1.6-5.8-1.9-10.7-2
				c-8.4-0.2-33-0.7-33-0.7s23.2,2.1,35,4.3c2.2,0.3,4.4,1,6.5,1.9c6.1,3.1,10.7,7.1,13.5,9.3c5.3,4,9,7.4,9,7.4l4.7-0.6
				c0,0-9.8-8-17.2-14C273.2,356.9,269.6,354,268.7,353.2z M245.6,395.6l2.6,0.5l0.1,0.1c-1.4-1.7-2.7-3.5-3.6-5.5
				C244.6,392.3,244.9,394,245.6,395.6L245.6,395.6z M309.6,355.5c-4.6,7.5-5.4,8.9-8.8,15l4.7-0.6c6.1-10.6,11.5-24.2,21.6-27.7
				C327.1,342.2,318.1,341.6,309.6,355.5L309.6,355.5z"/>
		</g>
		<g id="freepik--Top--inject-187">
			<g id="freepik--Head--inject-187">
				<path class="st4" d="M257.7,167.8c-0.4-0.4-0.8-0.8-1.2-1.3c-0.7-1.1-1.4-2.3-1.8-3.5c-1.2-2.2-2.9-4-5-5.3
					c-4.3-2.6-9.5-3.4-14.4-2.1c-1.6,0.6-3.2,1-4.9,1.3c-3.1,0.3-5.5-1.2-8.4-1.8c-7.9-1.5-15.6,3.5-17.4,11.4
					c-7.1,0.3-10.6,5.2-11.3,8c-0.8,3.1-0.1,6.4-0.8,9.6c-0.8,3.4-4.1,5.3-6,8.1c-1.4,2-2.2,4.4-2.2,6.8c0.3,2.8,1.4,5.4,3.3,7.4
					c1.1,1.3,2.4,2.6,2.5,4.2s-0.8,3.2-1.3,4.8c-1.4,4.4,1.1,9.2,5.6,10.5c1.4,0.4,2.9,0.5,4.4,0.2c-1.5-1.8-2.1-4.2-1.6-6.4
					c0,2.4,2.3,4.2,4.4,5.4c2.2,1.3,4.7,2,7.2,2.1c2.6,0,5-1.2,6.5-3.4c3.7,3.6,9.5,3.9,13.5,0.6c3.2,3,7.5,4.4,11.8,3.8
					c1.2-0.3,2.4-0.4,3.6-0.5c1.2,0,2.4,0.3,3.6,0.4c1.8,0.1,3.6-0.3,5.2-1.2c1.2-0.6,2.1-1.7,2.3-3.1c0.9,0.8,1.1,2.2,0.5,3.2
					c1.9,0.6,3.9-0.6,4.5-2.5c0.1-0.2,0.1-0.4,0.1-0.6c0.1-3.5-4.7-5.6-4.7-9c-0.1-2.6,2.5-4.4,3.7-6.7c1.3-2.8,0.9-6.1-1.1-8.5
					c-2-2.3-4.8-3.8-7.8-4.2c5-1.1,8.8-5.2,9.5-10.3c0.8,2.3,0.9,4.7,0.4,7c4.8-2.6,7.2-8,5.9-13.3c-1-3.7-3.7-6.7-6.6-9.2
					C259.1,169.1,258.4,168.5,257.7,167.8z"/>
				<path class="st9" d="M238.3,231.6c-1.6,0-1.8-2.6-1.8-3.4l-0.1-3.4c4.3,0.1,8.1-0.6,10.5-2.3c4.2-2.9,7.8-7.2,8-21.4
					c0.1-5.8-1.5-8.5-1.4-9.8c0.3-3.1,0.6-6.4-0.4-9.4c-1.2-3.6-3.4-6.8-7.1-8.4c-1.2-0.5-2.5-0.8-3.9-0.9c-1.3,0.1-2.5,0.5-3.5,1.4
					c-0.6,0.5-1.2,0.9-1.9,1.2c-1.4,0.5-2.9-0.1-4.3-0.6c-1.7-0.6-4-1.5-5.9-1.4c-1.3,0.2-2.6,0.6-3.7,1.3c-0.8,0.4-1.6,1-2.1,1.8
					c-0.3,0.5-0.6,1-0.8,1.5c-0.6,1.6-1,3.3-1.2,5c0,1.4-0.4,2.8-1.2,4c-0.2,0.2-2.4,1.9-2.4,1.9c0.8,1.7,1.3,3.6,1.4,5.6
					c0.1,0.9-0.1,1.8-0.4,2.6c-0.3,0.8-1.1,1.5-1.9,1.7c-2,0.4-2.4-2-3.4-3.2c-0.9-1.2-2.2-2-3.6-2.5c-2.5-0.9-5.3-0.1-6.9,2
					c-2.5,3.5-2.6,9,1.9,14.1s9.5,2,9.6,1c0,0,0.5,15.7,0.5,18.4s-0.3,3.7-3.5,4.9c0,0,5.1,7.9,22.1,6.4
					C241.8,238.7,238.3,231.6,238.3,231.6z"/>
				<path class="st4" d="M230.6,193.4c0,1.4-1,2.5-2.4,2.6s-2.5-1-2.6-2.4c0-1.4,1-2.5,2.4-2.6l0,0C229.4,191,230.6,192,230.6,193.4
					z"/>
				<path class="st4" d="M248.8,193.1c0,1.4-1.1,2.5-2.4,2.5c-1.4,0-2.5-1.1-2.5-2.4c0-1.4,1.1-2.5,2.4-2.5
					C247.6,190.7,248.7,191.8,248.8,193.1C248.7,193.1,248.7,193.1,248.8,193.1z"/>
				<path class="st10" d="M205,207c0,1.3,1,2.4,2.2,2.4s2.4-1,2.4-2.2c0-1.3-1-2.4-2.2-2.4C206.1,204.7,205.1,205.7,205,207L205,207
					z"/>
				<path class="st4" d="M249.8,188.5l-5.7-1.8c0.4-1.5,2-2.4,3.5-2c0.1,0,0.1,0,0.1,0C249.3,185.2,250.2,186.9,249.8,188.5z"/>
				<path class="st11" d="M231,206.6l9.4,2.6c-0.6,2.5-3.1,4.1-5.6,3.5c-0.1,0-0.2,0-0.2-0.1C231.9,212,230.4,209.3,231,206.6z"/>
				<path class="st12" d="M237,212.8c-1-2.5-3.4-4.2-6.1-4.2c0.3,2,1.7,3.6,3.6,4.2C235.4,212.9,236.2,213,237,212.8z"/>
				<path class="st4" d="M223,189.5l5.2-3.1c-0.8-1.4-2.5-1.9-3.9-1.2c0,0,0,0-0.1,0C222.7,186.2,222.2,188,223,189.5z"/>
				<path class="st3" d="M236.3,224.8c-7-0.1-16.1-1.7-22-10.9c0.6,4.1,3,7.8,6.6,10c4.6,2.9,10.1,4.2,15.5,3.7L236.3,224.8z"/>
				<path class="st3" d="M244.8,201.2l-7.7,3l-2.3-13.9C238.1,191.7,241.4,196,244.8,201.2z"/>
			</g>
			<g id="freepik--Arm--inject-187">
				<g id="freepik--arm--inject-187">
					<path class="st9" d="M296,264c-3.8,4.4-9,9.7-9,9.7s-5.3-10-8.8-16.1c-8.8-15.6-12.2-24.4-29.9-25.8l1.5,31.5
						c0,0,11.1,17.6,20.3,30c2.7,3.6,5.7,8.1,10,9.9c1.8,0.7,3.8,0.8,5.6,0.3c2.4-0.6,6.5-4.5,7.8-6.1c3.3-4,8.5-14,12-20.4L296,264
						z"/>
					<path class="st3" d="M287,273.7c0,0-6.8,5.9-7.4,12.4c0,0-2-6.8,6.3-14.5L287,273.7z"/>
				</g>
				<path id="freepik--Hand--inject-187" class="st3" d="M320.1,265.2c-4,4.1-7.6,5-10.6,7.1c-2.4,1.7-3.5,4-5.4,7.3
					c0,0-11.1-6.9-8-15.6c1.5-1.8,2.9-3.7,4.1-5.8c0.8-1.2,0.6-5,0.7-6.4c0.2-2.4,1.3-4.6,2.3-6.7c0.6-1.4,1-3,1.6-4.4
					c0.2-0.5,0.3-1.2,0.9-1.2c0.8,0.1,1.4,0.6,1.7,1.3c1.1,2.3,0.2,4.6,0.2,7c0,0.2,0,0.4,0.2,0.5s0.5,0,0.6-0.2
					c1.6-1.4,3.4-2.6,5.4-3.4c0.2-0.1,0.4-0.1,0.7-0.1c1.5,0,2.6,1.9,3.3,3c0.9,1.6,1.4,3.5,1.5,5.4
					C319.3,259.1,320.1,265.2,320.1,265.2z"/>
			</g>
			<g id="freepik--Chest--inject-187">
				<path class="st1" d="M273.8,316.7c-1.4,9.3-14.1,18.9-28.1,22.3c-13.5,3.3-46.6,1.4-59.1-5.1c1.9-12.6,4.8-15.1,6.2-27.4
					c1.4-12.7-2.9-20.6-4.4-36.4c-1.1-12.2,1.4-27,6.3-32.8l14.2-4c0,0,7.2,7.6,21.8,6c10.7-1.2,7.6-7.8,7.6-7.8l10.1,0.2
					c8.3,3.9,19,15.9,23.5,27.3c4.1,10.2,2.1,22.8-6.4,30.2l1.1,13.4C269.8,306.9,272.2,311.6,273.8,316.7z"/>
				<path class="st2" d="M240,287.1c0,0-6.7,7.8-19.5,6c-13.2-1.9-15.5-12.9-15.5-12.9s-1,14.4,14.8,16.6
					C234.4,298.9,240,287.1,240,287.1z"/>
			</g>
			<g id="freepik--arm--inject-187_00000025442309711134524240000016504991296724735630_">
				<path class="st9" d="M194.6,237.4c-10.9,2.9-14.1,6.6-18.5,17.5s-14.3,40.8-16.6,55.6c-1.9,12.2,27.2-10.2,27.2-10.2
					s9.1-23.6,11.9-31.6S204.1,241.2,194.6,237.4z"/>
				<path class="st3" d="M191.6,287.8c-6.2,1.7-16.9,2.5-21.3,8.5l18.9-2.1C190.2,291.4,190.2,291.4,191.6,287.8z"/>
				<path id="freepik--Thumb--inject-187" class="st3" d="M223.4,290.1c2.4-0.5,10.1-8.9,11.2-11c1.3-2.4,2.9-4.5,4.8-6.5
					c1.8-1.9,2.6-4.3,1.9-5.3s-1.5-1.6-2.9-0.4c-1.9,1.7-4,3-6.4,3.9c-3.6,1.5-7.4,2.9-9,7.5S223.4,290.1,223.4,290.1z"/>
				<g id="freepik--Heart--inject-187">
					<path id="freepik--heart--inject-187" class="st10" d="M275.7,317.9l-13-7.8c-0.5-0.4-1.2-0.8-2-1.3
						c-8.8-5.8-29.4-19.3-29.4-42.3c0.3-12.2,10.4-21.8,22.6-21.5c10.2,0.2,18.9,7.4,21,17.3c2.6-11.9,14.4-19.4,26.3-16.8
						c9.9,2.2,17.1,10.9,17.3,21c0,23.2-19.9,36.8-28.4,42.6l-1.5,1L275.7,317.9z"/>
					<path class="st6" d="M249,283.3c-0.2,0-0.4-0.2-0.4-0.4v-10.3c0-0.1,0-0.2,0.1-0.3c0.1-0.1,0.2-0.1,0.3-0.1h4.7
						c0.6,0,1.2,0.1,1.7,0.3c0.4,0.2,0.8,0.4,1.1,0.8c0.3,0.3,0.5,0.6,0.6,1c0.1,0.3,0.2,0.7,0.2,1c0,0.5-0.1,1.1-0.4,1.5
						c-0.1,0.2-0.2,0.3-0.4,0.4c-0.1,0.1-0.2,0.2-0.3,0.2c0.4,0.3,0.7,0.6,0.9,0.9c0.3,0.5,0.4,1,0.4,1.5c0,0.4-0.1,0.8-0.2,1.2
						c-0.1,0.4-0.4,0.8-0.7,1.1c-0.3,0.3-0.7,0.6-1.1,0.8c-0.5,0.2-1,0.3-1.5,0.3L249,283.3z M255.1,275.4c0-0.3-0.1-0.7-0.4-0.9
						c-0.4-0.2-0.8-0.3-1.2-0.3h-2.8v2.5h2.8c0.4,0,0.9-0.1,1.2-0.3C255,276.1,255.1,275.8,255.1,275.4L255.1,275.4z M250.7,281.4
						h2.9c0.5,0.1,1-0.1,1.3-0.4c0.6-0.5,0.6-1.4,0-2l0,0c-0.4-0.3-0.8-0.4-1.3-0.4h-2.9V281.4z"/>
					<path class="st6" d="M264,272.2c1.1-0.1,2.1,0.3,3,0.9c0.7,0.7,1.1,1.6,1,2.5c0,0.7-0.2,1.4-0.5,2c-0.4,0.6-0.9,1-1.6,1.2
						l2.2,3.9c0,0.1,0,0.1,0,0.2c0,0.2-0.1,0.3-0.3,0.4l0,0h-1.4c-0.2,0-0.3,0-0.5-0.1c-0.1-0.1-0.2-0.2-0.2-0.3l-2.1-3.7h-2.1v3.7
						c0,0.2-0.2,0.4-0.4,0.4h-1.3c-0.2,0-0.4-0.2-0.4-0.4v-10.3c0-0.1,0-0.2,0.1-0.3c0.1-0.1,0.2-0.1,0.3-0.1L264,272.2z
						 M261.6,277.2h2.3c0.5,0,1-0.1,1.4-0.3c0.4-0.3,0.6-0.7,0.5-1.2c0.1-0.5-0.1-0.9-0.5-1.2c-0.4-0.2-0.9-0.3-1.4-0.3h-2.3V277.2z
						"/>
					<path class="st6" d="M275.4,272.2c0.1,0,0.3,0,0.4,0.1s0.2,0.3,0.2,0.4l3.9,10v0.1c0,0.2-0.2,0.4-0.4,0.4h-1.1
						c-0.2,0-0.3,0-0.5-0.1c-0.1-0.1-0.1-0.2-0.2-0.3L277,281h-5l-0.7,1.8c0,0.1-0.1,0.2-0.2,0.3c-0.1,0.1-0.3,0.1-0.4,0.1h-1.1
						c-0.1,0-0.2,0-0.3-0.1c-0.1-0.1-0.1-0.2-0.1-0.3v-0.1l3.9-10c0-0.1,0.1-0.3,0.2-0.4s0.2-0.2,0.4-0.1L275.4,272.2L275.4,272.2z
						 M276.2,279.2l-1.8-4.5l-1.8,4.5H276.2z"/>
					<path class="st6" d="M288.5,283.3c-0.1,0-0.3,0-0.4-0.1l-0.2-0.2l-4.5-6.6v6.5c0,0.1,0,0.2-0.1,0.3c-0.1,0.1-0.2,0.1-0.3,0.1
						h-1.3c-0.1,0-0.2,0-0.3-0.1c-0.1-0.1-0.1-0.2-0.1-0.3v-10.3c0-0.1,0-0.2,0.1-0.3c0.1-0.1,0.2-0.1,0.3-0.1h1.1
						c0.2,0,0.3,0,0.4,0.1s0.1,0.1,0.2,0.2l4.5,6.6v-6.5c0-0.1,0-0.2,0.1-0.3c0.1-0.1,0.2-0.1,0.3-0.1h1.3c0.2,0,0.4,0.2,0.4,0.4
						v10.3c0,0.1,0,0.2-0.1,0.3c-0.1,0.1-0.2,0.1-0.3,0.1H288.5z"/>
					<path class="st6" d="M296.9,272.2c0.7,0,1.4,0.1,2,0.3c0.5,0.2,1,0.5,1.5,0.9c0.4,0.4,0.7,0.9,0.9,1.4c0.2,0.6,0.3,1.2,0.4,1.8
						c0,0.8,0,1.6,0,2.4c0,0.6-0.2,1.2-0.4,1.8c-0.2,0.5-0.5,1-0.9,1.4s-0.9,0.7-1.4,0.8c-0.6,0.2-1.3,0.3-2,0.3h-4
						c-0.2,0-0.4-0.2-0.4-0.4v-10.2c0-0.1,0-0.2,0.1-0.3c0.1-0.1,0.2-0.1,0.3-0.1L296.9,272.2z M299.5,276.6c0-0.3-0.1-0.6-0.2-0.9
						s-0.3-0.6-0.5-0.8c-0.2-0.2-0.5-0.4-0.8-0.5c-0.4-0.1-0.8-0.2-1.2-0.2h-2.1v7.1h2.2c0.4,0,0.8-0.1,1.1-0.2
						c0.3-0.1,0.6-0.3,0.8-0.5c0.2-0.2,0.4-0.5,0.5-0.8s0.2-0.7,0.2-1C299.6,278.1,299.6,277.4,299.5,276.6z"/>
				</g>
				<g id="freepik--arm--inject-187_00000087393483924342920150000009398018930997331093_">
					<path class="st9" d="M230.1,278.8c0,0,5.2,0.1,7.2,0.4s5,2.3,6.7,2.5c1.9,0.1,3.1-1,2.5-2.4s-5.1-4.3-6.7-5
						c-2.1-0.9-4.3-1.4-6.5-1.5c-3-0.2-6.4-0.6-7.5-0.1c-1.4,0.6-2.6,2.9-3.2,4.1s-3.2,5.3-4.7,7.6c-1.2,1.9-1.8,2.9-4.3,3.4
						c-3,0.7-15.6,2.7-23.4,3.7c-5.8,0.7-14.9,1.6-20.9,5.8s-8.3,7.3-9.5,13.3c-0.7,3.4-0.4,11.2,18.7,9.5
						c10.1-0.9,19.5-6.3,26.1-9.8c7.4-3.9,13.9-7,15.8-7.3c2.7-0.4,5.8-1.2,7.7-3.5c2.5-3,3.6-4.4,7.2-5c1.8-0.2,3.5-0.5,5.2-1
						c1.7-0.7,2.7-1.7,2.6-2.6s-1.3-0.9-1.3-0.9c0.2-0.3,0.3-0.6,0.4-1c0.1-0.5,0.1-1,0-1.5c0.5,0.1,0.9,0.1,1.4,0
						c0.7-0.1,1.3-1.4,1.4-2.2s-1.5-2.3-2.4-2.7s-3.9-1.9-4.8-2.2S230.1,278.8,230.1,278.8z"/>
					<path class="st3" d="M243.3,287.2c0.4-0.1,0.7-0.4,0.8-0.7c-0.7,0.2-1.4,0.2-2.1,0c-1.5-0.2-5.3-1.7-7.7-1.9s-5.1-0.1-6.1-0.6
						c0.7,0.5,3.3,1,6.2,1.3c2.6,0.4,5.1,1.1,7.6,1.9C242.4,287.3,242.9,287.3,243.3,287.2z"/>
					<path class="st3" d="M238.7,290.1c-0.9,0.1-5-0.3-6.6-0.4s-4-0.5-4-0.5c1,0.4,2.1,0.7,3.2,0.9c1.4,0.2,5.5,0.5,7.1,0.5
						c1.1,0,2.1-0.3,3.1-0.9c0.2-0.3,0.3-0.6,0.4-1C241.3,289.8,239.6,290,238.7,290.1z"/>
				</g>
			</g>
			<g id="freepik--hand--inject-187">
				<path class="st9" d="M319.9,245.9c0.4-2.7,0.2-2.9-1.1-3.5c-2-1-4.4-1-6.4,0c-1.7,0.9-3.5,1.8-4.1,2.7s1,2.4,3.6,1.8
					c4-1,4.4,0,4.4,0s-3.7,0.9-5,1.5s-3.5,2.4-4.8,3.4s-0.7,3.1,2.2,2.5l-2.6,1.8c-1.8,1.3-1.9,2.6,0.2,3.1c0.7,0.2,1.4,0.1,2.1-0.2
					c0,0-2.1,1-1.8,1.7c0.9,2,2.4,1.9,7.1,1c1.3-0.2,3.6,0.5,4.4,0.7c1.1,0.4,1.6,1.6,1.9,2.9l2.5-3.8c0.8-1.4,0.6-3.2-0.5-4.4
					c0,0,2.3-1.1,1.7-2.6c-0.5-1-1.2-2-2-2.7c0.6-0.9,0.6-2,0.1-2.9c-0.4-0.9-1.2-1.6-2.1-2.1L319.9,245.9z"/>
				<path class="st3" d="M308.6,254.2c0.7-0.6,1.5-1.1,2.4-1.5c0.9-0.3,1.9-0.4,2.8-0.4c1.9-0.1,3.7-0.1,5.5,0.1
					c-1.8,0.4-3.7,0.6-5.5,0.7c-0.9,0-1.8,0.1-2.6,0.2C310.4,253.5,309.5,253.9,308.6,254.2z"/>
				<path class="st3" d="M308.4,258.9c0.8-0.7,1.7-1.2,2.7-1.4c1-0.3,2-0.4,3-0.5c2-0.2,4-0.1,6,0.2c-2,0.3-3.9,0.5-5.9,0.6
					C312.1,257.8,310.2,258.1,308.4,258.9z"/>
			</g>
		</g>
	</g>
</g>
<g id="freepik--Price--inject-187">
	<g id="freepik--price--inject-187">
		<g id="freepik--Circle--inject-187">
			<circle class="st13" cx="399.6" cy="307" r="46.9"/>
			<path class="st5" d="M418.5,264.1c23.7,10.4,34.5,38.1,24,61.8c-10.4,23.7-38.1,34.5-61.8,24c-23.7-10.4-34.5-38.1-24-61.8l0,0
				C367.1,264.4,394.8,253.7,418.5,264.1 M419.1,262.7c-24.5-10.8-53,0.4-63.8,24.8c-10.8,24.5,0.4,53,24.8,63.8
				c24.5,10.8,53-0.4,63.8-24.8C454.6,302,443.5,273.5,419.1,262.7z"/>
			
				<rect x="348.2" y="278.2" transform="matrix(0.4024 -0.9155 0.9155 0.4024 -52.7786 490.058)" class="st5" width="1.5" height="14.5"/>
			<path class="st5" d="M339.8,281.5c-0.6,1.4,0,3.1,1.4,3.7s3.1,0,3.7-1.4s0-3.1-1.4-3.7C342.1,279.4,340.4,280,339.8,281.5
				C339.8,281.4,339.8,281.4,339.8,281.5z"/>
		</g>
	</g>
</g>
<g id="freepik--Quality--inject-187">
	<g id="freepik--quality--inject-187">
		<g id="freepik--circle--inject-187">
			<circle class="st13" cx="401.9" cy="149.5" r="46.9"/>
			<path class="st5" d="M413.8,104.1c25,6.6,40,32.2,33.5,57.2c-6.6,25-32.2,40-57.2,33.5c-25-6.6-40-32.2-33.5-57.2
				C363.1,112.6,388.7,97.6,413.8,104.1 M414.2,102.7c-25.8-6.8-52.3,8.7-59.1,34.5s8.7,52.3,34.5,59.1c25.8,6.8,52.3-8.7,59.1-34.5
				l0,0C455.5,135.9,440,109.4,414.2,102.7L414.2,102.7z"/>
			
				<rect x="329.5" y="183.8" transform="matrix(0.8637 -0.5039 0.5039 0.8637 -45.7168 199.9891)" class="st5" width="35" height="1.5"/>
			<path class="st5" d="M329.5,194.8c0.8,1.3,2.5,1.8,3.8,1s1.8-2.5,1-3.8s-2.5-1.8-3.8-1l0,0C329.2,191.8,328.7,193.5,329.5,194.8z
				"/>
		</g>
	</g>
</g>
<g id="freepik--Satisfaction--inject-187">
	<g id="freepik--satisfaction--inject-187">
		<g id="freepik--circle--inject-187_00000014612535337336177890000017844805580709940906_">
			<circle class="st13" cx="232.8" cy="73.8" r="46.9"/>
			<path class="st5" d="M232.7,26.9c25.9,0,46.9,20.9,46.9,46.8s-20.9,46.9-46.8,46.9s-46.9-20.9-46.9-46.8
				C185.9,48,206.9,27,232.7,26.9 M232.8,25.5c-26.7,0-48.4,21.7-48.3,48.4s21.7,48.4,48.4,48.3c26.7,0,48.4-21.7,48.3-48.4l0,0
				C281.1,47.1,259.5,25.5,232.8,25.5z"/>
			
				<rect x="232.1" y="121.3" transform="matrix(1 -1.040476e-03 1.040476e-03 1 -0.1336 0.2423)" class="st5" width="1.5" height="14.5"/>
			<path class="st5" d="M232.9,138.5c1.5,0,2.8-1.3,2.8-2.8s-1.3-2.8-2.8-2.8s-2.8,1.2-2.8,2.8C230.1,137.3,231.3,138.5,232.9,138.5
				L232.9,138.5z"/>
		</g>
		<g>
			<path d="M256.3,93.7h-24.7v-2.5h24.7c2,0,3.7-1.7,3.7-3.7V74.9h2.5v12.6C262.4,90.9,259.7,93.7,256.3,93.7z"/>
			<path d="M219.9,97.3l1.9-4.9l2.3,0.9l-1.9,4.9L219.9,97.3z"/>
			<g>
				<path d="M210.6,99.4l1.1-2.2l16.8,8l-1.1,2.2L210.6,99.4z"/>
				<path d="M268.6,75.3h-2.5v2.5h2.5V75.3z"/>
				<path d="M268.6,80.2h-2.5v2.5h2.5V80.2z"/>
				<path d="M268.6,85.1h-2.5v2.5h2.5V85.1z"/>
				<g>
					<g>
						<g>
							<defs>
								<rect id="SVGID_1_" x="212" y="42.2" width="2.7" height="2.5"/>
							</defs>
							<clipPath id="SVGID_00000029747932241607472640000008416517221381318070_">
								<use xlink:href="#SVGID_1_"  style="overflow:visible;"/>
							</clipPath>
							<g style="clip-path:url(#SVGID_00000029747932241607472640000008416517221381318070_);">
								<path d="M214.5,42.2H212v2.5h2.5V42.2z"/>
							</g>
						</g>
					</g>
				</g>
				<g>
					<g>
						<g>
							<defs>
								<rect id="SVGID_00000141439099016936270940000015940836674195786925_" x="216.7" y="42.2" width="3" height="2.5"/>
							</defs>
							<clipPath id="SVGID_00000149369570499470260740000001648998020628459172_">
								<use xlink:href="#SVGID_00000141439099016936270940000015940836674195786925_"  style="overflow:visible;"/>
							</clipPath>
							<g style="clip-path:url(#SVGID_00000149369570499470260740000001648998020628459172_);">
								<path d="M219.4,42.2H217v2.5h2.5v-2.5H219.4z"/>
							</g>
						</g>
					</g>
				</g>
				<g>
					<g>
						<g>
							<defs>
								<rect id="SVGID_00000070079885422381664750000002292770641832822919_" x="221.7" y="42.2" width="2.7" height="2.5"/>
							</defs>
							<clipPath id="SVGID_00000113317407889796830460000001239278451540395147_">
								<use xlink:href="#SVGID_00000070079885422381664750000002292770641832822919_"  style="overflow:visible;"/>
							</clipPath>
							<g style="clip-path:url(#SVGID_00000113317407889796830460000001239278451540395147_);">
								<path d="M224.3,42.2h-2.5v2.5h2.5V42.2z"/>
							</g>
						</g>
					</g>
				</g>
				<g>
					<g>
						<g>
							<defs>
								<rect id="SVGID_00000116216219663976582810000007756606684613287602_" x="226.5" y="42.2" width="3" height="2.5"/>
							</defs>
							<clipPath id="SVGID_00000159455289237177503470000003352700675638633093_">
								<use xlink:href="#SVGID_00000116216219663976582810000007756606684613287602_"  style="overflow:visible;"/>
							</clipPath>
							<g style="clip-path:url(#SVGID_00000159455289237177503470000003352700675638633093_);">
								<path d="M229.3,42.2h-2.5v2.5h2.5V42.2z"/>
							</g>
						</g>
					</g>
				</g>
				<g>
					<g>
						<g>
							<defs>
								<rect id="SVGID_00000073690820740853762430000016090545948506925214_" x="231.5" y="42.2" width="2.7" height="2.5"/>
							</defs>
							<clipPath id="SVGID_00000053512928844247040390000001696390627963304320_">
								<use xlink:href="#SVGID_00000073690820740853762430000016090545948506925214_"  style="overflow:visible;"/>
							</clipPath>
							<g style="clip-path:url(#SVGID_00000053512928844247040390000001696390627963304320_);">
								<path d="M234.2,42.2h-2.5v2.5h2.5V42.2z"/>
							</g>
						</g>
					</g>
				</g>
				<g>
					<g>
						<g>
							<defs>
								<rect id="SVGID_00000052786069247369758650000004995231501863338140_" x="236.6" y="42.2" width="2.7" height="2.5"/>
							</defs>
							<clipPath id="SVGID_00000078758765905116122240000004677700645335727504_">
								<use xlink:href="#SVGID_00000052786069247369758650000004995231501863338140_"  style="overflow:visible;"/>
							</clipPath>
							<g style="clip-path:url(#SVGID_00000078758765905116122240000004677700645335727504_);">
								<path d="M239.1,42.2h-2.5v2.5h2.5V42.2z"/>
							</g>
						</g>
					</g>
				</g>
				<g>
					<g>
						<g>
							<defs>
								<rect id="SVGID_00000160898826577346427120000003913392523248692397_" x="241.3" y="42.2" width="3" height="2.5"/>
							</defs>
							<clipPath id="SVGID_00000044867647400334258450000000538546342585689516_">
								<use xlink:href="#SVGID_00000160898826577346427120000003913392523248692397_"  style="overflow:visible;"/>
							</clipPath>
							<g style="clip-path:url(#SVGID_00000044867647400334258450000000538546342585689516_);">
								<path d="M244,42.2h-2.5v2.5h2.5V42.2z"/>
							</g>
						</g>
					</g>
				</g>
				<g>
					<g>
						<g>
							<defs>
								<rect id="SVGID_00000023989149721795742720000011903063574987206585_" x="246.3" y="42.2" width="2.7" height="2.5"/>
							</defs>
							<clipPath id="SVGID_00000108998792313330476850000006064351506808154289_">
								<use xlink:href="#SVGID_00000023989149721795742720000011903063574987206585_"  style="overflow:visible;"/>
							</clipPath>
							<g style="clip-path:url(#SVGID_00000108998792313330476850000006064351506808154289_);">
								<path d="M248.9,42.2h-2.5v2.5h2.5V42.2z"/>
							</g>
						</g>
					</g>
				</g>
				<g>
					<g>
						<g>
							<defs>
								<rect id="SVGID_00000180342660991780798040000005254435943121045940_" x="251.1" y="42.2" width="3" height="2.5"/>
							</defs>
							<clipPath id="SVGID_00000005224961292271579620000004851843091281474747_">
								<use xlink:href="#SVGID_00000180342660991780798040000005254435943121045940_"  style="overflow:visible;"/>
							</clipPath>
							<g style="clip-path:url(#SVGID_00000005224961292271579620000004851843091281474747_);">
								<path d="M253.8,42.2h-2.5v2.5h2.5V42.2z"/>
							</g>
						</g>
					</g>
				</g>
				<g>
					<g>
						<g>
							<defs>
								<rect id="SVGID_00000180355649374311819330000016921980338709096872_" x="209.3" y="83.7" width="38.4" height="24.7"/>
							</defs>
							<clipPath id="SVGID_00000145751549699710315360000017839986073117478335_">
								<use xlink:href="#SVGID_00000180355649374311819330000016921980338709096872_"  style="overflow:visible;"/>
							</clipPath>
							<g style="clip-path:url(#SVGID_00000145751549699710315360000017839986073117478335_);">
								<path d="M242.8,108.4c-0.3,0-0.7-0.1-0.9-0.2l-30.8-13.5c-0.9-0.4-1.5-1.3-1.5-2.2c0-0.3,0.1-0.6,0.2-0.9l2.5-6.2
									c0.5-1.3,2-1.8,3.3-1.3l0,0l30.7,13.5c0.9,0.4,1.5,1.3,1.5,2.2c0,0.3-0.1,0.6-0.2,0.9l-2.5,6.1
									C244.7,107.8,243.8,108.4,242.8,108.4L242.8,108.4z M242.7,105.9h0.1l2.4-6.1l-30.7-13.5l-2.5,6.1L242.7,105.9L242.7,105.9z
									"/>
							</g>
						</g>
					</g>
				</g>
				<path d="M225.6,82.6c-2,0-3.7-1.7-3.7-3.7V59.3c0-2,1.7-3.7,3.7-3.7c0.6,0,1.3,0.2,1.8,0.5l17.2,9.8c1.1,0.7,1.9,1.9,1.9,3.2
					c0,1.3-0.7,2.5-1.9,3.2l-17.2,9.8C226.8,82.5,226.2,82.6,225.6,82.6L225.6,82.6z M225.6,58.1c-0.7,0-1.2,0.6-1.2,1.2V79
					c0,0.7,0.6,1.2,1.2,1.2c0.2,0,0.4-0.1,0.6-0.2l17.2-9.8c0.4-0.2,0.6-0.6,0.6-1.1s-0.2-0.8-0.6-1.1l-17.2-9.8
					C226,58.2,225.8,58.1,225.6,58.1L225.6,58.1z"/>
				<path d="M229.9,101.7l1.9-4.8l2.3,0.9l-1.9,4.8L229.9,101.7z"/>
				<path d="M224.9,99.5l1.9-4.8l2.3,0.9l-1.9,4.8L224.9,99.5z"/>
				<path d="M234.9,103.9l1.9-4.8l2.3,0.9l-1.9,4.8L234.9,103.9z"/>
				<path d="M214.9,95.1l2-4.9l2.3,0.9l-2,4.9L214.9,95.1z"/>
				<g>
					<g>
						<g>
							<defs>
								<rect id="SVGID_00000079484668711040520730000011606252780309366691_" x="203.5" y="47" width="59.1" height="46.8"/>
							</defs>
							<clipPath id="SVGID_00000061457539346771875940000008034780655852121273_">
								<use xlink:href="#SVGID_00000079484668711040520730000011606252780309366691_"  style="overflow:visible;"/>
							</clipPath>
							<g style="clip-path:url(#SVGID_00000061457539346771875940000008034780655852121273_);">
								<path d="M210.8,93.7h-1.2c-3.4,0-6.1-2.7-6.1-6.1V53.2c0-3.4,2.8-6.1,6.1-6.1h46.7c3.4,0,6.1,2.7,6.1,6.1v10.2H260V53.2
									c0-2-1.7-3.7-3.7-3.7h-46.7c-2,0-3.7,1.7-3.7,3.7v34.3c0,2,1.7,3.7,3.7,3.7h1.2L210.8,93.7L210.8,93.7z"/>
							</g>
						</g>
					</g>
				</g>
				<g>
					<g>
						<g>
							<defs>
								<rect id="SVGID_00000160906190430668943570000018085233138942016656_" x="242.3" y="56.8" width="31.2" height="31"/>
							</defs>
							<clipPath id="SVGID_00000026153730852307166100000016826405802823825308_">
								<use xlink:href="#SVGID_00000160906190430668943570000018085233138942016656_"  style="overflow:visible;"/>
							</clipPath>
							<g style="clip-path:url(#SVGID_00000026153730852307166100000016826405802823825308_);">
								<path d="M242.5,87.5l4.1-11c0.1-0.2,0.2-0.5,0.4-0.7l18.4-18.4c0.7-0.7,1.9-0.7,2.6,0l4.9,4.9c0.3,0.4,0.5,0.8,0.5,1.3
									c0,0.5-0.2,1-0.5,1.3l-18.4,18.4c-0.2,0.2-0.5,0.4-0.7,0.4L242.5,87.5z M248.8,77.5l-2.3,6.1l6.3-2.1l17.9-17.9l-4-4
									L248.8,77.5L248.8,77.5z M248.7,77.6L248.7,77.6L248.7,77.6z M248.9,77.3L248.9,77.3L248.9,77.3z M271.2,63.2L271.2,63.2
									L271.2,63.2z M266.3,59.2L266.3,59.2L266.3,59.2z"/>
							</g>
						</g>
					</g>
				</g>
				<path d="M247,77.6l1.7-1.7l5.7,5.8l-1.7,1.7L247,77.6z"/>
				<path d="M261.1,63.5l1.7-1.7l5.7,5.8l-1.7,1.7L261.1,63.5z"/>
			</g>
		</g>
	</g>
</g>
<g id="freepik--Reward--inject-187">
	<text transform="matrix(1 0 0 1 61.5602 239.8894)" class="st26 st27 st28">LOGO</text>
	<g id="freepik--reward--inject-187">
		<g id="freepik--circle--inject-187_00000037654956864125164600000014497123697204979897_">
			<path class="st5" d="M74.6,102.3c25.4-4.8,49.9,12,54.7,37.5c4.8,25.4-12,49.9-37.5,54.7s-49.9-12-54.7-37.5l0,0
				C32.4,131.5,49.1,107.1,74.6,102.3L74.6,102.3 M74.3,100.8c-26.3,4.9-43.6,30.1-38.7,56.4s30.1,43.6,56.4,38.7
				s43.6-30.1,38.7-56.4l0,0C125.8,113.2,100.6,95.9,74.3,100.8z"/>
			
				<rect x="134.7" y="169.8" transform="matrix(0.564 -0.8258 0.8258 0.564 -95.6339 193.5062)" class="st5" width="1.5" height="35"/>
			<path class="st5" d="M152.2,198.7c-0.9,1.3-2.6,1.6-3.9,0.7c-1.3-0.9-1.6-2.6-0.7-3.9c0.9-1.3,2.6-1.6,3.9-0.7l0,0
				C152.8,195.8,153.1,197.5,152.2,198.7z"/>
		</g>
		<g id="Group_29" transform="translate(-245 -109)">
			<path id="Path_339-177" class="st29" d="M347.2,234.6h-0.4v-12c0-3.8-3-7-6.7-7l0,0h-24.4c-3.7,0-6.7,3.1-6.7,7l0,0v65.9
				c0,3.8,3,7,6.7,7h24.4c3.7,0,6.7-3.1,6.7-7v-45.3h0.4V234.6z"/>
			<path id="Path_340-178" class="st13" d="M345.4,222.1v66.8c0,2.9-2.3,5.3-5.1,5.3h-24.9c-2.8,0-5.1-2.4-5.1-5.3v-66.8
				c0-2.9,2.3-5.3,5.1-5.3h3c-0.5,1.3,0.1,2.7,1.3,3.3c0.3,0.1,0.6,0.2,0.9,0.2h14.2c1.3,0,2.4-1.1,2.4-2.5c0-0.3-0.1-0.6-0.2-0.9
				h3.2C343.2,216.8,345.4,219.2,345.4,222.1L345.4,222.1z"/>
			<g id="Group_26" transform="translate(402.822 206.2)">
				<path id="Path_45-179" class="st30" d="M-74.6,42.6c-5.9,0-10.7-5-10.7-11.1l0,0c0,0,0,0,0-0.1c0-6.1,4.8-11.1,10.7-11.1
					c5.9,0,10.7,5,10.7,11.2C-63.9,37.6-68.7,42.6-74.6,42.6L-74.6,42.6L-74.6,42.6z M-74.6,20.6c-5.8,0-10.4,4.9-10.5,10.9
					c0,0,0,0,0,0.1c0,6,4.7,10.9,10.5,10.9s10.5-4.9,10.5-10.9C-64.2,25.5-68.8,20.6-74.6,20.6L-74.6,20.6L-74.6,20.6z"/>
			</g>
			<path id="Path_39-182" class="st30" d="M339.3,260.6h-22.1c-0.2,0-0.4-0.2-0.4-0.4v-5.7c0-0.2,0.2-0.4,0.4-0.4h22.1
				c0.2,0,0.4,0.2,0.4,0.4v5.7C339.7,260.4,339.5,260.6,339.3,260.6L339.3,260.6z M317.1,254.2c-0.1,0-0.2,0.1-0.2,0.3v5.7
				c0,0.1,0.1,0.3,0.2,0.3h22.1c0.1,0,0.2-0.1,0.2-0.3v-5.7c0-0.1-0.1-0.3-0.2-0.3L317.1,254.2L317.1,254.2z"/>
			<ellipse id="Ellipse_5" class="st31" cx="320" cy="257.3" rx="1.7" ry="1.8"/>
			<path id="Path_40-183" class="st30" d="M324,256.1c-0.2,0-0.3,0.1-0.3,0.3c0,0.2,0.1,0.3,0.3,0.3h13.5c0.2,0,0.3-0.1,0.3-0.3
				c0-0.2-0.1-0.3-0.3-0.3l0,0H324L324,256.1z"/>
			<path id="Path_41-184" class="st30" d="M324,257.9c-0.2,0-0.3,0.1-0.3,0.3s0.1,0.3,0.3,0.3h13.5c0.2,0,0.3-0.1,0.3-0.3
				c0-0.2-0.1-0.3-0.3-0.3l0,0H324L324,257.9z"/>
			<path id="Path_42-185" class="st30" d="M339.3,270.1h-22.1c-0.2,0-0.4-0.2-0.4-0.4V264c0-0.2,0.2-0.4,0.4-0.4h22.1
				c0.2,0,0.4,0.2,0.4,0.4v5.7C339.7,269.9,339.5,270.1,339.3,270.1z M317.1,263.7c-0.1,0-0.2,0.1-0.2,0.3v5.7
				c0,0.1,0.1,0.3,0.2,0.3h22.1c0.1,0,0.2-0.1,0.2-0.3V264c0-0.1-0.1-0.3-0.2-0.3H317.1z"/>
			<ellipse id="Ellipse_6" class="st31" cx="320" cy="266.8" rx="1.7" ry="1.8"/>
			<path id="Path_43-186" class="st30" d="M324,265.6c-0.2,0-0.3,0.1-0.3,0.3c0,0.2,0.1,0.3,0.3,0.3h13.5c0.2,0,0.3-0.1,0.3-0.3
				c0-0.2-0.1-0.3-0.3-0.3H324L324,265.6z"/>
			<path id="Path_44-187" class="st30" d="M324,267.4c-0.2,0-0.3,0.1-0.3,0.3c0,0.2,0.1,0.3,0.3,0.3h13.5c0.2,0,0.3-0.1,0.3-0.3
				c0-0.2-0.1-0.3-0.3-0.3H324L324,267.4z"/>
			<path id="Path_39-2-188" class="st30" d="M339.3,279.7h-22.1c-0.2,0-0.4-0.2-0.4-0.4v-5.7c0-0.2,0.2-0.4,0.4-0.4h22.1
				c0.2,0,0.4,0.2,0.4,0.4v5.7C339.7,279.5,339.5,279.7,339.3,279.7L339.3,279.7z M317.1,273.3c-0.1,0-0.2,0.1-0.2,0.3v5.7
				c0,0.1,0.1,0.3,0.2,0.3h22.1c0.1,0,0.2-0.1,0.2-0.3v-5.7c0-0.1-0.1-0.3-0.2-0.3H317.1z"/>
			<ellipse id="Ellipse_5-2" class="st31" cx="320" cy="276.4" rx="1.7" ry="1.8"/>
			<path id="Path_40-2-189" class="st30" d="M324,275.2c-0.2,0-0.3,0.1-0.3,0.3c0,0.2,0.1,0.3,0.3,0.3h13.5c0.2,0,0.3-0.1,0.3-0.3
				c0-0.2-0.1-0.3-0.3-0.3l0,0H324L324,275.2z"/>
			<path id="Path_41-2-190" class="st30" d="M324,277c-0.2,0-0.3,0.1-0.3,0.3c0,0.2,0.1,0.3,0.3,0.3h13.5c0.2,0,0.3-0.1,0.3-0.3
				c0-0.2-0.1-0.3-0.3-0.3l0,0H324L324,277z"/>
			<path id="Path_419-201" class="st30" d="M355.5,295.6h-54.9c-0.1,0-0.1-0.1-0.1-0.1c0-0.1,0.1-0.1,0.1-0.1h54.9
				c0.1,0,0.1,0.1,0.1,0.1C355.7,295.6,355.6,295.6,355.5,295.6z"/>
		</g>
	</g>
</g>
<g id="freepik--Trust--inject-187">
	<g id="freepik--trust--inject-187">
		<g id="freepik--circle--inject-187_00000139973393212210325320000010315795517331690885_">
			<circle class="st13" cx="93.5" cy="308" r="46.9"/>
			<path class="st5" d="M74.6,265.1c23.7-10.4,51.4,0.3,61.8,24s-0.3,51.4-24,61.8s-51.4-0.3-61.8-24l0,0
				C40.2,303.2,50.9,275.6,74.6,265.1 M74,263.7c-24.5,10.8-35.6,39.3-24.8,63.8s39.3,35.6,63.8,24.8c24.5-10.8,35.6-39.3,24.8-63.8
				C127,264.1,98.5,253,74,263.7L74,263.7z"/>
			
				<rect x="136.8" y="285.8" transform="matrix(0.9155 -0.4024 0.4024 0.9155 -103.1344 82.1857)" class="st5" width="14.5" height="1.5"/>
			<path class="st5" d="M153.3,282.5c0.6,1.4,0,3.1-1.4,3.7s-3.1,0-3.7-1.4c-0.6-1.4,0-3.1,1.4-3.7l0,0
				C151.1,280.4,152.7,281,153.3,282.5C153.3,282.4,153.3,282.4,153.3,282.5z"/>
		</g>
		<rect x="56" y="299.4" class="st32" width="82.9" height="20.8"/>
		<text transform="matrix(1 0 0 1 58.0378 313.6694)" class="st33 st34">PIXELOG</text>
	</g>
</g>
<rect x="74.4" y="127.6" class="st32" width="27.9" height="5.1"/>
<text transform="matrix(1 0 0 1 74.356 131.0171)" class="st33 st35">PIXELOG</text>
<rect x="287.6" y="71.3" class="st32" width="72.5" height="22.6"/>
<text transform="matrix(1 0 0 1 287.6135 88.9368)" class="st26 st27 st28">VIDEO</text>
<rect x="365.8" y="216.9" class="st32" width="116.5" height="22.6"/>
<text transform="matrix(1 0 0 1 365.8173 234.5498)" class="st27 st28">MOCKUPS</text>
<text transform="matrix(1 0 0 1 365.8173 234.5498)" class="st26 st27 st28">MOCKUPS</text>
<defs>
	<filter id="Adobe_OpacityMaskFilter" filterUnits="userSpaceOnUse" x="364.6" y="111.8" width="75" height="75.4">
		<feColorMatrix  type="matrix" values="1 0 0 0 0  0 1 0 0 0  0 0 1 0 0  0 0 0 1 0"/>
	</filter>
</defs>
<mask maskUnits="userSpaceOnUse" x="364.6" y="111.8" width="75" height="75.4" id="a8ceb2fec4_00000069356068861335818320000018040821087451934125_">
	<g class="st36">
		<g transform="matrix(0.158529, 0, 0, 0.158867, 511.60721, 81.000016)">
			
				<image style="overflow:visible;enable-background:new    ;" width="1618" height="1624" xlink:href="E4650190.jpg"  transform="matrix(0.2924 0 0 0.2924 -927.3206 193.7512)">
			</image>
		</g>
	</g>
</mask>
<g class="st37">
	<g transform="matrix(0.158529, 0, 0, 0.158867, 511.60721, 81.000016)">
		<g transform="matrix(1 0 0 1 0 0)" style="enable-background:new    ;">
			
				<image style="overflow:visible;" width="1618" height="1624" xlink:href="E4650197.jpg"  transform="matrix(0.2924 0 0 0.2924 -927.3206 193.7512)">
			</image>
		</g>
	</g>
</g>
<text transform="matrix(1 0 0 1 382.51 150.9001)" class="st13 st33 st38">PIXELOG</text>
<g>
	<defs>
		<rect id="SVGID_00000024680685157659713050000004137953735326833807_" x="365.1" y="257.3" width="60" height="92.9"/>
	</defs>
	<clipPath id="SVGID_00000023983604997011251160000015830746632942837904_">
		<use xlink:href="#SVGID_00000024680685157659713050000004137953735326833807_"  style="overflow:visible;"/>
	</clipPath>
	<g style="clip-path:url(#SVGID_00000023983604997011251160000015830746632942837904_);">
		<defs>
			
				<filter id="Adobe_OpacityMaskFilter_00000120546663251870424810000000371346455467930522_" filterUnits="userSpaceOnUse" x="267.1" y="214.5" width="268.2" height="178.6">
				<feColorMatrix  type="matrix" values="1 0 0 0 0  0 1 0 0 0  0 0 1 0 0  0 0 0 1 0"/>
			</filter>
		</defs>
		
			<mask maskUnits="userSpaceOnUse" x="267.1" y="214.5" width="268.2" height="178.6" id="e6942530c9_00000063612698381811670780000010597024273400468145_">
			<g style="filter:url(#Adobe_OpacityMaskFilter_00000120546663251870424810000000371346455467930522_);">
				<g transform="matrix(0.206815, 0, 0, 0.20654, 295.908037, 342.514011)">
					
						<image style="overflow:visible;enable-background:new    ;" width="3485" height="2324" xlink:href="E465019D.jpg"  transform="matrix(0.3721 0 0 0.3721 -139.2099 -619.7524)">
					</image>
				</g>
			</g>
		</mask>
		<g class="st41">
			<g transform="matrix(0.206815, 0, 0, 0.20654, 295.908037, 342.514011)">
				<g style="enable-background:new    ;">
					
						<image style="overflow:visible;" width="3485" height="2324" xlink:href="E465019E.jpg"  transform="matrix(0.3721 0 0 0.3721 -139.2099 -619.7524)">
					</image>
				</g>
			</g>
		</g>
	</g>
</g>
<text transform="matrix(1 0 0 1 378.7664 317.9001)" class="st33 st38">PIXELOG</text>
</svg>
