<svg width="156" height="95" viewBox="0 0 156 95" fill="none" xmlns="http://www.w3.org/2000/svg">
<g clip-path="url(#clip0_212_88)">
<path d="M154.58 62.2211H94.4521C94.1421 62.2207 93.8449 62.102 93.6257 61.8909C93.4065 61.6798 93.2832 61.3937 93.2828 61.0951V1.12593C93.2832 0.827419 93.4065 0.541227 93.6257 0.330146C93.8449 0.119065 94.1421 0.000333531 94.4521 0H154.58C154.89 0.000333013 155.188 0.119065 155.407 0.330146C155.626 0.541227 155.749 0.827418 155.75 1.12593V61.0951C155.749 61.3937 155.626 61.6798 155.407 61.8909C155.188 62.102 154.89 62.2207 154.58 62.2211ZM94.4521 0.392562C94.2502 0.392784 94.0566 0.470121 93.9138 0.607607C93.771 0.745092 93.6907 0.931498 93.6905 1.12593V61.0951C93.6907 61.2896 93.771 61.476 93.9138 61.6135C94.0566 61.7509 94.2502 61.8283 94.4521 61.8285H154.58C154.782 61.8283 154.976 61.7509 155.119 61.6135C155.261 61.476 155.342 61.2896 155.342 61.0951V1.12593C155.342 0.931498 155.261 0.745092 155.119 0.607607C154.976 0.470121 154.782 0.392784 154.58 0.392562H94.4521Z" fill="#3F3D56"/>
<path d="M135.85 25.2039C137.193 27.5932 137.685 30.3411 137.25 33.0257C136.815 35.7103 135.477 38.1831 133.441 40.0647C131.406 41.9462 128.785 43.1324 125.982 43.4411C123.179 43.7498 120.348 43.1639 117.924 41.7735C115.499 40.3831 113.616 38.2649 112.563 35.7442C111.51 33.2236 111.345 30.4397 112.093 27.82C112.842 25.2003 114.463 22.8896 116.707 21.2427C118.951 19.5958 121.695 18.7037 124.516 18.7033C124.618 18.7033 124.72 18.7048 124.822 18.707L124.686 13.4064C124.629 13.4059 124.573 13.4043 124.516 13.4043C120.457 13.4054 116.511 14.7007 113.297 17.0878C110.082 19.475 107.778 22.8199 106.745 26.6005C105.711 30.3811 106.007 34.3847 107.585 37.9866C109.163 41.5884 111.935 44.5859 115.468 46.5113C119.001 48.4366 123.097 49.1815 127.116 48.6297C131.135 48.078 134.851 46.2605 137.685 43.461C140.519 40.6616 142.31 37.0375 142.78 33.1545C143.25 29.2715 142.372 25.3479 140.283 21.996L135.85 25.2039Z" fill="#009900"/>
<path d="M135.85 25.2038L140.283 21.9958C138.664 19.3982 136.38 17.2443 133.649 15.7403C130.918 14.2363 127.832 13.4327 124.686 13.4062L124.822 18.7069C127.092 18.7581 129.307 19.386 131.243 20.5269C133.18 21.6678 134.769 23.2812 135.85 25.2038Z" fill="#E6E6E6"/>
<path d="M133.876 46.3094L133.649 46.5264L140.106 52.8029L140.333 52.5859L133.876 46.3094Z" fill="#3F3D56"/>
<path d="M138.022 7.88852L133.533 15.5942L133.813 15.7451L138.301 8.0394L138.022 7.88852Z" fill="#3F3D56"/>
<path d="M145.051 55.1187H135.522C135.353 55.1185 135.19 55.0537 135.07 54.9384C134.951 54.8231 134.883 54.6667 134.883 54.5036V53.2113C134.883 53.0482 134.951 52.8918 135.07 52.7765C135.19 52.6612 135.353 52.5964 135.522 52.5962H145.051C145.22 52.5964 145.383 52.6612 145.503 52.7765C145.622 52.8918 145.69 53.0482 145.69 53.2113V54.5036C145.69 54.6667 145.622 54.8231 145.503 54.9384C145.383 55.0537 145.22 55.1185 145.051 55.1187Z" fill="#009900"/>
<path d="M142.635 8.07388H133.106C132.937 8.07368 132.774 8.00882 132.655 7.89351C132.535 7.77819 132.467 7.62186 132.467 7.45879V6.16637C132.467 6.0033 132.535 5.84696 132.655 5.73165C132.774 5.61634 132.937 5.55147 133.106 5.55127H142.635C142.805 5.55147 142.967 5.61634 143.087 5.73165C143.207 5.84696 143.274 6.0033 143.274 6.16637V7.45879C143.274 7.62186 143.207 7.7782 143.087 7.89351C142.967 8.00882 142.805 8.07369 142.635 8.07388Z" fill="#E6E6E6"/>
<path d="M83.6711 28.632H15.7204C15.4251 28.6317 15.142 28.5186 14.9331 28.3175C14.7243 28.1164 14.6068 27.8438 14.6065 27.5594V1.26893C14.6068 0.98455 14.7243 0.711906 14.9331 0.510816C15.142 0.309726 15.4251 0.196612 15.7204 0.196289H83.6711C83.9664 0.196622 84.2495 0.309739 84.4584 0.510828C84.6672 0.711917 84.7846 0.984558 84.785 1.26893V27.5594C84.7846 27.8438 84.6672 28.1164 84.4584 28.3175C84.2495 28.5186 83.9664 28.6317 83.6711 28.632ZM15.7204 0.588851C15.5332 0.589046 15.3536 0.660761 15.2212 0.788259C15.0888 0.915757 15.0144 1.08862 15.0142 1.26893V27.5594C15.0144 27.7397 15.0888 27.9126 15.2212 28.0401C15.3536 28.1675 15.5332 28.2393 15.7204 28.2395H83.6711C83.8584 28.2393 84.0379 28.1675 84.1703 28.04C84.3027 27.9125 84.3771 27.7397 84.3773 27.5594V1.26893C84.3771 1.08863 84.3026 0.915771 84.1702 0.788274C84.0379 0.660777 83.8584 0.589057 83.6711 0.588851H15.7204Z" fill="#3F3D56"/>
<path d="M42.2086 22.1073H35.625C35.4567 22.107 35.2941 22.0492 35.1659 21.9442C35.0378 21.8392 34.9526 21.6939 34.9253 21.534C34.4959 18.8481 34.4959 16.1147 34.9253 13.4288C34.9526 13.2689 35.0378 13.1236 35.1659 13.0186C35.2941 12.9136 35.4567 12.8558 35.625 12.8555H42.2086C42.3153 12.8551 42.4206 12.8783 42.5166 12.9231C42.6126 12.9678 42.6967 13.0331 42.7626 13.114C42.8299 13.1959 42.8769 13.2916 42.9 13.3937C42.9231 13.4958 42.9217 13.6016 42.896 13.7031C42.2801 16.187 42.2801 18.7757 42.8959 21.2597C42.9217 21.3612 42.9231 21.467 42.9 21.5691C42.8769 21.6712 42.8299 21.7669 42.7626 21.8488C42.6967 21.9297 42.6126 21.9949 42.5166 22.0397C42.4206 22.0845 42.3153 22.1076 42.2086 22.1073Z" fill="#E6E6E6"/>
<path d="M64.2518 22.1073H57.6681C57.4999 22.107 57.3372 22.0492 57.2091 21.9442C57.081 21.8392 56.9957 21.6939 56.9685 21.534C56.539 18.8481 56.539 16.1147 56.9685 13.4288C56.9957 13.2689 57.081 13.1236 57.2091 13.0186C57.3372 12.9136 57.4999 12.8558 57.6681 12.8555H64.2518C64.3584 12.8551 64.4638 12.8783 64.5598 12.9231C64.6558 12.9679 64.7399 13.0332 64.8058 13.114C64.873 13.196 64.92 13.2917 64.9431 13.3937C64.9662 13.4958 64.9648 13.6016 64.939 13.7031C64.3232 16.1871 64.3232 18.7757 64.939 21.2597C64.9648 21.3612 64.9662 21.467 64.9431 21.5691C64.92 21.6711 64.873 21.7668 64.8058 21.8488C64.7399 21.9296 64.6558 21.9949 64.5598 22.0397C64.4638 22.0845 64.3584 22.1076 64.2518 22.1073Z" fill="#E6E6E6"/>
<path d="M31.0102 15.973H24.4266C24.2584 15.9727 24.0957 15.9149 23.9676 15.81C23.8395 15.705 23.7542 15.5596 23.727 15.3997C23.2975 12.7138 23.2975 9.98042 23.727 7.29451C23.7542 7.13465 23.8395 6.98927 23.9676 6.88428C24.0957 6.77929 24.2584 6.7215 24.4266 6.72119H31.0102C31.1169 6.72087 31.2223 6.74399 31.3183 6.78878C31.4143 6.83357 31.4984 6.89886 31.5643 6.97968C31.6315 7.06165 31.6785 7.15731 31.7016 7.2594C31.7248 7.36149 31.7234 7.46731 31.6976 7.56881C31.0817 10.0528 31.0817 12.6415 31.6976 15.1254C31.7233 15.2269 31.7247 15.3327 31.7016 15.4348C31.6785 15.5369 31.6316 15.6326 31.5643 15.7146C31.4984 15.7954 31.4143 15.8607 31.3183 15.9055C31.2223 15.9503 31.1169 15.9734 31.0102 15.973Z" fill="#009900"/>
<path d="M53.2753 15.973H46.6916C46.5849 15.9734 46.4795 15.9503 46.3835 15.9054C46.2875 15.8606 46.2034 15.7953 46.1376 15.7145C46.0703 15.6325 46.0233 15.5369 46.0002 15.4348C45.9771 15.3327 45.9785 15.2269 46.0043 15.1254C46.6201 12.6415 46.6201 10.0528 46.0043 7.56881C45.9785 7.46733 45.9771 7.36153 46.0002 7.25945C46.0233 7.15738 46.0703 7.06172 46.1376 6.97977C46.2034 6.89893 46.2875 6.83361 46.3835 6.7888C46.4795 6.74399 46.5849 6.72087 46.6916 6.72119H53.2753C53.4435 6.7215 53.6061 6.77929 53.7342 6.88429C53.8624 6.98928 53.9476 7.13465 53.9748 7.29451C54.4043 9.98042 54.4043 12.7138 53.9748 15.3997C53.9476 15.5596 53.8624 15.705 53.7343 15.81C53.6061 15.9149 53.4435 15.9727 53.2753 15.973Z" fill="#009900"/>
<path d="M74.9649 15.973H68.3812C68.2745 15.9734 68.1691 15.9503 68.0731 15.9054C67.9771 15.8606 67.893 15.7953 67.8272 15.7145C67.7599 15.6325 67.7129 15.5369 67.6898 15.4348C67.6667 15.3327 67.6681 15.2269 67.6939 15.1254C68.3098 12.6415 68.3097 10.0528 67.6939 7.56881C67.6681 7.46733 67.6667 7.36152 67.6898 7.25945C67.7129 7.15737 67.7599 7.06172 67.8272 6.97977C67.893 6.89893 67.9771 6.83361 68.0731 6.7888C68.1691 6.74399 68.2745 6.72087 68.3812 6.72119H74.9649C75.1331 6.72152 75.2957 6.77932 75.4239 6.88431C75.552 6.9893 75.6373 7.13466 75.6645 7.29451C76.0939 9.98043 76.0939 12.7138 75.6645 15.3997C75.6373 15.5596 75.552 15.7049 75.4239 15.8099C75.2957 15.9149 75.1331 15.9727 74.9649 15.973Z" fill="#FF6584"/>
<path d="M38.3073 62.7048C37.9936 62.6433 37.6978 62.5163 37.4406 62.3327C37.1834 62.1492 36.9711 61.9136 36.8187 61.6425C36.6663 61.3714 36.5775 61.0714 36.5585 60.7637C36.5395 60.456 36.5908 60.148 36.7088 59.8615L27.6721 41.1772L32.2564 39.9365L39.7057 58.7155C40.1925 58.9383 40.5775 59.3253 40.7877 59.8031C40.998 60.281 41.0189 60.8165 40.8466 61.3083C40.6742 61.8 40.3205 62.2138 39.8525 62.4712C39.3845 62.7286 38.8347 62.8117 38.3073 62.7048Z" fill="#A0616A"/>
<path d="M20.8068 92.52H23.3058L24.4945 83.2383H20.8064L20.8068 92.52Z" fill="#A0616A"/>
<path d="M28.1251 94.7539L20.2704 94.7543L20.2702 91.8319L25.0902 91.8317C25.8951 91.8316 26.667 92.1395 27.2361 92.6875C27.8053 93.2355 28.1251 93.9788 28.1251 94.7539Z" fill="#2F2E41"/>
<path d="M7.81772 89.926L10.1147 90.8734L15.0029 82.7923L11.6126 81.394L7.81772 89.926Z" fill="#A0616A"/>
<path d="M13.6312 94.7544L6.41093 91.7764L7.60578 89.09L12.0364 90.9175C12.7763 91.2226 13.36 91.7983 13.659 92.5179C13.9581 93.2374 13.9481 94.0419 13.6312 94.7544Z" fill="#2F2E41"/>
<path d="M26.9852 32.4117C29.7501 32.4117 31.9915 30.2534 31.9915 27.5909C31.9915 24.9284 29.7501 22.77 26.9852 22.77C24.2203 22.77 21.9789 24.9284 21.9789 27.5909C21.9789 30.2534 24.2203 32.4117 26.9852 32.4117Z" fill="#A0616A"/>
<path d="M23.3684 90.2508L20.6175 89.7461C20.3914 89.7058 20.1894 89.5848 20.052 89.4072C19.9146 89.2296 19.852 89.0086 19.8767 88.7884L21.7008 71.6612C21.7182 71.4978 21.6743 71.3338 21.5769 71.1989C21.4795 71.064 21.3352 70.9672 21.17 70.926C21.0049 70.8848 20.8299 70.902 20.6768 70.9744C20.5237 71.0467 20.4025 71.1696 20.3354 71.3206L12.3715 89.2149C12.3236 89.3224 12.254 89.4197 12.1668 89.5011C12.0795 89.5825 11.9764 89.6464 11.8633 89.6891C11.7502 89.7318 11.6294 89.7525 11.508 89.7499C11.3865 89.7473 11.2668 89.7215 11.1558 89.674L8.91844 88.7164C8.70956 88.6278 8.54265 88.4672 8.45055 88.2662C8.35844 88.0651 8.34782 87.8381 8.42075 87.6299L13.8675 71.8946C13.8829 71.8504 13.8935 71.8047 13.8992 71.7584L15.6672 57.3814C15.6865 57.2244 15.7492 57.0753 15.8486 56.9496C15.9481 56.8239 16.0808 56.7263 16.2329 56.6668L21.8155 54.4829C21.9806 54.4183 22.1618 54.4014 22.3367 54.4344C22.5117 54.4673 22.6729 54.5486 22.8006 54.6683L29.8471 61.2754C29.9569 61.3778 30.0382 61.5052 30.0836 61.6459C30.129 61.7865 30.137 61.9358 30.1069 62.0802L24.4397 89.5551C24.3977 89.7554 24.2852 89.9356 24.1211 90.0652C23.9571 90.1948 23.7516 90.2658 23.5394 90.2663C23.482 90.2663 23.4248 90.2611 23.3684 90.2508Z" fill="#2F2E41"/>
<path d="M20.2322 58.1737C19.2569 57.0863 18.5452 56.5927 18.0584 56.6705C17.5754 56.7457 17.2968 57.3955 17.0017 58.0834C16.599 59.0225 16.1426 60.0869 15.0176 60.1701C14.8424 60.199 14.6623 60.18 14.4979 60.1151C14.3334 60.0502 14.1913 59.942 14.0876 59.803C13.2027 58.5356 15.3253 54.3416 15.5192 53.9648L15.4197 34.1285C15.4183 33.9685 15.4622 33.8111 15.5467 33.6733C15.6312 33.5355 15.7531 33.4224 15.8993 33.3463C21.7322 30.3173 29.6083 35.5851 31.1279 36.6721C31.2495 36.7588 31.3468 36.8732 31.4112 37.0051C31.4756 37.1369 31.5051 37.282 31.4969 37.4275C31.3136 40.7497 30.3989 57.5111 30.3989 61.25C30.3989 62.2851 30.0282 62.9427 29.2969 63.2046C29.0501 63.2889 28.7895 63.3301 28.5276 63.3261C26.2965 63.3261 22.6424 60.8611 20.2322 58.1737Z" fill="#CCCCCC"/>
<path d="M28.3724 48.542C28.2504 48.4657 28.1493 48.3623 28.0775 48.2405C28.0058 48.1186 27.9655 47.982 27.9601 47.842L27.565 38.9572C27.5406 38.4102 27.7192 37.8727 28.0688 37.4409C28.4183 37.0091 28.916 36.7112 29.4729 36.6004C30.0297 36.4897 30.6093 36.5733 31.1079 36.8364C31.6065 37.0995 31.9916 37.5249 32.1943 38.0364L35.1514 45.4983C35.2378 45.7172 35.2306 45.9602 35.1312 46.1739C35.0319 46.3877 34.8486 46.5547 34.6214 46.6385L29.2035 48.6295C29.0678 48.6801 28.9215 48.6985 28.7769 48.6833C28.6322 48.6681 28.4935 48.6197 28.3724 48.542Z" fill="#CCCCCC"/>
<path d="M14.6042 62.4244C14.3386 62.2523 14.1154 62.0263 13.9503 61.7622C13.7852 61.4981 13.6822 61.2023 13.6487 60.8957C13.6152 60.5892 13.6518 60.2793 13.7561 59.9878C13.8604 59.6964 14.0298 59.4305 14.2523 59.2089L13.2963 38.6182L18.0256 39.1544L17.4766 59.2499C17.8384 59.6346 18.041 60.1337 18.0462 60.6527C18.0514 61.1716 17.8587 61.6744 17.5046 62.0657C17.1506 62.457 16.6598 62.7096 16.1252 62.7757C15.5906 62.8419 15.0494 62.7168 14.6042 62.4244Z" fill="#A0616A"/>
<path d="M11.3203 44.1015C11.2345 43.9883 11.1783 43.857 11.1564 43.7185C11.1344 43.58 11.1474 43.4385 11.1942 43.3058L14.1146 34.8692C14.2943 34.3498 14.6602 33.9089 15.1467 33.6255C15.6331 33.342 16.2085 33.2346 16.7697 33.3223C17.331 33.41 17.8415 33.6871 18.2099 34.1041C18.5783 34.5212 18.7806 35.0508 18.7806 35.5984V43.5851C18.7803 43.8193 18.6836 44.0438 18.5117 44.2094C18.3397 44.375 18.1066 44.4681 17.8634 44.4684H12.0644C11.9189 44.4691 11.7753 44.4362 11.6458 44.3723C11.5163 44.3085 11.4047 44.2156 11.3203 44.1015Z" fill="#CCCCCC"/>
<path d="M23.7522 30.8337C23.5648 30.9751 23.3307 31.0467 23.0929 31.0353C22.8551 31.0239 22.6296 30.9302 22.4577 30.7716C21.3847 29.8058 20.4792 28.651 20.021 27.3135C19.4958 25.781 19.63 23.986 20.6356 22.695C21.4857 21.6037 22.8312 20.9871 24.1566 20.5051C24.674 20.2944 25.2206 20.1577 25.7791 20.0994C26.3432 20.043 26.9085 20.1958 27.3597 20.5267C27.5796 20.6958 27.7415 20.9248 27.8242 21.1838C27.9069 21.4428 27.9067 21.7198 27.8235 21.9786C28.5032 21.3842 29.3324 20.9711 30.229 20.7803C30.7965 20.6355 31.3962 20.6594 31.9493 20.849C32.718 21.1534 33.2172 21.8968 33.4473 22.6659C33.6376 23.2525 33.653 23.8788 33.4918 24.4734C33.409 24.7691 33.2627 25.0447 33.0624 25.2824C32.8621 25.5202 32.6121 25.7148 32.3288 25.8537C31.6255 26.1728 30.791 26.0523 30.0557 25.8095C29.3204 25.5666 28.6233 25.2082 27.8628 25.0533C27.1023 24.8984 26.2242 24.9888 25.6861 25.5289C25.3071 25.9093 25.1579 26.4445 25.0223 26.9552L24.3173 29.6116C24.2395 29.9986 24.0907 30.3691 23.8777 30.7057C23.8421 30.7536 23.7999 30.7967 23.7522 30.8337Z" fill="#2F2E41"/>
<path d="M44.0554 69.1649H37.4717C37.3035 69.1646 37.1409 69.1068 37.0127 69.0018C36.8846 68.8968 36.7994 68.7515 36.7721 68.5916C36.3427 65.9057 36.3427 63.1723 36.7721 60.4864C36.7994 60.3265 36.8846 60.1812 37.0127 60.0762C37.1409 59.9712 37.3035 59.9134 37.4717 59.9131H44.0554C44.1621 59.9128 44.2675 59.9359 44.3635 59.9807C44.4595 60.0255 44.5436 60.0908 44.6094 60.1717C44.6767 60.2536 44.7237 60.3493 44.7468 60.4514C44.7699 60.5534 44.7685 60.6592 44.7427 60.7607C44.1269 63.2447 44.1269 65.8334 44.7427 68.3173C44.7685 68.4188 44.7699 68.5246 44.7468 68.6267C44.7237 68.7287 44.6767 68.8244 44.6094 68.9064C44.5436 68.9872 44.4595 69.0525 44.3635 69.0973C44.2675 69.1421 44.1621 69.1653 44.0554 69.1649Z" fill="#009900"/>
<path d="M33.0205 95H0.20383C0.149771 95 0.0979259 94.9793 0.0597003 94.9425C0.0214748 94.9057 0 94.8558 0 94.8037C0 94.7516 0.0214748 94.7017 0.0597003 94.6649C0.0979259 94.6281 0.149771 94.6074 0.20383 94.6074H33.0205C33.0746 94.6074 33.1264 94.6281 33.1646 94.6649C33.2029 94.7017 33.2243 94.7516 33.2243 94.8037C33.2243 94.8558 33.2029 94.9057 33.1646 94.9425C33.1264 94.9793 33.0746 95 33.0205 95Z" fill="#3F3D56"/>
</g>
<defs>
<clipPath id="clip0_212_88">
<rect width="155.75" height="95" fill="white"/>
</clipPath>
</defs>
</svg>
