<svg width="548" height="611" viewBox="0 0 548 611" fill="none" xmlns="http://www.w3.org/2000/svg">
<path fill-rule="evenodd" clip-rule="evenodd" d="M359.244 11.8402C412.004 -2.67416 468.224 -4.85413 520.605 10.9734C580.008 28.9227 656.077 48.8021 676.032 107.561C697.04 169.421 638.12 229.164 615.52 290.459C600.378 331.524 577 367.113 564.828 409.154C547.82 467.898 574.708 544.439 529.926 586.09C487.397 625.648 417.051 606.019 359.244 600.372C305.512 595.123 252.683 582.95 206.787 554.523C161.693 526.593 132.912 481.788 100.275 439.975C62.79 391.95 -7.62807 350.813 0.674043 290.459C9.34706 227.409 89.6564 203.888 138.383 162.945C171.671 134.974 206.23 112.137 242.115 87.5861C281.154 60.877 313.636 24.3867 359.244 11.8402Z" fill="#2297FA"/>
</svg>
