<svg width="147" height="95" viewBox="0 0 147 95" fill="none" xmlns="http://www.w3.org/2000/svg">
<g clip-path="url(#clip0_212_169)">
<path d="M84.6605 4.62367C85.9207 6.92088 83.2505 7.57156 80.1917 8.80284C77.1329 10.0341 74.8439 11.3797 73.5838 9.08251C72.3236 6.78531 71.3012 2.22577 75.6283 0.483916C80.1046 -1.31794 83.4004 2.32646 84.6605 4.62367Z" fill="#2F2E41"/>
<path d="M78.4198 9.14128C80.694 9.14128 82.5376 7.562 82.5376 5.61385C82.5376 3.66571 80.694 2.08643 78.4198 2.08643C76.1456 2.08643 74.302 3.66571 74.302 5.61385C74.302 7.562 76.1456 9.14128 78.4198 9.14128Z" fill="#FFB8B8"/>
<path d="M98.82 21.2573C98.6775 21.0979 98.5349 20.9413 98.3908 20.7891C98.2047 20.5909 98.0175 20.3989 97.8291 20.2132C95.6949 18.1034 93.4248 16.7749 90.9252 16.6328H90.9218L90.8849 16.6299L85.9039 20.7891L84.2105 22.2023L84.2475 22.2799L85.1611 24.2288H101.171C100.449 23.2032 99.6645 22.2113 98.82 21.2573Z" fill="#2F2E41"/>
<path d="M73.942 7.03431L75.4161 6.44096L75.2107 4.61939L76.1964 6.12685L76.9009 5.84325L76.7811 4.78067L77.3561 5.66001L82.591 3.55275C82.0993 2.65643 81.2122 1.96415 80.1246 1.62818C79.0371 1.29221 77.8383 1.34008 76.792 1.76127L76.0333 2.06667C74.987 2.48786 74.1789 3.24785 73.7867 4.17946C73.3945 5.11107 73.4504 6.13799 73.942 7.03431Z" fill="#2F2E41"/>
<path d="M108.058 71.0627H22.078C21.3446 71.062 20.6415 70.8121 20.1229 70.3679C19.6042 69.9236 19.3125 69.3213 19.3117 68.693V24.4363C19.3123 23.976 19.526 23.5348 19.9059 23.2093C20.2859 22.8838 20.801 22.7007 21.3383 22.7002H108.762C109.309 22.7007 109.833 22.887 110.22 23.2181C110.606 23.5492 110.823 23.9981 110.824 24.4663V68.693C110.823 69.3213 110.531 69.9236 110.013 70.3679C109.494 70.8121 108.791 71.062 108.058 71.0627Z" fill="#F2F2F2"/>
<path d="M24.7605 68.6927H105.375C106.087 68.6927 106.769 68.4506 107.272 68.0197C107.775 67.5887 108.058 67.0043 108.058 66.3948V28.8316C108.058 28.2222 107.775 27.6377 107.272 27.2067C106.769 26.7758 106.087 26.5337 105.375 26.5337H24.7605C24.0491 26.5337 23.3668 26.7758 22.8637 27.2067C22.3606 27.6377 22.078 28.2222 22.078 28.8316V66.3948C22.078 67.0043 22.3606 67.5887 22.8637 68.0197C23.3668 68.4506 24.0491 68.6927 24.7605 68.6927Z" fill="white"/>
<path d="M110.786 24.3006H19.2729V23.0941C19.274 22.4638 19.5669 21.8595 20.0873 21.4139C20.6078 20.9683 21.3134 20.7178 22.0493 20.7173H108.009C108.745 20.7178 109.451 20.9683 109.971 21.4139C110.492 21.8595 110.784 22.4638 110.786 23.0941V24.3006Z" fill="#009900"/>
<path d="M24.3185 23.1278C24.7152 23.1278 25.0367 22.8524 25.0367 22.5126C25.0367 22.1729 24.7152 21.8975 24.3185 21.8975C23.9219 21.8975 23.6004 22.1729 23.6004 22.5126C23.6004 22.8524 23.9219 23.1278 24.3185 23.1278Z" fill="white"/>
<path d="M27.0444 23.1278C27.441 23.1278 27.7625 22.8524 27.7625 22.5126C27.7625 22.1729 27.441 21.8975 27.0444 21.8975C26.6478 21.8975 26.3262 22.1729 26.3262 22.5126C26.3262 22.8524 26.6478 23.1278 27.0444 23.1278Z" fill="white"/>
<path d="M29.7703 23.1278C30.1669 23.1278 30.4884 22.8524 30.4884 22.5126C30.4884 22.1729 30.1669 21.8975 29.7703 21.8975C29.3736 21.8975 29.0521 22.1729 29.0521 22.5126C29.0521 22.8524 29.3736 23.1278 29.7703 23.1278Z" fill="white"/>
<path d="M67.5833 60.547H60.3741C59.9519 60.5465 59.547 60.4027 59.2484 60.1469C58.9498 59.8911 58.7819 59.5443 58.7814 59.1826V53.007C58.7819 52.6452 58.9498 52.2984 59.2484 52.0426C59.547 51.7869 59.9519 51.643 60.3741 51.6426H67.5833C68.0055 51.643 68.4104 51.7869 68.709 52.0426C69.0075 52.2984 69.1755 52.6452 69.176 53.007V59.1826C69.1755 59.5443 69.0075 59.8911 68.709 60.1469C68.4104 60.4027 68.0055 60.5465 67.5833 60.547ZM60.3741 51.9298C60.0407 51.9301 59.7211 52.0437 59.4854 52.2457C59.2497 52.4476 59.1171 52.7214 59.1167 53.007V59.1826C59.1171 59.4681 59.2497 59.7419 59.4854 59.9439C59.7211 60.1458 60.0407 60.2594 60.3741 60.2597H67.5833C67.9166 60.2594 68.2362 60.1458 68.472 59.9439C68.7077 59.7419 68.8403 59.4681 68.8407 59.1826V53.007C68.8403 52.7214 68.7077 52.4476 68.472 52.2457C68.2362 52.0437 67.9166 51.9301 67.5833 51.9298H60.3741Z" fill="#CCCCCC"/>
<path d="M66.1582 58.8232H61.7992C61.6658 58.8231 61.538 58.7777 61.4437 58.6969C61.3494 58.6161 61.2964 58.5066 61.2962 58.3924V53.7966C61.2964 53.6823 61.3494 53.5728 61.4437 53.4921C61.538 53.4113 61.6658 53.3658 61.7992 53.3657H64.9577C65.0723 53.3658 65.1834 53.3993 65.2728 53.4607L66.4732 54.2871C66.532 54.3274 66.5795 54.3785 66.612 54.4366C66.6446 54.4948 66.6614 54.5585 66.6612 54.6229V58.3924C66.661 58.5066 66.608 58.6161 66.5137 58.6969C66.4194 58.7777 66.2916 58.8231 66.1582 58.8232ZM61.7992 53.653C61.7548 53.653 61.7121 53.6682 61.6807 53.6951C61.6493 53.722 61.6316 53.7585 61.6315 53.7966V58.3924C61.6316 58.4305 61.6493 58.467 61.6807 58.4939C61.7121 58.5208 61.7548 58.536 61.7992 58.536H66.1582C66.2027 58.536 66.2453 58.5208 66.2767 58.4939C66.3081 58.467 66.3258 58.4305 66.3259 58.3924V54.6229C66.3259 54.6015 66.3203 54.5802 66.3095 54.5609C66.2986 54.5415 66.2828 54.5244 66.2632 54.511L65.0626 53.6846C65.0329 53.6641 64.9959 53.653 64.9577 53.653H61.7992Z" fill="#CCCCCC"/>
<path d="M65.3199 55.3766H62.6375C62.593 55.3766 62.5504 55.3615 62.5189 55.3345C62.4875 55.3076 62.4698 55.2711 62.4698 55.233C62.4698 55.1949 62.4875 55.1584 62.5189 55.1314C62.5504 55.1045 62.593 55.0894 62.6375 55.0894H65.3199C65.3644 55.0894 65.4071 55.1045 65.4385 55.1314C65.4699 55.1584 65.4876 55.1949 65.4876 55.233C65.4876 55.2711 65.4699 55.3076 65.4385 55.3345C65.4071 55.3615 65.3644 55.3766 65.3199 55.3766Z" fill="#CCCCCC"/>
<path d="M65.3199 56.2384H62.6375C62.593 56.2384 62.5504 56.2233 62.5189 56.1963C62.4875 56.1694 62.4698 56.1329 62.4698 56.0948C62.4698 56.0567 62.4875 56.0202 62.5189 55.9932C62.5504 55.9663 62.593 55.9512 62.6375 55.9512H65.3199C65.3644 55.9512 65.4071 55.9663 65.4385 55.9932C65.4699 56.0202 65.4876 56.0567 65.4876 56.0948C65.4876 56.1329 65.4699 56.1694 65.4385 56.1963C65.4071 56.2233 65.3644 56.2384 65.3199 56.2384Z" fill="#CCCCCC"/>
<path d="M65.3199 57.0997H62.6375C62.593 57.0997 62.5504 57.0846 62.5189 57.0577C62.4875 57.0307 62.4698 56.9942 62.4698 56.9561C62.4698 56.918 62.4875 56.8815 62.5189 56.8546C62.5504 56.8276 62.593 56.8125 62.6375 56.8125H65.3199C65.3644 56.8125 65.4071 56.8276 65.4385 56.8546C65.4699 56.8815 65.4876 56.918 65.4876 56.9561C65.4876 56.9942 65.4699 57.0307 65.4385 57.0577C65.4071 57.0846 65.3644 57.0997 65.3199 57.0997Z" fill="#CCCCCC"/>
<path d="M84.684 60.547H77.4749C77.0526 60.5465 76.6478 60.4027 76.3492 60.1469C76.0506 59.8911 75.8827 59.5443 75.8822 59.1826V53.007C75.8827 52.6452 76.0506 52.2984 76.3492 52.0426C76.6478 51.7869 77.0526 51.643 77.4749 51.6426H84.684C85.1063 51.643 85.5111 51.7869 85.8097 52.0426C86.1083 52.2984 86.2763 52.6452 86.2768 53.007V59.1826C86.2763 59.5443 86.1083 59.8911 85.8097 60.1469C85.5111 60.4027 85.1063 60.5465 84.684 60.547ZM77.4749 51.9298C77.1415 51.9301 76.8219 52.0437 76.5862 52.2457C76.3504 52.4476 76.2179 52.7214 76.2175 53.007V59.1826C76.2179 59.4681 76.3504 59.7419 76.5862 59.9439C76.8219 60.1458 77.1415 60.2594 77.4749 60.2597H84.684C85.0174 60.2594 85.337 60.1458 85.5727 59.9439C85.8085 59.7419 85.9411 59.4681 85.9414 59.1826V53.007C85.9411 52.7214 85.8085 52.4476 85.5727 52.2457C85.337 52.0437 85.0174 51.9301 84.684 51.9298H77.4749Z" fill="#CCCCCC"/>
<path d="M83.4266 57.6743H78.7323C78.599 57.6741 78.4711 57.6287 78.3768 57.5479C78.2825 57.4672 78.2295 57.3576 78.2293 57.2434V54.9455C78.2295 54.8313 78.2825 54.7218 78.3768 54.641C78.4711 54.5602 78.599 54.5148 78.7323 54.5146H83.4266C83.56 54.5148 83.6878 54.5602 83.7821 54.641C83.8764 54.7218 83.9294 54.8313 83.9296 54.9455V57.2434C83.9294 57.3576 83.8764 57.4672 83.7821 57.5479C83.6878 57.6287 83.56 57.6741 83.4266 57.6743ZM78.7323 54.8019C78.6879 54.8019 78.6452 54.8171 78.6138 54.844C78.5824 54.8709 78.5647 54.9074 78.5646 54.9455V57.2434C78.5647 57.2815 78.5824 57.318 78.6138 57.3449C78.6452 57.3718 78.6879 57.387 78.7323 57.387H83.4266C83.4711 57.387 83.5137 57.3718 83.5451 57.3449C83.5766 57.318 83.5942 57.2815 83.5943 57.2434V54.9455C83.5942 54.9074 83.5766 54.8709 83.5451 54.844C83.5137 54.8171 83.4711 54.8019 83.4266 54.8019H78.7323Z" fill="#CCCCCC"/>
<path d="M81.0795 56.4736C80.9853 56.4737 80.8929 56.4512 80.8129 56.4086L78.3081 55.0676C78.2705 55.0473 78.2437 55.0151 78.2338 54.9781C78.2239 54.941 78.2315 54.902 78.2551 54.8698C78.2786 54.8375 78.3161 54.8145 78.3594 54.806C78.4027 54.7974 78.4482 54.8038 78.4859 54.8239L80.9907 56.165C81.0174 56.1791 81.0481 56.1866 81.0795 56.1866C81.1109 56.1866 81.1417 56.1791 81.1684 56.165L83.673 54.8239C83.7107 54.8038 83.7562 54.7974 83.7995 54.806C83.8428 54.8145 83.8803 54.8375 83.9038 54.8698C83.9274 54.902 83.935 54.941 83.9251 54.9781C83.9151 55.0151 83.8884 55.0473 83.8508 55.0676L81.3462 56.4086C81.2661 56.4512 81.1737 56.4737 81.0795 56.4736Z" fill="#CCCCCC"/>
<path d="M50.4825 60.547H43.2734C42.8511 60.5465 42.4463 60.4027 42.1477 60.1469C41.8491 59.8911 41.6811 59.5443 41.6806 59.1826V53.007C41.6811 52.6452 41.8491 52.2984 42.1477 52.0426C42.4463 51.7869 42.8511 51.643 43.2734 51.6426H50.4825C50.9048 51.643 51.3096 51.7869 51.6082 52.0426C51.9068 52.2984 52.0747 52.6452 52.0752 53.007V59.1826C52.0747 59.5443 51.9068 59.8911 51.6082 60.1469C51.3096 60.4027 50.9048 60.5465 50.4825 60.547ZM43.2734 51.9298C42.94 51.9301 42.6204 52.0437 42.3846 52.2457C42.1489 52.4476 42.0163 52.7214 42.0159 53.007V59.1826C42.0163 59.4681 42.1489 59.7419 42.3846 59.9439C42.6204 60.1458 42.94 60.2594 43.2734 60.2597H50.4825C50.8159 60.2594 51.1355 60.1458 51.3712 59.9439C51.6069 59.7419 51.7395 59.4681 51.7399 59.1826V53.007C51.7395 52.7214 51.6069 52.4476 51.3712 52.2457C51.1355 52.0437 50.8159 51.9301 50.4825 51.9298H43.2734Z" fill="#CCCCCC"/>
<path d="M49.2251 57.6743H44.5308C44.3974 57.6741 44.2696 57.6287 44.1753 57.5479C44.081 57.4672 44.0279 57.3576 44.0278 57.2434V54.9455C44.0279 54.8313 44.081 54.7218 44.1753 54.641C44.2696 54.5602 44.3974 54.5148 44.5308 54.5146H49.2251C49.3584 54.5148 49.4863 54.5602 49.5806 54.641C49.6749 54.7218 49.7279 54.8313 49.7281 54.9455V57.2434C49.7279 57.3576 49.6749 57.4672 49.5806 57.5479C49.4863 57.6287 49.3584 57.6741 49.2251 57.6743ZM44.5308 54.8019C44.4863 54.8019 44.4437 54.8171 44.4123 54.844C44.3808 54.8709 44.3632 54.9074 44.3631 54.9455V57.2434C44.3632 57.2815 44.3808 57.318 44.4123 57.3449C44.4437 57.3718 44.4863 57.387 44.5308 57.387H49.2251C49.2695 57.387 49.3122 57.3718 49.3436 57.3449C49.375 57.318 49.3927 57.2815 49.3927 57.2434V54.9455C49.3927 54.9074 49.375 54.8709 49.3436 54.844C49.3122 54.8171 49.2695 54.8019 49.2251 54.8019H44.5308Z" fill="#CCCCCC"/>
<path d="M48.481 57.6743H45.1072C45.0483 57.6743 44.9905 57.661 44.9395 57.6358C44.8885 57.6106 44.8462 57.5743 44.8167 57.5307C44.7873 57.487 44.7718 57.4375 44.7718 57.387C44.7718 57.3366 44.7873 57.2871 44.8168 57.2434L45.833 55.7354C45.8625 55.6917 45.9048 55.6555 45.9558 55.6303C46.0068 55.6051 46.0646 55.5918 46.1234 55.5918C46.1823 55.5918 46.2401 55.6051 46.2911 55.6303C46.3421 55.6555 46.3844 55.6917 46.4139 55.7354L47.0702 56.7093L47.4505 56.1451C47.4799 56.1014 47.5222 56.0652 47.5732 56.04C47.6242 56.0147 47.682 56.0015 47.7409 56.0015C47.7997 56.0015 47.8576 56.0147 47.9085 56.04C47.9595 56.0652 48.0019 56.1014 48.0313 56.1451L48.7715 57.2434C48.8009 57.2871 48.8164 57.3366 48.8164 57.387C48.8164 57.4375 48.8009 57.487 48.7715 57.5307C48.742 57.5743 48.6997 57.6106 48.6487 57.6358C48.5977 57.661 48.5399 57.6743 48.481 57.6743ZM48.481 57.387L47.7408 56.2887L47.2155 57.0684C47.2007 57.0902 47.1796 57.1084 47.1541 57.121C47.1286 57.1336 47.0997 57.1402 47.0702 57.1402C47.0408 57.1402 47.0119 57.1336 46.9864 57.121C46.9609 57.1084 46.9397 57.0902 46.925 57.0684L46.1235 55.879L45.1072 57.387H48.481Z" fill="#CCCCCC"/>
<path d="M48.7221 55.6638C48.9073 55.6638 49.0574 55.5352 49.0574 55.3766C49.0574 55.218 48.9073 55.0894 48.7221 55.0894C48.5369 55.0894 48.3868 55.218 48.3868 55.3766C48.3868 55.5352 48.5369 55.6638 48.7221 55.6638Z" fill="#CCCCCC"/>
<path d="M128.897 93.0865L126.842 93.0864L125.864 86.2949L128.897 86.2951L128.897 93.0865Z" fill="#FFB8B8"/>
<path d="M129.421 94.7935L122.794 94.7933V94.7215C122.794 94.4313 122.86 94.1439 122.99 93.8758C123.12 93.6077 123.31 93.3641 123.549 93.1589C123.789 92.9537 124.073 92.791 124.386 92.6799C124.699 92.5689 125.035 92.5117 125.373 92.5117H125.373L129.421 92.5119L129.421 94.7935Z" fill="#2F2E41"/>
<path d="M137.28 93.0865L135.224 93.0864L134.247 86.2949L137.28 86.2951L137.28 93.0865Z" fill="#FFB8B8"/>
<path d="M137.804 94.7935L131.176 94.7933V94.7215C131.176 94.4313 131.243 94.1439 131.373 93.8758C131.502 93.6077 131.692 93.3641 131.932 93.1589C132.172 92.9537 132.456 92.791 132.769 92.6799C133.082 92.5689 133.417 92.5117 133.756 92.5117H133.756L137.804 92.5119L137.804 94.7935Z" fill="#2F2E41"/>
<path d="M136.664 90.1424L134.76 89.6464C134.618 89.6095 134.492 89.5376 134.398 89.4397C134.303 89.3418 134.245 89.2222 134.229 89.0959L132.454 74.6871C132.453 74.6697 132.444 74.6534 132.429 74.6415C132.414 74.6295 132.395 74.6229 132.374 74.6229C132.354 74.6212 132.333 74.6264 132.317 74.6374C132.301 74.6484 132.291 74.6643 132.289 74.6817L129.316 88.6413C129.298 88.726 129.26 88.8068 129.205 88.8788C129.15 88.9509 129.079 89.0128 128.996 89.061C128.912 89.1092 128.819 89.1426 128.72 89.1593C128.621 89.176 128.52 89.1756 128.422 89.1583L125.989 88.729C125.81 88.697 125.651 88.6109 125.541 88.4866C125.431 88.3623 125.376 88.2081 125.388 88.0522L127.196 65.172L139.458 64.0386L137.636 89.5635C137.624 89.7276 137.54 89.8816 137.4 89.9944C137.261 90.1072 137.076 90.1702 136.884 90.1706C136.81 90.1706 136.735 90.1611 136.664 90.1424Z" fill="#2F2E41"/>
<path d="M136.652 45.2468C138.926 45.2468 140.77 43.6675 140.77 41.7193C140.77 39.7712 138.926 38.1919 136.652 38.1919C134.378 38.1919 132.534 39.7712 132.534 41.7193C132.534 43.6675 134.378 45.2468 136.652 45.2468Z" fill="#FFB8B8"/>
<path d="M127.177 65.3064L129.836 50.9659C129.978 50.2035 130.307 49.4755 130.802 48.8306C131.298 48.1856 131.947 47.6384 132.709 47.2254C133.47 46.8124 134.326 46.543 135.218 46.4351C136.11 46.3273 137.019 46.3835 137.884 46.6C139.397 46.9747 140.692 47.819 141.517 48.968C142.341 50.1169 142.636 51.488 142.344 52.8133L139.563 65.6201L127.177 65.3064Z" fill="#009900"/>
<path d="M137.789 67.8721C137.994 67.7558 138.168 67.6023 138.297 67.4223C138.426 67.2423 138.507 67.0404 138.535 66.8306C138.563 66.6208 138.537 66.4084 138.458 66.2082C138.38 66.008 138.251 65.8249 138.082 65.6719L140.831 61.1118L137.735 61.3948L135.599 65.6818C135.318 65.9432 135.158 66.2839 135.151 66.6393C135.143 66.9947 135.288 67.3401 135.558 67.6101C135.828 67.8801 136.204 68.0559 136.615 68.1042C137.026 68.1525 137.444 68.0699 137.789 67.8721Z" fill="#FFB8B8"/>
<path d="M138.377 64.8677C138.225 64.8493 138.083 64.7916 137.971 64.7024L136.919 63.8699C136.805 63.7795 136.727 63.6614 136.694 63.5316C136.661 63.4018 136.676 63.2665 136.736 63.144L138.838 58.8759L138.54 50.4426C138.582 50.1715 138.687 49.9103 138.848 49.674C139.009 49.4376 139.222 49.2307 139.477 49.0651C139.731 48.8994 140.02 48.7783 140.329 48.7087C140.638 48.6391 140.96 48.6223 141.276 48.6592C141.593 48.6962 141.898 48.7862 142.173 48.9242C142.449 49.0621 142.691 49.2453 142.884 49.4632C143.077 49.6811 143.218 49.9294 143.299 50.1941C143.38 50.4587 143.399 50.7344 143.356 51.0054L143.866 56.3067C144.021 57.9157 143.488 59.5181 142.367 60.8159L139.089 64.6121C139.026 64.685 138.946 64.7458 138.853 64.7904C138.761 64.8351 138.659 64.8626 138.553 64.8711C138.495 64.8759 138.436 64.8748 138.377 64.8677Z" fill="#009900"/>
<path d="M112.939 39.7974C112.984 40.005 113.081 40.2016 113.224 40.3735C113.368 40.5453 113.553 40.6882 113.768 40.792C113.982 40.8958 114.221 40.9581 114.467 40.9744C114.712 40.9907 114.959 40.9606 115.19 40.8863L119.02 44.8327L119.923 42.2803L116.147 38.9241C115.976 38.6003 115.672 38.3417 115.293 38.1972C114.914 38.0527 114.486 38.0323 114.09 38.14C113.695 38.2476 113.359 38.4758 113.147 38.7813C112.935 39.0867 112.861 39.4483 112.939 39.7974Z" fill="#FFB8B8"/>
<path d="M115.939 41.4332C116.018 41.3204 116.136 41.2309 116.276 41.1767L117.581 40.6716C117.722 40.6172 117.88 40.6014 118.032 40.6261C118.184 40.6509 118.324 40.7152 118.432 40.8102L122.201 44.1325L131.383 47.1853C131.657 47.3248 131.897 47.5093 132.089 47.7283C132.28 47.9473 132.42 48.1965 132.499 48.4616C132.578 48.7267 132.595 49.0025 132.549 49.2733C132.504 49.5442 132.396 49.8046 132.233 50.0399C132.07 50.2751 131.854 50.4805 131.598 50.6442C131.343 50.808 131.052 50.927 130.742 50.9943C130.432 51.0617 130.11 51.0761 129.794 51.0368C129.478 50.9975 129.174 50.9051 128.9 50.7651L123.002 49.1004C121.212 48.5953 119.697 47.5505 118.739 46.1602L115.937 42.0943C115.883 42.0161 115.849 41.9291 115.837 41.8389C115.825 41.7487 115.835 41.6573 115.867 41.5707C115.885 41.5226 115.909 41.4764 115.939 41.4332Z" fill="#009900"/>
<path opacity="0.1" d="M139.992 53.9507L139.824 58.5465L136.736 63.1439L139.315 58.0206L139.992 53.9507Z" fill="black"/>
<path d="M136.18 42.3825C135.922 42.4113 135.66 42.3587 135.443 42.2345C135.226 42.1103 135.069 41.923 135.001 41.7072C134.936 41.4589 134.793 41.2305 134.588 41.0464C134.383 40.8624 134.123 40.7297 133.836 40.6626C133.081 40.5147 132.158 40.8193 131.604 40.329C131.486 40.2171 131.4 40.0827 131.354 39.9368C131.308 39.7909 131.303 39.6378 131.34 39.49C131.442 39.0136 131.84 38.6537 132.273 38.3658C133.184 37.7629 134.286 37.4099 135.436 37.3532C136.031 37.3384 136.626 37.3638 137.216 37.4291C137.834 37.4625 138.446 37.5582 139.038 37.7142C139.712 37.9322 140.311 38.2923 140.78 38.7612C141.249 39.2301 141.572 39.7928 141.72 40.3971C141.856 41.0032 141.835 41.6274 141.659 42.2259C141.484 42.8245 141.158 43.3831 140.705 43.8626C140.162 44.4417 139.462 44.8982 138.666 45.1923C138.476 45.269 138.259 45.2785 138.062 45.2186C137.566 45.0497 137.647 44.5236 137.873 44.1727C138.115 43.7972 138.487 43.4336 138.292 42.9766C138.195 42.7646 138.008 42.592 137.768 42.4931C137.275 42.2778 136.724 42.3287 136.194 42.3812L136.18 42.3825Z" fill="#2F2E41"/>
<path d="M111.563 44.3745H60.596C59.8625 44.3737 59.1594 44.1239 58.6408 43.6796C58.1222 43.2353 57.8305 42.633 57.8297 42.0047V32.6695C57.8305 32.0412 58.1222 31.4389 58.6408 30.9947C59.1594 30.5504 59.8625 30.3005 60.596 30.2998H111.563C112.296 30.3005 112.999 30.5504 113.518 30.9947C114.037 31.4389 114.328 32.0413 114.329 32.6695V42.0047C114.328 42.633 114.037 43.2353 113.518 43.6796C112.999 44.1238 112.296 44.3737 111.563 44.3745Z" fill="white"/>
<path d="M111.563 44.4463H60.5959C59.8403 44.4456 59.1158 44.1881 58.5815 43.7304C58.0472 43.2727 57.7466 42.6521 57.7458 42.0048V32.6695C57.7466 32.0222 58.0472 31.4017 58.5815 30.9439C59.1158 30.4862 59.8403 30.2288 60.5959 30.228H111.563C112.319 30.2288 113.043 30.4862 113.577 30.9439C114.112 31.4017 114.412 32.0222 114.413 32.6695V42.0048C114.412 42.6521 114.112 43.2727 113.577 43.7304C113.043 44.1881 112.319 44.4456 111.563 44.4463ZM60.5959 30.5153C59.9292 30.5159 59.29 30.7431 58.8185 31.147C58.347 31.5508 58.0819 32.0984 58.0811 32.6695V42.0048C58.0819 42.5759 58.347 43.1235 58.8185 43.5274C59.29 43.9312 59.9292 44.1584 60.5959 44.1591H111.563C112.23 44.1584 112.869 43.9312 113.34 43.5274C113.812 43.1235 114.077 42.5759 114.078 42.0048V32.6695C114.077 32.0984 113.812 31.5508 113.34 31.147C112.869 30.7431 112.23 30.5159 111.563 30.5153H60.5959Z" fill="#3F3D56"/>
<path d="M105.36 42.0766H66.7991C66.0657 42.0759 65.3626 41.826 64.844 41.3817C64.3254 40.9375 64.0337 40.3351 64.0328 39.7069V34.8238C64.0337 34.1955 64.3254 33.5932 64.844 33.149C65.3626 32.7047 66.0657 32.4548 66.7991 32.4541H105.36C106.093 32.4548 106.796 32.7047 107.315 33.149C107.833 33.5932 108.125 34.1955 108.126 34.8238V39.7069C108.125 40.3351 107.833 40.9375 107.315 41.3817C106.796 41.826 106.093 42.0759 105.36 42.0766Z" fill="#F2F2F2"/>
<path d="M75.0972 39.4447C76.9242 39.4447 78.4054 38.1759 78.4054 36.6108C78.4054 35.0456 76.9242 33.7769 75.0972 33.7769C73.2701 33.7769 71.789 35.0456 71.789 36.6108C71.789 38.1759 73.2701 39.4447 75.0972 39.4447Z" fill="#FF6584"/>
<path d="M102.963 41.7904L98.2938 38.4355L93.7048 35.1386C93.5837 35.0515 93.4306 35.004 93.2726 35.0042C93.1145 35.0045 92.9616 35.0526 92.8409 35.14L88.2668 38.4521L87.1495 39.2611L85.4649 38.0508L80.3452 34.3726C80.2241 34.2856 80.071 34.238 79.913 34.2383C79.7549 34.2385 79.6021 34.2866 79.4814 34.374L74.3783 38.0691L69.1949 41.8224C69.1686 41.8414 69.1498 41.8668 69.141 41.8953C69.1322 41.9238 69.1339 41.9539 69.1457 41.9815C69.1576 42.0092 69.1791 42.0331 69.2073 42.0499C69.2355 42.0667 69.2691 42.0757 69.3035 42.0757L79.9305 42.0581L83.2944 42.0526L83.2615 42.0764L93.2885 42.0599L102.856 42.0441C102.89 42.044 102.924 42.0349 102.952 42.018C102.98 42.0011 103.002 41.9771 103.013 41.9494C103.025 41.9217 103.027 41.8916 103.018 41.8632C103.009 41.8347 102.99 41.8093 102.963 41.7904Z" fill="#3F3D56"/>
<path d="M146.743 95.0001H114.554C114.509 95.0001 114.466 94.985 114.435 94.9581C114.404 94.9311 114.386 94.8946 114.386 94.8565C114.386 94.8184 114.404 94.7819 114.435 94.755C114.466 94.728 114.509 94.7129 114.554 94.7129H146.743C146.788 94.7129 146.83 94.728 146.862 94.755C146.893 94.7819 146.911 94.8184 146.911 94.8565C146.911 94.8946 146.893 94.9311 146.862 94.9581C146.83 94.985 146.788 95.0001 146.743 95.0001Z" fill="#CCCCCC"/>
<path d="M101.273 18.9453C101.139 18.7589 100.962 18.5979 100.753 18.4719C100.544 18.346 100.307 18.2579 100.057 18.2129C99.9656 18.1964 99.8726 18.1863 99.779 18.1827L87.0053 8.3994C86.7544 8.17848 86.4197 8.04149 86.0615 8.01306C85.9908 8.00611 85.9196 8.00418 85.8485 8.00732C85.5538 8.01879 85.2694 8.10358 85.03 8.25131C84.7907 8.39905 84.6067 8.60333 84.5007 8.83918C84.3947 9.07503 84.3712 9.33223 84.4332 9.57932C84.4951 9.82642 84.6397 10.0527 84.8493 10.2305L89.7398 13.8828L97.7704 19.8789C97.777 19.9918 97.7967 20.1039 97.8291 20.2135C97.9252 20.531 98.1318 20.816 98.4213 21.0307C98.7108 21.2454 99.0697 21.3796 99.4503 21.4156C99.7975 21.4503 100.149 21.4005 100.465 21.272C100.715 21.1717 100.937 21.0262 101.115 20.8454C101.134 20.8267 101.15 20.8095 101.167 20.7894C101.402 20.5277 101.537 20.211 101.556 19.8815C101.575 19.552 101.476 19.2254 101.273 18.9453Z" fill="#FFB8B8"/>
<path d="M79.424 28.3735L79.305 24.2287L79.2044 20.789L79.1356 18.3819L78.9998 13.6899C78.973 13.4387 78.8613 13.1996 78.6785 13.0019C78.4957 12.8041 78.2496 12.6562 77.9703 12.5763C77.691 12.4963 77.3905 12.4877 77.1057 12.5516C76.8208 12.6155 76.5637 12.749 76.366 12.9359C76.3194 12.9786 76.2773 13.0248 76.2402 13.0738C76.0338 13.327 75.941 13.6355 75.9787 13.9427L76.2771 20.789L76.4264 24.2287L76.6175 28.6162C76.5623 28.6807 76.5125 28.7484 76.4683 28.8187C76.3491 29.0124 76.277 29.2248 76.2566 29.443C76.2361 29.6613 76.2676 29.8808 76.3493 30.0883C76.4344 30.3059 76.5725 30.5056 76.7542 30.6742C76.936 30.8427 77.1574 30.9764 77.4039 31.0664C77.6504 31.1563 77.9163 31.2005 78.1841 31.1961C78.452 31.1916 78.7157 31.1386 78.9579 31.0405C79.2392 30.9266 79.4834 30.755 79.669 30.541C79.8546 30.327 79.9757 30.0772 80.0218 29.8136C80.0679 29.5499 80.0374 29.2806 79.9332 29.0295C79.8289 28.7783 79.6541 28.553 79.424 28.3735Z" fill="#FFB8B8"/>
<path d="M90.9252 16.633L89.7398 13.8827L87.8218 9.42767C87.6835 9.10353 87.4616 8.81024 87.1728 8.56957C86.8841 8.3289 86.5357 8.14702 86.1536 8.03744C86.1235 8.02883 86.0917 8.02021 86.0615 8.01302C85.6914 7.91679 85.3014 7.89033 84.9182 7.93545C84.535 7.98057 84.1678 8.0962 83.8418 8.27441L77.382 11.7845C76.7904 12.1052 76.3675 12.6103 76.2026 13.1932C76.0378 13.7761 76.1438 14.391 76.4984 14.9082C77.3063 16.1048 78.1865 17.2644 79.1356 18.3823C79.8885 19.2598 81.29 19.3532 81.5332 20.7894H86.2962L91.118 17.0811L90.9252 16.633Z" fill="#CCCCCC"/>
<path d="M16.9607 50.2456C19.1062 50.2456 20.8455 48.7557 20.8455 46.9177C20.8455 45.0798 19.1062 43.5898 16.9607 43.5898C14.8152 43.5898 13.0759 45.0798 13.0759 46.9177C13.0759 48.7557 14.8152 50.2456 16.9607 50.2456Z" fill="#A0616A"/>
<path d="M26.498 44.6268C26.5363 44.6529 26.5734 44.6806 26.6093 44.7098C26.7878 44.8539 26.9287 45.0285 27.0229 45.2225C27.1171 45.4164 27.1623 45.6252 27.1557 45.8351C27.1491 46.0451 27.0908 46.2515 26.9846 46.4408C26.8784 46.6301 26.7267 46.798 26.5394 46.9336C26.4958 46.965 26.4502 46.9944 26.403 47.0217L26.6659 54.6256C26.6734 54.8745 26.587 55.1189 26.4195 55.3224C26.2521 55.5259 26.0124 55.6778 25.7363 55.7554L25.7202 55.7584L18.513 56.4159C18.317 56.4337 18.1189 56.4181 17.93 56.37C17.7412 56.3219 17.5653 56.2422 17.4126 56.1356C17.2598 56.0289 17.1333 55.8974 17.0402 55.7486C16.9471 55.5998 16.8894 55.4367 16.8703 55.2687C16.8513 55.1007 16.8712 54.9311 16.9291 54.7698C16.987 54.6084 17.0816 54.4585 17.2075 54.3286C17.3333 54.1987 17.488 54.0915 17.6625 54.0131C17.837 53.9348 18.028 53.8868 18.2243 53.872L23.3619 53.4844L24.2504 46.8993C24.1923 46.8552 24.1379 46.8077 24.0875 46.7571C23.809 46.4747 23.6628 46.1136 23.6776 45.7441C23.6923 45.3745 23.8668 45.0229 24.1673 44.7574C24.4677 44.4919 24.8726 44.3315 25.3033 44.3074C25.734 44.2833 26.1598 44.3971 26.498 44.6268Z" fill="#A0616A"/>
<path d="M23.359 93.2334H25.2982L26.2207 86.8262H23.3586L23.359 93.2334Z" fill="#A0616A"/>
<path d="M22.8644 92.6915L26.6832 92.6914C27.0028 92.6914 27.3195 92.7453 27.6147 92.8501C27.91 92.9549 28.1783 93.1084 28.4043 93.302C28.6303 93.4956 28.8095 93.7254 28.9318 93.9783C29.0541 94.2313 29.1171 94.5024 29.1171 94.7762V94.8439L22.8645 94.8441L22.8644 92.6915Z" fill="#2F2E41"/>
<path d="M4.08508 90.937L5.75123 91.7868L10.3706 86.6859L7.91146 85.4316L4.08508 90.937Z" fill="#A0616A"/>
<path d="M3.98396 90.2544L7.26524 91.928C7.53984 92.068 7.77968 92.2531 7.97081 92.4726C8.16194 92.692 8.30075 92.9415 8.3793 93.2069C8.45786 93.4723 8.47462 93.7483 8.42864 94.0192C8.38266 94.2901 8.27484 94.5507 8.11132 94.7859L8.07086 94.8441L2.69846 92.104L3.98396 90.2544Z" fill="#2F2E41"/>
<path d="M25.7558 90.9704H23.5844C23.4085 90.9706 23.2388 90.915 23.1081 90.8143C22.9774 90.7136 22.8949 90.5749 22.8766 90.4251L20.6875 72.7977C20.682 72.7533 20.6596 72.7117 20.6237 72.6793C20.5879 72.647 20.5406 72.6256 20.4892 72.6185C20.4377 72.6115 20.385 72.6191 20.3391 72.6402C20.2933 72.6613 20.2568 72.6948 20.2353 72.7355L16.2861 80.2265L9.29435 89.9929C9.20385 90.1181 9.06375 90.2112 8.89967 90.2552C8.7356 90.2991 8.55855 90.2909 8.40093 90.2322L5.60776 89.1794C5.51541 89.1446 5.43275 89.0934 5.36527 89.0291C5.2978 88.9648 5.24704 88.889 5.21636 88.8066C5.18569 88.7243 5.17581 88.6373 5.18736 88.5514C5.19892 88.4655 5.23165 88.3827 5.28339 88.3085L11.7108 79.0893L13.682 71.3217C13.062 67.9531 15.7198 62.9449 15.7468 62.8947L15.76 62.8702L23.081 60.4189L23.1177 60.4574C26.0049 68.5739 27.7643 77.3086 26.4652 90.4117C26.4492 90.5637 26.3677 90.7052 26.2365 90.8085C26.1053 90.9118 25.9339 90.9695 25.7558 90.9704Z" fill="#2F2E41"/>
<path d="M15.465 63.6912L15.4309 63.6298C15.4146 63.6005 13.7867 60.6593 12.5318 57.5158C12.2906 56.9079 12.1995 56.2637 12.2641 55.6241C12.3287 54.9844 12.5476 54.3632 12.9071 53.7999C13.2713 53.2307 13.7694 52.7324 14.3701 52.3368C14.9707 51.9411 15.6608 51.6566 16.3965 51.5013C17.6736 51.2391 19.0183 51.3786 20.1855 51.8945C21.3526 52.4104 22.2646 53.2683 22.7552 54.3119C23.7506 56.4442 23.4334 58.7202 23.1348 60.5101L23.1289 60.546L23.0908 60.5616L15.465 63.6912Z" fill="#3F3D56"/>
<path d="M21.671 45.0379H15.5023V42.7345C16.8563 42.2737 18.1812 41.8818 18.9821 42.7345C19.6952 42.7345 20.3791 42.9772 20.8834 43.4092C21.3877 43.8411 21.671 44.427 21.671 45.0379Z" fill="#2F2E41"/>
<path d="M15.1608 42.3281C11.4731 42.3281 10.4409 46.2879 10.4409 48.5218C10.4409 49.7676 11.0986 50.2132 12.1321 50.3639L12.4971 48.6964L13.352 50.4357C13.6423 50.4369 13.9473 50.4321 14.2634 50.4271L14.5533 49.9158L15.1996 50.4179C17.7884 50.4212 19.8807 50.7445 19.8807 48.5218C19.8807 46.2879 18.9754 42.3281 15.1608 42.3281Z" fill="#2F2E41"/>
<path d="M32.3573 95.0001H0.167655C0.12319 95.0001 0.0805461 94.985 0.0491048 94.9581C0.0176634 94.9311 0 94.8946 0 94.8565C0 94.8184 0.0176634 94.7819 0.0491048 94.755C0.0805461 94.728 0.12319 94.7129 0.167655 94.7129H32.3573C32.4018 94.7129 32.4444 94.728 32.4759 94.755C32.5073 94.7819 32.525 94.8184 32.525 94.8565C32.525 94.8946 32.5073 94.9311 32.4759 94.9581C32.4444 94.985 32.4018 95.0001 32.3573 95.0001Z" fill="#CCCCCC"/>
<path d="M32.9626 47.7496H25.7535C25.3312 47.7492 24.9264 47.6053 24.6278 47.3495C24.3292 47.0937 24.1612 46.7469 24.1607 46.3852V40.2096C24.1612 39.8479 24.3292 39.5011 24.6278 39.2453C24.9264 38.9895 25.3312 38.8456 25.7535 38.8452H32.9626C33.3849 38.8456 33.7897 38.9895 34.0883 39.2453C34.3869 39.5011 34.5548 39.8479 34.5553 40.2096V46.3852C34.5548 46.7469 34.3869 47.0937 34.0883 47.3495C33.7897 47.6053 33.3849 47.7492 32.9626 47.7496Z" fill="white"/>
<path d="M32.9626 47.7496H25.7535C25.3312 47.7492 24.9264 47.6053 24.6278 47.3495C24.3292 47.0937 24.1612 46.7469 24.1607 46.3852V40.2096C24.1612 39.8479 24.3292 39.5011 24.6278 39.2453C24.9264 38.9895 25.3312 38.8456 25.7535 38.8452H32.9626C33.3849 38.8456 33.7897 38.9895 34.0883 39.2453C34.3869 39.5011 34.5548 39.8479 34.5553 40.2096V46.3852C34.5548 46.7469 34.3869 47.0937 34.0883 47.3495C33.7897 47.6053 33.3849 47.7492 32.9626 47.7496ZM25.7535 39.1325C25.4201 39.1328 25.1005 39.2464 24.8647 39.4483C24.629 39.6502 24.4964 39.924 24.496 40.2096V46.3852C24.4964 46.6708 24.629 46.9446 24.8647 47.1465C25.1005 47.3484 25.4201 47.462 25.7535 47.4623H32.9626C33.296 47.462 33.6156 47.3484 33.8513 47.1465C34.087 46.9446 34.2196 46.6708 34.22 46.3852V40.2096C34.2196 39.924 34.087 39.6502 33.8513 39.4483C33.6156 39.2464 33.296 39.1328 32.9626 39.1325H25.7535Z" fill="#3F3D56"/>
<path d="M31.7052 45.2361H27.0109C26.8775 45.236 26.7497 45.1906 26.6554 45.1098C26.5611 45.029 26.508 44.9195 26.5079 44.8053V41.7893C26.508 41.675 26.5611 41.5655 26.6554 41.4847C26.7497 41.404 26.8775 41.3585 27.0109 41.3584H28.3324C28.4183 41.3581 28.5029 41.3769 28.578 41.4128C28.653 41.4487 28.716 41.5005 28.7608 41.5634L29.1293 42.0765H31.7052C31.8385 42.0766 31.9664 42.1221 32.0607 42.2028C32.155 42.2836 32.208 42.3931 32.2082 42.5074V44.8053C32.208 44.9195 32.155 45.029 32.0607 45.1098C31.9664 45.1906 31.8385 45.236 31.7052 45.2361Z" fill="#009900"/>
<path d="M31.5525 46.7599C31.5759 46.7966 31.5976 46.8345 31.6175 46.8734C31.7167 47.0654 31.7675 47.2733 31.7664 47.4833C31.7653 47.6933 31.7125 47.9008 31.6113 48.0921C31.5101 48.2834 31.3629 48.4542 31.1792 48.5934C30.9956 48.7325 30.7797 48.8369 30.5457 48.8996C30.4913 48.914 30.436 48.926 30.3801 48.9354L27.178 56.0309C27.0721 56.2628 26.8818 56.4593 26.6352 56.5912C26.3887 56.7231 26.0991 56.7834 25.8093 56.7632L25.7933 56.7606L18.8529 54.9708C18.6642 54.9221 18.4886 54.8419 18.3363 54.7348C18.184 54.6277 18.058 54.4958 17.9656 54.3467C17.8731 54.1976 17.816 54.0343 17.7976 53.8663C17.7793 53.6982 17.7999 53.5287 17.8585 53.3675C17.917 53.2063 18.0122 53.0566 18.1387 52.9271C18.2651 52.7976 18.4202 52.6909 18.5951 52.613C18.77 52.5352 18.9611 52.4878 19.1575 52.4736C19.3538 52.4594 19.5515 52.4787 19.7391 52.5303L24.6498 53.8808L28.4516 48.1071C28.418 48.0472 28.3894 47.9853 28.3659 47.9219C28.2371 47.569 28.266 47.1877 28.447 46.852C28.628 46.5164 28.9481 46.2503 29.3452 46.1054C29.7424 45.9606 30.1882 45.9474 30.5961 46.0683C31.0039 46.1892 31.3448 46.4357 31.5525 46.7599Z" fill="#A0616A"/>
</g>
<defs>
<clipPath id="clip0_212_169">
<rect width="146.911" height="95" fill="white"/>
</clipPath>
</defs>
</svg>
