<svg width="156" height="100" viewBox="0 0 156 100" fill="none" xmlns="http://www.w3.org/2000/svg">
<path d="M154.58 65.4959H94.452C94.142 65.4955 93.8448 65.3705 93.6256 65.1484C93.4064 64.9262 93.2831 64.6249 93.2827 64.3107V1.18519C93.2831 0.870967 93.4064 0.569713 93.6256 0.347522C93.8448 0.125332 94.142 0.000351086 94.452 0H154.58C154.89 0.00035054 155.187 0.125331 155.407 0.347522C155.626 0.569713 155.749 0.870967 155.749 1.18519V64.3107C155.749 64.6249 155.626 64.9262 155.407 65.1484C155.187 65.3705 154.89 65.4955 154.58 65.4959ZM94.452 0.413223C94.25 0.413457 94.0565 0.494864 93.9137 0.639586C93.7709 0.784308 93.6906 0.980525 93.6904 1.18519V64.3107C93.6906 64.5154 93.7709 64.7116 93.9137 64.8563C94.0565 65.001 94.25 65.0824 94.452 65.0826H154.58C154.782 65.0824 154.976 65.001 155.118 64.8563C155.261 64.7116 155.342 64.5154 155.342 64.3107V1.18519C155.342 0.980525 155.261 0.784308 155.118 0.639586C154.976 0.494864 154.782 0.413457 154.58 0.413223H94.452Z" fill="#3F3D56"/>
<path d="M135.85 26.5305C137.193 29.0455 137.685 31.938 137.25 34.7639C136.815 37.5898 135.477 40.1928 133.441 42.1733C131.406 44.1539 128.785 45.4025 125.982 45.7274C123.178 46.0524 120.347 45.4357 117.923 43.9721C115.499 42.5085 113.616 40.2789 112.563 37.6255C111.51 34.9722 111.345 32.0418 112.093 29.2842C112.842 26.5266 114.463 24.0944 116.707 22.3608C118.951 20.6272 121.694 19.6881 124.516 19.6877C124.618 19.6877 124.72 19.6892 124.822 19.6916L124.685 14.112C124.629 14.1115 124.573 14.1098 124.516 14.1098C120.456 14.111 116.511 15.4744 113.296 17.9872C110.081 20.5001 107.778 24.021 106.744 28.0005C105.711 31.9801 106.007 36.1944 107.585 39.9859C109.163 43.7773 111.935 46.9326 115.468 48.9592C119.001 50.9859 123.097 51.7701 127.116 51.1892C131.135 50.6084 134.851 48.6953 137.685 45.7485C140.518 42.8017 142.31 38.9869 142.78 34.8995C143.25 30.8121 142.372 26.682 140.282 23.1537L135.85 26.5305Z" fill="#009900"/>
<path d="M135.85 26.5303L140.282 23.1535C138.664 20.4192 136.379 18.1519 133.648 16.5687C130.918 14.9856 127.831 14.1396 124.686 14.1118L124.822 19.6915C127.091 19.7454 129.307 20.4063 131.243 21.6072C133.18 22.8082 134.769 24.5065 135.85 26.5303Z" fill="#E6E6E6"/>
<path d="M133.876 48.7467L133.648 48.9751L140.105 55.582L140.333 55.3535L133.876 48.7467Z" fill="#3F3D56"/>
<path d="M138.021 8.3037L133.533 16.415L133.813 16.5738L138.301 8.46251L138.021 8.3037Z" fill="#3F3D56"/>
<path d="M145.051 58.0197H135.522C135.352 58.0195 135.19 57.9512 135.07 57.8298C134.95 57.7085 134.883 57.5439 134.883 57.3722V56.0119C134.883 55.8402 134.95 55.6756 135.07 55.5542C135.19 55.4328 135.352 55.3646 135.522 55.3644H145.051C145.22 55.3646 145.383 55.4328 145.502 55.5542C145.622 55.6756 145.69 55.8402 145.69 56.0119V57.3722C145.69 57.5439 145.622 57.7085 145.502 57.8298C145.383 57.9512 145.22 58.0195 145.051 58.0197Z" fill="#009900"/>
<path d="M142.635 8.49883H133.106C132.937 8.49862 132.774 8.43034 132.655 8.30896C132.535 8.18758 132.467 8.02301 132.467 7.85136V6.49092C132.467 6.31926 132.535 6.1547 132.655 6.03332C132.774 5.91194 132.937 5.84365 133.106 5.84344H142.635C142.805 5.84365 142.967 5.91194 143.087 6.03332C143.207 6.1547 143.274 6.31926 143.274 6.49092V7.85136C143.274 8.02301 143.207 8.18758 143.087 8.30896C142.967 8.43034 142.805 8.49862 142.635 8.49883Z" fill="#E6E6E6"/>
<path d="M83.6711 30.139H15.7203C15.425 30.1386 15.1419 30.0196 14.9331 29.8079C14.7242 29.5962 14.6068 29.3092 14.6064 29.0099V1.3357C14.6068 1.03635 14.7242 0.749359 14.9331 0.537685C15.1419 0.326012 15.425 0.206944 15.7203 0.206604H83.6711C83.9664 0.206954 84.2495 0.326025 84.4583 0.537698C84.6671 0.749371 84.7846 1.03636 84.7849 1.3357V29.0099C84.7846 29.3092 84.6671 29.5962 84.4583 29.8079C84.2495 30.0195 83.9664 30.1386 83.6711 30.139ZM15.7203 0.619827C15.5331 0.620033 15.3536 0.695522 15.2212 0.82973C15.0888 0.963938 15.0143 1.1459 15.0141 1.3357V29.0099C15.0143 29.1997 15.0888 29.3816 15.2212 29.5158C15.3536 29.65 15.5331 29.7255 15.7203 29.7257H83.6711C83.8583 29.7255 84.0378 29.65 84.1702 29.5158C84.3026 29.3816 84.3771 29.1996 84.3773 29.0099V1.3357C84.3771 1.14591 84.3026 0.963953 84.1702 0.829746C84.0378 0.695539 83.8583 0.620044 83.6711 0.619827H15.7203Z" fill="#3F3D56"/>
<path d="M42.2084 23.2709H35.6247C35.4565 23.2706 35.2939 23.2097 35.1657 23.0992C35.0376 22.9887 34.9523 22.8357 34.9251 22.6674C34.4957 19.8401 34.4957 16.9629 34.9251 14.1356C34.9523 13.9673 35.0376 13.8143 35.1657 13.7038C35.2939 13.5933 35.4565 13.5324 35.6247 13.5321H42.2084C42.315 13.5318 42.4204 13.5561 42.5164 13.6033C42.6124 13.6504 42.6965 13.7191 42.7624 13.8042C42.8297 13.8905 42.8767 13.9912 42.8998 14.0986C42.9229 14.2061 42.9215 14.3175 42.8957 14.4243C42.2799 17.039 42.2799 19.764 42.8957 22.3787C42.9215 22.4855 42.9229 22.5969 42.8998 22.7044C42.8767 22.8118 42.8297 22.9125 42.7624 22.9988C42.6965 23.0839 42.6124 23.1526 42.5164 23.1998C42.4204 23.2469 42.315 23.2712 42.2084 23.2709Z" fill="#E6E6E6"/>
<path d="M64.2519 23.2709H57.6682C57.5 23.2706 57.3373 23.2097 57.2092 23.0992C57.0811 22.9887 56.9958 22.8357 56.9686 22.6674C56.5391 19.8401 56.5391 16.9629 56.9686 14.1356C56.9958 13.9673 57.0811 13.8143 57.2092 13.7038C57.3373 13.5933 57.5 13.5325 57.6682 13.5321H64.2519C64.3586 13.5318 64.4639 13.5561 64.5599 13.6033C64.6559 13.6504 64.7401 13.7192 64.8059 13.8043C64.8732 13.8906 64.9201 13.9912 64.9432 14.0987C64.9663 14.2061 64.9649 14.3175 64.9392 14.4243C64.3233 17.039 64.3233 19.764 64.9392 22.3787C64.9649 22.4855 64.9663 22.5969 64.9432 22.7043C64.9201 22.8118 64.8732 22.9125 64.8059 22.9987C64.7401 23.0838 64.6559 23.1526 64.5599 23.1997C64.4639 23.2469 64.3586 23.2712 64.2519 23.2709Z" fill="#E6E6E6"/>
<path d="M31.0101 16.8137H24.4265C24.2583 16.8134 24.0956 16.7526 23.9675 16.6421C23.8394 16.5316 23.7541 16.3785 23.7269 16.2103C23.2974 13.383 23.2974 10.5057 23.7269 7.67845C23.7541 7.51017 23.8394 7.35714 23.9675 7.24663C24.0956 7.13611 24.2583 7.07527 24.4265 7.07495H31.0101C31.1168 7.07462 31.2222 7.09895 31.3182 7.14609C31.4142 7.19324 31.4983 7.26197 31.5641 7.34704C31.6314 7.43332 31.6784 7.53403 31.7015 7.64149C31.7246 7.74895 31.7233 7.86034 31.6975 7.96718C31.0816 10.5819 31.0816 13.3068 31.6975 15.9215C31.7232 16.0284 31.7246 16.1397 31.7015 16.2472C31.6784 16.3547 31.6314 16.4554 31.5641 16.5417C31.4983 16.6267 31.4142 16.6955 31.3182 16.7426C31.2221 16.7898 31.1168 16.8141 31.0101 16.8137Z" fill="#009900"/>
<path d="M53.2753 16.8137H46.6916C46.5849 16.8141 46.4796 16.7898 46.3836 16.7426C46.2876 16.6954 46.2034 16.6267 46.1376 16.5416C46.0703 16.4553 46.0233 16.3546 46.0003 16.2472C45.9772 16.1397 45.9786 16.0283 46.0043 15.9215C46.6202 13.3068 46.6202 10.5819 46.0043 7.96718C45.9785 7.86036 45.9771 7.74899 46.0002 7.64154C46.0233 7.53409 46.0703 7.43341 46.1376 7.34714C46.2034 7.26204 46.2876 7.19329 46.3836 7.14612C46.4796 7.09895 46.5849 7.07461 46.6916 7.07495H53.2753C53.4435 7.07528 53.6062 7.13611 53.7343 7.24663C53.8624 7.35715 53.9476 7.51017 53.9749 7.67845C54.4043 10.5057 54.4043 13.383 53.9749 16.2103C53.9476 16.3785 53.8624 16.5316 53.7343 16.6421C53.6062 16.7526 53.4435 16.8134 53.2753 16.8137Z" fill="#009900"/>
<path d="M74.9648 16.8137H68.3811C68.2744 16.8141 68.169 16.7898 68.073 16.7426C67.977 16.6954 67.8929 16.6267 67.8271 16.5416C67.7598 16.4553 67.7128 16.3546 67.6897 16.2472C67.6666 16.1397 67.668 16.0283 67.6938 15.9215C68.3096 13.3068 68.3096 10.5819 67.6938 7.96718C67.668 7.86036 67.6666 7.74898 67.6897 7.64154C67.7128 7.53409 67.7598 7.43341 67.8271 7.34714C67.8929 7.26204 67.977 7.19329 68.073 7.14612C68.169 7.09895 68.2744 7.07461 68.3811 7.07495H74.9648C75.133 7.0753 75.2956 7.13614 75.4237 7.24665C75.5519 7.35717 75.6371 7.51018 75.6644 7.67845C76.0938 10.5057 76.0938 13.383 75.6644 16.2103C75.6371 16.3785 75.5519 16.5315 75.4237 16.642C75.2956 16.7526 75.133 16.8134 74.9648 16.8137Z" fill="#FF6584"/>
<path d="M38.3071 66.0051C37.9934 65.9403 37.6975 65.8066 37.4403 65.6134C37.1832 65.4202 36.9709 65.1722 36.8185 64.8868C36.6661 64.6015 36.5773 64.2857 36.5583 63.9618C36.5393 63.6379 36.5906 63.3137 36.7086 63.0121L27.6719 43.3444L32.2562 42.0385L39.7055 61.8058C40.1923 62.0403 40.5773 62.4477 40.7875 62.9507C40.9978 63.4537 41.0187 64.0174 40.8464 64.535C40.674 65.0527 40.3203 65.4882 39.8523 65.7591C39.3843 66.0301 38.8345 66.1176 38.3071 66.0051Z" fill="#A0616A"/>
<path d="M20.8066 97.3895H23.3055L24.4943 87.6193H20.8062L20.8066 97.3895Z" fill="#A0616A"/>
<path d="M28.125 99.741L20.2703 99.7413L20.2701 96.6651L25.0901 96.6649C25.895 96.6649 26.6669 96.9889 27.236 97.5658C27.8052 98.1427 28.125 98.9251 28.125 99.741Z" fill="#2F2E41"/>
<path d="M7.81787 94.659L10.1148 95.6563L15.0031 87.1499L11.6128 85.678L7.81787 94.659Z" fill="#A0616A"/>
<path d="M13.6313 99.7415L6.41105 96.6067L7.60591 93.779L12.0365 95.7026C12.7764 96.0238 13.3601 96.6298 13.6592 97.3872C13.9583 98.1446 13.9482 98.9915 13.6313 99.7415Z" fill="#2F2E41"/>
<path d="M26.9853 34.1176C29.7502 34.1176 31.9916 31.8457 31.9916 29.043C31.9916 26.2404 29.7502 23.9684 26.9853 23.9684C24.2204 23.9684 21.979 26.2404 21.979 29.043C21.979 31.8457 24.2204 34.1176 26.9853 34.1176Z" fill="#A0616A"/>
<path d="M23.3686 95.0008L20.6177 94.4696C20.3916 94.4272 20.1896 94.2998 20.0522 94.1129C19.9148 93.9259 19.8522 93.6933 19.8769 93.4615L21.701 75.4329C21.7185 75.2609 21.6745 75.0882 21.5771 74.9462C21.4797 74.8043 21.3354 74.7024 21.1703 74.659C21.0051 74.6157 20.8301 74.6337 20.677 74.7099C20.5239 74.7861 20.4027 74.9154 20.3356 75.0743L12.3717 93.9105C12.3238 94.0236 12.2542 94.126 12.167 94.2117C12.0798 94.2974 11.9766 94.3647 11.8635 94.4097C11.7504 94.4546 11.6296 94.4764 11.5082 94.4736C11.3868 94.4709 11.2671 94.4437 11.1561 94.3937L8.91865 93.3857C8.70978 93.2925 8.54287 93.1235 8.45076 92.9118C8.35866 92.7002 8.34803 92.4612 8.42097 92.242L13.8678 75.6786C13.8831 75.632 13.8937 75.5839 13.8994 75.5352L15.6674 60.4015C15.6867 60.2363 15.7494 60.0793 15.8489 59.947C15.9484 59.8147 16.081 59.7119 16.2331 59.6493L21.8157 57.3505C21.9808 57.2825 22.162 57.2647 22.3369 57.2994C22.5119 57.334 22.6731 57.4196 22.8009 57.5456L29.8473 64.5004C29.9571 64.6083 30.0385 64.7424 30.0839 64.8904C30.1292 65.0384 30.1373 65.1956 30.1071 65.3476L24.4399 94.2686C24.3979 94.4794 24.2854 94.6691 24.1213 94.8055C23.9573 94.9419 23.7518 95.0167 23.5396 95.0172C23.4822 95.0172 23.425 95.0117 23.3686 95.0008Z" fill="#2F2E41"/>
<path d="M20.2324 61.2355C19.2572 60.0908 18.5454 59.5713 18.0586 59.6532C17.5756 59.7323 17.297 60.4163 17.002 61.1404C16.5993 62.1289 16.1428 63.2493 15.0178 63.3369C14.8426 63.3674 14.6626 63.3473 14.4981 63.279C14.3337 63.2107 14.1915 63.0968 14.0879 62.9505C13.2029 61.6164 15.3255 57.2017 15.5195 56.805L15.4199 35.9247C15.4186 35.7563 15.4625 35.5906 15.547 35.4455C15.6315 35.3005 15.7534 35.1815 15.8995 35.1013C21.7325 31.913 29.6086 37.458 31.1281 38.6022C31.2497 38.6935 31.3471 38.8139 31.4115 38.9527C31.4759 39.0914 31.5053 39.2442 31.4972 39.3974C31.3138 42.8944 30.3992 60.5379 30.3992 64.4737C30.3992 65.5632 30.0284 66.2555 29.2972 66.5311C29.0503 66.6199 28.7898 66.6632 28.5279 66.659C26.2968 66.659 22.6427 64.0643 20.2324 61.2355Z" fill="#CCCCCC"/>
<path d="M28.3726 51.0969C28.2506 51.0166 28.1495 50.9077 28.0777 50.7794C28.006 50.6512 27.9657 50.5074 27.9603 50.36L27.5652 41.0076C27.5408 40.4318 27.7194 39.866 28.069 39.4115C28.4185 38.957 28.9163 38.6433 29.4731 38.5267C30.0299 38.4102 30.6095 38.4982 31.1081 38.7752C31.6067 39.0521 31.9918 39.4999 32.1946 40.0383L35.1516 47.893C35.238 48.1234 35.2308 48.3791 35.1315 48.6041C35.0321 48.8291 34.8488 49.005 34.6217 49.0931L29.2037 51.1889C29.068 51.2422 28.9217 51.2616 28.7771 51.2456C28.6324 51.2296 28.4937 51.1786 28.3726 51.0969Z" fill="#CCCCCC"/>
<path d="M14.6043 65.7099C14.3386 65.5288 14.1154 65.2908 13.9503 65.0128C13.7852 64.7348 13.6823 64.4235 13.6488 64.1008C13.6152 63.7781 13.6519 63.4519 13.7562 63.1451C13.8605 62.8383 14.0298 62.5584 14.2524 62.3252L13.2964 40.6507L18.0256 41.2152L17.4766 62.3683C17.8384 62.7732 18.0411 63.2986 18.0463 63.8449C18.0514 64.3912 17.8587 64.9204 17.5047 65.3323C17.1506 65.7442 16.6598 66.0101 16.1252 66.0797C15.5907 66.1493 15.0495 66.0177 14.6043 65.7099Z" fill="#A0616A"/>
<path d="M11.3203 46.4227C11.2345 46.3035 11.1783 46.1652 11.1564 46.0195C11.1344 45.8737 11.1474 45.7247 11.1942 45.5851L14.1146 36.7044C14.2943 36.1577 14.6602 35.6936 15.1467 35.3952C15.6331 35.0969 16.2085 34.9838 16.7697 35.0761C17.331 35.1684 17.8415 35.4602 18.2099 35.8991C18.5783 36.3381 18.7806 36.8956 18.7806 37.472V45.8791C18.7803 46.1256 18.6836 46.3619 18.5117 46.5362C18.3397 46.7105 18.1066 46.8086 17.8634 46.8088H12.0644C11.9189 46.8096 11.7753 46.775 11.6458 46.7078C11.5163 46.6405 11.4047 46.5428 11.3203 46.4227Z" fill="#CCCCCC"/>
<path d="M23.7524 32.4565C23.565 32.6054 23.3309 32.6807 23.0931 32.6687C22.8553 32.6567 22.6298 32.5581 22.4579 32.3911C21.385 31.3745 20.4794 30.1589 20.0212 28.7511C19.4961 27.1378 19.6302 25.2484 20.6358 23.8895C21.4859 22.7407 22.8315 22.0917 24.1568 21.5843C24.6742 21.3625 25.2208 21.2187 25.7793 21.1572C26.3435 21.0979 26.9087 21.2588 27.3599 21.6071C27.5798 21.7851 27.7417 22.0261 27.8244 22.2987C27.9071 22.5713 27.9069 22.8629 27.8237 23.1354C28.5034 22.5096 29.3326 22.0748 30.2292 21.874C30.7967 21.7215 31.3964 21.7467 31.9496 21.9463C32.7182 22.2667 33.2175 23.0493 33.4475 23.8588C33.6378 24.4763 33.6532 25.1355 33.492 25.7615C33.4092 26.0727 33.263 26.3628 33.0626 26.6131C32.8623 26.8634 32.6123 27.0682 32.329 27.2145C31.6258 27.5503 30.7912 27.4235 30.0559 27.1679C29.3206 26.9122 28.6235 26.535 27.863 26.3719C27.1025 26.2088 26.2244 26.3039 25.6863 26.8726C25.3073 27.273 25.1581 27.8363 25.0225 28.3739L24.3175 31.1701C24.2397 31.5775 24.0909 31.9674 23.8779 32.3217C23.8423 32.3722 23.8001 32.4175 23.7524 32.4565Z" fill="#2F2E41"/>
<path d="M44.0556 72.8052H37.4719C37.3037 72.8049 37.141 72.744 37.0129 72.6335C36.8848 72.523 36.7995 72.37 36.7723 72.2017C36.3428 69.3744 36.3428 66.4972 36.7723 63.6699C36.7995 63.5016 36.8848 63.3486 37.0129 63.2381C37.141 63.1276 37.3037 63.0667 37.4719 63.0664H44.0556C44.1623 63.0661 44.2676 63.0904 44.3636 63.1376C44.4596 63.1847 44.5438 63.2535 44.6096 63.3386C44.6769 63.4249 44.7238 63.5256 44.7469 63.633C44.77 63.7404 44.7686 63.8518 44.7429 63.9586C44.127 66.5733 44.127 69.2983 44.7429 71.913C44.7686 72.0198 44.77 72.1312 44.7469 72.2386C44.7238 72.3461 44.6769 72.4467 44.6096 72.533C44.5438 72.6181 44.4596 72.6869 44.3636 72.734C44.2676 72.7812 44.1623 72.8055 44.0556 72.8052Z" fill="#009900"/>
<path d="M33.0205 100H0.20383C0.149771 100 0.0979259 99.9782 0.0597003 99.9395C0.0214748 99.9007 0 99.8482 0 99.7934C0 99.7386 0.0214748 99.6861 0.0597003 99.6473C0.0979259 99.6086 0.149771 99.5868 0.20383 99.5868H33.0205C33.0746 99.5868 33.1264 99.6086 33.1646 99.6473C33.2029 99.6861 33.2243 99.7386 33.2243 99.7934C33.2243 99.8482 33.2029 99.9007 33.1646 99.9395C33.1264 99.9782 33.0746 100 33.0205 100Z" fill="#3F3D56"/>
</svg>
