<svg width="165" height="101" viewBox="0 0 165 101" fill="none" xmlns="http://www.w3.org/2000/svg">
<path d="M162.265 0.665527H47.6547C47.2182 0.665925 46.7996 0.839832 46.4909 1.14907C46.1823 1.45831 46.0087 1.87762 46.0083 2.31494V80.1175C46.0087 80.5548 46.1823 80.9741 46.4909 81.2834C46.7996 81.5926 47.2182 81.7665 47.6547 81.7669H162.265C162.503 81.7669 162.738 81.7152 162.955 81.6153C163.171 81.5153 163.363 81.3696 163.517 81.1881C163.53 81.1739 163.542 81.1587 163.553 81.1427C163.651 81.0224 163.731 80.8878 163.789 80.7436C163.872 80.5453 163.914 80.3325 163.914 80.1175V2.31495C163.913 1.87731 163.739 1.45777 163.43 1.14849C163.121 0.839212 162.702 0.665502 162.265 0.665527ZM163.443 80.1175C163.444 80.3476 163.376 80.5727 163.249 80.7644C163.136 80.9332 162.983 81.071 162.803 81.1654C162.637 81.2515 162.452 81.2963 162.265 81.2959H47.6547C47.3429 81.2956 47.0439 81.1713 46.8233 80.9504C46.6028 80.7295 46.4788 80.4299 46.4784 80.1175V2.31495C46.4788 2.00253 46.6028 1.70301 46.8233 1.48209C47.0439 1.26118 47.3429 1.1369 47.6547 1.13652H162.265C162.577 1.13648 162.877 1.26056 163.098 1.48151C163.319 1.70246 163.443 2.00222 163.443 2.31495V80.1175Z" fill="#3F3D56"/>
<path d="M163.677 7.27625H46.2429V7.74777H163.677V7.27625Z" fill="#3F3D56"/>
<path d="M50.2436 5.6165C51.0234 5.6165 51.6556 4.98317 51.6556 4.20193C51.6556 3.42068 51.0234 2.78735 50.2436 2.78735C49.4637 2.78735 48.8315 3.42068 48.8315 4.20193C48.8315 4.98317 49.4637 5.6165 50.2436 5.6165Z" fill="#3F3D56"/>
<path d="M54.3033 5.6165C55.0831 5.6165 55.7153 4.98317 55.7153 4.20193C55.7153 3.42068 55.0831 2.78735 54.3033 2.78735C53.5234 2.78735 52.8912 3.42068 52.8912 4.20193C52.8912 4.98317 53.5234 5.6165 54.3033 5.6165Z" fill="#3F3D56"/>
<path d="M58.3628 5.6165C59.1427 5.6165 59.7749 4.98317 59.7749 4.20193C59.7749 3.42068 59.1427 2.78735 58.3628 2.78735C57.583 2.78735 56.9508 3.42068 56.9508 4.20193C56.9508 4.98317 57.583 5.6165 58.3628 5.6165Z" fill="#3F3D56"/>
<path d="M149.752 41.4605H58.1765C57.3255 41.4596 56.5096 41.1205 55.9079 40.5176C55.3061 39.9148 54.9676 39.0975 54.9667 38.2449V18.7621C54.9676 17.9096 55.3061 17.0922 55.9079 16.4894C56.5096 15.8866 57.3255 15.5475 58.1765 15.5465H149.752C150.603 15.5475 151.419 15.8866 152.02 16.4894C152.622 17.0922 152.96 17.9096 152.961 18.7621V38.2449C152.96 39.0975 152.622 39.9148 152.02 40.5176C151.419 41.1205 150.603 41.4596 149.752 41.4605ZM58.1765 15.9248C57.4256 15.9257 56.7057 16.2249 56.1748 16.7568C55.6438 17.2887 55.3452 18.0099 55.3443 18.7621V38.2449C55.3452 38.9972 55.6438 39.7183 56.1748 40.2503C56.7057 40.7822 57.4256 41.0814 58.1765 41.0822H149.752C150.502 41.0814 151.222 40.7822 151.753 40.2503C152.284 39.7183 152.583 38.9972 152.584 38.2449V18.7621C152.583 18.0099 152.284 17.2887 151.753 16.7568C151.222 16.2249 150.502 15.9257 149.752 15.9248H58.1765Z" fill="#F2F2F2"/>
<path d="M78.3797 76.6429H58.1765C57.3255 76.642 56.5096 76.3029 55.9079 75.7C55.3061 75.0972 54.9676 74.2799 54.9667 73.4273V59.0517C54.9676 58.1991 55.3061 57.3818 55.9079 56.779C56.5096 56.1761 57.3255 55.837 58.1765 55.8361H78.3797C79.2307 55.837 80.0466 56.1761 80.6483 56.779C81.2501 57.3818 81.5886 58.1991 81.5895 59.0517V73.4273C81.5886 74.2799 81.2501 75.0972 80.6483 75.7C80.0466 76.3029 79.2307 76.642 78.3797 76.6429ZM58.1765 56.2144C57.4256 56.2152 56.7057 56.5144 56.1748 57.0463C55.6438 57.5782 55.3452 58.2994 55.3443 59.0517V73.4273C55.3452 74.1796 55.6438 74.9008 56.1748 75.4327C56.7057 75.9646 57.4256 76.2638 58.1765 76.2646H78.3797C79.1306 76.2638 79.8505 75.9646 80.3814 75.4327C80.9124 74.9008 81.2111 74.1796 81.2119 73.4273V59.0517C81.2111 58.2994 80.9124 57.5782 80.3814 57.0463C79.8505 56.5144 79.1306 56.2152 78.3797 56.2144H58.1765Z" fill="#F2F2F2"/>
<path d="M149.752 76.6429H129.548C128.697 76.642 127.881 76.3029 127.28 75.7C126.678 75.0972 126.339 74.2799 126.339 73.4273V59.0517C126.339 58.1991 126.678 57.3818 127.28 56.779C127.881 56.1761 128.697 55.837 129.548 55.8361H149.752C150.603 55.837 151.418 56.1761 152.02 56.779C152.622 57.3818 152.96 58.1991 152.961 59.0517V73.4273C152.96 74.2799 152.622 75.0972 152.02 75.7C151.418 76.3029 150.603 76.642 149.752 76.6429ZM129.548 56.2144C128.797 56.2152 128.078 56.5144 127.547 57.0463C127.016 57.5782 126.717 58.2994 126.716 59.0517V73.4273C126.717 74.1796 127.016 74.9008 127.547 75.4327C128.078 75.9646 128.797 76.2638 129.548 76.2646H149.752C150.502 76.2638 151.222 75.9646 151.753 75.4327C152.284 74.9008 152.583 74.1796 152.584 73.4273V59.0517C152.583 58.2994 152.284 57.5782 151.753 57.0463C151.222 56.5144 150.502 56.2152 149.752 56.2144H129.548Z" fill="#F2F2F2"/>
<path d="M115.576 76.6429H95.3731C94.522 76.642 93.7062 76.3029 93.1044 75.7C92.5026 75.0972 92.1642 74.2799 92.1632 73.4273V59.0517C92.1642 58.1991 92.5026 57.3818 93.1044 56.779C93.7062 56.1761 94.522 55.837 95.3731 55.8361H115.576C116.427 55.837 117.243 56.1761 117.845 56.779C118.447 57.3818 118.785 58.1991 118.786 59.0517V73.4273C118.785 74.2799 118.447 75.0972 117.845 75.7C117.243 76.3029 116.427 76.642 115.576 76.6429ZM95.3731 56.2144C94.6222 56.2152 93.9023 56.5144 93.3713 57.0463C92.8403 57.5782 92.5417 58.2994 92.5408 59.0517V73.4273C92.5417 74.1796 92.8403 74.9008 93.3713 75.4327C93.9023 75.9646 94.6222 76.2638 95.3731 76.2646H115.576C116.327 76.2638 117.047 75.9646 117.578 75.4327C118.109 74.9008 118.408 74.1796 118.408 73.4273V59.0517C118.408 58.2994 118.109 57.5782 117.578 57.0463C117.047 56.5144 116.327 56.2152 115.576 56.2144H95.3731Z" fill="#F2F2F2"/>
<path d="M56.0902 16.4336L56.0005 16.801L152.728 40.5093L152.817 40.1419L56.0902 16.4336Z" fill="#F2F2F2"/>
<path d="M151.836 16.4278L56.0013 40.212L56.0922 40.5793L151.927 16.795L151.836 16.4278Z" fill="#F2F2F2"/>
<path d="M153.528 47.9862H61.9528C61.1269 47.9853 60.335 47.6562 59.7509 47.0711C59.1669 46.486 58.8383 45.6926 58.8374 44.8652V25.3824C58.8383 24.5549 59.1669 23.7616 59.7509 23.1765C60.335 22.5914 61.1269 22.2623 61.9528 22.2614H153.528C154.354 22.2623 155.146 22.5914 155.73 23.1765C156.314 23.7616 156.642 24.5549 156.643 25.3824V44.8652C156.642 45.6926 156.314 46.4859 155.73 47.071C155.146 47.6561 154.354 47.9853 153.528 47.9862Z" fill="white"/>
<path d="M93.4294 56.6904L93.1971 56.9886L117.397 75.8999L117.629 75.6016L93.4294 56.6904Z" fill="#F2F2F2"/>
<path d="M117.517 56.6905L93.6355 75.8348L93.8714 76.1302L117.753 56.9858L117.517 56.6905Z" fill="#F2F2F2"/>
<path d="M56.2328 56.6904L56.0005 56.9886L80.2 75.8999L80.4323 75.6016L56.2328 56.6904Z" fill="#F2F2F2"/>
<path d="M80.3211 56.6905L56.4391 75.8348L56.675 76.1302L80.557 56.9858L80.3211 56.6905Z" fill="#F2F2F2"/>
<path d="M127.605 56.69L127.373 56.9883L151.572 75.8995L151.805 75.6012L127.605 56.69Z" fill="#F2F2F2"/>
<path d="M151.693 56.6905L127.811 75.8348L128.047 76.1302L151.929 56.9858L151.693 56.6905Z" fill="#F2F2F2"/>
<path d="M118.408 90.3566H98.205C97.3791 90.3557 96.5872 90.0266 96.0031 89.4415C95.4191 88.8563 95.0905 88.063 95.0896 87.2356V72.8599C95.0905 72.0325 95.4191 71.2392 96.0031 70.6541C96.5872 70.0689 97.3791 69.7398 98.205 69.7389H118.408C119.234 69.7398 120.026 70.0689 120.61 70.6541C121.194 71.2392 121.523 72.0325 121.524 72.8599V87.2356C121.523 88.063 121.194 88.8563 120.61 89.4415C120.026 90.0266 119.234 90.3557 118.408 90.3566Z" fill="#6C63FF"/>
<path d="M128.96 90.6404H87.61C87.5599 90.6404 87.5119 90.6205 87.4764 90.585C87.441 90.5495 87.4211 90.5014 87.4211 90.4512C87.4211 90.4011 87.441 90.353 87.4764 90.3175C87.5119 90.282 87.5599 90.2621 87.61 90.2621H128.96C129.01 90.2621 129.058 90.282 129.094 90.3175C129.129 90.353 129.149 90.4011 129.149 90.4512C129.149 90.5014 129.129 90.5495 129.094 90.585C129.058 90.6205 129.01 90.6404 128.96 90.6404Z" fill="#CCCCCC"/>
<path d="M41.5392 100.666H0.188815C0.138738 100.666 0.090712 100.646 0.0553024 100.61C0.0198928 100.575 0 100.527 0 100.476C0 100.426 0.0198928 100.378 0.0553024 100.343C0.090712 100.307 0.138738 100.287 0.188815 100.287H41.5392C41.5893 100.287 41.6373 100.307 41.6727 100.343C41.7081 100.378 41.728 100.426 41.728 100.476C41.728 100.527 41.7081 100.575 41.6727 100.61C41.6373 100.646 41.5893 100.666 41.5392 100.666Z" fill="#CCCCCC"/>
<path d="M110.941 79.0074H105.654C105.254 79.0074 104.87 78.848 104.586 78.5642C104.303 78.2804 104.144 77.8955 104.144 77.4942C104.144 77.0929 104.303 76.708 104.586 76.4242C104.87 76.1404 105.254 75.981 105.654 75.981H110.941C111.342 75.981 111.726 76.1404 112.009 76.4242C112.293 76.708 112.452 77.0929 112.452 77.4942C112.452 77.8955 112.293 78.2804 112.009 78.5642C111.726 78.848 111.342 79.0074 110.941 79.0074Z" fill="white"/>
<path d="M114.066 84.1146H102.548C102.147 84.1146 101.763 83.9552 101.48 83.6714C101.196 83.3876 101.037 83.0027 101.037 82.6014C101.037 82.2 101.196 81.8151 101.48 81.5313C101.763 81.2476 102.147 81.0881 102.548 81.0881H114.066C114.466 81.0881 114.85 81.2476 115.134 81.5313C115.417 81.8151 115.576 82.2 115.576 82.6014C115.576 83.0027 115.417 83.3876 115.134 83.6714C114.85 83.9552 114.466 84.1146 114.066 84.1146Z" fill="white"/>
<path d="M81.5895 79.3857H61.3863C60.5603 79.3847 59.7685 79.0556 59.1844 78.4705C58.6003 77.8854 58.2718 77.0921 58.2709 76.2646V61.889C58.2718 61.0615 58.6003 60.2682 59.1844 59.6831C59.7685 59.098 60.5603 58.7689 61.3863 58.7679H81.5895C82.4155 58.7689 83.2073 59.098 83.7914 59.6831C84.3755 60.2682 84.704 61.0615 84.7049 61.889V76.2646C84.704 77.0921 84.3755 77.8854 83.7914 78.4705C83.2073 79.0556 82.4155 79.3847 81.5895 79.3857Z" fill="#6C63FF"/>
<path d="M74.1224 68.0365H68.8356C68.435 68.0365 68.0508 67.877 67.7675 67.5933C67.4842 67.3095 67.3251 66.9246 67.3251 66.5232C67.3251 66.1219 67.4842 65.737 67.7675 65.4532C68.0508 65.1694 68.435 65.01 68.8356 65.01H74.1224C74.523 65.01 74.9072 65.1694 75.1905 65.4532C75.4738 65.737 75.6329 66.1219 75.6329 66.5232C75.6329 66.9246 75.4738 67.3095 75.1905 67.5933C74.9072 67.877 74.523 68.0365 74.1224 68.0365Z" fill="white"/>
<path d="M77.2467 73.1436H65.729C65.3284 73.1436 64.9442 72.9842 64.6609 72.7004C64.3776 72.4166 64.2185 72.0317 64.2185 71.6304C64.2185 71.2291 64.3776 70.8442 64.6609 70.5604C64.9442 70.2766 65.3284 70.1172 65.729 70.1172H77.2467C77.6473 70.1172 78.0315 70.2766 78.3148 70.5604C78.5981 70.8442 78.7572 71.2291 78.7572 71.6304C78.7572 72.0317 78.5981 72.4166 78.3148 72.7004C78.0315 72.9842 77.6473 73.1436 77.2467 73.1436Z" fill="white"/>
<path d="M154.094 84.8713H133.891C133.065 84.8703 132.273 84.5412 131.689 83.9561C131.105 83.371 130.777 82.5777 130.776 81.7502V67.3746C130.777 66.5471 131.105 65.7538 131.689 65.1687C132.273 64.5836 133.065 64.2545 133.891 64.2535H154.094C154.92 64.2545 155.712 64.5836 156.296 65.1687C156.88 65.7538 157.209 66.5471 157.21 67.3746V81.7502C157.209 82.5777 156.88 83.371 156.296 83.9561C155.712 84.5412 154.92 84.8703 154.094 84.8713Z" fill="#E6E6E6"/>
<path d="M146.627 73.5221H141.34C140.94 73.5221 140.556 73.3626 140.272 73.0788C139.989 72.7951 139.83 72.4102 139.83 72.0088C139.83 71.6075 139.989 71.2226 140.272 70.9388C140.556 70.655 140.94 70.4956 141.34 70.4956H146.627C147.028 70.4956 147.412 70.655 147.695 70.9388C147.979 71.2226 148.138 71.6075 148.138 72.0088C148.138 72.4102 147.979 72.7951 147.695 73.0788C147.412 73.3626 147.028 73.5221 146.627 73.5221Z" fill="white"/>
<path d="M149.752 78.6292H138.234C137.833 78.6292 137.449 78.4698 137.166 78.186C136.883 77.9022 136.723 77.5173 136.723 77.116C136.723 76.7147 136.883 76.3298 137.166 76.046C137.449 75.7622 137.833 75.6028 138.234 75.6028H149.752C150.152 75.6028 150.536 75.7622 150.82 76.046C151.103 76.3298 151.262 76.7147 151.262 77.116C151.262 77.5173 151.103 77.9022 150.82 78.186C150.536 78.4698 150.152 78.6292 149.752 78.6292Z" fill="white"/>
<path d="M56.8983 66.2276V63.9086L47.9696 62.8053L47.9698 66.228L56.8983 66.2276Z" fill="#A0616A"/>
<path d="M59.0475 59.4362L59.0478 66.7244L56.237 66.7245L56.2368 62.2522C56.2367 61.5054 56.5328 60.7891 57.0599 60.261C57.5871 59.7329 58.302 59.4362 59.0475 59.4362Z" fill="#2F2E41"/>
<path d="M17.1359 98.065L19.4507 98.0648L20.5519 89.1201L17.1355 89.1203L17.1359 98.065Z" fill="#A0616A"/>
<path d="M23.915 100.218L16.6399 100.218L16.6397 97.4022L21.1041 97.402C21.8495 97.402 22.5645 97.6986 23.0917 98.2267C23.6188 98.7547 23.915 99.471 23.915 100.218Z" fill="#2F2E41"/>
<path d="M19.9987 94.8417C19.9711 94.8417 19.9433 94.8404 19.9154 94.838L16.7626 94.575C16.6319 94.5641 16.5048 94.5268 16.3889 94.4654C16.273 94.4039 16.1707 94.3196 16.0883 94.2174C16.0058 94.1153 15.9449 93.9974 15.9091 93.871C15.8734 93.7446 15.8636 93.6123 15.8804 93.482L17.5166 80.7333C17.5229 80.6838 17.5229 80.6336 17.5167 80.5841L14.9176 60.0364C14.9004 59.9006 14.9121 59.7627 14.9518 59.6318C14.9915 59.5008 15.0583 59.3797 15.1479 59.2764C15.2375 59.1731 15.3479 59.0899 15.4718 59.0323C15.5957 58.9746 15.7303 58.9438 15.8669 58.9419L25.0609 58.8113C25.1077 58.8111 25.1545 58.8138 25.201 58.8194L25.2261 58.8264L26.9946 59.5932L52.704 62.4298C52.9377 62.4607 53.1523 62.5755 53.308 62.7529C53.4636 62.9303 53.5498 63.1582 53.5505 63.3944V66.7105C53.5505 66.8477 53.5215 66.9833 53.4655 67.1084C53.4094 67.2336 53.3276 67.3455 53.2253 67.4367C53.1231 67.5279 53.0027 67.5965 52.8722 67.6378C52.7416 67.6792 52.6038 67.6924 52.4678 67.6766L37.6152 65.9422C37.5401 65.9331 37.464 65.939 37.3911 65.9594L25.646 69.2022C25.539 69.2319 25.4425 69.2914 25.3678 69.3738C25.293 69.4561 25.2431 69.5579 25.2236 69.6675L20.9526 94.0374C20.9137 94.2626 20.7966 94.4668 20.6221 94.6139C20.4476 94.7611 20.2268 94.8417 19.9987 94.8417Z" fill="#2F2E41"/>
<path d="M19.2453 40.1945C22.7456 40.1945 25.5832 37.3519 25.5832 33.8453C25.5832 30.3387 22.7456 27.4961 19.2453 27.4961C15.745 27.4961 12.9075 30.3387 12.9075 33.8453C12.9075 37.3519 15.745 40.1945 19.2453 40.1945Z" fill="#2F2E41"/>
<path d="M17.0281 29.7902C18.4765 29.7902 19.6506 28.6139 19.6506 27.1629C19.6506 25.7119 18.4765 24.5356 17.0281 24.5356C15.5797 24.5356 14.4055 25.7119 14.4055 27.1629C14.4055 28.6139 15.5797 29.7902 17.0281 29.7902Z" fill="#2F2E41"/>
<path d="M13.5313 25.7399C13.5314 25.0905 13.7714 24.4641 14.2053 23.9816C14.6391 23.4991 15.236 23.1946 15.8807 23.1269C15.7899 23.1174 15.6988 23.1127 15.6075 23.1127C14.9124 23.1133 14.2459 23.3903 13.7545 23.883C13.2632 24.3756 12.9872 25.0435 12.9872 25.7399C12.9872 26.4363 13.2632 27.1043 13.7545 27.5969C14.2459 28.0895 14.9124 28.3666 15.6075 28.3672C15.6988 28.3672 15.7899 28.3624 15.8807 28.353C15.236 28.2853 14.6391 27.9808 14.2053 27.4983C13.7714 27.0157 13.5314 26.3893 13.5313 25.7399Z" fill="#2F2E41"/>
<path d="M19.9918 62.3941C18.4174 62.3941 16.6662 61.9574 14.8431 60.7397L14.8122 60.719L14.8036 60.683C14.7867 60.6117 13.1093 53.4994 13.0763 47.9909C13.0661 47.0236 13.287 46.0679 13.7205 45.2036C14.1541 44.3392 14.7877 43.5913 15.5685 43.0221C16.319 42.4589 17.1931 42.0838 18.1178 41.9281C19.0425 41.7723 19.9909 41.8404 20.884 42.1268C21.002 42.1643 21.1203 42.2045 21.2389 42.2474C22.477 42.7105 23.5293 43.5677 24.2342 44.6876C24.9392 45.8074 25.258 47.128 25.1416 48.4468C24.9025 51.3574 24.8066 56.6585 26.8514 59.4593L26.8993 59.5248L26.8418 59.5821C26.8024 59.6214 23.9586 62.3941 19.9918 62.3941Z" fill="#CCCCCC"/>
<path d="M19.2271 40.5121C21.7883 40.5121 23.8646 38.4321 23.8646 35.8663C23.8646 33.3005 21.7883 31.2205 19.2271 31.2205C16.6659 31.2205 14.5896 33.3005 14.5896 35.8663C14.5896 38.4321 16.6659 40.5121 19.2271 40.5121Z" fill="#A0616A"/>
<path d="M13.5466 35.5597C13.6132 35.8297 13.6198 36.111 13.5661 36.3838C13.5124 36.6566 13.3997 36.9143 13.2358 37.1388C13.0719 37.3632 12.8609 37.5489 12.6176 37.6828C12.3743 37.8167 12.1047 37.8956 11.8278 37.9138L10.0384 44.4311L7.72803 41.789L9.78145 36.0051C9.78174 35.5369 9.95344 35.0851 10.264 34.7353C10.5746 34.3855 11.0025 34.162 11.4666 34.1071C11.9307 34.0522 12.3987 34.1697 12.7821 34.4375C13.1655 34.7052 13.4375 35.1045 13.5466 35.5597Z" fill="#A0616A"/>
<path d="M6.51258 49.9204C6.22533 49.9193 5.94253 49.8492 5.68787 49.7161C5.4332 49.583 5.21411 49.3906 5.04893 49.1552C4.88375 48.9198 4.7773 48.6481 4.73851 48.363C4.69972 48.0778 4.72971 47.7875 4.82597 47.5164L8.22767 37.9413C8.30835 37.718 8.46928 37.5329 8.67898 37.4222C8.88868 37.3114 9.13206 37.2831 9.36153 37.3426L11.8405 38C11.9681 38.0339 12.0872 38.0941 12.1902 38.1768C12.2932 38.2594 12.3778 38.3628 12.4385 38.4802C12.4993 38.5976 12.5349 38.7264 12.543 38.8583C12.5511 38.9903 12.5316 39.1225 12.4857 39.2465L10.2995 45.15L14.0077 43.9683C14.325 43.8672 14.6597 43.833 14.9908 43.8679C15.3219 43.9028 15.6422 44.006 15.9316 44.1709C16.2209 44.3359 16.473 44.5592 16.672 44.8265C16.871 45.0939 17.0125 45.3997 17.0878 45.7246C17.163 46.0495 17.1702 46.3865 17.1091 46.7143C17.0479 47.0422 16.9196 47.3538 16.7323 47.6295C16.545 47.9053 16.3027 48.1392 16.0208 48.3165C15.7388 48.4938 15.4232 48.6107 15.0939 48.6598L6.78313 49.9001C6.69357 49.9136 6.60314 49.9204 6.51258 49.9204Z" fill="#CCCCCC"/>
<path d="M19.9825 35.1266C22.3965 35.1266 24.3534 33.9503 24.3534 32.4993C24.3534 31.0483 22.3965 29.8721 19.9825 29.8721C17.5685 29.8721 15.6116 31.0483 15.6116 32.4993C15.6116 33.9503 17.5685 35.1266 19.9825 35.1266Z" fill="#2F2E41"/>
<path d="M33.2876 63.9386C33.0198 63.8656 32.7712 63.7347 32.5593 63.555C32.3474 63.3754 32.1775 63.1514 32.0614 62.8988C31.9453 62.6462 31.8859 62.3712 31.8873 62.0931C31.8888 61.8151 31.9511 61.5407 32.0699 61.2894L27.2549 56.5542L30.6829 55.8163L34.7297 60.426C35.138 60.6538 35.4486 61.0238 35.6027 61.4658C35.7569 61.9077 35.7438 62.391 35.5661 62.824C35.3883 63.257 35.0582 63.6096 34.6383 63.815C34.2183 64.0204 33.7378 64.0644 33.2876 63.9386Z" fill="#A0616A"/>
<path d="M31.0651 61.3623C30.9362 61.3627 30.8088 61.3345 30.692 61.2796C30.5753 61.2248 30.4721 61.1447 30.39 61.0452L25.1337 54.6566L21.0196 46.7415C20.8909 46.3437 20.8591 45.9208 20.927 45.5082C20.9949 45.0956 21.1605 44.7052 21.41 44.3699C21.6492 44.0441 21.9634 43.781 22.3258 43.6028C22.6883 43.4247 23.0883 43.3368 23.4919 43.3466C23.6959 43.3509 23.8991 43.3742 24.0987 43.4162C24.5072 43.5081 24.8862 43.7008 25.2015 43.9767C25.5167 44.2526 25.7582 44.603 25.904 44.9961L29.389 53.1984L33.5657 58.4766C33.7082 58.6577 33.7738 58.8877 33.7484 59.1169C33.7229 59.3461 33.6084 59.556 33.4296 59.7013L31.6121 61.1697C31.4572 61.2947 31.2641 61.3628 31.0651 61.3623Z" fill="#CCCCCC"/>
<path d="M164.646 85.155H123.296C123.246 85.155 123.198 85.1351 123.162 85.0996C123.127 85.0642 123.107 85.0161 123.107 84.9659C123.107 84.9157 123.127 84.8676 123.162 84.8321C123.198 84.7967 123.246 84.7767 123.296 84.7767H164.646C164.696 84.7767 164.744 84.7967 164.78 84.8321C164.815 84.8676 164.835 84.9157 164.835 84.9659C164.835 85.0161 164.815 85.0642 164.78 85.0996C164.744 85.1351 164.696 85.155 164.646 85.155Z" fill="#CCCCCC"/>
<path d="M128.278 47.6525V47.8918H87.928V47.6414L88.1452 47.3336L100.937 29.2416C100.997 29.1594 101.074 29.0924 101.165 29.0462C101.255 29 101.354 28.976 101.456 28.976C101.557 28.976 101.657 29 101.747 29.0462C101.837 29.0924 101.915 29.1594 101.974 29.2416L110.552 41.3734L116.658 32.8133C116.717 32.7314 116.795 32.6648 116.885 32.6189C116.975 32.573 117.074 32.549 117.175 32.549C117.276 32.549 117.376 32.573 117.466 32.6189C117.556 32.6648 117.633 32.7314 117.693 32.8133L128.061 47.3466L128.278 47.6525Z" fill="#6C63FF"/>
<path d="M87.8443 35.6152C90.438 35.6152 92.5407 33.5087 92.5407 30.9103C92.5407 28.3119 90.438 26.2054 87.8443 26.2054C85.2505 26.2054 83.1478 28.3119 83.1478 30.9103C83.1478 33.5087 85.2505 35.6152 87.8443 35.6152Z" fill="#6C63FF"/>
<path d="M153.528 48.0809H61.9528C61.1018 48.0799 60.2859 47.7408 59.6841 47.138C59.0824 46.5352 58.7439 45.7178 58.7429 44.8653V25.3825C58.7439 24.5299 59.0824 23.7126 59.6841 23.1098C60.2859 22.5069 61.1018 22.1678 61.9528 22.1669H153.528C154.379 22.1678 155.195 22.5069 155.797 23.1098C156.398 23.7126 156.737 24.5299 156.738 25.3825V44.8653C156.737 45.7178 156.398 46.5352 155.797 47.138C155.195 47.7408 154.379 48.0799 153.528 48.0809ZM61.9528 22.5452C61.2019 22.546 60.482 22.8452 59.951 23.3771C59.4201 23.9091 59.1214 24.6302 59.1205 25.3825V44.8653C59.1214 45.6175 59.4201 46.3387 59.951 46.8706C60.482 47.4025 61.2019 47.7017 61.9528 47.7026H153.528C154.279 47.7017 154.999 47.4025 155.53 46.8706C156.061 46.3387 156.359 45.6175 156.36 44.8653V25.3825C156.359 24.6302 156.061 23.9091 155.53 23.3771C154.999 22.8452 154.279 22.546 153.528 22.5452H61.9528Z" fill="#3F3D56"/>
</svg>
