<svg width="169" height="100" viewBox="0 0 169 100" fill="none" xmlns="http://www.w3.org/2000/svg">
<path d="M10.383 76.7159C5.44083 74.9206 1.15068 70.6261 0.606445 65.403C5.40426 68.5111 11.1484 69.8244 16.8226 69.1107C19.0099 68.8275 21.4132 68.2851 23.285 69.4501C24.4496 70.175 25.1727 71.4621 25.5044 72.7918C25.8361 74.1216 25.8211 75.5098 25.8042 76.8801L25.9581 77.1858C20.7954 78.1865 15.3252 78.5111 10.383 76.7159Z" fill="#F0F0F0"/>
<path d="M0.713675 65.377C3.23222 68.9222 6.80544 71.5849 10.9258 72.9869C11.8075 73.3045 12.7337 73.4812 13.6705 73.5108C14.584 73.5101 15.4806 73.2651 16.2672 72.8014C17.0094 72.3837 17.7201 71.8707 18.551 71.6404C18.978 71.5289 19.4239 71.5087 19.8593 71.5813C20.2947 71.6539 20.7099 71.8175 21.0775 72.0615C22.0094 72.6457 22.6754 73.5295 23.2967 74.4163C23.9865 75.4009 24.6874 76.4345 25.7642 77.0323C25.8947 77.1047 25.7745 77.3027 25.6443 77.2303C23.7708 76.1903 23.0771 73.9844 21.4824 72.6433C20.7383 72.0176 19.8008 71.6119 18.8174 71.8141C17.9575 71.9909 17.2242 72.5194 16.4764 72.9487C15.7157 73.4124 14.8528 73.6829 13.9633 73.7368C13.028 73.755 12.0965 73.6142 11.2085 73.3203C9.19891 72.6905 7.30097 71.7491 5.58422 70.5306C3.61719 69.1508 1.90103 67.4452 0.509984 65.4875C0.423939 65.3663 0.628192 65.2566 0.713675 65.377Z" fill="white"/>
<path d="M9.57247 72.6134C9.24306 73.2717 8.69001 73.7917 8.01208 74.0805C7.33416 74.3693 6.5755 74.4081 5.87161 74.1899C5.72932 74.1452 5.79211 73.9224 5.93457 73.9671C6.58967 74.1714 7.29636 74.1353 7.92709 73.8651C8.55782 73.5949 9.07106 73.1084 9.37416 72.4936C9.44018 72.36 9.63811 72.4806 9.57247 72.6134Z" fill="white"/>
<path d="M15.9188 73.0626C15.4547 71.6313 14.4674 70.4273 13.1538 69.6905C13.0235 69.6177 13.1437 69.4197 13.2737 69.4925C14.6393 70.2617 15.6642 71.5168 16.1438 73.0073C16.1895 73.1494 15.9641 73.204 15.9188 73.0626Z" fill="white"/>
<path d="M3.87931 68.9903C4.05993 68.7621 4.18095 68.4927 4.23151 68.2062C4.28207 67.9197 4.26058 67.6252 4.16898 67.3491C4.12158 67.2077 4.34695 67.1533 4.39405 67.2938C4.49383 67.5993 4.51716 67.9246 4.462 68.2412C4.40684 68.5579 4.27488 68.8562 4.07763 69.1101C4.06104 69.1356 4.03536 69.1538 4.0058 69.1611C3.97624 69.1684 3.94502 69.1641 3.91848 69.1492C3.8923 69.1332 3.8735 69.1076 3.86617 69.0778C3.85883 69.0481 3.86356 69.0166 3.87931 68.9903Z" fill="white"/>
<path d="M13.0798 52.7144C13.112 52.8018 13.1441 52.8893 13.1781 52.9773C13.6159 54.1513 14.1485 55.2877 14.7707 56.3755C14.8175 56.4604 14.8661 56.5457 14.9152 56.6291C16.4421 59.2339 18.4401 61.5329 20.8075 63.4094C21.7502 64.1553 22.7484 64.8284 23.7934 65.423C25.2367 66.2442 26.867 67.0198 27.9232 68.2333C28.0348 68.3587 28.1386 68.4908 28.2338 68.629L26.3195 76.9746C26.3056 76.9914 26.2936 77.0087 26.2797 77.0256L26.2185 77.3623C26.1625 77.3353 26.1049 77.3062 26.0489 77.2793C26.0163 77.2639 25.9842 77.2465 25.9516 77.231C25.93 77.2201 25.9084 77.2091 25.8883 77.2005C25.8811 77.1969 25.874 77.1932 25.8687 77.1901C25.8486 77.1815 25.8308 77.1713 25.8126 77.1632C25.4905 77.0013 25.169 76.837 24.848 76.67C24.8461 76.6696 24.8461 76.6696 24.8446 76.6673C22.3869 75.4188 20.0861 73.8835 17.9906 72.0937C17.9288 72.0395 17.8651 71.9849 17.8041 71.9268C16.8824 71.1091 16.0291 70.2176 15.2528 69.2611C14.8294 68.736 14.4329 68.1898 14.0648 67.6247C13.1165 66.1626 12.4044 64.5607 11.9547 62.8777C11.0586 59.5224 11.2471 55.9184 12.9477 52.9406C12.9912 52.8644 13.0344 52.7901 13.0798 52.7144Z" fill="#F0F0F0"/>
<path d="M13.1816 52.7574C13.0549 57.1023 14.3025 61.3765 16.7471 64.973C17.2595 65.7566 17.8925 66.4546 18.6227 67.0414C19.3525 67.59 20.2161 67.9335 21.1237 68.0361C21.9681 68.1488 22.8449 68.1664 23.6472 68.4821C24.0554 68.6498 24.4236 68.9017 24.7275 69.2215C25.0314 69.5412 25.2642 69.9214 25.4106 70.3373C25.8024 71.364 25.8013 72.47 25.7627 73.5516C25.7198 74.7525 25.6562 75.9991 26.1556 77.1238C26.2161 77.2601 26.0008 77.3459 25.9404 77.2098C25.0715 75.2531 25.8477 73.0747 25.3831 71.0452C25.1662 70.0982 24.6623 69.2108 23.7552 68.781C22.962 68.4052 22.0579 68.3862 21.2019 68.2795C20.315 68.1923 19.4629 67.8897 18.7201 67.3979C17.9624 66.8501 17.3036 66.1776 16.7718 65.4091C15.547 63.6981 14.5992 61.8055 13.9631 59.8005C13.2245 57.5162 12.8826 55.1226 12.9523 52.7232C12.9567 52.5747 13.186 52.6099 13.1816 52.7574Z" fill="white"/>
<path d="M15.8918 63.8611C15.2318 64.1887 14.4767 64.2714 13.7613 64.0944C13.0459 63.9175 12.4168 63.4923 11.9863 62.8949C11.8997 62.7737 12.0842 62.6335 12.171 62.7549C12.5708 63.3119 13.1568 63.7079 13.8234 63.8713C14.4899 64.0348 15.193 63.9549 15.8057 63.6462C15.9389 63.5793 16.0243 63.7945 15.8918 63.8611Z" fill="white"/>
<path d="M20.6881 68.0352C21.1806 66.6134 21.1183 65.0585 20.5136 63.6805C20.4536 63.544 20.6689 63.4582 20.7288 63.5945C21.3554 65.0296 21.4169 66.6479 20.9012 68.1264C20.8519 68.2673 20.6392 68.1753 20.6881 68.0352Z" fill="white"/>
<path d="M13.5306 57.5457C13.8124 57.472 14.0715 57.3296 14.2846 57.1313C14.4976 56.933 14.6581 56.6849 14.7514 56.4094C14.7989 56.2679 15.0116 56.36 14.9645 56.5005C14.8599 56.8045 14.6824 57.0782 14.4475 57.2979C14.2125 57.5175 13.9273 57.6764 13.6167 57.7605C13.588 57.7709 13.5566 57.77 13.5286 57.7581C13.5006 57.7461 13.4782 57.7239 13.466 57.6961C13.4547 57.6676 13.4552 57.6358 13.4673 57.6076C13.4794 57.5794 13.5021 57.5572 13.5306 57.5457Z" fill="white"/>
<path d="M159.97 76.5435C164.654 74.1553 168.383 69.3668 168.28 64.1165C163.901 67.7899 158.362 69.7983 152.643 69.7864C150.437 69.7738 147.986 69.5305 146.271 70.9165C145.205 71.7788 144.646 73.1449 144.48 74.5053C144.315 75.8657 144.501 77.2415 144.686 78.5994L144.571 78.9216C149.818 79.281 155.286 78.9318 159.97 76.5435Z" fill="#F0F0F0"/>
<path d="M168.17 64.1038C166.107 67.9313 162.889 71.0124 158.972 72.9094C158.136 73.3328 157.239 73.6219 156.313 73.7662C155.406 73.8776 154.486 73.7446 153.648 73.3809C152.861 73.0575 152.092 72.6356 151.239 72.509C150.802 72.4507 150.357 72.4855 149.933 72.6109C149.51 72.7364 149.118 72.9498 148.784 73.2371C147.931 73.9312 147.378 74.89 146.871 75.8463C146.308 76.9082 145.739 78.02 144.744 78.7454C144.624 78.8333 144.767 79.015 144.888 78.9272C146.619 77.6651 147.036 75.3908 148.453 73.8642C149.115 73.1518 149.995 72.6342 150.996 72.7141C151.871 72.784 152.664 73.2185 153.459 73.5528C154.271 73.9196 155.161 74.0822 156.05 74.0264C156.98 73.9297 157.888 73.6756 158.733 73.275C160.649 72.4033 162.417 71.2361 163.971 69.8161C165.753 68.2054 167.246 66.302 168.386 64.1884C168.456 64.0576 168.24 63.9738 168.17 64.1038Z" fill="white"/>
<path d="M160.269 72.3727C160.677 72.9856 161.29 73.4338 161.998 73.6372C162.707 73.8405 163.464 73.7859 164.136 73.4829C164.272 73.4212 164.182 73.2077 164.046 73.2696C163.421 73.5528 162.716 73.6037 162.056 73.4129C161.397 73.2222 160.828 72.8024 160.451 72.2294C160.369 72.105 160.188 72.2489 160.269 72.3727Z" fill="white"/>
<path d="M154.026 73.5973C154.311 72.1199 155.142 70.8038 156.355 69.9114C156.476 69.8231 156.332 69.6414 156.212 69.7296C154.951 70.6606 154.089 72.032 153.796 73.57C153.768 73.7167 153.999 73.7431 154.026 73.5973Z" fill="white"/>
<path d="M165.473 68.0784C165.266 67.8741 165.113 67.6215 165.027 67.3434C164.942 67.0654 164.927 66.7704 164.984 66.4852C165.014 66.339 164.783 66.3127 164.754 66.4579C164.692 66.7734 164.709 67.0991 164.803 67.4065C164.897 67.714 165.064 67.9938 165.291 68.2216C165.311 68.2449 165.339 68.2598 165.369 68.2634C165.399 68.267 165.43 68.2589 165.454 68.2409C165.478 68.2218 165.494 68.194 165.497 68.1636C165.501 68.1332 165.492 68.1026 165.473 68.0784Z" fill="white"/>
<path d="M154.339 53.0551C154.318 53.1458 154.297 53.2366 154.274 53.3281C153.984 54.5469 153.595 55.7401 153.112 56.896C153.076 56.986 153.038 57.0766 152.999 57.1653C151.805 59.9378 150.105 62.4647 147.987 64.6175C147.143 65.4734 146.235 66.264 145.271 66.9824C143.94 67.9744 142.417 68.9442 141.519 70.2782C141.423 70.4163 141.337 70.5602 141.259 70.709L144.186 78.7563C144.202 78.7713 144.216 78.787 144.232 78.802L144.334 79.1287C144.386 79.0951 144.44 79.0591 144.492 79.0256C144.523 79.0062 144.552 78.9851 144.583 78.9657C144.603 78.9522 144.623 78.9387 144.642 78.9277C144.649 78.9232 144.655 78.9187 144.66 78.9149C144.679 78.9039 144.695 78.8916 144.712 78.8813C145.012 78.6811 145.311 78.4785 145.609 78.2735C145.611 78.2728 145.611 78.2728 145.612 78.2704C147.897 76.7296 149.992 74.9236 151.851 72.8902C151.906 72.8288 151.962 72.7668 152.016 72.7017C152.83 71.7771 153.567 70.7875 154.219 69.743C154.575 69.1699 154.901 68.5792 155.197 67.9732C155.958 66.4058 156.468 64.7286 156.707 63.0032C157.183 59.5634 156.552 56.0098 154.498 53.2634C154.445 53.1931 154.393 53.1246 154.339 53.0551Z" fill="#F0F0F0"/>
<path d="M154.243 53.1102C154.904 57.4065 154.192 61.8014 152.209 65.6707C151.796 66.5113 151.254 67.2817 150.602 67.9536C149.945 68.5877 149.13 69.0345 148.242 69.2478C147.418 69.4633 146.55 69.5884 145.793 70.0001C145.408 70.2166 145.074 70.5119 144.812 70.8664C144.549 71.221 144.365 71.627 144.271 72.0577C144.009 73.1247 144.146 74.2222 144.317 75.2908C144.508 76.4773 144.724 77.7067 144.367 78.8842C144.324 79.0268 144.548 79.0855 144.591 78.9431C145.213 76.8946 144.174 74.828 144.385 72.7569C144.484 71.7905 144.875 70.8478 145.722 70.31C146.463 69.8397 147.358 69.7099 148.194 69.499C149.064 69.3036 149.872 68.8986 150.549 68.3194C151.233 67.6828 151.804 66.9345 152.238 66.1066C153.243 64.2582 153.95 62.2636 154.335 60.1957C154.786 57.8381 154.831 55.4207 154.467 53.0481C154.444 52.9012 154.221 52.9643 154.243 53.1102Z" fill="white"/>
<path d="M152.921 64.4624C153.616 64.7065 154.375 64.6959 155.064 64.4324C155.752 64.169 156.324 63.6698 156.678 63.0241C156.749 62.8932 156.548 62.7767 156.477 62.9078C156.149 63.5097 155.616 63.9746 154.975 64.2186C154.333 64.4626 153.626 64.4697 152.98 64.2385C152.839 64.1885 152.781 64.4126 152.921 64.4624Z" fill="white"/>
<path d="M148.674 69.1935C148.011 67.8429 147.881 66.2921 148.311 64.8504C148.354 64.7076 148.13 64.6488 148.087 64.7915C147.642 66.2926 147.78 67.9062 148.474 69.3101C148.54 69.4439 148.74 69.3266 148.674 69.1935Z" fill="white"/>
<path d="M154.487 57.905C154.198 57.8665 153.923 57.757 153.687 57.5863C153.451 57.4157 153.262 57.1892 153.135 56.9272C153.071 56.7926 152.871 56.9101 152.935 57.0438C153.076 57.3326 153.286 57.5825 153.546 57.7716C153.806 57.9608 154.109 58.0834 154.428 58.1288C154.457 58.1356 154.488 58.1309 154.515 58.1155C154.541 58.1002 154.56 58.0755 154.569 58.0464C154.577 58.0167 154.572 57.9852 154.557 57.9587C154.541 57.9322 154.516 57.9129 154.487 57.905Z" fill="white"/>
<path d="M146.751 3.43726H113.753V5.55697C113.752 5.66551 113.789 5.77084 113.858 5.85488C113.792 7.51171 113.753 9.62682 113.753 11.9253V68.5961C113.753 73.908 113.966 78.2299 114.228 78.2299H146.276C146.538 78.2299 146.751 73.908 146.751 68.5961V11.9253C146.751 9.62682 146.712 7.51171 146.646 5.85488C146.714 5.77083 146.752 5.6655 146.751 5.55697L146.751 3.43726Z" fill="white"/>
<path d="M146.276 78.4593H114.228C113.978 78.4593 113.813 78.4593 113.663 75.4164C113.573 73.5904 113.523 71.1683 113.523 68.5963V11.9255C113.523 9.70406 113.561 7.54496 113.629 5.84585C113.672 4.82571 113.721 4.00856 113.774 3.41675C113.88 2.2582 113.98 2.0625 114.228 2.0625H146.276C146.524 2.0625 146.624 2.2582 146.73 3.41675C146.784 4.01079 146.832 4.82795 146.875 5.8454L146.875 5.84585C146.943 7.54317 146.981 9.70227 146.981 11.9255V68.5963C146.981 71.1684 146.931 73.5905 146.841 75.4164C146.691 78.4593 146.526 78.4593 146.276 78.4593ZM114.358 78.0009H146.146C146.312 77.3747 146.522 73.9746 146.522 68.5963V11.9255C146.522 9.70831 146.484 7.55592 146.417 5.86465C146.374 4.85447 146.326 4.04481 146.273 3.45815C146.252 3.14303 146.209 2.82979 146.144 2.52082H114.36C114.295 2.82979 114.252 3.14304 114.231 3.45815C114.178 4.04257 114.13 4.85223 114.088 5.86465C114.02 7.55737 113.982 9.70999 113.982 11.9255V68.5963C113.982 73.9745 114.192 77.3747 114.358 78.0009Z" fill="#E4E4E4"/>
<path d="M146.276 2.29163H114.228C114.102 2.29187 113.981 2.34192 113.892 2.43083C113.803 2.51973 113.753 2.64025 113.753 2.76599V5.55713C113.752 5.66567 113.789 5.771 113.858 5.85504C113.903 5.90999 113.959 5.95433 114.023 5.98485C114.087 6.01537 114.157 6.0313 114.228 6.03149H146.276C146.347 6.03129 146.417 6.01535 146.481 5.98483C146.545 5.95431 146.601 5.90998 146.646 5.85504C146.714 5.77099 146.752 5.66566 146.751 5.55713V2.76599C146.751 2.64026 146.701 2.51974 146.612 2.43084C146.523 2.34193 146.402 2.29187 146.276 2.29163Z" fill="#CACACA"/>
<path d="M116.511 4.69896C116.884 4.69896 117.186 4.39736 117.186 4.02532C117.186 3.65328 116.884 3.35168 116.511 3.35168C116.138 3.35168 115.836 3.65328 115.836 4.02532C115.836 4.39736 116.138 4.69896 116.511 4.69896Z" fill="white"/>
<path d="M119.072 4.69896C119.444 4.69896 119.746 4.39736 119.746 4.02532C119.746 3.65328 119.444 3.35168 119.072 3.35168C118.699 3.35168 118.397 3.65328 118.397 4.02532C118.397 4.39736 118.699 4.69896 119.072 4.69896Z" fill="white"/>
<path d="M121.632 4.69896C122.005 4.69896 122.307 4.39736 122.307 4.02532C122.307 3.65328 122.005 3.35168 121.632 3.35168C121.26 3.35168 120.958 3.65328 120.958 4.02532C120.958 4.39736 121.26 4.69896 121.632 4.69896Z" fill="white"/>
<path d="M143.768 3.12573H140.819C140.761 3.12612 140.706 3.14918 140.665 3.18992C140.624 3.23067 140.601 3.28582 140.601 3.34343C140.6 3.37624 140.608 3.40868 140.624 3.43739C140.641 3.47429 140.669 3.5055 140.704 3.5274C140.738 3.5493 140.778 3.561 140.819 3.56114H143.768C143.809 3.56134 143.85 3.54981 143.885 3.5279C143.92 3.50598 143.948 3.47459 143.965 3.43739C143.979 3.40809 143.987 3.37592 143.986 3.34343C143.986 3.31484 143.98 3.28652 143.969 3.2601C143.959 3.23367 143.942 3.20967 143.922 3.18945C143.902 3.16923 143.878 3.1532 143.851 3.14226C143.825 3.13133 143.797 3.12571 143.768 3.12573Z" fill="white"/>
<path d="M143.768 3.94373H140.819C140.761 3.94373 140.706 3.96666 140.665 4.00749C140.624 4.04831 140.601 4.10369 140.601 4.16143C140.601 4.21916 140.624 4.27454 140.665 4.31536C140.706 4.35619 140.761 4.37912 140.819 4.37912H143.768C143.826 4.37912 143.881 4.35619 143.922 4.31536C143.963 4.27454 143.986 4.21916 143.986 4.16143C143.986 4.10369 143.963 4.04831 143.922 4.00749C143.881 3.96666 143.826 3.94373 143.768 3.94373Z" fill="white"/>
<path d="M143.768 4.76184H140.819C140.761 4.76184 140.706 4.78478 140.665 4.82561C140.624 4.86643 140.601 4.9218 140.601 4.97954C140.601 5.03728 140.624 5.09265 140.665 5.13348C140.706 5.1743 140.761 5.19724 140.819 5.19724H143.768C143.826 5.19724 143.881 5.1743 143.922 5.13348C143.963 5.09265 143.986 5.03728 143.986 4.97954C143.986 4.9218 143.963 4.86643 143.922 4.82561C143.881 4.78478 143.826 4.76184 143.768 4.76184Z" fill="white"/>
<path d="M133.441 12.15H127.373C127.069 12.1501 126.777 12.2709 126.562 12.4858C126.347 12.7006 126.226 12.992 126.226 13.2958V18.5435C126.226 18.8473 126.347 19.1384 126.562 19.3532C126.777 19.5679 127.069 19.6888 127.373 19.6893H133.441C133.745 19.6884 134.036 19.5674 134.251 19.3528C134.466 19.1381 134.587 18.8472 134.588 18.5435V13.2958C134.588 12.9921 134.467 12.7009 134.252 12.4862C134.037 12.2714 133.745 12.1505 133.441 12.15Z" fill="#F59E0B"/>
<path d="M140.98 23.1174H119.832C119.694 23.1174 119.561 23.1722 119.464 23.2698C119.366 23.3673 119.311 23.4997 119.311 23.6376C119.311 23.7756 119.366 23.9079 119.464 24.0054C119.561 24.103 119.694 24.1578 119.832 24.1578H140.98C141.118 24.1578 141.25 24.103 141.348 24.0054C141.446 23.9079 141.5 23.7756 141.5 23.6376C141.5 23.4997 141.446 23.3673 141.348 23.2698C141.25 23.1722 141.118 23.1174 140.98 23.1174Z" fill="#E4E4E4"/>
<path d="M127.864 25.5557H119.832C119.694 25.5557 119.561 25.6105 119.464 25.708C119.366 25.8056 119.311 25.9379 119.311 26.0759C119.311 26.2138 119.366 26.3461 119.464 26.4437C119.561 26.5412 119.694 26.596 119.832 26.596H127.864C128.002 26.596 128.135 26.5412 128.232 26.4437C128.33 26.3461 128.385 26.2138 128.385 26.0759C128.385 25.9379 128.33 25.8056 128.232 25.708C128.135 25.6105 128.002 25.5557 127.864 25.5557Z" fill="#E4E4E4"/>
<path d="M133.441 34.8367H127.373C127.069 34.8368 126.777 34.9575 126.562 35.1724C126.347 35.3873 126.226 35.6786 126.226 35.9825V41.2302C126.226 41.5339 126.347 41.8251 126.562 42.0398C126.777 42.2546 127.069 42.3755 127.373 42.376H133.441C133.745 42.3751 134.036 42.2541 134.251 42.0394C134.466 41.8247 134.587 41.5338 134.588 41.2302V35.9825C134.588 35.6787 134.467 35.3876 134.252 35.1728C134.037 34.9581 133.745 34.8372 133.441 34.8367Z" fill="#F59E0B"/>
<path d="M140.98 45.8041H119.832C119.694 45.8041 119.561 45.8589 119.464 45.9564C119.366 46.054 119.311 46.1863 119.311 46.3243C119.311 46.4622 119.366 46.5945 119.464 46.6921C119.561 46.7896 119.694 46.8445 119.832 46.8445H140.98C141.118 46.8445 141.25 46.7896 141.348 46.6921C141.446 46.5945 141.5 46.4622 141.5 46.3243C141.5 46.1863 141.446 46.054 141.348 45.9564C141.25 45.8589 141.118 45.8041 140.98 45.8041Z" fill="#E4E4E4"/>
<path d="M127.864 48.2424H119.832C119.694 48.2424 119.561 48.2972 119.464 48.3948C119.366 48.4924 119.311 48.6247 119.311 48.7626C119.311 48.9006 119.366 49.0329 119.464 49.1305C119.561 49.228 119.694 49.2828 119.832 49.2828H127.864C128.002 49.2828 128.135 49.228 128.232 49.1305C128.33 49.0329 128.385 48.9006 128.385 48.7626C128.385 48.6247 128.33 48.4924 128.232 48.3948C128.135 48.2972 128.002 48.2424 127.864 48.2424Z" fill="#E4E4E4"/>
<path d="M133.441 57.5232H127.373C127.069 57.5233 126.777 57.6441 126.562 57.8589C126.347 58.0738 126.226 58.3651 126.226 58.669V63.9167C126.226 64.2204 126.347 64.5116 126.562 64.7263C126.777 64.9411 127.069 65.062 127.373 65.0625H133.441C133.745 65.0616 134.036 64.9406 134.251 64.7259C134.466 64.5112 134.587 64.2203 134.588 63.9167V58.669C134.588 58.3653 134.467 58.0741 134.252 57.8593C134.037 57.6446 133.745 57.5237 133.441 57.5232Z" fill="#F59E0B"/>
<path d="M140.98 68.4907H119.832C119.694 68.4907 119.561 68.5455 119.464 68.6431C119.366 68.7406 119.311 68.873 119.311 69.0109C119.311 69.1489 119.366 69.2812 119.464 69.3787C119.561 69.4763 119.694 69.5311 119.832 69.5311H140.98C141.118 69.5311 141.25 69.4763 141.348 69.3787C141.446 69.2812 141.5 69.1489 141.5 69.0109C141.5 68.873 141.446 68.7406 141.348 68.6431C141.25 68.5455 141.118 68.4907 140.98 68.4907Z" fill="#E4E4E4"/>
<path d="M127.864 70.9291H119.832C119.694 70.9291 119.561 70.9839 119.464 71.0814C119.366 71.179 119.311 71.3113 119.311 71.4493C119.311 71.5872 119.366 71.7195 119.464 71.8171C119.561 71.9146 119.694 71.9695 119.832 71.9695H127.864C128.002 71.9695 128.135 71.9146 128.232 71.8171C128.33 71.7195 128.385 71.5872 128.385 71.4493C128.385 71.3113 128.33 71.179 128.232 71.0814C128.135 70.9839 128.002 70.9291 127.864 70.9291Z" fill="#E4E4E4"/>
<path d="M104.754 0.703363C104.754 0.577635 104.704 0.457124 104.615 0.368217C104.526 0.27931 104.405 0.229251 104.279 0.229004H19.4475C19.3216 0.229247 19.2009 0.279299 19.1119 0.368203C19.0228 0.457108 18.9727 0.577624 18.9724 0.703363V3.49451C18.972 3.61071 19.0155 3.72281 19.0941 3.80846C19.0184 5.7036 18.9724 8.20142 18.9724 10.9376V73.9355C18.9724 79.8432 19.1859 84.6463 19.4475 84.6463H104.279C104.541 84.6463 104.754 79.8432 104.754 73.9355V10.9376C104.754 8.20142 104.708 5.7036 104.633 3.80846C104.711 3.7228 104.755 3.6107 104.754 3.49451V0.703363Z" fill="white"/>
<path d="M104.279 84.8756H19.4474C19.1881 84.8756 19.0315 84.8756 18.8824 81.5166C18.7924 79.4874 18.7428 76.7951 18.7428 73.9356V10.9377C18.7428 8.30072 18.7861 5.76566 18.8647 3.79947C19.0155 3.05959e-06 19.1874 0 19.4474 0H104.279C104.539 0 104.711 0.000674422 104.862 3.79947C104.94 5.76387 104.984 8.29893 104.984 10.9377V73.9356C104.984 76.7952 104.934 79.4875 104.844 81.5166C104.695 84.8756 104.538 84.8756 104.279 84.8756ZM19.5814 84.4173H104.145C104.333 83.6989 104.525 79.6645 104.525 73.9356V10.9377C104.525 8.30487 104.482 5.77618 104.403 3.81781C104.308 1.41087 104.196 0.678299 104.143 0.458317H19.5839C19.5305 0.678309 19.4189 1.41076 19.3233 3.8177C19.2449 5.77808 19.2018 8.30666 19.2018 10.9377V73.9356C19.2018 79.6645 19.3936 83.6987 19.5814 84.4173Z" fill="#E4E4E4"/>
<path d="M104.279 0.229004H19.4475C19.3216 0.229247 19.2009 0.279299 19.1119 0.368203C19.0228 0.457108 18.9727 0.577624 18.9724 0.703363V3.49451C18.972 3.61071 19.0155 3.72281 19.0941 3.80846C19.1382 3.85875 19.1925 3.89908 19.2535 3.92674C19.3144 3.9544 19.3806 3.96876 19.4475 3.96887H104.279C104.346 3.96876 104.412 3.9544 104.473 3.92674C104.534 3.89908 104.589 3.85875 104.633 3.80846C104.711 3.7228 104.755 3.6107 104.754 3.49451V0.703363C104.754 0.577639 104.704 0.457131 104.615 0.368224C104.526 0.279318 104.405 0.229256 104.279 0.229004Z" fill="#CACACA"/>
<path d="M21.7308 2.63646C22.1034 2.63646 22.4054 2.33486 22.4054 1.96282C22.4054 1.59078 22.1034 1.28918 21.7308 1.28918C21.3582 1.28918 21.0562 1.59078 21.0562 1.96282C21.0562 2.33486 21.3582 2.63646 21.7308 2.63646Z" fill="white"/>
<path d="M24.2914 2.63646C24.664 2.63646 24.9661 2.33486 24.9661 1.96282C24.9661 1.59078 24.664 1.28918 24.2914 1.28918C23.9189 1.28918 23.6168 1.59078 23.6168 1.96282C23.6168 2.33486 23.9189 2.63646 24.2914 2.63646Z" fill="white"/>
<path d="M26.8522 2.63646C27.2248 2.63646 27.5269 2.33486 27.5269 1.96282C27.5269 1.59078 27.2248 1.28918 26.8522 1.28918C26.4797 1.28918 26.1776 1.59078 26.1776 1.96282C26.1776 2.33486 26.4797 2.63646 26.8522 2.63646Z" fill="white"/>
<path d="M101.771 1.06323H98.8218C98.764 1.06323 98.7085 1.08617 98.6676 1.12699C98.6267 1.16782 98.6038 1.22319 98.6038 1.28093C98.6038 1.33867 98.6267 1.39404 98.6676 1.43487C98.7085 1.4757 98.764 1.49864 98.8218 1.49864H101.771C101.829 1.49864 101.884 1.4757 101.925 1.43487C101.966 1.39404 101.989 1.33867 101.989 1.28093C101.989 1.22319 101.966 1.16782 101.925 1.12699C101.884 1.08617 101.829 1.06323 101.771 1.06323Z" fill="white"/>
<path d="M101.771 1.88135H98.8218C98.764 1.88135 98.7085 1.90428 98.6676 1.94511C98.6267 1.98594 98.6038 2.04131 98.6038 2.09905C98.6038 2.15679 98.6267 2.21216 98.6676 2.25299C98.7085 2.29381 98.764 2.31675 98.8218 2.31675H101.771C101.829 2.31675 101.884 2.29381 101.925 2.25299C101.966 2.21216 101.989 2.15679 101.989 2.09905C101.989 2.04131 101.966 1.98594 101.925 1.94511C101.884 1.90428 101.829 1.88135 101.771 1.88135Z" fill="white"/>
<path d="M101.771 2.69934H98.8218C98.764 2.69934 98.7085 2.72228 98.6676 2.76311C98.6267 2.80393 98.6038 2.8593 98.6038 2.91704C98.6038 2.97478 98.6267 3.03015 98.6676 3.07098C98.7085 3.1118 98.764 3.13474 98.8218 3.13474H101.771C101.829 3.13474 101.884 3.1118 101.925 3.07098C101.966 3.03015 101.989 2.97478 101.989 2.91704C101.989 2.8593 101.966 2.80393 101.925 2.76311C101.884 2.72228 101.829 2.69934 101.771 2.69934Z" fill="white"/>
<path d="M46.8672 14.2124H36.9393C36.4416 14.213 35.9645 14.4107 35.6126 14.7621C35.2607 15.1135 35.0627 15.59 35.0621 16.0869V24.6735C35.0627 25.1704 35.2607 25.6469 35.6126 25.9983C35.9645 26.3497 36.4416 26.5474 36.9393 26.548H46.8672C47.3649 26.5474 47.842 26.3497 48.1939 25.9983C48.5458 25.6469 48.7438 25.1704 48.7444 24.6735V16.0869C48.7438 15.59 48.5458 15.1135 48.1939 14.7621C47.842 14.4107 47.3649 14.213 46.8672 14.2124Z" fill="#F59E0B"/>
<path d="M87.8154 17.533H53.2127C52.9866 17.533 52.7697 17.6227 52.6098 17.7823C52.4499 17.942 52.3601 18.1585 52.3601 18.3843C52.3601 18.6101 52.4499 18.8266 52.6098 18.9863C52.7697 19.1459 52.9866 19.2356 53.2127 19.2356H87.8154C88.0416 19.2356 88.2584 19.1459 88.4183 18.9863C88.5782 18.8266 88.668 18.6101 88.668 18.3843C88.668 18.1585 88.5782 17.942 88.4183 17.7823C88.2584 17.6227 88.0416 17.533 87.8154 17.533Z" fill="#E4E4E4"/>
<path d="M66.3557 21.5225H53.2127C52.9866 21.5225 52.7697 21.6122 52.6098 21.7718C52.4499 21.9315 52.3601 22.148 52.3601 22.3738C52.3601 22.5996 52.4499 22.8161 52.6098 22.9758C52.7697 23.1354 52.9866 23.2251 53.2127 23.2251H66.3557C66.5818 23.2251 66.7986 23.1354 66.9585 22.9758C67.1184 22.8161 67.2083 22.5996 67.2083 22.3738C67.2083 22.148 67.1184 21.9315 66.9585 21.7718C66.7986 21.6122 66.5818 21.5225 66.3557 21.5225Z" fill="#E4E4E4"/>
<path d="M46.8672 37.1282H36.9393C36.4416 37.1288 35.9645 37.3265 35.6126 37.6779C35.2607 38.0293 35.0627 38.5057 35.0621 39.0027V47.5893C35.0627 48.0862 35.2607 48.5626 35.6126 48.9141C35.9645 49.2655 36.4416 49.4632 36.9393 49.4638H46.8672C47.3649 49.4632 47.842 49.2655 48.1939 48.9141C48.5458 48.5626 48.7438 48.0862 48.7444 47.5893V39.0027C48.7438 38.5057 48.5458 38.0293 48.1939 37.6779C47.842 37.3265 47.3649 37.1288 46.8672 37.1282Z" fill="#F59E0B"/>
<path d="M87.8154 40.4486H53.2127C52.9866 40.4486 52.7697 40.5383 52.6098 40.698C52.4499 40.8576 52.3601 41.0741 52.3601 41.2999C52.3601 41.5257 52.4499 41.7423 52.6098 41.9019C52.7697 42.0616 52.9866 42.1513 53.2127 42.1513H87.8154C88.0416 42.1513 88.2584 42.0616 88.4183 41.9019C88.5782 41.7423 88.668 41.5257 88.668 41.2999C88.668 41.0741 88.5782 40.8576 88.4183 40.698C88.2584 40.5383 88.0416 40.4486 87.8154 40.4486Z" fill="#E4E4E4"/>
<path d="M66.3557 44.4384H53.2127C52.9866 44.4384 52.7697 44.528 52.6098 44.6877C52.4499 44.8474 52.3601 45.0639 52.3601 45.2897C52.3601 45.5155 52.4499 45.732 52.6098 45.8917C52.7697 46.0513 52.9866 46.141 53.2127 46.141H66.3557C66.5818 46.141 66.7986 46.0513 66.9585 45.8917C67.1184 45.732 67.2083 45.5155 67.2083 45.2897C67.2083 45.0639 67.1184 44.8474 66.9585 44.6877C66.7986 44.528 66.5818 44.4384 66.3557 44.4384Z" fill="#E4E4E4"/>
<path d="M46.8672 60.0441H36.9393C36.4416 60.0447 35.9645 60.2424 35.6126 60.5938C35.2607 60.9452 35.0627 61.4216 35.0621 61.9186V70.5051C35.0627 71.0021 35.2607 71.4785 35.6126 71.8299C35.9645 72.1814 36.4416 72.379 36.9393 72.3797H46.8672C47.3649 72.379 47.842 72.1814 48.1939 71.8299C48.5458 71.4785 48.7438 71.0021 48.7444 70.5051V61.9186C48.7438 61.4216 48.5458 60.9452 48.1939 60.5938C47.842 60.2424 47.3649 60.0447 46.8672 60.0441Z" fill="#F59E0B"/>
<path d="M87.8154 63.3645H53.2127C52.9866 63.3645 52.7697 63.4542 52.6098 63.6139C52.4499 63.7735 52.3601 63.99 52.3601 64.2158C52.3601 64.4416 52.4499 64.6582 52.6098 64.8178C52.7697 64.9775 52.9866 65.0671 53.2127 65.0671H87.8154C88.0416 65.0671 88.2584 64.9775 88.4183 64.8178C88.5782 64.6582 88.668 64.4416 88.668 64.2158C88.668 63.99 88.5782 63.7735 88.4183 63.6139C88.2584 63.4542 88.0416 63.3645 87.8154 63.3645Z" fill="#E4E4E4"/>
<path d="M66.3557 67.3542H53.2127C52.9866 67.3542 52.7697 67.4439 52.6098 67.6036C52.4499 67.7632 52.3601 67.9798 52.3601 68.2056C52.3601 68.4314 52.4499 68.6479 52.6098 68.8076C52.7697 68.9672 52.9866 69.0569 53.2127 69.0569H66.3557C66.5818 69.0569 66.7986 68.9672 66.9585 68.8076C67.1184 68.6479 67.2083 68.4314 67.2083 68.2056C67.2083 67.9798 67.1184 67.7632 66.9585 67.6036C66.7986 67.4439 66.5818 67.3542 66.3557 67.3542Z" fill="#E4E4E4"/>
<path d="M119.426 99.7709H62.5928C62.3308 99.7709 62.1177 95.7493 62.1177 90.8055V38.0683C62.1177 33.1245 62.3308 29.1029 62.5928 29.1029H119.426C119.688 29.1029 119.901 33.1245 119.901 38.0683V90.8055C119.901 95.7493 119.688 99.7709 119.426 99.7709Z" fill="white"/>
<path d="M119.426 100H62.593C62.3526 100 62.1788 100 62.028 97.1542C61.9379 95.455 61.8883 93.2003 61.8883 90.8054V38.0683C61.8883 35.6734 61.9379 33.4187 62.028 31.7196C62.1788 28.8737 62.3526 28.8737 62.593 28.8737H119.426C119.667 28.8737 119.841 28.8737 119.991 31.7196C120.082 33.4187 120.131 35.6734 120.131 38.0683V90.8054C120.131 93.2003 120.082 95.455 119.991 97.1542C119.841 100 119.667 100 119.426 100ZM62.72 99.5417H119.299C119.464 98.948 119.672 95.7849 119.672 90.8054V38.0683C119.672 33.0888 119.464 29.9257 119.299 29.332H62.72C62.5553 29.9257 62.3473 33.0888 62.3473 38.0683V90.8054C62.3473 95.7849 62.5553 98.948 62.72 99.5417Z" fill="#E4E4E4"/>
<path d="M119.426 32.8429H62.5928C62.4669 32.8427 62.3461 32.7927 62.257 32.7037C62.1679 32.6148 62.1178 32.4942 62.1177 32.3684V29.5774C62.1178 29.4516 62.1679 29.331 62.257 29.242C62.3461 29.1531 62.4669 29.103 62.5928 29.1029H119.426C119.552 29.103 119.673 29.1531 119.762 29.242C119.851 29.331 119.901 29.4516 119.901 29.5774V32.3684C119.901 32.4942 119.851 32.6148 119.762 32.7037C119.673 32.7927 119.552 32.8427 119.426 32.8429Z" fill="#CACACA"/>
<path d="M64.8753 31.5104C65.2479 31.5104 65.5499 31.2088 65.5499 30.8367C65.5499 30.4647 65.2479 30.1631 64.8753 30.1631C64.5027 30.1631 64.2007 30.4647 64.2007 30.8367C64.2007 31.2088 64.5027 31.5104 64.8753 31.5104Z" fill="white"/>
<path d="M67.4358 31.5104C67.8084 31.5104 68.1105 31.2088 68.1105 30.8367C68.1105 30.4647 67.8084 30.1631 67.4358 30.1631C67.0633 30.1631 66.7612 30.4647 66.7612 30.8367C66.7612 31.2088 67.0633 31.5104 67.4358 31.5104Z" fill="white"/>
<path d="M69.9969 31.5104C70.3695 31.5104 70.6715 31.2088 70.6715 30.8367C70.6715 30.4647 70.3695 30.1631 69.9969 30.1631C69.6243 30.1631 69.3223 30.4647 69.3223 30.8367C69.3223 31.2088 69.6243 31.5104 69.9969 31.5104Z" fill="white"/>
<path d="M116.917 30.3731H113.969C113.911 30.3731 113.855 30.3501 113.814 30.3092C113.773 30.2683 113.75 30.2128 113.75 30.155C113.75 30.0971 113.773 30.0417 113.814 30.0008C113.855 29.9599 113.911 29.9369 113.969 29.9369H116.917C116.975 29.9371 117.031 29.9601 117.071 30.001C117.112 30.0419 117.135 30.0973 117.135 30.155C117.135 30.2127 117.112 30.2681 117.071 30.309C117.031 30.3498 116.975 30.3729 116.917 30.3731Z" fill="white"/>
<path d="M116.917 31.191H113.969C113.911 31.191 113.855 31.168 113.814 31.1271C113.773 31.0862 113.75 31.0307 113.75 30.9729C113.75 30.915 113.773 30.8595 113.814 30.8186C113.855 30.7777 113.911 30.7548 113.969 30.7548H116.917C116.975 30.7548 117.031 30.7777 117.072 30.8186C117.113 30.8595 117.136 30.915 117.136 30.9729C117.136 31.0307 117.113 31.0862 117.072 31.1271C117.031 31.168 116.975 31.191 116.917 31.191Z" fill="white"/>
<path d="M116.917 32.0088H113.969C113.911 32.0088 113.855 31.9859 113.814 31.945C113.773 31.904 113.75 31.8486 113.75 31.7907C113.75 31.7329 113.773 31.6774 113.814 31.6365C113.855 31.5956 113.911 31.5726 113.969 31.5726H116.917C116.975 31.5728 117.031 31.5959 117.071 31.6368C117.112 31.6776 117.135 31.733 117.135 31.7907C117.135 31.8485 117.112 31.9038 117.071 31.9447C117.031 31.9856 116.975 32.0086 116.917 32.0088Z" fill="white"/>
<path d="M80.0572 50.1665H72.8068C72.4433 50.166 72.0948 50.0217 71.8377 49.765C71.5807 49.5083 71.4361 49.1603 71.4357 48.7973V42.5268C71.4361 42.1638 71.5807 41.8159 71.8377 41.5592C72.0948 41.3025 72.4433 41.1581 72.8068 41.1577H80.0572C80.4207 41.1581 80.7692 41.3025 81.0262 41.5592C81.2833 41.8159 81.4279 42.1638 81.4283 42.5268V48.7973C81.4279 49.1603 81.2833 49.5083 81.0262 49.765C80.7692 50.0217 80.4207 50.166 80.0572 50.1665Z" fill="#F59E0B"/>
<path d="M109.961 44.827H84.6916C84.5265 44.827 84.3681 44.7615 84.2514 44.645C84.1347 44.5284 84.0691 44.3703 84.0691 44.2054C84.0691 44.0406 84.1347 43.8825 84.2514 43.7659C84.3681 43.6494 84.5265 43.5839 84.6916 43.5839H109.961C110.126 43.5839 110.284 43.6494 110.401 43.7659C110.518 43.8825 110.584 44.0406 110.584 44.2054C110.584 44.3703 110.518 44.5284 110.401 44.645C110.284 44.7615 110.126 44.827 109.961 44.827Z" fill="#E4E4E4"/>
<path d="M94.2893 47.7405H84.6916C84.5265 47.7405 84.3681 47.675 84.2514 47.5584C84.1347 47.4419 84.0691 47.2838 84.0691 47.1189C84.0691 46.954 84.1347 46.7959 84.2514 46.6794C84.3681 46.5628 84.5265 46.4973 84.6916 46.4973H94.2893C94.3712 46.4972 94.4522 46.5131 94.5279 46.5443C94.6036 46.5755 94.6723 46.6212 94.7303 46.679C94.7882 46.7367 94.8342 46.8053 94.8655 46.8808C94.8969 46.9562 94.913 47.0372 94.913 47.1189C94.913 47.2006 94.8969 47.2816 94.8655 47.357C94.8342 47.4325 94.7882 47.5011 94.7303 47.5589C94.6723 47.6166 94.6036 47.6623 94.5279 47.6935C94.4522 47.7247 94.3712 47.7406 94.2893 47.7405Z" fill="#E4E4E4"/>
<path d="M80.0572 68.7283H72.8068C72.4433 68.7279 72.0948 68.5835 71.8377 68.3269C71.5807 68.0702 71.4361 67.7222 71.4357 67.3592V61.0887C71.4361 60.7257 71.5807 60.3777 71.8377 60.1211C72.0948 59.8644 72.4433 59.72 72.8068 59.7196H80.0572C80.4207 59.72 80.7692 59.8644 81.0262 60.1211C81.2833 60.3777 81.4279 60.7257 81.4283 61.0887V67.3592C81.4279 67.7222 81.2833 68.0702 81.0262 68.3269C80.7692 68.5836 80.4207 68.7279 80.0572 68.7283Z" fill="#F59E0B"/>
<path d="M109.961 63.3888H84.6916C84.5265 63.3888 84.3681 63.3233 84.2514 63.2067C84.1347 63.0902 84.0691 62.9321 84.0691 62.7672C84.0691 62.6024 84.1347 62.4443 84.2514 62.3277C84.3681 62.2111 84.5265 62.1456 84.6916 62.1456H109.961C110.126 62.1456 110.284 62.2111 110.401 62.3277C110.518 62.4443 110.584 62.6024 110.584 62.7672C110.584 62.9321 110.518 63.0902 110.401 63.2067C110.284 63.3233 110.126 63.3888 109.961 63.3888Z" fill="#E4E4E4"/>
<path d="M94.2893 66.3024H84.6916C84.5265 66.3024 84.3681 66.2369 84.2514 66.1203C84.1347 66.0037 84.0691 65.8456 84.0691 65.6808C84.0691 65.5159 84.1347 65.3578 84.2514 65.2413C84.3681 65.1247 84.5265 65.0592 84.6916 65.0592H94.2893C94.3712 65.059 94.4522 65.075 94.5279 65.1062C94.6036 65.1373 94.6723 65.1831 94.7303 65.2408C94.7882 65.2986 94.8342 65.3671 94.8655 65.4426C94.8969 65.5181 94.913 65.5991 94.913 65.6808C94.913 65.7625 94.8969 65.8434 94.8655 65.9189C94.8342 65.9944 94.7882 66.063 94.7303 66.1207C94.6723 66.1785 94.6036 66.2242 94.5279 66.2554C94.4522 66.2866 94.3712 66.3025 94.2893 66.3024Z" fill="#E4E4E4"/>
<path d="M80.0572 87.2901H72.8068C72.4433 87.2897 72.0948 87.1453 71.8377 86.8886C71.5807 86.632 71.4361 86.284 71.4357 85.921V79.6505C71.4361 79.2875 71.5807 78.9395 71.8377 78.6828C72.0948 78.4262 72.4433 78.2818 72.8068 78.2814H80.0572C80.4207 78.2818 80.7692 78.4262 81.0262 78.6828C81.2833 78.9395 81.4279 79.2875 81.4283 79.6505V85.921C81.4279 86.284 81.2833 86.632 81.0262 86.8886C80.7692 87.1453 80.4207 87.2897 80.0572 87.2901Z" fill="#F59E0B"/>
<path d="M109.961 81.9507H84.6916C84.5265 81.9507 84.3681 81.8852 84.2514 81.7686C84.1347 81.6521 84.0691 81.494 84.0691 81.3291C84.0691 81.1642 84.1347 81.0062 84.2514 80.8896C84.3681 80.773 84.5265 80.7075 84.6916 80.7075H109.961C110.126 80.7075 110.284 80.773 110.401 80.8896C110.518 81.0062 110.584 81.1642 110.584 81.3291C110.584 81.494 110.518 81.6521 110.401 81.7686C110.284 81.8852 110.126 81.9507 109.961 81.9507Z" fill="#E4E4E4"/>
<path d="M94.2893 84.8641H84.6916C84.5265 84.8641 84.3681 84.7986 84.2514 84.6821C84.1347 84.5655 84.0691 84.4074 84.0691 84.2426C84.0691 84.0777 84.1347 83.9196 84.2514 83.803C84.3681 83.6865 84.5265 83.621 84.6916 83.621H94.2893C94.3712 83.6208 94.4522 83.6368 94.5279 83.6679C94.6036 83.6991 94.6723 83.7449 94.7303 83.8026C94.7882 83.8603 94.8342 83.9289 94.8655 84.0044C94.8969 84.0799 94.913 84.1608 94.913 84.2426C94.913 84.3243 94.8969 84.4052 94.8655 84.4807C94.8342 84.5562 94.7882 84.6248 94.7303 84.6825C94.6723 84.7402 94.6036 84.786 94.5279 84.8172C94.4522 84.8483 94.3712 84.8643 94.2893 84.8641Z" fill="#E4E4E4"/>
</svg>
