<svg width="155" height="100" viewBox="0 0 155 100" fill="none" xmlns="http://www.w3.org/2000/svg">
<path d="M150.451 61.0736H145.032C144.916 61.0738 144.802 61.0479 144.698 60.9977C144.594 60.9476 144.502 60.8745 144.43 60.784C144.359 60.6957 144.309 60.5926 144.283 60.4822C144.258 60.3719 144.258 60.2572 144.283 60.1468C144.792 57.904 144.767 55.5734 144.211 53.3417C144.168 53.171 144.186 52.9907 144.261 52.8316C144.337 52.6724 144.465 52.5442 144.624 52.4689C146.888 51.4112 148.966 51.4388 150.802 52.5506C150.898 52.6081 150.98 52.6859 151.043 52.7784C151.106 52.871 151.149 52.9762 151.167 53.0867C151.556 55.5129 151.571 57.9843 151.211 60.415C151.185 60.598 151.094 60.7655 150.955 60.8866C150.815 61.0077 150.636 61.0741 150.451 61.0736Z" fill="#38BDF8"/>
<path d="M150.369 57.5292H146.225C146.123 57.529 146.024 57.4881 145.951 57.4153C145.878 57.3426 145.838 57.244 145.838 57.1412C145.838 57.0384 145.878 56.9399 145.951 56.8671C146.024 56.7944 146.123 56.7534 146.225 56.7532H150.369C150.472 56.7534 150.57 56.7944 150.643 56.8671C150.716 56.9399 150.757 57.0384 150.757 57.1412C150.757 57.244 150.716 57.3426 150.643 57.4153C150.57 57.4881 150.472 57.529 150.369 57.5292Z" fill="white"/>
<path d="M150.369 56.1684H146.225C146.123 56.1682 146.024 56.1272 145.951 56.0545C145.878 55.9817 145.838 55.8831 145.838 55.7804C145.838 55.6776 145.878 55.579 145.951 55.5063C146.024 55.4335 146.123 55.3925 146.225 55.3923H150.369C150.472 55.3925 150.57 55.4335 150.643 55.5063C150.716 55.579 150.757 55.6776 150.757 55.7804C150.757 55.8831 150.716 55.9817 150.643 56.0545C150.57 56.1272 150.472 56.1682 150.369 56.1684Z" fill="white"/>
<path d="M41.9385 60.5312C57.841 60.5312 70.7325 47.6601 70.7325 31.7829C70.7325 15.9056 57.841 3.03455 41.9385 3.03455C26.036 3.03455 13.1445 15.9056 13.1445 31.7829C13.1445 47.6601 26.036 60.5312 41.9385 60.5312Z" fill="#F2F2F2"/>
<path d="M75.3327 59.6809C78.3438 59.6809 80.7848 57.2438 80.7848 54.2374C80.7848 51.2311 78.3438 48.7939 75.3327 48.7939C72.3216 48.7939 69.8806 51.2311 69.8806 54.2374C69.8806 57.2438 72.3216 59.6809 75.3327 59.6809Z" fill="#F2F2F2"/>
<path d="M102.764 71.9286C103.987 71.9286 104.978 70.9385 104.978 69.7171C104.978 68.4958 103.987 67.5057 102.764 67.5057C101.54 67.5057 100.549 68.4958 100.549 69.7171C100.549 70.9385 101.54 71.9286 102.764 71.9286Z" fill="#F2F2F2"/>
<path d="M119.865 78.4148C118.931 71.2886 114.459 64.2899 107.632 62.0126C110.366 69.3361 110.417 77.389 107.776 84.7465C106.747 87.5803 105.308 90.6252 106.311 93.4682C106.935 95.2372 108.442 96.584 110.123 97.4214C111.804 98.2589 113.666 98.6512 115.504 99.0356L115.867 99.3317C118.74 92.7418 120.799 85.541 119.865 78.4148Z" fill="#F2F2F2"/>
<path d="M107.565 62.1479C111.561 66.5607 114.062 72.1183 114.714 78.0313C114.846 79.299 114.87 80.5964 114.6 81.8484C114.328 83.0668 113.734 84.1902 112.879 85.1018C112.1 85.9678 111.202 86.7634 110.647 87.8035C110.063 88.8997 110.048 90.1412 110.46 91.299C110.965 92.7156 111.95 93.8667 112.952 94.9589C114.065 96.1715 115.24 97.4135 115.72 99.0276C115.778 99.2231 116.078 99.1216 116.02 98.9263C115.185 96.1182 112.439 94.5376 111.119 92.0119C110.502 90.8334 110.238 89.4624 110.801 88.2106C111.293 87.1159 112.218 86.2946 113.014 85.4246C113.851 84.5111 114.49 83.5105 114.815 82.3061C115.148 81.074 115.175 79.7729 115.076 78.5075C114.831 75.6396 114.135 72.8281 113.014 70.176C111.752 67.1421 109.98 64.3461 107.774 61.909C107.637 61.7582 107.429 61.9981 107.565 62.1479Z" fill="white"/>
<path d="M114.617 76.115C115.595 75.8711 116.456 75.2878 117.043 74.4692C117.631 73.6506 117.908 72.65 117.825 71.6462C117.808 71.4432 117.491 71.4607 117.509 71.664C117.588 72.5986 117.329 73.5306 116.78 74.2918C116.231 75.053 115.428 75.5931 114.515 75.8148C114.317 75.8633 114.419 76.1631 114.617 76.115Z" fill="white"/>
<path d="M113.332 84.7146C111.555 83.6704 110.237 81.9957 109.642 80.0245C109.583 79.8291 109.282 79.9306 109.341 80.1257C109.965 82.1759 111.34 83.9158 113.191 84.9984C113.368 85.1015 113.508 84.8171 113.332 84.7146Z" fill="white"/>
<path d="M111.46 67.4442C111.101 67.6174 110.704 67.6988 110.306 67.6812C109.908 67.6635 109.52 67.5474 109.178 67.3432C109.002 67.2379 108.863 67.5224 109.037 67.627C109.416 67.8508 109.844 67.9786 110.284 67.9991C110.724 68.0195 111.163 67.9321 111.561 67.7444C111.6 67.7298 111.632 67.701 111.651 67.6637C111.669 67.6264 111.673 67.5835 111.661 67.5437C111.647 67.504 111.618 67.4713 111.581 67.4527C111.543 67.4341 111.5 67.431 111.46 67.4442Z" fill="white"/>
<path d="M86.9482 74.8839C87.0557 74.9527 87.1632 75.0215 87.2709 75.093C88.7117 76.0258 90.0741 77.0739 91.3449 78.2269C91.4445 78.3145 91.5442 78.4048 91.6412 78.4951C94.673 81.3056 97.1559 84.6538 98.9636 88.3693C99.6815 89.8485 100.286 91.38 100.771 92.9507C101.441 95.1199 101.995 97.5251 103.305 99.2945C103.439 99.4807 103.585 99.6583 103.742 99.8264L115.478 99.7514C115.504 99.7379 115.531 99.727 115.558 99.7135L116.026 99.7319C116.007 99.6491 115.985 99.5637 115.966 99.4809C115.955 99.4329 115.941 99.3849 115.93 99.3368C115.922 99.3048 115.913 99.2727 115.908 99.2434C115.905 99.2327 115.902 99.222 115.9 99.214C115.894 99.1847 115.886 99.158 115.88 99.1313C115.76 98.6535 115.635 98.1758 115.507 97.698C115.507 97.6954 115.507 97.6954 115.504 97.6927C114.52 94.0551 113.222 90.4677 111.421 87.1909C111.366 87.0923 111.312 86.9911 111.253 86.8926C110.432 85.42 109.493 84.0169 108.444 82.6972C107.867 81.9764 107.254 81.2853 106.607 80.6264C104.932 78.9271 103 77.5014 100.882 76.4015C96.6584 74.2096 91.7798 73.3906 87.2902 74.7748C87.1753 74.8102 87.063 74.8457 86.9482 74.8839Z" fill="#F2F2F2"/>
<path d="M86.9755 75.0321C92.8268 76.1536 98.1755 79.0874 102.262 83.4167C103.132 84.3495 103.933 85.3713 104.472 86.5331C104.99 87.6696 105.193 88.9237 105.06 90.165C104.96 91.3249 104.723 92.4998 104.908 93.6638C105.102 94.8907 105.838 95.8908 106.866 96.5672C108.124 97.3948 109.604 97.722 111.063 97.9917C112.682 98.2911 114.369 98.5765 115.726 99.5767C115.89 99.6979 116.069 99.4362 115.905 99.3152C113.545 97.575 110.399 97.9634 107.822 96.7408C106.619 96.1703 105.581 95.2344 105.275 93.8967C105.008 92.7269 105.251 91.5152 105.363 90.3416C105.48 89.1094 105.387 87.9261 104.92 86.769C104.443 85.5854 103.68 84.5301 102.838 83.5792C100.912 81.4371 98.6614 79.6105 96.1675 78.1665C93.3304 76.5027 90.2291 75.3358 86.9978 74.7161C86.7978 74.6778 86.7768 74.9941 86.9755 75.0321Z" fill="white"/>
<path d="M101.028 81.9454C101.663 81.1623 101.998 80.1795 101.973 79.1726C101.949 78.1657 101.567 77.2002 100.895 76.4485C100.759 76.2969 100.517 76.5013 100.653 76.6532C101.28 77.352 101.636 78.2514 101.656 79.1891C101.677 80.1268 101.361 81.041 100.766 81.7667C100.637 81.9246 100.9 82.1024 101.028 81.9454Z" fill="white"/>
<path d="M105.189 89.5837C103.14 89.8184 101.078 89.2734 99.4136 88.0575C99.2488 87.9369 99.07 88.1986 99.2346 88.319C100.969 89.5811 103.116 90.1439 105.247 89.895C105.451 89.8712 105.391 89.56 105.189 89.5837Z" fill="white"/>
<path d="M93.2789 76.9198C93.0967 77.2739 92.8292 77.5772 92.5006 77.8026C92.1719 78.0279 91.7923 78.1683 91.3958 78.2109C91.1925 78.2322 91.2525 78.5434 91.4545 78.5222C91.8923 78.473 92.3113 78.3176 92.675 78.0694C93.0387 77.8212 93.336 77.4879 93.5409 77.0985C93.5633 77.0634 93.5715 77.0211 93.5638 76.9802C93.5561 76.9394 93.533 76.9029 93.4994 76.8784C93.4646 76.8549 93.4219 76.8461 93.3806 76.8538C93.3394 76.8616 93.3028 76.8853 93.2789 76.9198Z" fill="white"/>
<path d="M143.236 50.5644L141.649 35.2268L141.23 28.9144L145.672 28.1124C145.672 28.1124 146.337 32.4519 146.919 34.9986C147.493 37.5115 146.154 50.2277 146.119 50.5631C146.445 50.8543 146.675 51.2376 146.778 51.6622C146.881 52.0868 146.853 52.5327 146.697 52.9409C146.541 53.3492 146.265 53.7005 145.904 53.9484C145.544 54.1963 145.117 54.3292 144.679 54.3294C144.241 54.3296 143.814 54.1972 143.453 53.9496C143.093 53.702 142.816 53.3509 142.66 52.9429C142.503 52.5348 142.474 52.0889 142.577 51.6642C142.68 51.2395 142.91 50.856 143.236 50.5644Z" fill="#FFB8B8"/>
<path d="M125.083 97.6578H122.823L121.748 88.9551L125.084 88.9552L125.083 97.6578Z" fill="#FFB6B6"/>
<path d="M125.659 99.845L118.373 99.8448V99.7528C118.373 99.0018 118.672 98.2816 119.204 97.7505C119.735 97.2195 120.457 96.9212 121.209 96.9211H121.209L122.54 95.913L125.023 96.9213L125.66 96.9213L125.659 99.845Z" fill="#2F2E41"/>
<path d="M145 97.6578H142.74L141.665 88.9551L145 88.9552L145 97.6578Z" fill="#FFB6B6"/>
<path d="M145.576 99.845L138.29 99.8448V99.7528C138.29 99.0018 138.589 98.2816 139.12 97.7505C139.652 97.2195 140.374 96.9212 141.126 96.9211H141.126L142.457 95.913L144.94 96.9213L145.576 96.9213L145.576 99.845Z" fill="#2F2E41"/>
<path d="M141.563 51.0803L143.464 69.1085C143.464 69.1085 145.994 87.1598 145.519 89.6506C145.044 92.1413 145.638 92.4971 145.638 92.4971L141.302 92.1888C141.302 92.1888 141.421 90.6469 140.708 89.9353C139.995 89.2237 140.352 87.0888 140.352 87.0888L131.941 57.7222L126.832 73.1411C126.832 73.1411 126.001 90.1018 125.882 90.339C125.763 90.5762 125.407 93.7786 125.407 93.7786H121.012C121.012 93.7786 121.605 91.8809 120.774 91.2879C119.942 90.6949 119.23 91.1693 119.942 90.1018C120.655 89.0344 120.893 87.7297 120.655 87.1367C120.418 86.5436 120.418 84.1715 120.418 84.1715C120.418 84.1715 120.774 52.1477 122.793 51.0803C124.813 50.0128 141.563 51.0803 141.563 51.0803Z" fill="#2F2E41"/>
<path d="M132.562 14.5779C135.143 14.5779 137.236 12.4882 137.236 9.91035C137.236 7.33253 135.143 5.2428 132.562 5.2428C129.98 5.2428 127.887 7.33253 127.887 9.91035C127.887 12.4882 129.98 14.5779 132.562 14.5779Z" fill="#FFB8B8"/>
<path d="M146.421 30.5594L141.823 32.2058L140.423 32.7068L139.401 19.6719L142.908 21.5294C142.914 21.5337 142.92 21.5389 142.924 21.5448C143.531 22.2147 144.04 22.9679 144.434 23.7815C146.358 27.6861 146.421 30.5594 146.421 30.5594Z" fill="#3F3D56"/>
<path d="M114.747 49.4635C114.747 49.4635 119.42 34.9671 119.502 34.7932C120.114 30.1526 121.874 28.1056 122.138 28.3278L126.682 29.8994C126.682 29.8994 125.33 34.1723 124.415 36.7104C123.541 39.1356 117.553 50.3327 117.384 50.6251C117.565 51.0232 117.62 51.4665 117.543 51.8966C117.466 52.3267 117.259 52.7232 116.951 53.0336C116.644 53.3441 116.248 53.554 115.818 53.6354C115.389 53.7168 114.944 53.666 114.544 53.4896C114.143 53.3133 113.806 53.0197 113.576 52.6478C113.346 52.2759 113.235 51.8431 113.257 51.4067C113.279 50.9703 113.434 50.5509 113.7 50.2039C113.965 49.8569 114.331 49.5987 114.747 49.4635Z" fill="#FFB8B8"/>
<path d="M128.864 20.5114C128.864 20.5114 124.93 18.5864 123.405 22.3671C122.405 24.9167 121.932 26.0289 121.265 28.6845C121.265 28.6845 125.275 29.2851 126.561 31.5475L128.864 20.5114Z" fill="#3F3D56"/>
<path d="M143.179 53.0452C134.125 54.912 122.127 51.7026 122.127 51.7026L125.328 37.8507L124.19 23.3545C124.051 21.5818 125.062 19.9201 126.635 19.3312L128.808 18.5189L130.603 15.9523L135.732 16.1203L137.783 18.8148L139.401 19.6719L142.908 21.5294L142.924 21.5371V21.5448L141.823 32.2058L141.159 38.6338C141.159 38.6338 143.176 45.8634 142.762 46.8222C142.348 47.7795 142.708 47.317 142.808 47.8288C142.908 48.3406 143.216 48.373 143.262 49.3811C143.31 50.3877 143.179 53.0452 143.179 53.0452Z" fill="#3F3D56"/>
<path d="M137.633 8.24819C137.264 7.88431 137.82 6.92095 137.715 6.41353C137.594 5.83176 136.952 5.81473 136.799 5.24068C136.634 4.62314 135.975 4.28696 135.366 4.09124C133.804 3.59225 132.137 3.51604 130.536 3.87039C129.828 4.04313 129.13 4.25772 128.447 4.51301C127.975 4.67871 128.43 4.2278 127.958 4.3935C127.78 4.43323 127.622 4.53757 127.516 4.68641C127.431 4.84645 127.546 5.1024 127.724 5.06997C127.148 5.32346 126.573 5.57694 125.997 5.83043C126.32 6.16812 126.643 6.50582 126.966 6.84354C126.507 6.7131 126.017 7.25951 126.198 7.70039C126.271 7.83957 126.377 7.959 126.506 8.04837C126.635 8.13774 126.784 8.19439 126.94 8.21342C127.459 8.31417 127.066 8.80691 127.594 8.79731C128.122 8.78772 131.806 7.70666 132.062 8.16762C132.245 8.49586 132.225 8.93065 132.486 9.20109C132.82 9.54708 133.404 9.42055 133.829 9.19529C134.254 8.97005 134.685 8.66047 135.163 8.71448C135.663 8.77086 136.04 9.69214 136.163 10.1786C136.286 10.6651 136.209 11.177 136.13 11.6726C136.028 12.3235 134.998 12.9744 134.896 13.6252C136.038 13.9406 137.263 12.9372 137.715 11.1922C137.67 10.0891 138.42 9.02359 137.633 8.24819Z" fill="#2F2E41"/>
<path d="M64.9565 68.8673C51.1943 68.8679 39.2203 58.6179 37.4514 44.6374L37.7895 44.5947C39.5365 58.4026 51.3647 68.5262 64.9567 68.527C66.1115 68.527 67.2652 68.4543 68.4109 68.3094C83.4018 66.4186 94.057 52.7038 92.1632 37.7367L92.5013 37.694C94.4187 52.8472 83.6309 66.7327 68.4536 68.647C67.2937 68.7935 66.1257 68.8671 64.9565 68.8673Z" fill="#3F3D56"/>
<path d="M65.6954 74.5572H60.2767C60.1609 74.5574 60.0466 74.5315 59.9423 74.4813C59.838 74.4311 59.7464 74.3581 59.6745 74.2675C59.6034 74.1793 59.5532 74.0761 59.5277 73.9658C59.5023 73.8554 59.5022 73.7408 59.5275 73.6304C60.0416 71.3646 60.0113 69.0096 59.4389 66.7578C59.3998 66.6023 59.4109 66.4384 59.4706 66.2896C59.5303 66.1407 59.6355 66.0144 59.7713 65.9288C61.6459 64.7694 63.6871 64.8056 66.0119 66.0397C66.1176 66.0952 66.209 66.1744 66.279 66.2711C66.349 66.3677 66.3957 66.4792 66.4154 66.5968C66.8004 69.0145 66.8139 71.4768 66.4553 73.8986C66.4298 74.0815 66.3388 74.2491 66.1991 74.3701C66.0593 74.4912 65.8804 74.5577 65.6954 74.5572Z" fill="#38BDF8"/>
<path d="M40.9906 45.6386H35.5719C35.4561 45.6389 35.3418 45.613 35.2375 45.5628C35.1332 45.5126 35.0417 45.4395 34.9697 45.349C34.8986 45.2608 34.8484 45.1576 34.823 45.0473C34.7975 44.9369 34.7974 44.8222 34.8227 44.7118C35.3388 42.4383 35.3063 40.0749 34.7281 37.8163C34.6915 37.6676 34.7004 37.5114 34.7535 37.3677C34.8066 37.2241 34.9016 37.0996 35.0262 37.0103C37.8125 35.0095 40.0068 35.0676 41.5482 37.1831C41.6176 37.2796 41.6638 37.3908 41.683 37.508C42.0949 39.98 42.1176 42.501 41.7506 44.98C41.725 45.163 41.634 45.3305 41.4943 45.4516C41.3546 45.5727 41.1756 45.6392 40.9906 45.6386Z" fill="#CCCCCC"/>
<path d="M63.1636 69.4797H61.2996C61.1966 69.4795 61.098 69.4385 61.0253 69.3657C60.9526 69.293 60.9117 69.1944 60.9117 69.0916C60.9117 68.9889 60.9526 68.8903 61.0253 68.8176C61.098 68.7448 61.1966 68.7038 61.2996 68.7036H63.1636C63.2667 68.7036 63.3655 68.7445 63.4384 68.8173C63.5113 68.89 63.5523 68.9887 63.5523 69.0916C63.5523 69.1946 63.5113 69.2933 63.4384 69.366C63.3655 69.4388 63.2667 69.4797 63.1636 69.4797Z" fill="white"/>
<path d="M65.4428 71.0129H61.2996C61.1966 71.0127 61.098 70.9717 61.0253 70.8989C60.9526 70.8262 60.9117 70.7276 60.9117 70.6248C60.9117 70.5221 60.9526 70.4235 61.0253 70.3508C61.098 70.278 61.1966 70.237 61.2996 70.2368H65.4428C65.5457 70.237 65.6444 70.278 65.7171 70.3508C65.7898 70.4235 65.8306 70.5221 65.8306 70.6248C65.8306 70.7276 65.7898 70.8262 65.7171 70.8989C65.6444 70.9717 65.5457 71.0127 65.4428 71.0129Z" fill="white"/>
<path d="M39.3106 40.221H37.4466C37.3436 40.2208 37.245 40.1798 37.1723 40.1071C37.0996 40.0343 37.0587 39.9358 37.0587 39.833C37.0587 39.7302 37.0996 39.6316 37.1723 39.5589C37.245 39.4861 37.3436 39.4452 37.4466 39.4449H39.3106C39.4135 39.4452 39.5122 39.4861 39.5849 39.5589C39.6576 39.6316 39.6984 39.7302 39.6984 39.833C39.6984 39.9358 39.6576 40.0343 39.5849 40.1071C39.5122 40.1798 39.4135 40.2208 39.3106 40.221Z" fill="white"/>
<path d="M39.3106 41.5819H37.4466C37.3436 41.5816 37.245 41.5407 37.1723 41.4679C37.0996 41.3952 37.0587 41.2966 37.0587 41.1938C37.0587 41.091 37.0996 40.9925 37.1723 40.9197C37.245 40.847 37.3436 40.806 37.4466 40.8058H39.3106C39.4135 40.806 39.5122 40.847 39.5849 40.9197C39.6576 40.9925 39.6984 41.091 39.6984 41.1938C39.6984 41.2966 39.6576 41.3952 39.5849 41.4679C39.5122 41.5407 39.4135 41.5816 39.3106 41.5819Z" fill="white"/>
<path d="M39.3106 42.9427H37.4466C37.3436 42.9425 37.245 42.9015 37.1723 42.8288C37.0996 42.756 37.0587 42.6574 37.0587 42.5547C37.0587 42.4519 37.0996 42.3533 37.1723 42.2806C37.245 42.2078 37.3436 42.1668 37.4466 42.1666H39.3106C39.4135 42.1668 39.5122 42.2078 39.5849 42.2806C39.6576 42.3533 39.6984 42.4519 39.6984 42.5547C39.6984 42.6574 39.6576 42.756 39.5849 42.8288C39.5122 42.9015 39.4135 42.9425 39.3106 42.9427Z" fill="white"/>
<path d="M113.92 52.0303H96.5982C96.134 52.0298 95.689 51.8454 95.3607 51.5177C95.0325 51.19 94.8478 50.7456 94.8473 50.2821V39.6306C94.8478 39.1671 95.0325 38.7228 95.3607 38.3951C95.689 38.0673 96.134 37.883 96.5982 37.8824H113.92C114.384 37.883 114.829 38.0673 115.157 38.3951C115.486 38.7228 115.67 39.1671 115.671 39.6306V50.2821C115.67 50.7456 115.486 51.19 115.157 51.5177C114.829 51.8454 114.384 52.0298 113.92 52.0303Z" fill="#E6E6E6"/>
<path d="M107.038 50.6583H97.8157C97.381 50.6578 96.9642 50.4852 96.6567 50.1782C96.3493 49.8713 96.1763 49.4552 96.1758 49.0211V40.8916C96.1763 40.4575 96.3493 40.0414 96.6567 39.7344C96.9642 39.4275 97.381 39.2549 97.8157 39.2544H112.702C113.137 39.2549 113.554 39.4275 113.861 39.7345C114.169 40.0414 114.341 40.4575 114.342 40.8916V43.3656C114.34 45.2991 113.569 47.1527 112.2 48.5199C110.831 49.8871 108.974 50.6561 107.038 50.6583Z" fill="white"/>
<path d="M111.217 43.7058H99.3007C99.1977 43.7058 99.0988 43.665 99.0259 43.5922C98.9531 43.5194 98.9121 43.4207 98.9121 43.3178C98.9121 43.2149 98.9531 43.1162 99.0259 43.0435C99.0988 42.9707 99.1977 42.9298 99.3007 42.9298H111.217C111.32 42.9298 111.419 42.9707 111.492 43.0435C111.565 43.1162 111.606 43.2149 111.606 43.3178C111.606 43.4207 111.565 43.5194 111.492 43.5922C111.419 43.665 111.32 43.7058 111.217 43.7058Z" fill="#38BDF8"/>
<path d="M101.165 45.2391H99.3007C99.1978 45.2389 99.0992 45.1979 99.0265 45.1251C98.9537 45.0524 98.9129 44.9538 98.9129 44.851C98.9129 44.7483 98.9537 44.6497 99.0265 44.577C99.0992 44.5042 99.1978 44.4632 99.3007 44.463H101.165C101.268 44.4632 101.366 44.5042 101.439 44.577C101.512 44.6497 101.553 44.7483 101.553 44.851C101.553 44.9538 101.512 45.0524 101.439 45.1251C101.366 45.1979 101.268 45.2389 101.165 45.2391Z" fill="#38BDF8"/>
<path d="M104.466 46.7724H99.3008C99.1977 46.7724 99.0988 46.7315 99.0259 46.6588C98.9531 46.586 98.9121 46.4873 98.9121 46.3844C98.9121 46.2815 98.9531 46.1828 99.0259 46.11C99.0988 46.0372 99.1977 45.9963 99.3008 45.9963H104.466C104.569 45.9963 104.668 46.0372 104.741 46.11C104.814 46.1828 104.855 46.2815 104.855 46.3844C104.855 46.4873 104.814 46.586 104.741 46.6588C104.668 46.7315 104.569 46.7724 104.466 46.7724Z" fill="#38BDF8"/>
<path d="M94.2427 41.3286C96.2664 41.3286 97.9069 39.6907 97.9069 37.6702C97.9069 35.6498 96.2664 34.0118 94.2427 34.0118C92.219 34.0118 90.5785 35.6498 90.5785 37.6702C90.5785 39.6907 92.219 41.3286 94.2427 41.3286Z" fill="#3F3D56"/>
<path d="M52.764 9.84084C53.0065 8.61157 53.4892 7.44203 54.1845 6.39901C54.8798 5.35599 55.774 4.4599 56.8162 3.76193C58.9208 2.35229 61.5002 1.83515 63.9868 2.32426C65.218 2.56644 66.3894 3.04838 67.4341 3.74255C68.4787 4.43672 69.3762 5.32953 70.0753 6.37C70.7744 7.41048 71.2614 8.57825 71.5085 9.80663C71.7555 11.035 71.7578 12.2999 71.5153 13.5292L71.1808 13.4635C71.6533 11.0694 71.1538 8.58601 69.7923 6.55962C68.4308 4.53323 66.3188 3.12983 63.9209 2.65816C61.523 2.18649 59.0357 2.68518 57.0061 4.04452C54.9765 5.40386 53.5708 7.51251 53.0984 9.90659L52.764 9.84084Z" fill="#3F3D56"/>
<path d="M56.3928 15.8598L50.9787 16.0837C50.8631 16.0887 50.7478 16.0675 50.6415 16.0217C50.5352 15.9759 50.4407 15.9066 50.365 15.8191C50.2903 15.7339 50.2359 15.6329 50.2059 15.5237C50.1759 15.4145 50.1711 15.3 50.1917 15.1886C50.6072 12.9267 50.4861 10.5991 49.8382 8.39231C49.7882 8.22354 49.7983 8.04268 49.8669 7.88055C49.9355 7.71842 50.0583 7.58506 50.2144 7.50321C52.4319 6.3529 54.5098 6.29458 56.3899 7.32964C56.4884 7.38309 56.5741 7.45735 56.6409 7.54725C56.7078 7.63715 56.7542 7.74053 56.7769 7.85017C57.2663 10.2582 57.3836 12.7269 57.1248 15.1703C57.1069 15.3542 57.0229 15.5254 56.8883 15.6521C56.7537 15.7789 56.5777 15.8526 56.3928 15.8598Z" fill="#38BDF8"/>
<path d="M56.1635 12.3221L52.0239 12.4933C51.9729 12.4955 51.9219 12.4876 51.874 12.47C51.826 12.4525 51.782 12.4257 51.7444 12.3912C51.7068 12.3567 51.6764 12.3152 51.6549 12.2689C51.6334 12.2226 51.6213 12.1726 51.6192 12.1217C51.6171 12.0707 51.625 12.0199 51.6426 11.972C51.6602 11.9241 51.687 11.8802 51.7216 11.8427C51.7562 11.8052 51.7979 11.7749 51.8443 11.7535C51.8906 11.7321 51.9407 11.72 51.9917 11.7179L56.1314 11.5467C56.1824 11.5446 56.2333 11.5526 56.2812 11.5701C56.3291 11.5876 56.3731 11.6144 56.4107 11.6489C56.4482 11.6834 56.4786 11.725 56.5001 11.7712C56.5215 11.8175 56.5337 11.8675 56.5358 11.9184C56.5379 11.9693 56.5299 12.0201 56.5124 12.068C56.4948 12.1158 56.468 12.1597 56.4334 12.1972C56.3989 12.2347 56.3572 12.265 56.3109 12.2865C56.2646 12.3079 56.2145 12.32 56.1635 12.3221Z" fill="white"/>
<path d="M56.1072 10.9623L51.9676 11.1334C51.8646 11.1377 51.7641 11.1009 51.6883 11.0312C51.6125 10.9615 51.5675 10.8646 51.5632 10.7618C51.5589 10.659 51.5958 10.5587 51.6656 10.483C51.7354 10.4072 51.8324 10.3623 51.9354 10.358L56.0751 10.1869C56.1781 10.1826 56.2785 10.2194 56.3544 10.2891C56.4302 10.3588 56.4752 10.4557 56.4795 10.5585C56.4837 10.6613 56.4469 10.7616 56.3771 10.8374C56.3073 10.9131 56.2102 10.958 56.1072 10.9623Z" fill="white"/>
<path d="M91.8242 14.1479H74.5026C74.0384 14.1473 73.5934 13.963 73.2651 13.6353C72.9369 13.3075 72.7522 12.8632 72.7517 12.3997V1.74817C72.7522 1.28469 72.9369 0.840338 73.2651 0.512607C73.5934 0.184875 74.0384 0.000525426 74.5026 0H91.8242C92.2884 0.000523623 92.7335 0.184873 93.0617 0.512604C93.39 0.840335 93.5746 1.28468 93.5752 1.74817V12.3997C93.5746 12.8632 93.39 13.3075 93.0617 13.6353C92.7335 13.963 92.2884 14.1473 91.8242 14.1479Z" fill="#E6E6E6"/>
<path d="M84.9421 12.776H75.7202C75.2855 12.7755 74.8686 12.6028 74.5612 12.2959C74.2538 11.989 74.0808 11.5728 74.0803 11.1388V3.00928C74.0808 2.5752 74.2538 2.15905 74.5612 1.85212C74.8686 1.54519 75.2855 1.37255 75.7202 1.37207H90.6066C91.0414 1.37255 91.4582 1.5452 91.7656 1.85213C92.0731 2.15906 92.246 2.57521 92.2465 3.00928V5.48324C92.2443 7.41674 91.474 9.27041 90.1046 10.6376C88.7353 12.0048 86.8786 12.7738 84.9421 12.776Z" fill="white"/>
<path d="M89.1217 5.82352H77.2053C77.1022 5.82352 77.0034 5.78264 76.9305 5.70987C76.8576 5.63711 76.8167 5.53841 76.8167 5.4355C76.8167 5.33259 76.8576 5.2339 76.9305 5.16113C77.0034 5.08837 77.1022 5.04749 77.2053 5.04749H89.1217C89.2247 5.04749 89.3236 5.08837 89.3965 5.16113C89.4693 5.2339 89.5103 5.33259 89.5103 5.4355C89.5103 5.53841 89.4693 5.63711 89.3965 5.70987C89.3236 5.78264 89.2247 5.82352 89.1217 5.82352Z" fill="#38BDF8"/>
<path d="M79.0693 7.35664H77.2052C77.1023 7.35642 77.0036 7.31544 76.9309 7.2427C76.8582 7.16995 76.8174 7.07137 76.8174 6.9686C76.8174 6.86583 76.8582 6.76725 76.9309 6.6945C77.0036 6.62176 77.1023 6.58078 77.2052 6.58057H79.0693C79.1722 6.58078 79.2708 6.62176 79.3436 6.6945C79.4163 6.76725 79.4571 6.86583 79.4571 6.9686C79.4571 7.07137 79.4163 7.16995 79.3436 7.2427C79.2708 7.31544 79.1722 7.35642 79.0693 7.35664Z" fill="#38BDF8"/>
<path d="M82.3708 8.89008H77.2053C77.1022 8.89008 77.0034 8.8492 76.9305 8.77643C76.8576 8.70366 76.8167 8.60496 76.8167 8.50205C76.8167 8.39914 76.8576 8.30044 76.9305 8.22767C77.0034 8.1549 77.1022 8.11401 77.2053 8.11401H82.3708C82.4737 8.11423 82.5724 8.15521 82.6451 8.22795C82.7178 8.3007 82.7586 8.39928 82.7586 8.50205C82.7586 8.60482 82.7178 8.7034 82.6451 8.77615C82.5724 8.84889 82.4737 8.88987 82.3708 8.89008Z" fill="#38BDF8"/>
<path d="M74.8104 15.9918C75.8788 14.2759 75.3516 12.0201 73.6329 10.9534C71.9142 9.88676 69.6549 10.4131 68.5865 12.1291C67.5182 13.845 68.0454 16.1008 69.7641 17.1675C71.4827 18.2341 73.7421 17.7078 74.8104 15.9918Z" fill="#3F3D56"/>
<path d="M153.953 100H103.611C103.569 100 103.53 99.9836 103.5 99.9542C103.471 99.9249 103.454 99.8851 103.454 99.8436C103.454 99.8022 103.471 99.7624 103.5 99.7331C103.53 99.7037 103.569 99.6873 103.611 99.6873H153.953C153.994 99.6873 154.034 99.7037 154.064 99.7331C154.093 99.7624 154.11 99.8022 154.11 99.8436C154.11 99.8851 154.093 99.9249 154.064 99.9542C154.034 99.9836 153.994 100 153.953 100Z" fill="#CCCCCC"/>
<path d="M22.8867 42.6003C21.3833 38.6324 21.5203 34.2308 23.2675 30.3638C25.0146 26.4967 28.2288 23.481 32.203 21.9801C36.1771 20.4791 40.5857 20.6159 44.4589 22.3602C48.3321 24.1046 51.3526 27.3137 52.856 31.2816L52.5372 31.402C51.8086 29.4791 50.7079 27.7183 49.2978 26.2202C47.8877 24.722 46.1958 23.5158 44.3188 22.6705C42.4418 21.8251 40.4164 21.3571 38.3583 21.2933C36.3001 21.2294 34.2495 21.571 32.3236 22.2983C30.3977 23.0257 28.6341 24.1247 27.1335 25.5326C25.633 26.9405 24.4249 28.6296 23.5782 30.5037C22.7315 32.3777 22.2628 34.3998 22.1988 36.4547C22.1349 38.5096 22.4769 40.5569 23.2055 42.4798L22.8867 42.6003Z" fill="#3F3D56"/>
<path d="M36.9015 26.7567H31.4828C31.367 26.7569 31.2527 26.731 31.1484 26.6808C31.0441 26.6307 30.9525 26.5576 30.8806 26.467C30.8095 26.3788 30.7593 26.2756 30.7338 26.1653C30.7084 26.0549 30.7083 25.9403 30.7335 25.8299C31.2465 23.5695 31.2175 21.22 30.6489 18.973C30.6085 18.8139 30.6209 18.6462 30.6841 18.4947C30.7473 18.3433 30.8579 18.2164 30.9994 18.133C32.9623 16.9923 35.0584 17.0271 37.2294 18.2368C37.3322 18.2928 37.4208 18.3714 37.4885 18.4668C37.5562 18.5621 37.6012 18.6716 37.6201 18.787C38.0065 21.2077 38.0204 23.6731 37.6614 26.0981C37.6359 26.281 37.5449 26.4486 37.4051 26.5697C37.2654 26.6907 37.0865 26.7572 36.9015 26.7567Z" fill="#38BDF8"/>
<path d="M34.3695 21.5091H32.5055C32.4026 21.5089 32.3039 21.4679 32.2312 21.3952C32.1585 21.3224 32.1177 21.2238 32.1177 21.1211C32.1177 21.0183 32.1585 20.9197 32.2312 20.847C32.3039 20.7742 32.4026 20.7332 32.5055 20.733H34.3695C34.4725 20.7332 34.5711 20.7742 34.6438 20.847C34.7165 20.9197 34.7574 21.0183 34.7574 21.1211C34.7574 21.2238 34.7165 21.3224 34.6438 21.3952C34.5711 21.4679 34.4725 21.5089 34.3695 21.5091Z" fill="white"/>
<path d="M36.6487 23.0422H32.5055C32.4025 23.0422 32.3036 23.0013 32.2307 22.9285C32.1578 22.8558 32.1169 22.7571 32.1169 22.6542C32.1169 22.5512 32.1578 22.4525 32.2307 22.3798C32.3036 22.307 32.4025 22.2661 32.5055 22.2661H36.6487C36.7517 22.2663 36.8503 22.3073 36.923 22.3801C36.9957 22.4528 37.0366 22.5514 37.0366 22.6542C37.0366 22.7569 36.9957 22.8555 36.923 22.9282C36.8503 23.001 36.7517 23.042 36.6487 23.0422Z" fill="white"/>
<path d="M19.0725 42.3858H1.75093C1.28672 42.3852 0.841664 42.2009 0.513414 41.8732C0.185163 41.5454 0.000523551 41.1011 0 40.6376V29.9861C0.000523551 29.5226 0.185163 29.0783 0.513414 28.7505C0.841664 28.4228 1.28672 28.2384 1.75093 28.2379H19.0725C19.5367 28.2384 19.9818 28.4228 20.31 28.7505C20.6383 29.0783 20.8229 29.5226 20.8234 29.9861V40.6376C20.8229 41.1011 20.6383 41.5454 20.31 41.8732C19.9818 42.2009 19.5367 42.3852 19.0725 42.3858Z" fill="#E6E6E6"/>
<path d="M12.1903 41.0139H2.96845C2.53368 41.0134 2.11686 40.8408 1.80942 40.5338C1.50199 40.2269 1.32905 39.8107 1.32855 39.3767V31.2472C1.32905 30.8131 1.50199 30.397 1.80942 30.09C2.11686 29.7831 2.53368 29.6105 2.96845 29.61H17.8549C18.2896 29.6105 18.7064 29.7831 19.0139 30.09C19.3213 30.397 19.4942 30.8131 19.4947 31.2472V33.7212C19.4925 35.6547 18.7222 37.5083 17.3528 38.8755C15.9835 40.2427 14.1268 41.0117 12.1903 41.0139Z" fill="white"/>
<path d="M16.37 34.0614H4.45358C4.3505 34.0614 4.25165 34.0206 4.17877 33.9478C4.10589 33.875 4.06494 33.7763 4.06494 33.6734C4.06494 33.5705 4.10589 33.4718 4.17877 33.399C4.25165 33.3263 4.3505 33.2854 4.45358 33.2854H16.37C16.473 33.2854 16.5719 33.3263 16.6448 33.399C16.7176 33.4718 16.7586 33.5705 16.7586 33.6734C16.7586 33.7763 16.7176 33.875 16.6448 33.9478C16.5719 34.0206 16.473 34.0614 16.37 34.0614Z" fill="#38BDF8"/>
<path d="M6.31748 35.5947H4.45345C4.35052 35.5945 4.25187 35.5535 4.17916 35.4807C4.10645 35.408 4.06561 35.3094 4.06561 35.2066C4.06561 35.1039 4.10645 35.0053 4.17916 34.9325C4.25187 34.8598 4.35052 34.8188 4.45345 34.8186H6.31748C6.42042 34.8188 6.51907 34.8598 6.59178 34.9325C6.66449 35.0053 6.70532 35.1039 6.70532 35.2066C6.70532 35.3094 6.66449 35.408 6.59178 35.4807C6.51907 35.5535 6.42042 35.5945 6.31748 35.5947Z" fill="#38BDF8"/>
<path d="M9.61891 37.128H4.45345C4.35052 37.1278 4.25187 37.0868 4.17916 37.0141C4.10645 36.9413 4.06561 36.8427 4.06561 36.74C4.06561 36.6372 4.10645 36.5386 4.17916 36.4659C4.25187 36.3931 4.35052 36.3521 4.45345 36.3519H9.61891C9.72199 36.3519 9.82085 36.3928 9.89373 36.4656C9.96662 36.5384 10.0076 36.637 10.0076 36.74C10.0076 36.8429 9.96662 36.9416 9.89373 37.0143C9.82085 37.0871 9.72199 37.128 9.61891 37.128Z" fill="#38BDF8"/>
<path d="M25.9117 43.8895C26.9801 42.1736 26.4529 39.9178 24.7342 38.8511C23.0155 37.7845 20.7562 38.3108 19.6878 40.0268C18.6194 41.7427 19.1466 43.9985 20.8653 45.0652C22.584 46.1318 24.8433 45.6055 25.9117 43.8895Z" fill="#3F3D56"/>
<path d="M55.4728 36.9631H50.0541C49.9383 36.9633 49.824 36.9374 49.7197 36.8872C49.6154 36.8371 49.5238 36.764 49.4519 36.6734C49.3808 36.5852 49.3306 36.4821 49.3051 36.3717C49.2797 36.2614 49.2796 36.1467 49.3049 36.0363C49.8169 33.7799 49.7889 31.4347 49.2232 29.1911C49.183 29.0299 49.1966 28.8599 49.2619 28.7071C49.3272 28.5543 49.4407 28.4269 49.585 28.3443C52.2173 26.8399 54.3017 26.8814 55.9572 28.4713C56.0732 28.5847 56.1496 28.7324 56.1751 28.8925C56.5773 31.3454 56.5968 33.8457 56.2327 36.3045C56.2072 36.4875 56.1162 36.655 55.9764 36.7761C55.8367 36.8972 55.6578 36.9636 55.4728 36.9631Z" fill="#FF6584"/>
<path d="M53.2816 31.8857H51.4176C51.3146 31.8855 51.216 31.8445 51.1433 31.7717C51.0706 31.699 51.0297 31.6004 51.0297 31.4977C51.0297 31.3949 51.0706 31.2963 51.1433 31.2236C51.216 31.1508 51.3146 31.1098 51.4176 31.1096H53.2816C53.3845 31.1098 53.4832 31.1508 53.5559 31.2236C53.6286 31.2963 53.6694 31.3949 53.6694 31.4977C53.6694 31.6004 53.6286 31.699 53.5559 31.7717C53.4832 31.8445 53.3845 31.8855 53.2816 31.8857Z" fill="white"/>
<path d="M55.5608 33.4189H51.4176C51.3145 33.4189 51.2157 33.378 51.1428 33.3052C51.0699 33.2325 51.0289 33.1338 51.0289 33.0309C51.0289 32.9279 51.0699 32.8292 51.1428 32.7565C51.2157 32.6837 51.3145 32.6428 51.4176 32.6428H55.5608C55.6637 32.643 55.7624 32.684 55.8351 32.7568C55.9078 32.8295 55.9486 32.9281 55.9486 33.0309C55.9486 33.1336 55.9078 33.2322 55.8351 33.305C55.7624 33.3777 55.6637 33.4187 55.5608 33.4189Z" fill="white"/>
</svg>
