<svg width="123" height="100" viewBox="0 0 123 100" fill="none" xmlns="http://www.w3.org/2000/svg">
<path d="M106.119 58.9432H9.61685C8.38318 58.9418 7.20043 58.4508 6.32809 57.5778C5.45576 56.7048 4.96507 55.5212 4.96368 54.2866V17.6409C4.96509 16.4063 5.45578 15.2227 6.32811 14.3497C7.20044 13.4767 8.38318 12.9857 9.61685 12.9843H106.119C107.353 12.9857 108.536 13.4767 109.408 14.3497C110.28 15.2227 110.771 16.4063 110.773 17.6409V54.2866C110.771 55.5212 110.28 56.7048 109.408 57.5778C108.536 58.4508 107.353 58.9418 106.119 58.9432Z" fill="white"/>
<path d="M106.119 58.9432H9.61685C8.38318 58.9418 7.20043 58.4508 6.32809 57.5778C5.45576 56.7048 4.96507 55.5212 4.96368 54.2866V17.6409C4.96509 16.4063 5.45578 15.2227 6.32811 14.3497C7.20044 13.4767 8.38318 12.9857 9.61685 12.9843H106.119C107.353 12.9857 108.536 13.4767 109.408 14.3497C110.28 15.2227 110.771 16.4063 110.773 17.6409V54.2866C110.771 55.5212 110.28 56.7048 109.408 57.5778C108.536 58.4508 107.353 58.9418 106.119 58.9432ZM9.61685 13.3892C8.49006 13.3892 7.40943 13.8371 6.61267 14.6345C5.81592 15.4318 5.3683 16.5133 5.3683 17.6409V54.2866C5.3683 55.4142 5.81592 56.4957 6.61267 57.293C7.40943 58.0904 8.49006 58.5383 9.61684 58.5383H106.119C106.677 58.5383 107.23 58.4283 107.745 58.2147C108.261 58.001 108.729 57.6878 109.124 57.293C109.518 56.8982 109.831 56.4295 110.045 55.9137C110.258 55.3978 110.368 54.8449 110.368 54.2866V40.4692C110.368 33.2871 107.517 26.3992 102.442 21.3207C97.3676 16.2422 90.4848 13.3892 83.3081 13.3892H9.61685Z" fill="#E6E6E6"/>
<path d="M61.2649 55.3866C60.0127 54.1314 58.8318 52.7367 58.8008 51.6078C58.5215 41.6762 55.6263 39.2799 55.7844 35.4332C55.7872 35.4026 55.7782 35.3721 55.7593 35.3479C55.7403 35.3237 55.7129 35.3077 55.6825 35.3031C55.6807 35.3031 55.6807 35.3031 55.679 35.3013C55.6485 35.2987 55.6183 35.3081 55.5947 35.3275C55.571 35.3468 55.5559 35.3747 55.5525 35.4051C54.7637 41.7659 57.6361 47.6064 57.5412 51.9331C57.4955 54.0182 57.8205 55.4809 58.3282 56.5042C58.9414 57.7454 59.8233 58.3396 60.6402 58.6139H62.203C61.9934 57.5108 61.6792 56.4301 61.2649 55.3866Z" fill="#3F3D56"/>
<path d="M68.5529 34.9602C68.5529 34.96 68.5528 34.9598 68.5527 34.9596C68.5526 34.9594 68.5525 34.9592 68.5524 34.959C68.5522 34.9588 68.552 34.9587 68.5518 34.9586C68.5516 34.9585 68.5513 34.9585 68.5511 34.9585C68.539 34.9493 68.5252 34.9427 68.5105 34.9389C68.4959 34.9351 68.4806 34.9342 68.4655 34.9363C68.4505 34.9384 68.4361 34.9435 68.423 34.9512C68.41 34.959 68.3986 34.9692 68.3895 34.9813C64.604 39.9524 62.3019 50.8285 61.8146 55.3633C62.2194 56.4164 62.5267 57.5045 62.7328 58.6139H63.7832C63.8778 58.4519 63.9471 58.2764 63.9887 58.0935C64.1077 57.5719 64.1713 57.0391 64.1784 56.5042C64.2259 55.3051 64.1538 53.5189 63.8657 50.8782C63.4002 46.606 64.7266 40.1766 68.5757 35.1238C68.5942 35.099 68.6023 35.0679 68.598 35.0373C68.5937 35.0067 68.5775 34.979 68.5529 34.9602ZM62.8081 58.4135C62.8149 58.4278 62.819 58.4433 62.8204 58.4592C62.8046 58.4363 62.8011 58.4222 62.8081 58.4135Z" fill="#3F3D56"/>
<path d="M28.9648 56.5036C28.8964 57.7184 28.7962 58.441 28.7945 58.4568C28.7904 58.4847 28.7764 58.5101 28.7551 58.5285C28.7338 58.5469 28.7066 58.5571 28.6785 58.5571C28.6726 58.5573 28.6667 58.5567 28.6609 58.5553C28.6305 58.5507 28.603 58.5343 28.5846 58.5096C28.5662 58.4849 28.5582 58.454 28.5625 58.4234C28.4453 58.5016 28.3191 58.5653 28.1866 58.6133H27.6561C27.2889 58.4674 26.9341 57.9435 26.8637 56.5036C26.8023 55.2553 26.9551 53.3214 27.4997 50.3502C28.2745 46.1237 26.9305 39.8244 23.0814 34.7716C23.0629 34.7468 23.0549 34.7158 23.0592 34.6851C23.0634 34.6545 23.0796 34.6268 23.1042 34.6081C23.1161 34.5987 23.1298 34.5918 23.1444 34.5877C23.159 34.5836 23.1742 34.5824 23.1893 34.5842C23.2043 34.586 23.2189 34.5908 23.2321 34.5982C23.2453 34.6056 23.257 34.6156 23.2663 34.6275L23.2676 34.6292C27.1501 39.7277 28.4448 45.9338 28.849 50.2447C29.0417 52.3253 29.0804 54.4173 28.9648 56.5036Z" fill="#3F3D56"/>
<path d="M60.5065 67.0078H53.5837C53.4152 67.008 53.2484 66.9749 53.0927 66.9106C52.937 66.8462 52.7954 66.7517 52.6762 66.6326C52.557 66.5134 52.4625 66.3719 52.398 66.2162C52.3334 66.0604 52.3002 65.8934 52.3002 65.7248C52.3002 65.5562 52.3334 65.3893 52.398 65.2335C52.4625 65.0778 52.557 64.9363 52.6762 64.8171C52.7954 64.698 52.937 64.6035 53.0927 64.5391C53.2484 64.4747 53.4152 64.4417 53.5837 64.4419H60.5065C60.8462 64.4423 61.1719 64.5776 61.412 64.8182C61.6521 65.0587 61.787 65.3848 61.787 65.7248C61.787 66.0648 61.6521 66.3909 61.412 66.6315C61.1719 66.8721 60.8462 67.0074 60.5065 67.0078Z" fill="#E6E6E6"/>
<path d="M64.6349 71.7546H49.4552C49.2868 71.7548 49.1199 71.7218 48.9642 71.6574C48.8085 71.593 48.667 71.4985 48.5478 71.3794C48.4286 71.2602 48.334 71.1187 48.2695 70.963C48.205 70.8072 48.1718 70.6403 48.1718 70.4717C48.1718 70.3031 48.205 70.1361 48.2695 69.9804C48.334 69.8246 48.4286 69.6831 48.5478 69.564C48.667 69.4448 48.8085 69.3503 48.9642 69.286C49.1199 69.2216 49.2868 69.1885 49.4552 69.1887H64.6349C64.9747 69.1891 65.3004 69.3245 65.5405 69.565C65.7806 69.8056 65.9154 70.1317 65.9154 70.4717C65.9154 70.8117 65.7806 71.1378 65.5405 71.3783C65.3004 71.6189 64.9747 71.7542 64.6349 71.7546Z" fill="#E6E6E6"/>
<path d="M57.135 44.656C52.7223 44.656 48.4086 43.3465 44.7395 40.8931C41.0704 38.4397 38.2107 34.9525 36.522 30.8726C34.8333 26.7927 34.3915 22.3033 35.2524 17.972C36.1133 13.6408 38.2382 9.66236 41.3585 6.53973C44.4788 3.41711 48.4543 1.29057 52.7823 0.429036C57.1103 -0.432495 61.5964 0.00967503 65.6732 1.69963C69.7501 3.38958 73.2347 6.25142 75.6863 9.92325C78.1379 13.5951 79.4464 17.912 79.4464 22.328C79.4397 28.2477 77.0869 33.923 72.9042 38.1089C68.7214 42.2948 63.0503 44.6493 57.135 44.656ZM57.135 0.351633C52.7918 0.351633 48.546 1.64053 44.9347 4.05532C41.3234 6.47012 38.5087 9.90236 36.8466 13.918C35.1845 17.9337 34.7497 22.3524 35.597 26.6154C36.4443 30.8784 38.5358 34.7942 41.607 37.8677C44.6781 40.9411 48.591 43.0342 52.8509 43.8821C57.1107 44.7301 61.5261 44.2949 65.5388 42.6316C69.5514 40.9682 72.9811 38.1515 75.3941 34.5375C77.8071 30.9235 79.0951 26.6745 79.0951 22.328C79.0951 16.4995 76.7814 10.9097 72.6631 6.78837C68.5448 2.667 62.9592 0.351633 57.135 0.351633Z" fill="#F2F2F2"/>
<path d="M62.0705 25.0619C61.3675 25.1041 60.6657 25.1752 59.97 25.2798C58.4672 25.479 56.9674 25.695 55.4675 25.9062C54.5339 26.0371 53.602 26.1696 52.6718 26.3036C52.6159 26.0879 52.5766 25.8682 52.5543 25.6465C52.4174 24.4054 52.7718 23.16 53.5414 22.1772C54.3111 21.1944 55.4348 20.5524 56.6718 20.3887C57.9087 20.2251 59.1606 20.5529 60.159 21.3018C61.1573 22.0507 61.8229 23.1612 62.013 24.3953C62.049 24.6157 62.0683 24.8386 62.0705 25.0619Z" fill="#F50057"/>
<path d="M46.7795 50.9216C46.8189 50.6501 46.5348 50.3841 46.1449 50.3273C45.755 50.2705 45.4069 50.4446 45.3674 50.716C45.328 50.9875 45.6121 51.2535 46.002 51.3103C46.3919 51.3671 46.74 51.1931 46.7795 50.9216Z" fill="white"/>
<path d="M51.422 50.4682C51.4614 50.1968 51.1773 49.9307 50.7874 49.8739C50.3975 49.8172 50.0494 49.9912 50.0099 50.2626C49.9705 50.5341 50.2546 50.8002 50.6445 50.857C51.0344 50.9137 51.3825 50.7397 51.422 50.4682Z" fill="#3F3D56"/>
<path d="M45.5082 47.1603C45.5476 46.8888 45.2635 46.6227 44.8736 46.566C44.4837 46.5092 44.1356 46.6832 44.0961 46.9547C44.0567 47.2261 44.3408 47.4922 44.7307 47.549C45.1206 47.6057 45.4687 47.4317 45.5082 47.1603Z" fill="#FF6584"/>
<path d="M43.491 45.6197C43.4929 45.3705 43.354 45.1674 43.1808 45.1661C43.0075 45.1648 42.8656 45.3657 42.8637 45.6149C42.8618 45.8641 43.0007 46.0672 43.174 46.0685C43.3472 46.0698 43.4891 45.8689 43.491 45.6197Z" fill="#E6E6E6"/>
<path d="M42.8069 42.7499C42.8088 42.5007 42.6699 42.2976 42.4966 42.2963C42.3234 42.295 42.1814 42.496 42.1796 42.7452C42.1777 42.9944 42.3166 43.1975 42.4898 43.1988C42.663 43.2001 42.805 42.9991 42.8069 42.7499Z" fill="#3F3D56"/>
<path d="M48.1266 47.8004C48.1285 47.5511 47.9896 47.3481 47.8163 47.3468C47.6431 47.3454 47.5011 47.5464 47.4993 47.7956C47.4974 48.0448 47.6363 48.2479 47.8095 48.2492C47.9827 48.2505 48.1247 48.0496 48.1266 47.8004Z" fill="#E6E6E6"/>
<path d="M45.8832 48.9213C45.8851 48.6721 45.7461 48.469 45.5729 48.4677C45.3997 48.4664 45.2577 48.6674 45.2558 48.9166C45.254 49.1658 45.3929 49.3689 45.5661 49.3702C45.7393 49.3715 45.8813 49.1705 45.8832 48.9213Z" fill="#FF6584"/>
<path d="M49.0062 50.9931C49.008 50.7439 48.8691 50.5408 48.6959 50.5395C48.5227 50.5382 48.3807 50.7391 48.3788 50.9884C48.377 51.2376 48.5159 51.4406 48.6891 51.4419C48.8623 51.4433 49.0043 51.2423 49.0062 50.9931Z" fill="#3F3D56"/>
<path d="M90.9483 23.519C91.0342 23.18 90.709 22.8052 90.2222 22.6817C89.7353 22.5582 89.271 22.7329 89.1852 23.0718C89.0994 23.4108 89.4245 23.7856 89.9113 23.9091C90.3982 24.0326 90.8625 23.8579 90.9483 23.519Z" fill="white"/>
<path d="M85.0026 23.4806C85.0885 23.1417 84.7634 22.7668 84.2765 22.6434C83.7896 22.5199 83.3254 22.6945 83.2395 23.0335C83.1537 23.3724 83.4788 23.7473 83.9657 23.8708C84.4525 23.9943 84.9168 23.8196 85.0026 23.4806Z" fill="#3F3D56"/>
<path d="M92.064 28.4556C92.1499 28.1167 91.8248 27.7418 91.3379 27.6183C90.851 27.4949 90.3868 27.6695 90.3009 28.0085C90.2151 28.3474 90.5402 28.7223 91.0271 28.8458C91.5139 28.9692 91.9782 28.7946 92.064 28.4556Z" fill="#FF6584"/>
<path d="M93.45 30.3169C93.4852 30.0012 93.3359 29.7254 93.1164 29.7009C92.897 29.6763 92.6905 29.9124 92.6553 30.2281C92.62 30.5438 92.7693 30.8196 92.9888 30.8441C93.2082 30.8687 93.4147 30.6326 93.45 30.3169Z" fill="#E6E6E6"/>
<path d="M93.9389 34.0456C93.9742 33.7299 93.8248 33.454 93.6054 33.4295C93.3859 33.405 93.1795 33.641 93.1442 33.9567C93.109 34.2724 93.2583 34.5482 93.4777 34.5728C93.6972 34.5973 93.9037 34.3613 93.9389 34.0456Z" fill="#3F3D56"/>
<path d="M87.8604 26.94C87.8956 26.6243 87.7463 26.3484 87.5268 26.3239C87.3074 26.2994 87.1009 26.5354 87.0657 26.8511C87.0304 27.1668 87.1797 27.4426 87.3992 27.4672C87.6186 27.4917 87.8251 27.2557 87.8604 26.94Z" fill="#E6E6E6"/>
<path d="M90.8525 25.8151C90.8877 25.4994 90.7384 25.2236 90.519 25.199C90.2995 25.1745 90.093 25.4105 90.0578 25.7262C90.0225 26.0419 90.1719 26.3177 90.3913 26.3423C90.6108 26.3668 90.8173 26.1308 90.8525 25.8151Z" fill="#FF6584"/>
<path d="M87.1663 22.7758C87.2016 22.4601 87.0523 22.1843 86.8328 22.1597C86.6134 22.1352 86.4069 22.3712 86.3716 22.6869C86.3364 23.0026 86.4857 23.2784 86.7052 23.303C86.9246 23.3275 87.1311 23.0915 87.1663 22.7758Z" fill="#3F3D56"/>
<path d="M101.573 16.4697C100.668 12.6641 100.819 8.91584 102.369 5.24349C102.386 5.01629 102.492 4.80487 102.664 4.6556C102.835 4.50633 103.06 4.43141 103.287 4.44728L111.759 5.04887C111.986 5.06525 112.197 5.17108 112.346 5.34315C112.495 5.51522 112.57 5.73947 112.554 5.9667L111.758 17.1929C111.742 17.4201 111.636 17.6315 111.464 17.7808C111.292 17.9301 111.068 18.005 110.841 17.9891L102.369 17.3875C102.142 17.3711 101.931 17.2653 101.782 17.0932C101.632 16.9212 101.558 16.6969 101.573 16.4697Z" fill="#F2F2F2"/>
<path d="M102.464 13.125C101.739 11.2497 102.202 8.67052 102.976 5.90779C102.991 5.69501 103.09 5.497 103.251 5.35721C103.412 5.21742 103.622 5.14725 103.834 5.16212L111.115 5.67913C111.328 5.69447 111.526 5.79358 111.666 5.95472C111.805 6.11587 111.875 6.32589 111.861 6.53871L111.152 16.5285C111.137 16.7413 111.038 16.9393 110.877 17.0791C110.716 17.2189 110.506 17.289 110.293 17.2742L105.783 16.9539C104.836 16.8856 103.954 16.4441 103.332 15.7263C102.71 15.0085 102.398 14.073 102.464 13.125Z" fill="white"/>
<path d="M110.124 8.50962C108.414 9.35267 107.062 10.1337 106.351 11.8966C105.893 10.8407 105.436 10.4881 104.978 9.43229C104.843 9.12171 104.389 9.38996 104.523 9.69848C105.065 10.9483 105.607 12.1981 106.148 13.4479C106.244 13.6683 106.57 13.5821 106.63 13.3849C106.923 12.4308 107.408 11.5468 108.055 10.7868C108.701 10.0268 109.496 9.40688 110.39 8.96505C110.695 8.81512 110.428 8.36006 110.124 8.50962Z" fill="#F50057"/>
<path d="M33.761 65.3452C32.8556 61.5396 33.0066 57.7913 34.557 54.119C34.5733 53.8918 34.6791 53.6804 34.851 53.5311C35.023 53.3818 35.247 53.3069 35.4741 53.3228L43.9461 53.9244C44.1731 53.9407 44.3844 54.0466 44.5335 54.2186C44.6827 54.3907 44.7575 54.615 44.7417 54.8422L43.9457 66.0684C43.9293 66.2956 43.8236 66.507 43.6516 66.6563C43.4797 66.8055 43.2556 66.8805 43.0285 66.8646L34.5566 66.263C34.3296 66.2466 34.1183 66.1408 33.9691 65.9687C33.82 65.7967 33.7451 65.5724 33.761 65.3452Z" fill="#F2F2F2"/>
<path d="M34.6513 62.0006C33.9267 60.1253 34.39 57.5461 35.163 54.7834C35.1783 54.5706 35.2774 54.3726 35.4384 54.2328C35.5994 54.093 35.8093 54.0229 36.022 54.0377L43.3029 54.5547C43.5155 54.5701 43.7134 54.6692 43.8531 54.8303C43.9928 54.9915 44.0629 55.2015 44.048 55.4143L43.3397 65.4041C43.3244 65.6169 43.2254 65.8149 43.0643 65.9547C42.9033 66.0945 42.6934 66.1647 42.4808 66.1498L37.9704 65.8295C37.0233 65.7612 36.1419 65.3197 35.5197 64.6019C34.8975 63.8841 34.5852 62.9486 34.6513 62.0006Z" fill="white"/>
<path d="M42.3119 57.385C40.6011 58.228 39.2493 59.0091 38.5387 60.7719C38.0809 59.7161 37.6232 59.3635 37.1654 58.3077C37.0307 57.9971 36.5765 58.2653 36.7103 58.5739C37.2522 59.8236 37.794 61.0734 38.3359 62.3232C38.4315 62.5437 38.7579 62.4575 38.8176 62.2602C39.1108 61.3062 39.5955 60.4221 40.2421 59.6621C40.8887 58.9021 41.6835 58.2823 42.5779 57.8404C42.8822 57.6905 42.6154 57.2354 42.3119 57.385Z" fill="#F50057"/>
<path d="M0.557487 18.7553C-0.347926 14.9498 -0.196933 11.2015 1.35347 7.52914C1.36984 7.30194 1.47559 7.09051 1.64753 6.94124C1.81947 6.79198 2.04356 6.71706 2.27062 6.73293L10.7426 7.33451C10.9696 7.3509 11.1809 7.45673 11.33 7.6288C11.4792 7.80086 11.554 8.02511 11.5382 8.25235L10.7422 19.4785C10.7258 19.7057 10.6201 19.9172 10.4481 20.0664C10.2762 20.2157 10.0521 20.2906 9.82506 20.2748L1.35312 19.6732C1.12608 19.6568 0.914817 19.551 0.765659 19.3789C0.616501 19.2068 0.541634 18.9826 0.557487 18.7553Z" fill="#F2F2F2"/>
<path d="M1.44774 15.4107C0.723148 13.5353 1.18644 10.9562 1.95947 8.19344C1.97479 7.98066 2.07383 7.78265 2.23486 7.64285C2.39589 7.50306 2.60575 7.4329 2.81841 7.44776L10.0993 7.96478C10.312 7.98011 10.5098 8.07922 10.6495 8.24037C10.7892 8.40151 10.8593 8.61154 10.8445 8.82436L10.1362 18.8141C10.1209 19.0269 10.0218 19.2249 9.86077 19.3647C9.69973 19.5045 9.48987 19.5747 9.27721 19.5598L4.76682 19.2395C3.81973 19.1712 2.93838 18.7297 2.31615 18.0119C1.69392 17.2941 1.38161 16.3586 1.44774 15.4107Z" fill="white"/>
<path d="M9.10839 10.7951C7.39758 11.6382 6.04583 12.4193 5.33522 14.1821C4.87744 13.1262 4.41966 12.7736 3.96188 11.7178C3.82722 11.4072 3.37303 11.6755 3.5068 11.984C4.04867 13.2338 4.59054 14.4836 5.13243 15.7334C5.22801 15.9539 5.55436 15.8677 5.61407 15.6704C5.90729 14.7164 6.39204 13.8323 7.03863 13.0723C7.68522 12.3123 8.48004 11.6924 9.3744 11.2506C9.67866 11.1006 9.4119 10.6456 9.10839 10.7951Z" fill="#F50057"/>
<path d="M66.244 98.1886C66.2002 98.1906 66.1569 98.1791 66.1199 98.1556C66.0829 98.1322 66.0539 98.0979 66.037 98.0574C66.0201 98.017 66.0161 97.9723 66.0254 97.9295C66.0347 97.8866 66.0569 97.8477 66.0891 97.8179L66.1038 97.7596L66.0979 97.7457C66.0539 97.6414 65.98 97.5526 65.8856 97.4902C65.7912 97.4279 65.6804 97.3948 65.5673 97.3953C65.4542 97.3957 65.3438 97.4295 65.2498 97.4926C65.1559 97.5556 65.0827 97.645 65.0394 97.7496C64.8662 98.1669 64.6458 98.5849 64.5915 99.0261C64.5676 99.2212 64.5777 99.4189 64.6213 99.6104C64.2147 98.7227 64.0035 97.7579 64.0022 96.7814C64.0021 96.5363 64.0157 96.2915 64.0429 96.0479C64.0654 95.8483 64.0967 95.6501 64.1366 95.4533C64.3545 94.3854 64.8225 93.3846 65.502 92.5329C65.8309 92.3533 66.0969 92.0771 66.2641 91.7416C66.3247 91.621 66.3675 91.4922 66.3913 91.3594C66.3192 91.1691 66.2813 90.9676 66.2793 90.7641C66.2276 90.6856 66.1351 90.6465 66.0786 90.5699C65.7978 90.1889 65.4109 90.2554 65.2089 90.7732C64.7774 90.9911 64.7732 91.3526 65.038 91.7002C65.2064 91.9214 65.2296 92.2206 65.3774 92.4574C65.3622 92.4769 65.3463 92.4957 65.3311 92.5152C65.0532 92.8729 64.8109 93.257 64.6078 93.6619C64.6572 93.2083 64.5983 92.7493 64.4358 92.3229C64.2712 91.9254 63.9627 91.5907 63.6909 91.2471C63.6191 91.1549 63.5215 91.086 63.4105 91.0492C63.2995 91.0124 63.1801 91.0093 63.0674 91.0404C62.9547 91.0715 62.8537 91.1354 62.7772 91.2239C62.7008 91.3124 62.6522 91.4216 62.6378 91.5377L62.6361 91.5529C62.6765 91.5757 62.716 91.5999 62.7547 91.6255C62.8032 91.6579 62.8408 91.7043 62.8626 91.7586C62.8844 91.8128 62.8893 91.8724 62.8766 91.9294C62.864 91.9865 62.8344 92.0384 62.7918 92.0783C62.7492 92.1183 62.6955 92.1445 62.6378 92.1534L62.6319 92.1543C62.6463 92.2998 62.6717 92.4441 62.7079 92.5858C62.3593 93.9349 63.1119 94.4263 64.1865 94.4483C64.2102 94.4605 64.2333 94.4727 64.257 94.4843C64.053 95.0629 63.925 95.6657 63.8763 96.2774C63.8487 96.6383 63.8503 97.0008 63.8812 97.3614L63.8793 97.3486C63.8015 96.9476 63.5877 96.5858 63.2742 96.3242C62.8084 95.9414 62.1505 95.8004 61.6481 95.4927C61.5947 95.4584 61.5326 95.4401 61.4691 95.4399C61.4057 95.4397 61.3435 95.4578 61.2899 95.4918C61.2364 95.5258 61.1937 95.5745 61.1668 95.6321C61.14 95.6896 61.1302 95.7536 61.1385 95.8166L61.1406 95.83C61.2155 95.8605 61.2884 95.8957 61.3589 95.9353C61.3993 95.9581 61.4388 95.9823 61.4774 96.0079C61.526 96.0403 61.5636 96.0867 61.5854 96.141C61.6071 96.1952 61.612 96.2548 61.5994 96.3118C61.5868 96.3689 61.5572 96.4208 61.5146 96.4607C61.472 96.5007 61.4183 96.5269 61.3606 96.5358L61.3546 96.5367L61.3425 96.5385C61.4705 96.8443 61.6501 97.1258 61.8734 97.3706C62.0914 98.5483 63.0276 98.66 64.0289 98.317H64.0296C64.1394 98.7948 64.2986 99.2599 64.5046 99.7048H66.2015C66.2076 99.6859 66.213 99.6664 66.2185 99.6476C66.0615 99.6575 65.9038 99.6481 65.749 99.6196C65.8749 99.465 66.0008 99.3092 66.1267 99.1546C66.1295 99.1517 66.1321 99.1486 66.1346 99.1454C66.1985 99.0663 66.2629 98.9878 66.3268 98.9087C66.3302 98.6661 66.3023 98.424 66.244 98.1886Z" fill="#F2F2F2"/>
<path d="M108.524 98.1886C108.568 98.1906 108.611 98.1791 108.648 98.1556C108.685 98.1322 108.714 98.0979 108.731 98.0574C108.748 98.017 108.752 97.9723 108.743 97.9295C108.733 97.8866 108.711 97.8477 108.679 97.8179L108.664 97.7596L108.67 97.7457C108.714 97.6414 108.788 97.5526 108.882 97.4902C108.977 97.4279 109.088 97.3948 109.201 97.3953C109.314 97.3957 109.424 97.4295 109.518 97.4926C109.612 97.5556 109.685 97.645 109.729 97.7496C109.902 98.1669 110.122 98.5849 110.176 99.0261C110.2 99.2212 110.19 99.4189 110.147 99.6104C110.553 98.7227 110.764 97.7579 110.766 96.7814C110.766 96.5363 110.752 96.2915 110.725 96.0479C110.703 95.8483 110.671 95.6501 110.631 95.4533C110.413 94.3854 109.946 93.3846 109.266 92.5329C108.937 92.3533 108.671 92.0771 108.504 91.7416C108.443 91.621 108.4 91.4922 108.377 91.3594C108.449 91.1691 108.487 90.9676 108.489 90.7641C108.54 90.6856 108.633 90.6465 108.689 90.5699C108.97 90.1889 109.357 90.2554 109.559 90.7732C109.991 90.9911 109.995 91.3526 109.73 91.7002C109.562 91.9214 109.538 92.2206 109.391 92.4574C109.406 92.4769 109.422 92.4957 109.437 92.5152C109.715 92.8729 109.957 93.257 110.16 93.6619C110.111 93.2083 110.17 92.7493 110.332 92.3229C110.497 91.9254 110.805 91.5907 111.077 91.2471C111.149 91.1549 111.247 91.086 111.358 91.0492C111.469 91.0124 111.588 91.0093 111.701 91.0404C111.813 91.0715 111.914 91.1354 111.991 91.2239C112.067 91.3124 112.116 91.4216 112.13 91.5377L112.132 91.5529C112.091 91.5757 112.052 91.5999 112.013 91.6255C111.965 91.6579 111.927 91.7043 111.905 91.7586C111.884 91.8128 111.879 91.8724 111.891 91.9294C111.904 91.9865 111.934 92.0384 111.976 92.0783C112.019 92.1183 112.072 92.1445 112.13 92.1534L112.136 92.1543C112.122 92.2998 112.096 92.4441 112.06 92.5858C112.409 93.9349 111.656 94.4263 110.582 94.4483C110.558 94.4605 110.535 94.4727 110.511 94.4843C110.715 95.0629 110.843 95.6657 110.892 96.2774C110.919 96.6383 110.918 97.0008 110.887 97.3614L110.889 97.3486C110.967 96.9476 111.18 96.5858 111.494 96.3242C111.96 95.9414 112.618 95.8004 113.12 95.4927C113.173 95.4584 113.235 95.44 113.299 95.4399C113.362 95.4397 113.425 95.4577 113.478 95.4918C113.532 95.5258 113.574 95.5745 113.601 95.6321C113.628 95.6896 113.638 95.7536 113.63 95.8166L113.627 95.83C113.553 95.8605 113.48 95.8957 113.409 95.9353C113.369 95.9581 113.329 95.9823 113.291 96.0079C113.242 96.0403 113.204 96.0867 113.183 96.141C113.161 96.1952 113.156 96.2548 113.169 96.3118C113.181 96.3689 113.211 96.4208 113.253 96.4607C113.296 96.5007 113.35 96.5269 113.407 96.5358L113.413 96.5367L113.426 96.5385C113.298 96.8443 113.118 97.1258 112.895 97.3706C112.677 98.5483 111.74 98.66 110.739 98.317H110.738C110.629 98.7948 110.469 99.2599 110.263 99.7048H108.567C108.56 99.6859 108.555 99.6664 108.55 99.6476C108.707 99.6575 108.864 99.6481 109.019 99.6196C108.893 99.465 108.767 99.3092 108.641 99.1546C108.639 99.1517 108.636 99.1486 108.633 99.1454C108.57 99.0663 108.505 98.9878 108.441 98.9087C108.438 98.6661 108.466 98.424 108.524 98.1886Z" fill="#F2F2F2"/>
<path d="M98.3159 98.0462L96.726 98.046L95.9697 91.9089L98.3162 91.9091L98.3159 98.0462Z" fill="#FFB6B6"/>
<path d="M98.3718 99.7062L93.4827 99.706V99.6442C93.4828 99.1391 93.6833 98.6547 94.0401 98.2976C94.397 97.9405 94.881 97.7398 95.3857 97.7398L96.2789 97.0618L97.9451 97.7399L98.3719 97.7399L98.3718 99.7062Z" fill="#2F2E41"/>
<path d="M86.3695 98.0462L84.7796 98.046L84.0233 91.9089L86.3699 91.9091L86.3695 98.0462Z" fill="#FFB6B6"/>
<path d="M86.4256 99.7062L81.5366 99.706V99.6442C81.5366 99.1391 81.7371 98.6547 82.094 98.2976C82.4508 97.9405 82.9348 97.7398 83.4395 97.7398L84.3327 97.0618L85.9989 97.7399L86.4257 97.7399L86.4256 99.7062Z" fill="#2F2E41"/>
<path d="M99.7315 46.2467L97.0866 47.3101C97.0593 49.1705 98.8918 53.0198 98.8918 53.0198L99.7868 60.089C99.6907 60.2882 99.6487 60.5093 99.6651 60.7299C99.6815 60.9505 99.7556 61.1629 99.8801 61.3457C100.005 61.5286 100.175 61.6753 100.374 61.7713C100.573 61.8673 100.794 61.909 101.015 61.8924C101.235 61.8757 101.447 61.8013 101.63 61.6765C101.812 61.5517 101.959 61.381 102.055 61.1815C102.15 60.9821 102.192 60.7609 102.175 60.5404C102.158 60.3198 102.083 60.1075 101.958 59.925L102.059 51.0356L99.7315 46.2467Z" fill="#FFB6B6"/>
<path d="M94.4863 40.2267C94.8982 40.0665 95.3404 39.9991 95.7813 40.0294C96.2222 40.0596 96.651 40.1867 97.0372 40.4017C97.4234 40.6166 97.7575 40.9141 98.0158 41.273C98.2741 41.6319 98.4502 42.0433 98.5315 42.478L98.8627 44.2482C98.8627 44.2482 102.664 49.3925 102.31 51.2648L98.245 51.7813C98.245 51.7813 97.5581 49.1985 96.4702 48.3861C95.804 47.8885 94.4989 45.5936 93.7042 43.5723C93.0973 42.0289 92.9415 40.8275 94.4863 40.2267Z" fill="#F50057"/>
<path d="M83.6947 55.6921C83.6947 55.6921 80.7547 58.5615 81.3826 59.2242C82.0104 59.887 83.4465 60.8153 82.1136 60.9665C80.7807 61.1177 80.2277 61.4454 81.3826 61.7211C82.5374 61.9967 82.359 62.7045 82.359 62.7045C82.359 62.7045 80.6203 70.9877 81.9379 76.4379C81.9379 76.4379 82.6712 91.3241 83.1314 92.4834C83.5915 93.6427 83.7672 92.9395 83.5915 93.6427C83.4159 94.346 83.0645 93.1153 83.4159 94.346C83.6076 94.9888 83.7594 95.6429 83.8704 96.3045L87.3071 95.7771C87.3071 95.7771 87.8604 94.0317 87.3071 93.5735C86.7538 93.1153 86.2574 93.3977 86.857 92.3774C87.4565 91.3572 87.6322 92.7637 87.4565 91.3572C87.2808 89.9507 88.0142 82.3438 86.857 78.3236L88.9956 67.0431L92.3909 78.7234C92.3909 78.7234 94.1918 92.9888 94.777 93.4915C95.3621 93.9943 96.2405 93.1153 95.3621 93.9944C94.4837 94.8734 94.499 94.7222 94.4837 94.8734C94.3201 96.486 99.3498 94.7222 99.3498 94.7222C99.3218 94.3125 99.3218 93.9013 99.3498 93.4915C99.4027 93.1153 98.7697 92.9949 99.3498 92.6156C99.9298 92.2362 99.0667 92.6125 99.0667 92.6125C99.0667 92.6125 97.7697 82.0884 96.7829 78.8992L95.641 63.3687C95.641 63.3687 95.5685 63.6785 95.641 62.9255C95.7135 62.1725 96.2405 62.7 95.7135 62.1725C95.1864 61.6451 94.8351 61.3763 95.1864 60.9833C95.5378 60.5902 96.5071 59.795 95.9346 59.3136C95.3621 58.8321 94.2355 55.6921 94.2355 55.6921L83.2555 55.78" fill="#2F2E41"/>
<path d="M87.823 38.2563L89.8028 36.0254L92.9311 36.3732L94.934 39.1783C96.0001 39.4236 96.9317 40.0684 97.5372 40.9801C98.1427 41.8919 98.3759 43.0012 98.189 44.0798C97.8034 46.3022 96.9587 48.4915 96.3121 50.4032C96.2348 50.6318 96.5159 51.4515 96.0897 51.0767C95.6636 50.7019 95.9144 51.6373 95.8391 51.9057C95.4765 53.1971 95.3217 54.2992 95.6426 55.1123C95.8081 55.5316 96.8416 56.4028 96.0769 56.2774C95.3122 56.152 96.2976 56.9572 96.3696 57.2519C96.8051 59.0344 96.2578 59.7178 93.8782 59.3646C90.7091 58.8943 80.0919 57.8101 82.1504 55.7502C84.2088 53.6902 84.6609 50.2479 84.6609 50.2479L84.7435 42.3726C84.5753 41.4597 84.7763 40.5173 85.3024 39.7527C85.8285 38.9882 86.6365 38.4641 87.5488 38.2957C87.6396 38.279 87.7311 38.2658 87.823 38.2563Z" fill="#F50057"/>
<path d="M87.2318 47.2956L84.513 46.439C83.3128 47.86 82.29 51.9991 82.29 51.9991L78.5017 58.0326C78.3011 58.1256 78.1286 58.2699 78.0014 58.4508C77.8742 58.6318 77.7969 58.8431 77.7773 59.0634C77.7577 59.2838 77.7964 59.5054 77.8896 59.7061C77.9828 59.9067 78.1271 60.0792 78.3081 60.2062C78.4891 60.3333 78.7003 60.4104 78.9205 60.4298C79.1407 60.4492 79.3622 60.4101 79.5625 60.3167C79.7629 60.2232 79.9351 60.0785 80.0618 59.8972C80.1886 59.716 80.2653 59.5045 80.2845 59.2841L85.9962 52.4754L87.2318 47.2956Z" fill="#FFB6B6"/>
<path d="M86.9921 39.3121C87.4121 39.4497 87.7966 39.6782 88.1183 39.9814C88.44 40.2847 88.691 40.6551 88.8534 41.0664C89.0157 41.4778 89.0855 41.9198 89.0578 42.3612C89.03 42.8026 88.9054 43.2324 88.6928 43.6201L87.8269 45.199C87.8269 45.199 87.6074 52.3274 86.1471 53.5503L82.575 50.631C82.575 50.631 83.6809 48.1981 83.3547 46.8795C83.1549 46.072 83.6004 43.4694 84.267 41.4022C84.776 39.8238 85.417 38.796 86.9921 39.3121Z" fill="#F50057"/>
<path d="M92.2273 35.8333C94.3156 35.8333 96.0085 34.1391 96.0085 32.0493C96.0085 29.9594 94.3156 28.2653 92.2273 28.2653C90.139 28.2653 88.4461 29.9594 88.4461 32.0493C88.4461 34.1391 90.139 35.8333 92.2273 35.8333Z" fill="#FFB6B6"/>
<path d="M92.9227 35.7535C91.8696 35.4894 91.8338 35.1883 90.7807 34.9242C90.4453 34.8402 90.0568 34.7077 89.9574 34.3764C89.9338 34.2552 89.9387 34.1302 89.9715 34.0112C90.0044 33.8922 90.0644 33.7824 90.1468 33.6906C90.3127 33.5087 90.4682 33.3175 90.6124 33.118C90.7079 32.9577 90.7629 32.7765 90.7728 32.5902C90.7827 32.4038 90.7471 32.2178 90.669 32.0483C90.591 31.8788 90.4728 31.7309 90.3249 31.6173C90.1769 31.5038 90.0035 31.428 89.8197 31.3965C89.4939 31.3407 89.158 31.4271 88.8301 31.3853C88.3805 31.328 87.7191 29.6585 88.0074 29.3084C88.288 28.9676 88.7485 28.7643 88.9033 28.3508C89.0045 28.0804 88.9491 27.778 88.9942 27.4927C89.061 27.0698 89.9163 28.2408 89.8024 27.828C89.5232 26.8155 94.2478 26.656 94.7397 27.955C94.9235 28.4405 95.4211 28.5177 95.8039 28.8681C96.0548 29.0978 96.6549 29.8328 96.7419 30.2289C96.8139 30.6294 96.8001 31.0407 96.7012 31.4355C96.3088 33.2861 95.6603 34.9262 93.934 35.6972" fill="#2F2E41"/>
<path d="M122.74 99.946L54.2735 100C54.2181 99.9999 54.165 99.9778 54.1259 99.9385C54.0868 99.8993 54.0649 99.8461 54.0649 99.7907C54.0649 99.7353 54.0868 99.6821 54.1259 99.6429C54.165 99.6037 54.2181 99.5815 54.2735 99.5814L122.74 99.5274C122.768 99.5271 122.795 99.5324 122.821 99.5427C122.846 99.5531 122.869 99.5684 122.889 99.5877C122.909 99.607 122.924 99.6301 122.935 99.6554C122.946 99.6808 122.951 99.7081 122.951 99.7356C122.951 99.7631 122.946 99.7904 122.936 99.8159C122.925 99.8414 122.91 99.8646 122.891 99.8841C122.871 99.9037 122.848 99.9192 122.823 99.9298C122.797 99.9404 122.77 99.9459 122.743 99.946H122.74Z" fill="#CACACA"/>
<path d="M21.7687 46.2661C21.1721 45.6692 20.4626 45.1974 19.6815 44.8784C18.9005 44.5594 18.0636 44.3995 17.2201 44.4082L17.1527 44.4084C16.0022 44.4088 14.8723 44.1035 13.8785 43.5235L13.775 43.4632L13.8583 43.3773C14.3093 42.9104 14.6858 42.3769 14.9748 41.7955C14.7373 42.0165 14.4478 42.1738 14.1332 42.2528C13.8187 42.3318 13.4893 42.3299 13.1756 42.2472C12.6662 42.1074 12.2305 41.7759 11.9596 41.3221C11.347 40.3329 10.3864 38.9226 10.6526 37.9034C11.0362 36.4347 16.2393 38.8173 12.7781 33.0924C12.1749 32.0947 14.1282 31.2042 14.1183 30.0652L14.1179 29.984C14.1178 29.2329 14.2095 28.4846 14.391 27.7558L14.4095 27.6822L14.4851 27.6849C14.973 27.7015 15.4612 27.6605 15.9396 27.5629C15.4909 27.5078 15.0519 27.391 14.6352 27.2157L14.5538 27.1828L14.5814 27.0993C16.4856 25.9194 20.784 26.5304 23.279 20.8179C25.302 16.1859 32.44 24.9298 32.44 29.984C32.44 30.4997 31.93 31.1812 32.3117 31.5221C36.4389 35.2069 33.5912 37.573 32.6934 39.9539C32.4804 40.5188 32.9423 41.1389 32.9423 41.7501C32.9423 41.8538 32.9396 41.9608 32.9344 42.0682L32.9265 42.2334L32.7888 42.1418C32.5166 41.9633 32.2643 41.7561 32.0361 41.5239C32.2728 42.069 32.3844 42.6602 32.3626 43.2541C32.3408 43.848 32.1862 44.4295 31.9102 44.9557C31.4776 45.7727 30.9354 47.1358 30.6665 46.6939C28.6965 43.4578 25.9662 37.6441 26.1579 44.4181C26.2231 46.7216 23.422 47.9451 21.8056 46.3039C21.7932 46.2914 21.7809 46.2788 21.7687 46.2661Z" fill="#E6E6E6"/>
<path d="M20.9544 29.2967C20.9939 29.0253 20.7098 28.7592 20.3199 28.7024C19.93 28.6457 19.5819 28.8197 19.5424 29.0911C19.5029 29.3626 19.787 29.6287 20.177 29.6854C20.5669 29.7422 20.915 29.5682 20.9544 29.2967Z" fill="white"/>
<path d="M25.597 28.8434C25.6364 28.5719 25.3523 28.3058 24.9624 28.2491C24.5725 28.1923 24.2244 28.3663 24.1849 28.6378C24.1455 28.9092 24.4296 29.1753 24.8195 29.2321C25.2094 29.2888 25.5575 29.1148 25.597 28.8434Z" fill="#3F3D56"/>
<path d="M19.6833 25.5355C19.7228 25.264 19.4387 24.998 19.0488 24.9412C18.6588 24.8844 18.3108 25.0584 18.2713 25.3299C18.2318 25.6014 18.5159 25.8674 18.9058 25.9242C19.2958 25.981 19.6439 25.807 19.6833 25.5355Z" fill="#FF6584"/>
<path d="M17.666 23.9949C17.6679 23.7457 17.529 23.5426 17.3558 23.5413C17.1825 23.54 17.0406 23.741 17.0387 23.9902C17.0368 24.2394 17.1757 24.4425 17.3489 24.4438C17.5222 24.4451 17.6641 24.2441 17.666 23.9949Z" fill="#E6E6E6"/>
<path d="M16.9819 21.1253C16.9837 20.8761 16.8448 20.673 16.6716 20.6717C16.4984 20.6704 16.3564 20.8713 16.3545 21.1205C16.3527 21.3698 16.4916 21.5728 16.6648 21.5742C16.838 21.5755 16.98 21.3745 16.9819 21.1253Z" fill="#3F3D56"/>
<path d="M22.3016 26.1756C22.3035 25.9264 22.1646 25.7233 21.9914 25.722C21.8181 25.7207 21.6762 25.9216 21.6743 26.1708C21.6724 26.42 21.8113 26.6231 21.9846 26.6244C22.1578 26.6258 22.2997 26.4248 22.3016 26.1756Z" fill="#E6E6E6"/>
<path d="M20.0582 27.2966C20.06 27.0474 19.9211 26.8443 19.7479 26.843C19.5747 26.8416 19.4327 27.0426 19.4308 27.2918C19.429 27.541 19.5679 27.7441 19.7411 27.7454C19.9143 27.7467 20.0563 27.5458 20.0582 27.2966Z" fill="#FF6584"/>
<path d="M23.1812 29.3685C23.1831 29.1193 23.0442 28.9162 22.871 28.9149C22.6977 28.9135 22.5558 29.1145 22.5539 29.3637C22.552 29.6129 22.6909 29.816 22.8641 29.8173C23.0374 29.8186 23.1793 29.6177 23.1812 29.3685Z" fill="#3F3D56"/>
<path d="M65.2145 48.6065C65.1312 42.8617 63.2005 43.9944 60.9901 47.0454C60.6867 47.4643 60.179 46.1241 59.7465 45.3072C59.4705 44.781 59.3159 44.1995 59.2941 43.6056C59.2723 43.0117 59.3838 42.4204 59.6205 41.8754C59.3923 42.1076 59.14 42.3147 58.8678 42.4932L58.7302 42.5848L58.7222 42.4197C58.717 42.3123 58.7143 42.2053 58.7143 42.1016C58.7143 41.4904 59.1762 40.8703 58.9632 40.3054C58.0654 37.9245 55.2177 35.5583 59.3449 31.8735C59.7267 31.5327 59.2167 30.8512 59.2167 30.3354C59.2167 25.2813 68.9481 16.1466 68.3777 21.1694C67.4421 29.4071 73.1346 27.7699 77.0752 27.4508L77.1028 27.5342L77.0214 27.5672C76.6047 27.7425 76.1657 27.8593 75.717 27.9144C76.1954 28.012 76.6836 28.0529 77.1715 28.0363L77.2471 28.0337L77.2656 28.1073C77.4471 28.8361 77.5388 29.5844 77.5387 30.3354L77.5383 30.4166C77.5366 30.9871 77.6551 31.5516 77.886 32.0732C78.1169 32.5948 78.4551 33.0618 78.8785 33.4439C79.5472 34.0541 80.0816 34.797 80.4476 35.6253C80.8135 36.4536 81.003 37.3492 81.0039 38.2548C81.0039 39.3263 80.2763 40.7328 79.6658 41.724C79.5111 41.9765 79.3012 42.1907 79.052 42.3504C78.8028 42.5102 78.5206 42.6114 78.2268 42.6464C77.9484 42.6816 77.6657 42.655 77.3988 42.5687C77.1318 42.4824 76.887 42.3384 76.6818 42.1469C76.9707 42.7284 77.3473 43.2619 77.7982 43.7288L77.8815 43.8146L77.7781 43.8749C76.7843 44.4549 75.6543 44.7603 74.5039 44.7598L74.4365 44.7597C73.5929 44.7509 72.7561 44.9108 71.9751 45.2298C71.194 45.5488 70.4844 46.0206 69.8879 46.6176C69.2805 47.2438 68.5542 47.7423 67.7517 48.0838C66.9492 48.4254 66.0866 48.6031 65.2145 48.6065Z" fill="#F2F2F2"/>
<path d="M62.69 44.7533C62.1235 46.9701 59.3087 47.6222 57.7595 45.9392C56.094 44.1301 55.2613 45.5376 55.231 49.5559C55.2271 50.0732 54.0666 49.1687 53.2818 48.6809C52.7786 48.3654 52.3524 47.941 52.0347 47.4388C51.717 46.9367 51.5158 46.3697 51.446 45.7795C51.3658 46.0951 51.252 46.4013 51.1066 46.6926L51.0339 46.8412L50.9439 46.7025C50.8853 46.6123 50.8292 46.5212 50.777 46.4316C50.4695 45.9036 50.5564 45.1351 50.0881 44.7544C48.1144 43.1499 44.4635 42.5408 46.1748 37.2774C46.3332 36.7905 45.7441 36.2572 45.2901 36.0132C37.9217 32.0534 42.722 20.6462 48.5921 23.4774C54.204 26.1841 57.0283 24.4612 59.2672 24.5209L59.3331 24.5791L59.2793 24.6486C59.0075 25.01 58.687 25.3322 58.3271 25.6059C58.7895 25.4492 59.2319 25.2385 59.645 24.9783L59.7091 24.9378L59.762 24.9921C60.2856 25.5303 60.7414 26.1306 61.1192 26.7795L61.1598 26.8498C61.4454 27.3436 61.8318 27.7715 62.2938 28.1058C62.7558 28.44 63.283 28.6731 63.841 28.7898C64.7258 28.9799 65.5613 29.3525 66.2943 29.8837C67.0273 30.4148 67.6416 31.093 68.0982 31.875C68.6257 32.7807 68.7128 34.3144 68.6896 35.4704C68.6877 36.0117 68.4723 36.5303 68.0901 36.9133C67.8608 37.138 67.579 37.3018 67.2703 37.3895C66.9616 37.4773 66.6358 37.4863 66.3227 37.4158C66.8649 37.7725 67.4587 38.0436 68.0832 38.2197L68.1984 38.252L68.1394 38.3562C67.5726 39.3581 66.7501 40.1914 65.7559 40.7708L65.6976 40.8046C64.9645 41.2222 64.322 41.782 63.8077 42.4513C63.2935 43.1205 62.9179 43.8857 62.7029 44.7021C62.6987 44.7192 62.6944 44.7362 62.69 44.7533Z" fill="#E6E6E6"/>
<path d="M21.068 41.4072C21.09 41.3938 21.104 41.3736 21.1001 41.3601C20.8888 40.7533 20.5566 40.1958 20.1236 39.7212C19.4457 38.9629 18.1954 38.0388 16.0891 37.943C16.0764 37.9437 16.064 37.9471 16.0527 37.953C16.0414 37.9589 16.0315 37.9671 16.0236 37.9772C16.0087 37.997 16.0272 37.9951 16.0351 38.0148C16.5606 39.3383 17.4281 40.5005 19.6198 40.0597C20.6929 39.8439 21.0051 41.4001 21.0074 41.4081C21.0117 41.4229 21.0359 41.4241 21.0616 41.4109C21.0638 41.4097 21.0659 41.4085 21.068 41.4072Z" fill="#F2F2F2"/>
<path d="M52.8661 42.2865C52.8881 42.273 52.9021 42.2529 52.8982 42.2394C52.6869 41.6326 52.3547 41.0751 51.9217 40.6005C51.2437 39.8422 49.9935 38.9181 47.8872 38.8223C47.8745 38.8229 47.8621 38.8263 47.8508 38.8322C47.8395 38.8381 47.8296 38.8464 47.8217 38.8564C47.8068 38.8763 47.8493 38.8802 47.8332 38.8941C45.2619 41.1148 48.5377 41.1929 51.4179 40.939C52.5082 40.8429 52.8032 42.2793 52.8055 42.2873C52.8098 42.3021 52.834 42.3034 52.8596 42.2902C52.8619 42.289 52.864 42.2878 52.8661 42.2865Z" fill="#F2F2F2"/>
<path d="M26.7994 27.8433C26.8247 27.8481 26.8434 27.8219 26.8548 27.8301C27.3806 28.2106 28.1569 27.7542 27.236 25.9605C26.7713 25.0555 26.9429 23.4173 25.4505 21.9268C25.4407 21.9187 25.4292 21.9128 25.4169 21.9096C25.4046 21.9063 25.3917 21.9057 25.3791 21.9079C25.3548 21.9125 25.3472 21.9284 25.3622 21.9435C26.8417 23.4211 26.6449 24.8608 26.6357 25.8711C26.631 26.5171 26.6706 27.1626 26.754 27.8031C26.7472 27.8169 26.7643 27.8342 26.7921 27.8416C26.7945 27.8423 26.797 27.8429 26.7994 27.8433Z" fill="#F2F2F2"/>
<path d="M50.9337 33.1443C50.9557 33.1309 50.9697 33.1108 50.9658 33.0972C50.6982 32.907 50.4731 32.663 50.3049 32.3808C50.1368 32.0986 50.0293 31.7845 49.9893 31.4584C49.4512 26.4539 48.1136 28.1807 45.9548 29.6801C45.9373 29.6922 45.9043 29.6944 45.8893 29.7143C45.8744 29.7341 45.8795 29.751 45.9008 29.752C47.9888 29.847 48.8123 31.0439 49.4855 31.7969C49.9167 32.2775 50.3804 32.728 50.8731 33.1452C50.8774 33.16 50.9016 33.1613 50.9272 33.148C50.9295 33.1469 50.9316 33.1456 50.9337 33.1443Z" fill="#F2F2F2"/>
<path d="M73.6351 40.0008C73.6132 39.9873 73.5991 39.9672 73.603 39.9536C74.1204 39.5475 74.4685 38.9634 74.5795 38.3148C75.7602 31.1835 76.7593 33.4447 78.614 36.5365C78.625 36.5548 78.6646 36.5509 78.6795 36.5707C78.6944 36.5905 78.6893 36.6074 78.668 36.6084C76.58 36.7034 75.7565 37.9003 75.0833 38.6533C74.6521 39.1339 74.1885 39.5844 73.6957 40.0016C73.6914 40.0164 73.6672 40.0177 73.6416 40.0044C73.6394 40.0033 73.6372 40.002 73.6351 40.0008Z" fill="white"/>
<path d="M27.607 38.5943C27.5851 38.5809 27.571 38.5607 27.5749 38.5472C27.5773 38.5391 28.9086 37.9505 28.5514 36.9083C27.2563 33.1296 29.8899 34.323 32.586 35.1301C32.6107 35.1347 32.6335 35.1466 32.6514 35.1643C32.6663 35.1841 32.6612 35.201 32.64 35.2019C30.5519 35.297 29.7285 36.4939 29.0553 37.2468C28.624 37.7275 28.1604 38.178 27.6676 38.5952C27.6633 38.61 27.6391 38.6113 27.6135 38.598C27.6113 38.5968 27.6091 38.5956 27.607 38.5943Z" fill="#F2F2F2"/>
<path d="M60.4591 36.8363C60.4372 36.8228 60.4231 36.8027 60.427 36.7892C60.8147 36.2825 61.1424 35.7325 61.4035 35.1503C63.8793 29.6921 64.4497 30.5455 65.4381 33.3721C65.4451 33.3922 65.4886 33.3864 65.5035 33.4063C65.5184 33.4261 65.5133 33.443 65.4921 33.4439C63.404 33.539 62.5806 34.7359 61.9074 35.4888C61.4761 35.9695 61.0125 36.42 60.5197 36.8372C60.5154 36.852 60.4912 36.8532 60.4656 36.84C60.4634 36.8388 60.4612 36.8376 60.4591 36.8363Z" fill="#F2F2F2"/>
</svg>
