<svg width="167" height="100" viewBox="0 0 167 100" fill="none" xmlns="http://www.w3.org/2000/svg">
<path d="M166.052 78.036C166.055 78.7058 165.793 79.3495 165.322 79.8255C164.851 80.3016 164.21 80.571 163.54 80.5745H53.0388C52.7073 80.5728 52.3793 80.5058 52.0736 80.3773C51.768 80.2488 51.4906 80.0613 51.2574 79.8256C51.0242 79.5899 50.8397 79.3105 50.7144 79.0035C50.5891 78.6964 50.5255 78.3677 50.5273 78.0361V2.53848C50.5238 1.86874 50.7864 1.22503 51.2574 0.748975C51.7284 0.272918 52.3691 0.00350247 53.0387 0H163.54C163.872 0.001725 164.2 0.0687519 164.505 0.197253C164.811 0.325753 165.088 0.513212 165.322 0.748925C165.555 0.984639 165.739 1.26399 165.865 1.57103C165.99 1.87807 166.053 2.20679 166.052 2.53841V78.036Z" fill="#E6E6E6"/>
<path d="M164.748 76.7999C164.748 77.4508 164.49 78.0752 164.029 78.5355C163.569 78.9958 162.945 79.2544 162.294 79.2544H54.3604C53.7095 79.2544 53.0854 78.9958 52.6252 78.5355C52.165 78.0752 51.9064 77.4508 51.9064 76.7999V3.8095C51.9064 3.15852 52.165 2.53421 52.6252 2.07389C53.0854 1.61358 53.7095 1.35498 54.3604 1.35498H162.299C162.949 1.35629 163.572 1.61547 164.031 2.07564C164.49 2.53581 164.748 3.15938 164.748 3.8095V76.7999Z" fill="white"/>
<path d="M57.675 4.52393H159.095C159.481 4.52393 159.851 4.67742 160.125 4.95064C160.398 5.22387 160.551 5.59444 160.551 5.98084V74.3453C160.551 74.7317 160.398 75.1023 160.125 75.3755C159.851 75.6487 159.481 75.8022 159.095 75.8022H57.675C57.2887 75.8022 56.9182 75.6487 56.6451 75.3755C56.3719 75.1023 56.2184 74.7317 56.2184 74.3453V5.98084C56.2184 5.59444 56.3719 5.22387 56.6451 4.95064C56.9182 4.67742 57.2887 4.52393 57.675 4.52393Z" fill="#E6E6E6"/>
<path d="M58.9588 6.16357H157.701C158.087 6.16357 158.457 6.31707 158.731 6.59029C159.004 6.86352 159.157 7.23409 159.157 7.62048V72.3369C159.157 72.7233 159.004 73.0939 158.731 73.3671C158.457 73.6403 158.087 73.7938 157.701 73.7938H58.9588C58.5725 73.7938 58.202 73.6403 57.9288 73.3671C57.6557 73.0939 57.5022 72.7233 57.5022 72.3369V7.62048C57.5022 7.23409 57.6557 6.86352 57.9288 6.59029C58.202 6.31707 58.5725 6.16357 58.9588 6.16357Z" fill="white"/>
<path d="M128.677 51.1207C128.289 51.1205 127.904 51.0386 127.549 50.8803C127.467 50.8437 127.388 50.7989 127.314 50.7467L120.138 45.6942C119.774 45.4379 119.477 45.0979 119.272 44.7028C119.067 44.3077 118.96 43.8691 118.96 43.4239V36.5333C118.96 36.0882 119.067 35.6495 119.272 35.2544C119.477 34.8593 119.774 34.5193 120.138 34.2631L127.314 29.2105C127.388 29.1583 127.467 29.1136 127.549 29.0769C127.972 28.8889 128.435 28.8096 128.896 28.8461C129.357 28.8825 129.802 29.0337 130.19 29.2858C130.578 29.5379 130.897 29.883 131.117 30.2897C131.338 30.6963 131.454 31.1517 131.454 31.6144V48.3428C131.454 49.0793 131.161 49.7857 130.641 50.3065C130.12 50.8273 129.414 51.1199 128.677 51.1199L128.677 51.1207Z" fill="#3F3D56"/>
<path d="M112.617 52.4753H92.6025C88.5192 52.472 85.21 49.8318 85.2058 46.574V33.383C85.21 30.1252 88.5192 27.485 92.6025 27.4817H112.669C116.724 27.4855 120.009 30.1067 120.014 33.3413V46.574C120.01 49.8318 116.701 52.472 112.617 52.4753Z" fill="#3F3D56"/>
<path d="M148.27 69.6323C151.557 69.6323 154.222 66.9666 154.222 63.6783C154.222 60.39 151.557 57.7244 148.27 57.7244C144.982 57.7244 142.317 60.39 142.317 63.6783C142.317 66.9666 144.982 69.6323 148.27 69.6323Z" fill="#E6E6E6"/>
<path d="M151.362 63.5715L146.617 60.8315C146.598 60.8206 146.577 60.8149 146.555 60.8149C146.533 60.8149 146.512 60.8206 146.493 60.8315C146.475 60.8423 146.459 60.8578 146.448 60.8766C146.438 60.8953 146.432 60.9165 146.432 60.9382V66.4183C146.432 66.44 146.438 66.4612 146.448 66.4799C146.459 66.4987 146.475 66.5142 146.493 66.525C146.512 66.5359 146.533 66.5416 146.555 66.5416C146.577 66.5416 146.598 66.5359 146.617 66.525L151.362 63.785C151.38 63.7742 151.396 63.7586 151.407 63.7399C151.417 63.7211 151.423 63.6999 151.423 63.6783C151.423 63.6566 151.417 63.6354 151.407 63.6166C151.396 63.5979 151.38 63.5823 151.362 63.5715L146.617 60.8315C146.598 60.8206 146.577 60.8149 146.555 60.8149C146.533 60.8149 146.512 60.8206 146.493 60.8315C146.475 60.8423 146.459 60.8578 146.448 60.8766C146.438 60.8953 146.432 60.9165 146.432 60.9382V66.4183C146.432 66.44 146.438 66.4612 146.448 66.4799C146.459 66.4987 146.475 66.5142 146.493 66.525C146.512 66.5359 146.533 66.5416 146.555 66.5416C146.577 66.5416 146.598 66.5359 146.617 66.525L151.362 63.785C151.38 63.7742 151.396 63.7586 151.407 63.7399C151.417 63.7211 151.423 63.6999 151.423 63.6783C151.423 63.6566 151.417 63.6354 151.407 63.6166C151.396 63.5979 151.38 63.5823 151.362 63.5715Z" fill="white"/>
<path d="M140.541 87.0902C140.545 87.76 140.282 88.4037 139.811 88.8797C139.34 89.3558 138.699 89.6252 138.03 89.6287H27.5283C27.1968 89.627 26.8688 89.56 26.5632 89.4315C26.2575 89.303 25.9802 89.1155 25.7469 88.8798C25.5137 88.6441 25.3292 88.3647 25.2039 88.0577C25.0786 87.7506 25.015 87.4219 25.0168 87.0903V11.5927C25.0133 10.9229 25.2759 10.2792 25.7469 9.80317C26.2179 9.32712 26.8586 9.0577 27.5282 9.0542H138.03C138.361 9.05592 138.689 9.12295 138.995 9.25145C139.3 9.37995 139.578 9.56741 139.811 9.80312C140.044 10.0388 140.229 10.3182 140.354 10.6252C140.479 10.9323 140.543 11.261 140.541 11.5926V87.0902Z" fill="#E6E6E6"/>
<path d="M139.238 85.8538C139.238 86.5048 138.979 87.1291 138.519 87.5894C138.059 88.0497 137.435 88.3083 136.784 88.3083H28.8499C28.1991 88.3083 27.5749 88.0497 27.1147 87.5894C26.6545 87.1291 26.396 86.5048 26.396 85.8538V12.8635C26.396 12.2125 26.6545 11.5882 27.1147 11.1278C27.5749 10.6675 28.1991 10.4089 28.8499 10.4089H136.789C137.439 10.4102 138.062 10.6694 138.521 11.1296C138.98 11.5898 139.238 12.2133 139.238 12.8635V85.8538Z" fill="white"/>
<path d="M32.1646 13.5779H133.584C133.971 13.5779 134.341 13.7314 134.614 14.0046C134.887 14.2778 135.041 14.6484 135.041 15.0348V83.3993C135.041 83.7857 134.887 84.1562 134.614 84.4295C134.341 84.7027 133.971 84.8562 133.584 84.8562H32.1646C31.7783 84.8562 31.4078 84.7027 31.1346 84.4295C30.8615 84.1562 30.708 83.7857 30.708 83.3993V15.0348C30.708 14.6484 30.8615 14.2778 31.1346 14.0046C31.4078 13.7314 31.7783 13.5779 32.1646 13.5779Z" fill="#E6E6E6"/>
<path d="M33.4483 15.2178H132.19C132.576 15.2178 132.947 15.3713 133.22 15.6445C133.493 15.9177 133.647 16.2883 133.647 16.6747V81.3911C133.647 81.7775 133.493 82.1481 133.22 82.4213C132.947 82.6945 132.576 82.848 132.19 82.848H33.4483C33.062 82.848 32.6915 82.6945 32.4184 82.4213C32.1452 82.1481 31.9918 81.7775 31.9918 81.3911V16.6747C31.9918 16.2883 32.1452 15.9177 32.4184 15.6445C32.6915 15.3713 33.062 15.2178 33.4483 15.2178Z" fill="white"/>
<path d="M103.167 60.1749C102.778 60.1747 102.394 60.0928 102.039 59.9345C101.956 59.8979 101.878 59.8531 101.804 59.8009L94.6277 54.7484C94.2638 54.4921 93.9668 54.1521 93.7617 53.757C93.5566 53.3619 93.4496 52.9233 93.4495 52.4781V45.5875C93.4496 45.1424 93.5566 44.7037 93.7617 44.3086C93.9667 43.9135 94.2638 43.5735 94.6277 43.3173L101.804 38.2647C101.878 38.2125 101.956 38.1678 102.039 38.1311C102.462 37.9431 102.925 37.8638 103.386 37.9002C103.847 37.9367 104.292 38.0879 104.68 38.34C105.068 38.5921 105.386 38.9372 105.607 39.3439C105.828 39.7505 105.943 40.2059 105.943 40.6686V57.397C105.943 58.1335 105.651 58.8399 105.13 59.3607C104.609 59.8815 103.903 60.1741 103.167 60.1741L103.167 60.1749Z" fill="#3F3D56"/>
<path d="M87.1067 61.5297H67.0921C63.0087 61.5264 59.6996 58.8863 59.6954 55.6285V42.4374C59.6996 39.1796 63.0087 36.5395 67.0921 36.5361H87.1589C91.2132 36.54 94.4986 39.1612 94.5034 42.3957V55.6285C94.4992 58.8863 91.1901 61.5264 87.1067 61.5297Z" fill="#3F3D56"/>
<path d="M122.759 78.6865C126.047 78.6865 128.712 76.0208 128.712 72.7325C128.712 69.4442 126.047 66.7786 122.759 66.7786C119.472 66.7786 116.807 69.4442 116.807 72.7325C116.807 76.0208 119.472 78.6865 122.759 78.6865Z" fill="#E6E6E6"/>
<path d="M125.851 72.6257L121.106 69.8857C121.088 69.8748 121.066 69.8691 121.045 69.8691C121.023 69.8691 121.002 69.8748 120.983 69.8857C120.964 69.8965 120.949 69.912 120.938 69.9308C120.927 69.9495 120.922 69.9707 120.922 69.9924V75.4725C120.922 75.4942 120.927 75.5154 120.938 75.5341C120.949 75.5529 120.964 75.5684 120.983 75.5792C121.002 75.5901 121.023 75.5958 121.045 75.5958C121.066 75.5958 121.088 75.5901 121.106 75.5792L125.851 72.8392C125.87 72.8284 125.885 72.8128 125.896 72.7941C125.907 72.7753 125.913 72.7541 125.913 72.7325C125.913 72.7108 125.907 72.6896 125.896 72.6708C125.885 72.6521 125.87 72.6365 125.851 72.6257L121.106 69.8857C121.088 69.8748 121.066 69.8691 121.045 69.8691C121.023 69.8691 121.002 69.8748 120.983 69.8857C120.964 69.8965 120.949 69.912 120.938 69.9308C120.927 69.9495 120.922 69.9707 120.922 69.9924V75.4725C120.922 75.4942 120.927 75.5154 120.938 75.5341C120.949 75.5529 120.964 75.5684 120.983 75.5792C121.002 75.5901 121.023 75.5958 121.045 75.5958C121.066 75.5958 121.088 75.5901 121.106 75.5792L125.851 72.8392C125.87 72.8284 125.885 72.8128 125.896 72.7941C125.907 72.7753 125.913 72.7541 125.913 72.7325C125.913 72.7108 125.907 72.6896 125.896 72.6708C125.885 72.6521 125.87 72.6365 125.851 72.6257Z" fill="white"/>
<path d="M115.524 97.4616C115.528 98.1313 115.265 98.775 114.794 99.2511C114.323 99.7271 113.683 99.9966 113.013 100H2.51158C2.18003 99.9983 1.85207 99.9313 1.54643 99.8028C1.24078 99.6743 0.963425 99.4868 0.730207 99.2511C0.496988 99.0154 0.312469 98.7361 0.187186 98.429C0.061903 98.122 -0.00169079 97.7933 3.45617e-05 97.4616V21.964C-0.00346661 21.2943 0.259166 20.6506 0.730159 20.1745C1.20115 19.6985 1.84192 19.429 2.51151 19.4255H113.013C113.344 19.4273 113.672 19.4943 113.978 19.6228C114.284 19.7513 114.561 19.9387 114.794 20.1745C115.028 20.4102 115.212 20.6895 115.337 20.9966C115.463 21.3036 115.526 21.6323 115.524 21.9639V97.4616Z" fill="#E6E6E6"/>
<path d="M114.221 96.2252C114.221 96.8761 113.962 97.5005 113.502 97.9608C113.042 98.4211 112.418 98.6797 111.767 98.6797H3.83321C3.18239 98.6797 2.55822 98.4211 2.09802 97.9608C1.63781 97.5005 1.37927 96.8761 1.37927 96.2252V23.2348C1.37927 22.5838 1.63781 21.9595 2.09802 21.4992C2.55822 21.0389 3.18239 20.7803 3.83321 20.7803H111.772C112.422 20.7816 113.045 21.0408 113.504 21.5009C113.963 21.9611 114.221 22.5847 114.221 23.2348V96.2252Z" fill="white"/>
<path d="M7.14785 23.9492H108.567C108.954 23.9492 109.324 24.1027 109.597 24.3759C109.871 24.6492 110.024 25.0197 110.024 25.4061V93.7706C110.024 94.157 109.871 94.5276 109.597 94.8008C109.324 95.074 108.954 95.2275 108.567 95.2275H7.14785C6.76154 95.2275 6.39106 95.074 6.1179 94.8008C5.84474 94.5276 5.69128 94.157 5.69128 93.7706V25.4061C5.69128 25.0197 5.84474 24.6492 6.1179 24.3759C6.39106 24.1027 6.76154 23.9492 7.14785 23.9492Z" fill="#E6E6E6"/>
<path d="M8.4316 25.5891H107.173C107.365 25.5891 107.554 25.6268 107.731 25.7C107.908 25.7732 108.068 25.8805 108.203 26.0158C108.339 26.1511 108.446 26.3117 108.519 26.4885C108.592 26.6652 108.63 26.8547 108.63 27.046V91.7624C108.63 91.9538 108.592 92.1432 108.519 92.32C108.446 92.4967 108.339 92.6574 108.203 92.7926C108.068 92.9279 107.908 93.0352 107.731 93.1085C107.554 93.1817 107.365 93.2194 107.173 93.2194H8.4316C8.0453 93.2194 7.67481 93.0659 7.40165 92.7926C7.1285 92.5194 6.97504 92.1488 6.97504 91.7624V27.046C6.97504 26.6596 7.1285 26.2891 7.40165 26.0158C7.67481 25.7426 8.0453 25.5891 8.4316 25.5891Z" fill="white"/>
<path d="M78.1501 70.5463C77.7615 70.546 77.3772 70.4641 77.0222 70.3059C76.9396 70.2692 76.8608 70.2244 76.7871 70.1722L69.6109 65.1197C69.247 64.8635 68.95 64.5235 68.7449 64.1284C68.5399 63.7332 68.4328 63.2946 68.4327 62.8495V55.9589C68.4328 55.5137 68.5399 55.0751 68.7449 54.68C68.95 54.2849 69.247 53.9449 69.6109 53.6886L76.7871 48.6361C76.8608 48.5839 76.9396 48.5391 77.0222 48.5024C77.4449 48.3145 77.9079 48.2351 78.369 48.2716C78.8302 48.3081 79.2749 48.4592 79.6629 48.7114C80.0508 48.9635 80.3695 49.3085 80.5902 49.7152C80.8109 50.1219 80.9265 50.5773 80.9265 51.04V67.7683C80.9265 68.5049 80.634 69.2112 80.1133 69.732C79.5926 70.2528 78.8864 70.5454 78.1501 70.5454L78.1501 70.5463Z" fill="#F50057"/>
<path d="M62.0899 71.9008H42.0753C37.9919 71.8975 34.6828 69.2574 34.6786 65.9996V52.8085C34.6828 49.5507 37.992 46.9106 42.0753 46.9072H62.1421C66.1964 46.9111 69.4818 49.5323 69.4866 52.7668V65.9996C69.4824 69.2574 66.1733 71.8975 62.0899 71.9008Z" fill="#F50057"/>
<path d="M97.7428 89.0576C101.03 89.0576 103.695 86.3919 103.695 83.1036C103.695 79.8153 101.03 77.1497 97.7428 77.1497C94.4553 77.1497 91.7902 79.8153 91.7902 83.1036C91.7902 86.3919 94.4553 89.0576 97.7428 89.0576Z" fill="#3F3D56"/>
<path d="M100.835 82.9971L96.0897 80.257C96.071 80.2462 96.0497 80.2405 96.0281 80.2405C96.0065 80.2405 95.9852 80.2462 95.9665 80.257C95.9478 80.2678 95.9322 80.2834 95.9214 80.3021C95.9106 80.3208 95.9049 80.3421 95.9049 80.3637V85.8439C95.9049 85.8655 95.9106 85.8867 95.9214 85.9055C95.9322 85.9242 95.9478 85.9398 95.9665 85.9506C95.9852 85.9614 96.0065 85.9671 96.0281 85.9671C96.0497 85.9671 96.071 85.9614 96.0897 85.9506L100.835 83.2105C100.853 83.1997 100.869 83.1841 100.88 83.1654C100.89 83.1467 100.896 83.1254 100.896 83.1038C100.896 83.0822 100.89 83.0609 100.88 83.0422C100.869 83.0234 100.853 83.0079 100.835 82.9971L96.0897 80.257C96.071 80.2462 96.0497 80.2405 96.0281 80.2405C96.0065 80.2405 95.9852 80.2462 95.9665 80.257C95.9478 80.2678 95.9322 80.2834 95.9214 80.3021C95.9106 80.3208 95.9049 80.3421 95.9049 80.3637V85.8439C95.9049 85.8655 95.9106 85.8867 95.9214 85.9055C95.9322 85.9242 95.9478 85.9398 95.9665 85.9506C95.9852 85.9614 96.0065 85.9671 96.0281 85.9671C96.0497 85.9671 96.071 85.9614 96.0897 85.9506L100.835 83.2105C100.853 83.1997 100.869 83.1841 100.88 83.1654C100.89 83.1467 100.896 83.1254 100.896 83.1038C100.896 83.0822 100.89 83.0609 100.88 83.0422C100.869 83.0234 100.853 83.0079 100.835 82.9971Z" fill="white"/>
</svg>
